<svg width="54" height="54" viewBox="0 0 54 54" fill="none" xmlns="http://www.w3.org/2000/svg">
<circle cx="18" cy="18" r="5.75" stroke="#1F51FF" stroke-width="2" stroke-linecap="round"/>
<path d="M26.3696 19.0625C26.9829 18.0002 27.9931 17.2251 29.178 16.9076C30.3628 16.5901 31.6252 16.7563 32.6875 17.3696C33.7498 17.9829 34.5249 18.9931 34.8424 20.178C35.1599 21.3628 34.9937 22.6252 34.3804 23.6875C33.7671 24.7498 32.7569 25.5249 31.572 25.8424C30.3872 26.1599 29.1248 25.9937 28.0625 25.3804C27.0002 24.7671 26.2251 23.7569 25.9076 22.572C25.5901 21.3872 25.7563 20.1248 26.3696 19.0625L26.3696 19.0625Z" stroke="#1F51FF" stroke-width="2"/>
<path d="M30.3184 40.6325L31.3143 40.5417L30.3184 40.6325ZM29.375 40.625H6.62503V42.625H29.375V40.625ZM6.67749 40.7234C6.81391 39.2279 7.29211 36.2884 8.91914 33.7493C10.5069 31.2714 13.212 29.125 18 29.125V27.125C12.4673 27.125 9.1553 29.6737 7.23519 32.6702C5.35432 35.6055 4.83372 38.9197 4.68576 40.5417L6.67749 40.7234ZM18 29.125C22.7881 29.125 25.4931 31.2714 27.0809 33.7493C28.7079 36.2884 29.1861 39.2279 29.3226 40.7234L31.3143 40.5417C31.1663 38.9197 30.6457 35.6055 28.7649 32.6702C26.8448 29.6737 23.5328 27.125 18 27.125V29.125ZM6.62503 40.625C6.61876 40.625 6.63057 40.6236 6.64699 40.6406C6.65522 40.6491 6.66432 40.6622 6.67067 40.6798C6.6774 40.6984 6.67829 40.7146 6.67749 40.7234L4.68576 40.5417C4.57725 41.7312 5.54001 42.625 6.62503 42.625V40.625ZM29.375 42.625C30.46 42.625 31.4228 41.7312 31.3143 40.5417L29.3226 40.7234C29.3218 40.7146 29.3227 40.6984 29.3294 40.6798C29.3357 40.6622 29.3448 40.6491 29.3531 40.6406C29.3695 40.6236 29.3813 40.625 29.375 40.625V42.625Z" fill="#1F51FF"/>
<path d="M39.21 40.5354L40.1936 40.355L39.21 40.5354ZM26.5508 31.4567L26.015 30.6124L24.9847 31.2662L25.8282 32.148L26.5508 31.4567ZM30.3184 40.6325L29.3225 40.7234L30.3184 40.6325ZM38.2701 40.625H29.375V42.625H38.2701V40.625ZM38.2264 40.7158C38.2252 40.7095 38.2246 40.6948 38.2296 40.677C38.2343 40.6606 38.2419 40.6484 38.2487 40.6406C38.2625 40.6248 38.2746 40.625 38.2701 40.625V42.625C39.4375 42.625 40.4216 41.5982 40.1936 40.355L38.2264 40.7158ZM30.3751 31.375C33.0895 31.375 34.8928 32.9121 36.132 34.9213C37.3849 36.9525 37.9759 39.3501 38.2264 40.7158L40.1936 40.355C39.9262 38.897 39.2794 36.2143 37.8343 33.8713C36.3755 31.5062 34.0203 29.375 30.3751 29.375V31.375ZM27.0866 32.3011C27.9833 31.732 29.0597 31.375 30.3751 31.375V29.375C28.6713 29.375 27.2246 29.8448 26.015 30.6124L27.0866 32.3011ZM25.8282 32.148C28.4699 34.9095 29.1536 38.8718 29.3225 40.7234L31.3143 40.5417C31.1353 38.58 30.4022 34.0362 27.2734 30.7655L25.8282 32.148ZM29.3225 40.7234C29.3217 40.7146 29.3226 40.6984 29.3294 40.6798C29.3357 40.6622 29.3448 40.6491 29.353 40.6406C29.3695 40.6236 29.3813 40.625 29.375 40.625V42.625C30.46 42.625 31.4228 41.7312 31.3143 40.5417L29.3225 40.7234Z" fill="#1F51FF"/>
<rect x="24.5" y="7.5" width="7" height="1" rx="0.5" stroke="#1F51FF" stroke-linecap="round"/>
<rect x="28.5" y="4.5" width="7" height="1" rx="0.5" transform="rotate(90 28.5 4.5)" stroke="#1F51FF" stroke-linecap="round"/>
</svg>
