<svg width="67" height="68" viewBox="0 0 67 68" fill="none" xmlns="http://www.w3.org/2000/svg">
<path d="M66.1244 41.1675C70.3073 23.1083 59.0919 5.06964 41.0741 0.877086C23.0562 -3.31547 5.05896 7.92571 0.876027 25.985C-3.30691 44.0442 7.90849 62.0829 25.9263 66.2754C43.9442 70.468 61.9414 59.2268 66.1244 41.1675Z" fill="#627EEA"/>
<path d="M34.545 8.41312V27.0209L50.2448 34.0957L34.545 8.41312Z" fill="white" fill-opacity="0.6"/>
<path d="M34.5448 8.41312L18.8541 34.0957L34.5448 27.0665V8.41312Z" fill="white"/>
<path d="M34.545 46.111V58.7563L50.2539 36.9758L34.545 46.111Z" fill="white" fill-opacity="0.6"/>
<path d="M34.5448 58.7569V46.1025L18.8541 36.9855L34.5448 58.7569Z" fill="white"/>
<path d="M34.545 43.2117L50.2448 34.0947L34.545 27.0199V43.2117Z" fill="white" fill-opacity="0.2"/>
<path d="M18.8541 34.0947L34.5448 43.2117V27.0199L18.8541 34.0947Z" fill="white" fill-opacity="0.6"/>
</svg>
