<svg width="27" height="27" viewBox="0 0 27 27" fill="none" xmlns="http://www.w3.org/2000/svg">
<path d="M16.25 6H11.75C8.56802 6 6.97703 6 5.98851 7.00421C5 8.00841 5 9.62465 5 12.8571V15.1429C5 18.3753 5 19.9916 5.98851 20.9958C6.97703 22 8.56802 22 11.75 22H16.25C19.432 22 21.023 22 22.0115 20.9958C23 19.9916 23 18.3753 23 15.1429V12.8571C23 9.62465 23 8.00841 22.0115 7.00421C21.023 6 19.432 6 16.25 6Z" stroke="#1F51FF" stroke-width="1.5"/>
<path d="M9 10H12" stroke="#1F51FF" stroke-width="1.5" stroke-linecap="round"/>
<path d="M21 18H19C18.0572 18 17.5858 18 17.2929 17.7071C17 17.4142 17 16.9428 17 16C17 15.0572 17 14.5858 17.2929 14.2929C17.5858 14 18.0572 14 19 14H21C21.9428 14 22.4142 14 22.7071 14.2929C23 14.5858 23 15.0572 23 16C23 16.9428 23 17.4142 22.7071 17.7071C22.4142 18 21.9428 18 21 18Z" stroke="#1F51FF" stroke-width="1.5"/>
</svg>
