<svg width="29" height="29" viewBox="0 0 29 29" fill="none" xmlns="http://www.w3.org/2000/svg">
<g clip-path="url(#clip0_624_14034)">
<path d="M14.5 29C22.5081 29 29 22.5081 29 14.5C29 6.49187 22.5081 0 14.5 0C6.49187 0 0 6.49187 0 14.5C0 22.5081 6.49187 29 14.5 29Z" fill="#172852"/>
<path d="M11.6794 6.4801C13.3774 5.845 15.2885 5.84355 17.0183 6.36555C19.2702 7.06445 21.1711 8.76385 22.1644 10.8968C22.4384 11.5044 22.7009 12.138 22.727 12.8137C21.4611 12.08 20.0735 11.6044 18.6829 11.1709C16.4586 10.369 14.1299 9.81221 12.0245 8.7102C11.5344 8.4173 10.9095 8.11715 10.7761 7.5067C10.7224 6.9789 11.2807 6.68455 11.6794 6.4801Z" fill="#FFD83D"/>
<path d="M6.5539 11.6131C7.04545 10.2791 7.85165 9.04084 8.9464 8.12299C9.2248 10.4125 10.1992 12.6252 11.8087 14.2898C13.7387 16.2952 16.4879 17.5262 19.2849 17.4798C20.3956 17.5146 21.4817 17.258 22.5648 17.0506C21.4991 20.9018 17.2781 23.4582 13.3675 22.8434C11.0069 22.5418 8.8275 21.144 7.51235 19.1705C6.029 16.9897 5.6549 14.0941 6.5539 11.6131Z" fill="#FFD83D"/>
<path d="M18.6836 11.1708C20.0741 11.6044 21.4618 12.08 22.7276 12.8137L22.8132 12.8586C22.9306 13.7417 23.0162 14.6421 22.8596 15.5266C22.223 15.2569 21.7068 14.7828 21.1674 14.3637C20.1292 13.4995 19.0693 12.5106 18.6836 11.1708Z" fill="#FF6F03"/>
</g>
<defs>
<clipPath id="clip0_624_14034">
<rect width="29" height="29" fill="white"/>
</clipPath>
</defs>
</svg>
