<svg width="20" height="19" viewBox="0 0 20 19" fill="none" xmlns="http://www.w3.org/2000/svg">
<path d="M7.89393 4.0037C8.69295 2.01175 9.09246 1.01578 9.77946 1.01578C10.4665 1.01578 10.866 2.01175 11.665 4.0037L11.7022 4.09645C12.1536 5.2218 12.3793 5.78448 12.8393 6.12648C13.2993 6.46848 13.9031 6.52256 15.1108 6.63072L15.3291 6.65027C17.3057 6.82728 18.2939 6.91579 18.5054 7.54454C18.7168 8.17329 17.9829 8.84101 16.5151 10.1764L16.0252 10.6221C15.2821 11.2982 14.9106 11.6362 14.7374 12.0792C14.7051 12.1618 14.6783 12.2465 14.6571 12.3326C14.5432 12.7945 14.652 13.2848 14.8696 14.2655L14.9373 14.5708C15.3372 16.3731 15.5372 17.2743 15.1881 17.663C15.0576 17.8082 14.8881 17.9128 14.6997 17.9642C14.1957 18.1017 13.4801 17.5186 12.0489 16.3524C11.1091 15.5867 10.6393 15.2038 10.0998 15.1176C9.88758 15.0837 9.67134 15.0837 9.45914 15.1176C8.91965 15.2038 8.44977 15.5867 7.51 16.3524C6.07881 17.5186 5.36322 18.1017 4.85919 17.9642C4.67084 17.9128 4.5013 17.8082 4.37085 17.663C4.02175 17.2743 4.22169 16.3731 4.62158 14.5708L4.68931 14.2655C4.90689 13.2848 5.01569 12.7945 4.90187 12.3326C4.88063 12.2465 4.85378 12.1618 4.82148 12.0792C4.64831 11.6362 4.27679 11.2982 3.53374 10.6221L3.04385 10.1764C1.576 8.84101 0.842077 8.17329 1.05354 7.54454C1.265 6.91579 2.25326 6.82728 4.22978 6.65027L4.44811 6.63072C5.65579 6.52256 6.25963 6.46848 6.71962 6.12648C7.17962 5.78448 7.40532 5.2218 7.85673 4.09645L7.89393 4.0037Z" stroke="white" stroke-width="2"/>
</svg>
