<svg width="37" height="35" viewBox="0 0 37 35" fill="none" xmlns="http://www.w3.org/2000/svg">
<path d="M15.1644 6.10657C16.5779 2.70219 17.2847 1 18.5 1C19.7153 1 20.4221 2.70219 21.8356 6.10658L21.9014 6.2651C22.7 8.18841 23.0993 9.15006 23.913 9.73457C24.7268 10.3191 25.795 10.4115 27.9315 10.5964L28.3177 10.6298C31.8143 10.9323 33.5626 11.0836 33.9367 12.1581C34.3108 13.2327 33.0124 14.3739 30.4157 16.6563L29.5491 17.418C28.2346 18.5734 27.5773 19.151 27.271 19.9082C27.2138 20.0494 27.1663 20.1941 27.1288 20.3414C26.9274 21.1307 27.1199 21.9687 27.5048 23.6448L27.6246 24.1665C28.332 27.2469 28.6858 28.787 28.0682 29.4513C27.8374 29.6996 27.5375 29.8783 27.2043 29.9661C26.3126 30.2012 25.0467 29.2046 22.5148 27.2115C20.8523 25.9027 20.021 25.2483 19.0667 25.1011C18.6913 25.0432 18.3087 25.0432 17.9333 25.1011C16.979 25.2483 16.1477 25.9027 14.4852 27.2115C11.9533 29.2046 10.6874 30.2012 9.79572 29.9661C9.46253 29.8783 9.1626 29.6996 8.93182 29.4513C8.31424 28.787 8.66795 27.2469 9.37537 24.1665L9.49519 23.6448C9.88012 21.9687 10.0726 21.1307 9.87122 20.3414C9.83366 20.1941 9.78616 20.0494 9.72901 19.9082C9.42267 19.151 8.76542 18.5734 7.45092 17.418L6.58427 16.6563C3.98756 14.3739 2.6892 13.2327 3.06329 12.1581C3.43738 11.0836 5.18568 10.9323 8.68227 10.6298L9.06851 10.5964C11.205 10.4115 12.2732 10.3191 13.087 9.73457C13.9007 9.15006 14.3 8.18841 15.0986 6.2651L15.1644 6.10657Z" stroke="#143C7C" stroke-width="2" stroke-linecap="round" stroke-linejoin="round"/>
</svg>
