<svg width="31" height="31" viewBox="0 0 31 31" fill="none" xmlns="http://www.w3.org/2000/svg">
<path fill-rule="evenodd" clip-rule="evenodd" d="M19.2979 3.80477C18.158 3.20958 16.8643 2.875 15.4995 2.875C11.3132 2.875 7.79638 6.02272 7.33408 10.1834L7.00884 13.1106C6.94732 13.6643 6.92104 13.8961 6.88067 14.1205C6.75854 14.7995 6.53671 15.4567 6.22236 16.0708C6.11847 16.2737 5.99888 16.4741 5.71227 16.9517L4.8344 18.4148L4.7969 18.4773L4.79689 18.4774C4.42628 19.0949 4.09184 19.6521 3.89761 20.1205C3.6941 20.6112 3.52535 21.2815 3.90029 21.9437C4.27523 22.6059 4.93686 22.8061 5.46236 22.8841C5.96387 22.9585 6.61379 22.9584 7.33398 22.9583H7.334L7.40688 22.9583H23.5921L23.665 22.9583H23.665C24.3852 22.9584 25.0351 22.9585 25.5366 22.8841C26.0621 22.8061 26.7238 22.6059 27.0987 21.9437C27.4737 21.2815 27.3049 20.6112 27.1014 20.1205C26.9072 19.6521 26.5727 19.0949 26.2021 18.4774L26.1646 18.4148L25.2867 16.9517C25.0001 16.4741 24.8805 16.2737 24.7766 16.0708C24.4623 15.4567 24.2405 14.7995 24.1183 14.1205C24.0824 13.9207 24.0576 13.7151 24.0092 13.2818C23.7606 13.3157 23.5068 13.3332 23.2488 13.3332C22.8148 13.3332 22.3923 13.2836 21.9867 13.1899L22.0024 13.3315L22.0066 13.3688L22.0066 13.369C22.0627 13.8744 22.0962 14.176 22.1499 14.4746C22.3069 15.3475 22.5922 16.1925 22.9963 16.9821C23.1345 17.2521 23.2907 17.5123 23.5524 17.9485L23.5717 17.9807L24.4496 19.4438C24.8699 20.1443 25.1237 20.5724 25.254 20.8866L25.2607 20.9031L25.2431 20.9057C24.9067 20.9557 24.409 20.9583 23.5921 20.9583H7.40688C6.58999 20.9583 6.09234 20.9557 5.75586 20.9057L5.7383 20.9031L5.74504 20.8866C5.87535 20.5724 6.1291 20.1443 6.54939 19.4438L7.42726 17.9807L7.44661 17.9485C7.7083 17.5123 7.86447 17.2521 8.00268 16.9821C8.40684 16.1925 8.69205 15.3475 8.84908 14.4746C8.90278 14.176 8.9363 13.8744 8.99245 13.3688L8.9966 13.3315L9.32185 10.4043C9.67161 7.25645 12.3323 4.875 15.4995 4.875C16.4446 4.875 17.3445 5.08704 18.1515 5.46821C18.431 4.84474 18.8215 4.28187 19.2979 3.80477ZM21.6904 5.68935C21.0958 6.13977 20.7022 6.84163 20.668 7.63664C21.0811 8.25402 21.3874 8.95137 21.5589 9.70377C22.0119 10.0959 22.6027 10.3332 23.2488 10.3332C23.3949 10.3332 23.5382 10.321 23.6776 10.2977L23.6649 10.1834C23.4736 8.46143 22.7591 6.91297 21.6904 5.68935ZM25.3204 21.0886C25.3206 21.0933 25.3209 21.0958 25.3211 21.0959C25.3212 21.096 25.3212 21.0954 25.3211 21.0942C25.321 21.093 25.3208 21.0912 25.3204 21.0886ZM25.4505 20.8588C25.4546 20.8565 25.457 20.8555 25.4571 20.8556C25.4573 20.8557 25.4553 20.8568 25.4505 20.8588ZM5.54185 20.8556C5.54203 20.8556 5.5444 20.8565 5.54845 20.8588C5.5437 20.8568 5.54168 20.8557 5.54185 20.8556ZM5.6784 21.0924C5.67847 21.0913 5.67854 21.0901 5.67858 21.0886C5.67806 21.0921 5.67786 21.0943 5.67784 21.0953C5.67783 21.0958 5.67786 21.096 5.67791 21.0959C5.67802 21.0959 5.67823 21.0946 5.6784 21.0924Z" fill="#1F51FF"/>
<path d="M11.757 22.8169C11.9778 24.0528 12.4643 25.1449 13.141 25.9239C13.8178 26.7028 14.647 27.125 15.5 27.125C16.353 27.125 17.1822 26.7028 17.8589 25.9239C18.5357 25.1449 19.0222 24.0528 19.243 22.8169" stroke="#1F51FF" stroke-width="2" stroke-linecap="round"/>
<circle cx="23.2513" cy="7.74984" r="3.08333" fill="white" stroke="white"/>
</svg>
