<svg width="24" height="24" viewBox="0 0 24 24" fill="none" xmlns="http://www.w3.org/2000/svg">
<path d="M15 3H9C6.79086 3 5 4.79086 5 7V15" stroke="white" stroke-width="1.5"/>
<path d="M8.75 11.5C8.75 10.3098 8.75112 9.47987 8.82277 8.84426C8.89272 8.22376 9.02187 7.88193 9.21495 7.63029C9.33466 7.47429 9.47429 7.33466 9.63029 7.21496C9.88193 7.02187 10.2238 6.89272 10.8443 6.82277C11.4799 6.75112 12.3098 6.75 13.5 6.75C14.6902 6.75 15.5201 6.75112 16.1557 6.82277C16.7762 6.89272 17.1181 7.02187 17.3697 7.21495C17.5257 7.33466 17.6653 7.47429 17.785 7.63029C17.9781 7.88193 18.1073 8.22376 18.1772 8.84426C18.2489 9.47987 18.25 10.3098 18.25 11.5V15.5C18.25 16.6902 18.2489 17.5201 18.1772 18.1557C18.1073 18.7762 17.9781 19.1181 17.785 19.3697C17.6653 19.5257 17.5257 19.6653 17.3697 19.785C17.1181 19.9781 16.7762 20.1073 16.1557 20.1772C15.5201 20.2489 14.6902 20.25 13.5 20.25C12.3098 20.25 11.4799 20.2489 10.8443 20.1772C10.2238 20.1073 9.88193 19.9781 9.63029 19.785C9.47429 19.6653 9.33466 19.5257 9.21495 19.3697C9.02187 19.1181 8.89272 18.7762 8.82277 18.1557C8.75112 17.5201 8.75 16.6902 8.75 15.5V11.5Z" stroke="white" stroke-width="1.5"/>
</svg>
