<svg width="39" height="28" viewBox="0 0 39 28" fill="none" xmlns="http://www.w3.org/2000/svg">
<path d="M8.4 9.92857V17.0714M30.6 9.92857V17.0714M1 6.71429L1 20.2857C1 22.2859 1 23.286 1.40328 24.05C1.75801 24.722 2.32404 25.2683 3.02023 25.6107C3.81171 26 4.8478 26 6.92 26L32.08 26C34.1522 26 35.1883 26 35.9798 25.6107C36.676 25.2683 37.242 24.722 37.5967 24.05C38 23.286 38 22.2859 38 20.2857V6.71429C38 4.7141 38 3.71401 37.5967 2.95004C37.242 2.27803 36.676 1.73167 35.9798 1.38926C35.1883 1 34.1522 1 32.08 1L6.92 1C4.84781 1 3.81171 1 3.02024 1.38926C2.32404 1.73167 1.75801 2.27803 1.40328 2.95003C1 3.714 1 4.7141 1 6.71429ZM24.125 13.5C24.125 15.9656 22.0543 17.9643 19.5 17.9643C16.9457 17.9643 14.875 15.9656 14.875 13.5C14.875 11.0344 16.9457 9.03571 19.5 9.03571C22.0543 9.03571 24.125 11.0344 24.125 13.5Z" stroke="#143C7C" stroke-width="2" stroke-linecap="round" stroke-linejoin="round"/>
</svg>
