<svg width="63" height="63" viewBox="0 0 63 63" fill="none" xmlns="http://www.w3.org/2000/svg">
<g filter="url(#filter0_d_0_1829)">
<path d="M51.3319 39.8605C49.9631 43.0983 47.8222 45.9514 45.0964 48.1704C42.3706 50.3894 39.1429 51.9067 35.6954 52.5897C32.2479 53.2726 28.6856 53.1005 25.32 52.0882C21.9544 51.076 18.8879 49.2545 16.3887 46.783C13.8894 44.3115 12.0335 41.2653 10.9832 37.9106C9.93284 34.5559 9.72007 30.9949 10.3635 27.539C11.0068 24.0831 12.4868 20.8374 14.674 18.0857C16.8611 15.3341 19.6889 13.1602 22.91 11.7542M51.3938 23.2532C52.2551 25.3331 52.7835 27.532 52.9628 29.769C53.0071 30.3217 53.0292 30.598 52.9195 30.8469C52.8279 31.0548 52.6463 31.2516 52.4464 31.3596C52.2071 31.4889 51.9082 31.4889 51.3104 31.4889H33.2374C32.6349 31.4889 32.3337 31.4889 32.1035 31.3716C31.9011 31.2684 31.7365 31.1038 31.6334 30.9013C31.5162 30.6712 31.5162 30.3698 31.5162 29.7672V11.6896C31.5162 11.0916 31.5162 10.7926 31.6454 10.5533C31.7534 10.3534 31.9501 10.1717 32.158 10.0801C32.4068 9.97034 32.6831 9.99249 33.2356 10.0368C35.4721 10.2161 37.6704 10.7446 39.7498 11.6062C42.3601 12.6877 44.732 14.2729 46.7299 16.2713C48.7278 18.2697 50.3126 20.6421 51.3938 23.2532Z" stroke="#1F51FF" stroke-width="2" stroke-linecap="round" stroke-linejoin="round" shape-rendering="crispEdges"/>
</g>
<defs>
<filter id="filter0_d_0_1829" x="0" y="0" width="63" height="62.9996" filterUnits="userSpaceOnUse" color-interpolation-filters="sRGB">
<feFlood flood-opacity="0" result="BackgroundImageFix"/>
<feColorMatrix in="SourceAlpha" type="matrix" values="0 0 0 0 0 0 0 0 0 0 0 0 0 0 0 0 0 0 127 0" result="hardAlpha"/>
<feOffset/>
<feGaussianBlur stdDeviation="4.5"/>
<feComposite in2="hardAlpha" operator="out"/>
<feColorMatrix type="matrix" values="0 0 0 0 0.121569 0 0 0 0 0.317647 0 0 0 0 1 0 0 0 0.6 0"/>
<feBlend mode="normal" in2="BackgroundImageFix" result="effect1_dropShadow_0_1829"/>
<feBlend mode="normal" in="SourceGraphic" in2="effect1_dropShadow_0_1829" result="shape"/>
</filter>
</defs>
</svg>
