<svg width="159" height="28" viewBox="0 0 159 28" fill="none" xmlns="http://www.w3.org/2000/svg">
<path d="M86.3094 8.07341C86.2432 6.61434 86.0004 5.61124 85.6525 4.74204C85.2936 3.81941 84.7415 2.99337 84.0182 2.30669C83.3115 1.60932 82.4557 1.06743 81.5172 0.724193C80.6174 0.386194 79.5904 0.150245 78.0888 0.0859141C76.5759 0.0161351 76.0956 0 72.2585 0C68.4215 0 67.9412 0.0161351 66.4339 0.0804659C64.9323 0.144797 63.8999 0.380956 63.0055 0.718745C62.0558 1.06743 61.2056 1.60387 60.4989 2.30669C59.7812 2.99337 59.2237 3.82485 58.8702 4.7368C58.5223 5.61124 58.2795 6.60889 58.2133 8.06796C58.1415 9.53793 58.1249 10.0046 58.1249 13.7328C58.1249 17.4611 58.1415 17.9278 58.2077 19.3923C58.2739 20.8513 58.5169 21.8545 58.8648 22.7236C59.2237 23.6463 59.7812 24.4723 60.4989 25.159C61.2056 25.8564 62.0614 26.3983 62.9999 26.7415C63.8999 27.0795 64.9267 27.3154 66.4285 27.3798C67.9356 27.4443 68.4161 27.4602 72.2532 27.4602C76.0902 27.4602 76.5705 27.4443 78.0778 27.3798C79.5794 27.3154 80.6118 27.0795 81.5062 26.7415C83.4055 26.028 84.9072 24.5689 85.6415 22.7236C85.9891 21.8492 86.2322 20.8513 86.2984 19.3923C86.3646 17.9278 86.3812 17.4611 86.3812 13.7328C86.3812 10.0046 86.3756 9.53793 86.3094 8.07341ZM83.7644 19.285C83.7036 20.6261 83.4717 21.3503 83.2785 21.8331C82.8036 23.0294 81.8264 23.9788 80.5952 24.4403C80.0983 24.628 79.3476 24.8533 77.9727 24.9122C76.4821 24.9767 76.035 24.9926 72.2642 24.9926C68.4933 24.9926 68.0406 24.9767 66.5553 24.9122C65.1751 24.8533 64.4298 24.628 63.9329 24.4403C63.3202 24.2202 62.7625 23.8715 62.3098 23.4156C61.8405 22.9703 61.4817 22.4338 61.2552 21.8385C61.062 21.3557 60.8301 20.6261 60.7695 19.2904C60.7031 17.8421 60.6867 17.4075 60.6867 13.7435C60.6867 10.0796 60.7031 9.63977 60.7695 8.19683C60.8301 6.85574 61.062 6.13154 61.2552 5.64875C61.4817 5.05322 61.8405 4.51154 62.3154 4.07149C62.7735 3.61552 63.3256 3.26683 63.9385 3.04702C64.4354 2.85926 65.1863 2.634 66.561 2.57491C68.0516 2.51058 68.4989 2.49444 72.2695 2.49444C76.046 2.49444 76.4931 2.51058 77.9784 2.57491C79.3586 2.634 80.1039 2.85926 80.6008 3.04702C81.2135 3.26683 81.7712 3.61552 82.2239 4.07149C82.6932 4.51678 83.052 5.05322 83.2785 5.64875C83.4717 6.13154 83.7036 6.86097 83.7644 8.19683C83.8306 9.64522 83.8472 10.0796 83.8472 13.7435C83.8472 17.4075 83.8306 17.8366 83.7644 19.285Z" fill="white"/>
<path d="M72.2474 6.67838C68.2393 6.67838 64.9874 9.83793 64.9874 13.7326C64.9874 17.6272 68.2393 20.7867 72.2474 20.7867C76.2557 20.7867 79.5075 17.6272 79.5075 13.7326C79.5075 9.83793 76.2557 6.67838 72.2474 6.67838ZM72.2474 18.3084C69.6472 18.3084 67.538 16.2593 67.538 13.7326C67.538 11.2058 69.6472 9.15669 72.2474 9.15669C74.8479 9.15669 76.9568 11.2058 76.9568 13.7326C76.9568 16.2593 74.8479 18.3084 72.2474 18.3084Z" fill="white"/>
<path d="M81.5003 6.40656C81.5003 7.31599 80.7414 8.05339 79.8052 8.05339C78.8692 8.05339 78.1103 7.31599 78.1103 6.40656C78.1103 5.49692 78.8692 4.75973 79.8052 4.75973C80.7414 4.75973 81.5003 5.49692 81.5003 6.40656Z" fill="white"/>
<path fill-rule="evenodd" clip-rule="evenodd" d="M2.9194 14.3234V26.8748C2.9194 27.0261 3.08622 27.1773 3.25304 27.1773H8.42455C8.59137 27.1773 8.7582 27.0261 8.7582 26.8748V14.0965H12.5117C12.6785 14.0965 12.8454 13.9453 12.8454 13.7941L13.179 9.93791C13.179 9.71108 13.0122 9.55986 12.8454 9.55986H8.7582V6.91346C8.7582 6.30857 9.34208 5.77929 10.0094 5.77929H12.8454C13.0122 5.77929 13.179 5.62807 13.179 5.47685V1.54506C13.3458 1.39384 13.179 1.24262 12.9288 1.24262H8.0909C5.25492 1.24262 2.9194 3.35973 2.9194 5.93052V9.63547H0.333646C0.166823 9.63547 0 9.78669 0 9.93791V13.7941C0 13.9453 0.166823 14.0965 0.333646 14.0965H2.9194V14.3234Z" fill="white"/>
<path d="M158.935 5.30734C157.992 5.72247 157.049 5.97154 156.021 6.13759C156.449 6.05457 157.135 5.22432 157.478 4.89222C157.907 4.39407 158.25 3.8129 158.421 3.23172C158.421 3.1487 158.507 3.1487 158.421 3.06567C158.335 3.06567 158.335 3.06567 158.25 3.06567C157.135 3.64685 156.021 4.06197 154.821 4.31104C154.735 4.31104 154.649 4.31104 154.563 4.22802C154.478 4.14499 154.392 3.97895 154.22 3.89592C153.706 3.4808 153.192 3.1487 152.592 2.89962C151.82 2.56752 150.877 2.4845 150.02 2.4845C149.163 2.56752 148.306 2.73357 147.62 3.1487C146.848 3.56382 146.162 4.06197 145.648 4.72617C145.134 5.39037 144.705 6.13759 144.448 6.96784C144.276 7.79809 144.276 8.54531 144.362 9.37556C144.362 9.54161 144.362 9.54161 144.276 9.54161C139.562 8.87741 135.618 7.21692 132.447 3.72987C132.275 3.56382 132.275 3.56382 132.104 3.72987C130.818 5.80549 131.504 9.04346 133.218 10.6209C133.475 10.87 133.647 11.0361 133.904 11.2021C133.818 11.2021 132.618 11.1191 131.589 10.6209C131.418 10.5379 131.418 10.6209 131.332 10.704C131.332 10.953 131.332 11.1191 131.332 11.3682C131.589 13.4438 133.047 15.2703 135.104 16.0176C135.361 16.1006 135.618 16.1836 135.875 16.2666C135.447 16.3497 134.933 16.4327 133.647 16.3497C133.475 16.3497 133.389 16.4327 133.475 16.5157C134.418 19.0895 136.561 19.9197 138.19 20.3348C138.361 20.3348 138.619 20.3348 138.79 20.4179C138.276 21.1651 136.476 21.7463 135.618 22.0784C134.075 22.5765 132.361 22.8256 130.732 22.6595C130.475 22.6595 130.389 22.6595 130.303 22.6595C130.218 22.7426 130.303 22.7426 130.389 22.8256C130.732 23.0747 131.075 23.2407 131.418 23.4068C132.447 23.9049 133.561 24.4031 134.675 24.6521C140.505 26.2296 147.105 25.0673 151.477 20.833C154.906 17.512 156.106 12.9456 156.106 8.37926C156.106 8.21321 156.364 8.13019 156.449 8.04716C157.307 7.38297 158.078 6.63574 158.764 5.72247C158.935 5.55642 158.935 5.39037 158.935 5.30734C159.021 5.22432 159.021 5.22432 158.935 5.30734Z" fill="white"/>
</svg>
