<svg width="21" height="18" viewBox="0 0 21 18" fill="none" xmlns="http://www.w3.org/2000/svg">
<path d="M7.02216 7.147C8.31069 6.01349 9.61193 4.89269 10.8852 3.74394C12.0162 2.72734 13.1039 1.65737 14.24 0.643313C14.5424 0.373915 14.9491 0.0689498 15.3176 0.0537008C16.9111 -0.012378 18.5071 0.0257326 20.3269 0.0257326C20.1289 0.316129 19.9106 0.592147 19.6737 0.851717C17.2466 3.01961 14.8296 5.20021 12.3618 7.31982C11.635 7.94502 11.5638 8.42536 12.1077 9.23609C13.7088 11.6734 15.2286 14.1641 16.7662 16.642C16.9772 16.9851 17.1144 17.374 17.3813 17.9432C15.6378 17.9432 14.0773 17.9966 12.5524 17.9026C12.2068 17.8797 11.8205 17.3943 11.5816 17.0283C10.5497 15.4805 9.5484 13.9201 8.57755 12.3266C8.06925 11.4701 7.63973 11.5997 6.87474 12.0978C5.24819 13.1576 4.96608 14.8198 4.71956 16.4743C4.54928 17.6383 4.0664 18.0144 2.90239 17.9992C-0.200768 17.9458 -0.27955 17.9814 0.246539 15.0561C0.98103 10.9897 1.85784 6.93605 2.65841 2.87221C3.23025 -0.0250941 3.22009 -0.025086 6.18855 0.00541185C7.82781 0.0232023 8.01588 0.244305 7.68548 1.88865C7.43133 3.1594 7.11111 4.43014 6.84425 5.71868C6.76038 6.12024 6.74767 6.53704 6.70193 6.94622L7.02216 7.147Z" fill="#1F51FF"/>
</svg>
