<svg width="12" height="18" viewBox="0 0 12 18" fill="none" xmlns="http://www.w3.org/2000/svg">
<path d="M5.89902 1.46176L5.16812 0.730864L5.89902 -3.01682e-05L6.62991 0.730864L5.89902 1.46176ZM6.93266 16.9664C6.93266 17.5372 6.46988 18 5.89902 18C5.32815 18 4.86538 17.5372 4.86538 16.9664L6.93266 16.9664ZM-7.78656e-05 5.89906L5.16812 0.730864L6.62991 2.19265L1.46171 7.36085L-7.78656e-05 5.89906ZM6.62991 0.730864L11.7981 5.89906L10.3363 7.36085L5.16812 2.19265L6.62991 0.730864ZM6.93266 1.46176L6.93266 16.9664L4.86538 16.9664L4.86538 1.46176L6.93266 1.46176Z" fill="white"/>
</svg>
