<svg width="29" height="29" viewBox="0 0 29 29" fill="none" xmlns="http://www.w3.org/2000/svg">
<path d="M11.5328 23.9473L11.849 24.896L11.5328 23.9473ZM17.7828 21.864L18.099 22.8127L18.099 22.8127L17.7828 21.864ZM23.8734 8.75127L24.5806 9.45837L23.8734 8.75127ZM10.5818 14.2071L11.2889 13.5L10.5818 14.2071ZM5.1259 8.75127L4.41879 9.45837L5.1259 8.75127ZM5.83301 5.83337H23.1663V3.83337H5.83301V5.83337ZM5.83301 8.04416V5.83337H3.83301V8.04416H5.83301ZM11.2889 13.5L5.83301 8.04416L4.41879 9.45837L9.87467 14.9142L11.2889 13.5ZM9.87467 14.9142V23.473H11.8747V14.9142H9.87467ZM9.87467 23.473C9.87467 24.4968 10.8777 25.2198 11.849 24.896L11.2166 22.9987C11.5403 22.8907 11.8747 23.1317 11.8747 23.473H9.87467ZM11.849 24.896L18.099 22.8127L17.4666 20.9153L11.2166 22.9987L11.849 24.896ZM18.099 22.8127C18.7115 22.6085 19.1247 22.0353 19.1247 21.3897H17.1247C17.1247 21.1744 17.2624 20.9834 17.4665 20.9153L18.099 22.8127ZM19.1247 21.3897V14.9143H17.1247V21.3897H19.1247ZM23.1663 8.04416L17.7105 13.5L19.1247 14.9143L24.5806 9.45837L23.1663 8.04416ZM23.1663 5.83337V8.04416H25.1663V5.83337H23.1663ZM24.5806 9.45837C24.9556 9.0833 25.1663 8.57459 25.1663 8.04416H23.1663L24.5806 9.45837ZM19.1247 14.9143L17.7105 13.5C17.3354 13.8751 17.1247 14.3838 17.1247 14.9143H19.1247ZM9.87467 14.9142H11.8747C11.8747 14.3838 11.664 13.8751 11.2889 13.5L9.87467 14.9142ZM3.83301 8.04416C3.83301 8.57459 4.04372 9.0833 4.41879 9.45837L5.83301 8.04416L5.83301 8.04416H3.83301ZM23.1663 5.83337H25.1663C25.1663 4.7288 24.2709 3.83337 23.1663 3.83337V5.83337ZM5.83301 3.83337C4.72844 3.83337 3.83301 4.7288 3.83301 5.83337H5.83301H5.83301V3.83337Z" fill="#1F51FF"/>
</svg>
