<svg width="103" height="103" viewBox="0 0 103 103" fill="none" xmlns="http://www.w3.org/2000/svg">
<g clip-path="url(#clip0_624_13876)">
<path d="M51.5 103C79.9427 103 103 79.9427 103 51.5C103 23.0573 79.9427 0 51.5 0C23.0573 0 0 23.0573 0 51.5C0 79.9427 23.0573 103 51.5 103Z" fill="#F7931A"/>
<path d="M74.6391 45.1269C75.6498 38.3804 70.5095 34.7528 63.4862 32.3323L65.765 23.1911L60.203 21.807L57.9821 30.7069C56.5208 30.3399 55.0208 29.9987 53.5241 29.6576L55.7612 20.6998L50.1992 19.3125L47.9203 28.4505C46.71 28.1737 45.5191 27.9033 44.3668 27.6137L44.3732 27.5847L36.6997 25.6695L35.2191 31.6113C35.2191 31.6113 39.3488 32.5577 39.2619 32.6156C41.515 33.1789 41.9205 34.6692 41.8529 35.8537L39.2586 46.2663C39.4131 46.3049 39.6127 46.3629 39.838 46.4498L39.249 46.3049L35.6118 60.8923C35.335 61.5747 34.6365 62.6015 33.0593 62.212C33.1173 62.2925 29.0166 61.2045 29.0166 61.2045L26.2549 67.5712L33.4971 69.3769C34.8425 69.7149 36.1622 70.069 37.4593 70.4005L35.1579 79.6448L40.7167 81.0288L42.9956 71.8876C44.5148 72.2963 45.989 72.6762 47.431 73.0367L45.1586 82.1393L50.7206 83.5233L53.022 74.2984C62.5109 76.0945 69.6436 75.3703 72.6467 66.7891C75.0672 59.8816 72.5276 55.8936 67.5353 53.2961C71.1725 52.4592 73.9085 50.0677 74.6391 45.1269ZM61.9251 62.9523C60.2095 69.863 48.5737 66.126 44.8013 65.1893L47.8591 52.942C51.6315 53.8851 63.7243 55.7488 61.9251 62.9523ZM63.6471 45.0271C62.0796 51.3133 52.3976 48.1171 49.2593 47.3349L52.0274 36.2302C55.1657 37.0124 65.2822 38.4705 63.6471 45.0271Z" fill="white"/>
</g>
<defs>
<clipPath id="clip0_624_13876">
<rect width="103" height="103" fill="white"/>
</clipPath>
</defs>
</svg>
