<svg width="74" height="46" viewBox="0 0 74 46" fill="none" xmlns="http://www.w3.org/2000/svg">
<path d="M74.0004 0.182113C71.7039 2.00569 69.3922 3.81156 67.1158 5.6579C65.5174 6.95287 63.8278 8.18715 62.4494 9.68193C61.4533 10.7571 60.7352 12.0595 60.3577 13.4758C58.648 20.6234 54.237 25.3834 47.7115 28.4236C46.4267 29.023 45.1975 29.7438 43.6369 30.5709L56.4273 45.4706C55.5496 45.5212 55.107 45.5668 54.6568 45.5668C50.7365 45.5668 46.8162 45.4706 42.8984 45.5946C38.0144 45.7463 34.1776 43.8646 31.1299 40.1238C29.0407 37.5465 26.8706 35.0325 24.7359 32.4881C23.7394 31.3018 23.0161 31.2234 21.883 32.2933C20.2415 33.826 19.1969 35.7432 18.5216 37.8576C17.6161 40.6828 16.2453 43.2019 13.3847 44.3704C11.7855 45.0099 10.0972 45.3989 8.37936 45.5237C5.8223 45.7134 3.24248 45.5794 0.670248 45.5718C0.442043 45.5388 0.217576 45.4837 0 45.4074C1.71482 39.967 3.67498 34.8099 8.22508 31.0439C12.0746 27.8595 16.4932 25.7325 20.9952 23.7242C27.4144 20.8687 33.8943 18.1321 40.2933 15.2488C48.311 11.6421 56.2856 7.93927 64.2806 4.282C67.1099 2.98703 69.9427 1.69881 72.7788 0.41733C73.1405 0.25293 73.5376 0.136579 73.8993 0L74.0004 0.182113Z" fill="#1F51FF"/>
</svg>
