<svg width="17" height="18" viewBox="0 0 17 18" fill="none" xmlns="http://www.w3.org/2000/svg">
<path d="M4.73143 16.2H1.8C1.23194 16.2 0.771429 15.7395 0.771429 15.1714V9C0.771429 8.43194 1.23194 7.97143 1.8 7.97143H4.73143C4.81664 7.97143 4.88571 8.0405 4.88571 8.12571V16.0457C4.88571 16.1309 4.81664 16.2 4.73143 16.2Z" stroke="#00972A" stroke-width="1.5" stroke-linecap="round"/>
<path d="M4.88571 7.97143L6.77011 5.14484C6.88275 4.97588 6.94286 4.77735 6.94286 4.57429V1.8C6.94286 1.23194 7.40336 0.771429 7.97143 0.771429H9C10.1361 0.771429 11.0571 1.69244 11.0571 2.82857V7.97143" stroke="#00972A" stroke-width="1.5" stroke-linecap="round"/>
<path d="M9 7.97143H13.9016C15.1277 7.97143 16.0816 9.03716 15.9462 10.2557L15.3748 15.3986C15.259 16.4404 14.3784 17.2286 13.3302 17.2286H9.42605C9.15325 17.2286 8.89163 17.1202 8.69874 16.9273L8.27269 16.5013C8.0798 16.3084 7.81817 16.2 7.54538 16.2H4.88571" stroke="#00972A" stroke-width="1.5" stroke-linecap="round"/>
</svg>
