<svg width="19" height="19" viewBox="0 0 19 19" fill="none" xmlns="http://www.w3.org/2000/svg">
<path d="M5.8102 7.9838L9.5 4.294L13.1917 7.9857L15.3387 5.8387L9.5 0L3.6632 5.8368L5.8102 7.9838ZM0 9.5L2.147 7.353L4.294 9.5L2.147 11.647L0 9.5ZM5.8102 11.0162L9.5 14.706L13.1917 11.0143L15.3387 13.1604L9.5 19L3.6632 13.1632L3.66035 13.1604L5.8102 11.0162ZM14.706 9.5L16.853 7.353L19 9.5L16.853 11.647L14.706 9.5ZM11.6774 9.4981H11.6793V9.5L9.5 11.6793L7.32355 9.5038L7.31975 9.5L7.32355 9.49715L7.7045 9.11525L7.88975 8.93L9.5 7.3207L11.6783 9.49905L11.6774 9.4981Z" fill="white"/>
</svg>
