<svg width="36" height="26" viewBox="0 0 36 26" fill="none" xmlns="http://www.w3.org/2000/svg">
<mask id="mask0_717_25275" style="mask-type:alpha" maskUnits="userSpaceOnUse" x="0" y="0" width="36" height="26">
<path d="M32.5714 0H3.42857C1.53502 0 0 1.55208 0 3.46667V22.5333C0 24.4479 1.53502 26 3.42857 26H32.5714C34.465 26 36 24.4479 36 22.5333V3.46667C36 1.55208 34.465 0 32.5714 0Z" fill="white"/>
</mask>
<g mask="url(#mask0_717_25275)">
<path d="M32.5714 0H3.42857C1.53502 0 0 1.55208 0 3.46667V22.5333C0 24.4479 1.53502 26 3.42857 26H32.5714C34.465 26 36 24.4479 36 22.5333V3.46667C36 1.55208 34.465 0 32.5714 0Z" fill="white"/>
<path fill-rule="evenodd" clip-rule="evenodd" d="M0 0H15.4286V12.1333H0V0Z" fill="#444379"/>
<path fill-rule="evenodd" clip-rule="evenodd" d="M1.71484 1.73328V3.46661H3.42913V1.73328H1.71484ZM5.14342 1.73328V3.46661H6.8577V1.73328H5.14342ZM8.57199 1.73328V3.46661H10.2863V1.73328H8.57199ZM12.0006 1.73328V3.46661H13.7148V1.73328H12.0006ZM10.2863 3.46661V5.19994H12.0006V3.46661H10.2863ZM6.8577 3.46661V5.19994H8.57199V3.46661H6.8577ZM3.42913 3.46661V5.19994H5.14342V3.46661H3.42913ZM1.71484 5.19994V6.93328H3.42913V5.19994H1.71484ZM5.14342 5.19994V6.93328H6.8577V5.19994H5.14342ZM8.57199 5.19994V6.93328H10.2863V5.19994H8.57199ZM12.0006 5.19994V6.93328H13.7148V5.19994H12.0006ZM1.71484 8.66661V10.3999H3.42913V8.66661H1.71484ZM5.14342 8.66661V10.3999H6.8577V8.66661H5.14342ZM8.57199 8.66661V10.3999H10.2863V8.66661H8.57199ZM12.0006 8.66661V10.3999H13.7148V8.66661H12.0006ZM10.2863 6.93328V8.66661H12.0006V6.93328H10.2863ZM6.8577 6.93328V8.66661H8.57199V6.93328H6.8577ZM3.42913 6.93328V8.66661H5.14342V6.93328H3.42913Z" fill="#A7B6E7"/>
<path fill-rule="evenodd" clip-rule="evenodd" d="M15.4286 0V1.73333H36V0H15.4286ZM15.4286 3.46667V5.2H36V3.46667H15.4286ZM15.4286 6.93333V8.66667H36V6.93333H15.4286ZM15.4286 10.4V12.1333H36V10.4H15.4286ZM0 13.8667V15.6H36V13.8667H0ZM0 17.3333V19.0667H36V17.3333H0ZM0 20.8V22.5333H36V20.8H0ZM0 24.2667V26H36V24.2667H0Z" fill="#ED4C49"/>
<path d="M32.5717 0.866699H3.42885C2.00869 0.866699 0.857422 2.03076 0.857422 3.4667V22.5334C0.857422 23.9693 2.00869 25.1334 3.42885 25.1334H32.5717C33.9919 25.1334 35.1431 23.9693 35.1431 22.5334V3.4667C35.1431 2.03076 33.9919 0.866699 32.5717 0.866699Z" stroke="black" stroke-opacity="0.1"/>
</g>
</svg>
