<svg width="46" height="44" viewBox="0 0 46 44" fill="none" xmlns="http://www.w3.org/2000/svg">
<path d="M35.931 38.7756C32.1724 41.5212 27.6457 43 22.9998 43C18.3538 43 13.8272 41.5212 10.0685 38.7756M32.6439 1.00045C36.8196 3.04812 40.2434 6.37234 42.4246 10.4967C44.6057 14.621 45.4322 19.3337 44.7856 23.9593M1.21412 23.9591C0.567531 19.3335 1.39403 14.6208 3.57517 10.4965C5.7563 6.37213 9.18009 3.04791 13.3558 1.00024M21.7553 8.86074L11.0443 19.6297C10.6087 20.0677 10.3909 20.2867 10.3093 20.5392C10.2375 20.7613 10.2375 21.0006 10.3093 21.2227C10.3909 21.4752 10.6087 21.6942 11.0443 22.1322L21.7553 32.9011C22.1909 33.3391 22.4087 33.5581 22.6598 33.6401C22.8808 33.7123 23.1188 33.7123 23.3397 33.6401C23.5908 33.5581 23.8087 33.3391 24.2443 32.9011L34.9552 22.1322C35.3909 21.6942 35.6087 21.4752 35.6903 21.2227C35.7621 21.0006 35.7621 20.7613 35.6903 20.5392C35.6087 20.2867 35.3909 20.0677 34.9552 19.6297L24.2443 8.86075C23.8087 8.42277 23.5908 8.20378 23.3397 8.12173C23.1188 8.04956 22.8808 8.04956 22.6598 8.12173C22.4087 8.20378 22.1909 8.42277 21.7553 8.86074Z" stroke="#143C7C" stroke-width="2" stroke-linecap="round" stroke-linejoin="round"/>
</svg>
