<svg width="10" height="8" viewBox="0 0 10 8" fill="none" xmlns="http://www.w3.org/2000/svg">
<path d="M0.175697 5.32663C0.107628 4.3546 -0.0720749 3.36895 0.0313906 2.41598C0.074955 2.02118 0.665797 1.52291 1.1205 1.36499C2.2913 0.953852 3.54921 0.779591 4.72001 0.365729C6.04385 -0.0994805 7.48308 -0.121456 8.82051 0.303111C9.67002 0.54816 10.1819 1.04098 9.54477 1.87142C8.69248 3.06076 7.73768 4.17319 6.6913 5.19594C5.55046 6.25238 4.20813 7.10188 2.98833 8.0004L0.1403 5.27762L0.175697 5.32663ZM6.28289 4.03059C6.72398 3.35262 7.2168 2.9197 7.14329 2.63108C7.04254 2.24172 6.50887 1.964 6.16036 1.63727C5.88808 1.97489 5.40343 2.30435 5.38982 2.65287C5.3762 3.00138 5.82818 3.36896 6.28289 4.03059Z" fill="#1F51FF"/>
</svg>
