<svg width="43" height="43" viewBox="0 0 43 43" fill="none" xmlns="http://www.w3.org/2000/svg">
<mask id="mask0_745_35325" style="mask-type:luminance" maskUnits="userSpaceOnUse" x="0" y="0" width="43" height="43">
<path d="M43 0H0V43H43V0Z" fill="white"/>
</mask>
<g mask="url(#mask0_745_35325)">
<path d="M21.5 43C33.3741 43 43 33.3741 43 21.5C43 9.62591 33.3741 0 21.5 0C9.62591 0 0 9.62591 0 21.5C0 33.3741 9.62591 43 21.5 43Z" fill="#2775CA"/>
<path d="M17.4688 36.449C17.4688 36.9529 17.0656 37.2385 16.5953 37.0873C10.0781 35.0045 5.375 28.924 5.375 21.7182C5.375 14.5292 10.0781 8.43187 16.5953 6.34905C17.0825 6.19788 17.4688 6.48343 17.4688 6.98733V8.2471C17.4688 8.58304 17.2168 8.96935 16.8977 9.08697C11.741 10.985 8.0625 15.9401 8.0625 21.7182C8.0625 27.5131 11.741 32.4514 16.8977 34.3326C17.2168 34.4503 17.4688 34.8365 17.4688 35.1725V36.449Z" fill="white"/>
<path d="M22.8429 31.7964C22.8429 32.1659 22.5406 32.4683 22.1711 32.4683H20.8273C20.4578 32.4683 20.1554 32.1659 20.1554 31.7964V29.68C17.216 29.2769 15.7883 27.6475 15.402 25.3967C15.3348 25.0105 15.6371 24.6745 16.0234 24.6745H17.552C17.8711 24.6745 18.1398 24.9097 18.207 25.212C18.4926 26.5389 19.2652 27.5636 21.6168 27.5636C23.3468 27.5636 24.5898 26.5894 24.5898 25.1448C24.5898 23.7003 23.8676 23.146 21.3145 22.7261C17.552 22.2222 15.7715 21.08 15.7715 18.1405C15.7715 15.8729 17.5015 14.0925 20.1554 13.7229V11.6401C20.1554 11.2706 20.4578 10.9683 20.8273 10.9683H22.1711C22.5406 10.9683 22.8429 11.2706 22.8429 11.6401V13.7733C25.0098 14.1597 26.3871 15.3858 26.8406 17.435C26.9246 17.8214 26.6223 18.1741 26.2192 18.1741H24.8082C24.5059 18.1741 24.2539 17.9725 24.1699 17.687C23.7836 16.3936 22.8598 15.8225 21.2473 15.8225C19.4668 15.8225 18.5429 16.6792 18.5429 17.8886C18.5429 19.1651 19.0637 19.8034 21.8015 20.1897C25.4968 20.6936 27.4117 21.7519 27.4117 24.8928C27.4117 27.278 25.6312 29.2097 22.8598 29.6464V31.7964H22.8429Z" fill="white"/>
<path d="M26.4047 37.0874C25.9175 37.2386 25.5312 36.9531 25.5312 36.4492V35.1893C25.5312 34.8198 25.7496 34.4671 26.1023 34.3495C31.2422 32.4683 34.9375 27.5132 34.9375 21.7351C34.9375 15.9401 31.2589 11.0018 26.1023 9.12059C25.7832 9.00306 25.5312 8.61673 25.5312 8.28079V7.02103C25.5312 6.51712 25.9344 6.23157 26.4047 6.38274C32.9219 8.43196 37.625 14.5292 37.625 21.7182C37.625 28.9242 32.9219 35.0046 26.4047 37.0874Z" fill="white"/>
</g>
</svg>
