<svg width="65" height="52" viewBox="0 0 65 52" fill="none" xmlns="http://www.w3.org/2000/svg">
<path d="M61.8494 0.865307L64.0002 5.8249C60.8462 7.29714 58.2767 9.89257 56.4657 12.8711C54.5219 16.0681 53.4167 19.7633 53.4167 23.1111L53.4167 23.8611L54.1667 23.8611L64.25 23.8611L64.25 51.25L38.7127 51.25L38.7127 30.6482C38.7127 14.766 48.2784 3.97818 61.8494 0.865307ZM23.9329 0.865135L26.086 5.82491C22.9308 7.29713 20.3607 9.89252 18.5494 12.871C16.6052 16.0681 15.5 19.7633 15.5 23.1111L15.5 23.8611L16.25 23.8611L26.2873 23.8611L26.2873 51.25L0.749992 51.25L0.749994 30.6482C0.749995 14.7674 10.3591 3.97559 23.9329 0.865135Z" stroke="#1F51FF" stroke-width="1.5"/>
</svg>
