<svg width="175" height="57" viewBox="0 0 175 57" fill="none" xmlns="http://www.w3.org/2000/svg">
<path d="M73.77 10.7392C71.4806 12.5571 69.176 14.3573 66.9068 16.1979C65.3133 17.4888 63.629 18.7193 62.2549 20.2094C61.2619 21.2812 60.5461 22.5796 60.1697 23.9914C58.4653 31.1168 54.068 35.862 47.5629 38.8927C46.2821 39.4902 45.0567 40.2088 43.501 41.0333L56.2515 55.8866C55.3766 55.9371 54.9354 55.9825 54.4866 55.9825C50.5785 55.9825 46.6704 55.8866 42.7648 56.0102C37.896 56.1615 34.0711 54.2856 31.0329 50.5565C28.9503 47.9872 26.7869 45.481 24.6589 42.9445C23.6655 41.762 22.9444 41.6838 21.8148 42.7503C20.1784 44.2783 19.1371 46.1895 18.4639 48.2973C17.5613 51.1137 16.1947 53.625 13.343 54.7898C11.7488 55.4273 10.0657 55.8151 8.35327 55.9396C5.80417 56.1287 3.23238 55.995 0.668161 55.9875C0.440666 55.9546 0.216898 55.8997 0 55.8236C1.70948 50.4002 3.66354 45.2591 8.19946 41.5048C12.037 38.3304 16.4418 36.2099 20.9298 34.208C27.329 31.3614 33.7887 28.6333 40.1678 25.7589C48.1605 22.1634 56.1104 18.4722 64.0804 14.8263C66.9009 13.5353 69.7249 12.2511 72.5521 10.9736C72.9127 10.8098 73.3085 10.6938 73.6691 10.5576L73.77 10.7392Z" fill="#1F51FF"/>
<path d="M69.5213 4.39306C63.0515 6.7043 56.58 9.01723 50.1068 11.3318C41.4964 14.4003 32.8985 17.4789 24.2755 20.5045C21.913 21.3366 19.5328 22.2695 17.0795 22.678C11.8527 23.5781 7.85891 17.194 9.91634 12.88C11.588 9.37527 14.248 7.23967 17.8964 6.12271C22.2634 4.78639 26.5573 3.20046 30.9596 2.00785C38.085 0.0739698 44.8624 1.01948 51.0296 5.23015C53.2384 6.74297 55.4874 7.3254 58.1449 6.65219C61.7555 5.73946 65.414 5.02088 69.0548 4.22665C69.2174 4.20902 69.3814 4.20902 69.544 4.22665L69.5213 4.39306Z" fill="#1F51FF"/>
<path d="M78.5961 44.0087C78.823 49.475 74.5443 53.9378 68.9872 54.4875C66.0221 54.7825 63.3217 54.3438 60.992 52.3771C59.1841 50.8643 58.4353 48.7615 58.5235 46.5427C58.7757 40.2065 63.1074 36.1622 68.9544 35.9933C70.6715 35.9429 72.5398 36.1244 74.1081 36.7648C77.285 38.0608 78.8659 40.6074 78.5961 44.0087ZM69.3553 39.8485C65.6489 39.8485 62.651 43.6179 63.4604 47.2638C63.9193 49.3288 65.3237 50.5037 67.4441 50.6046C71.0043 50.771 73.0743 48.9203 73.6845 45.0223C74.1762 41.8857 72.4742 39.8535 69.3553 39.8485Z" fill="#1F51FF"/>
<path d="M105.519 43.4488C106.798 42.3243 108.089 41.2123 109.352 40.0727C110.474 39.0641 111.553 38.0026 112.68 36.9966C112.98 36.7294 113.383 36.4268 113.749 36.4117C115.33 36.3461 116.913 36.3839 118.719 36.3839C118.522 36.672 118.306 36.9459 118.071 37.2034C115.663 39.3541 113.265 41.5174 110.817 43.6202C110.096 44.2405 110.025 44.717 110.565 45.5213C112.153 47.9393 113.661 50.4103 115.186 52.8686C115.395 53.209 115.532 53.5947 115.796 54.1595C114.067 54.1595 112.519 54.2125 111.006 54.1192C110.663 54.0965 110.28 53.6149 110.043 53.2518C109.019 51.7163 108.025 50.1682 107.062 48.5873C106.558 47.7376 106.132 47.8662 105.373 48.3604C103.759 49.4118 103.479 51.0608 103.235 52.7022C103.066 53.857 102.587 54.2301 101.432 54.215C98.3536 54.162 98.2754 54.1973 98.7973 51.2953C99.526 47.2611 100.396 43.2395 101.19 39.2079C101.757 36.3335 101.747 36.3335 104.692 36.3638C106.319 36.3814 106.505 36.6008 106.177 38.2321C105.925 39.4928 105.608 40.7535 105.343 42.0318C105.26 42.4302 105.247 42.8437 105.202 43.2496L105.519 43.4488Z" fill="#1F51FF"/>
<path d="M98.9833 38.7544C98.0731 39.5284 97.6999 39.8638 97.3066 40.1739C96.7166 40.6429 96.1493 41.3816 95.5038 41.4648C94.9542 41.5354 94.3036 40.8496 93.7036 40.4891C90.8469 38.7645 86.4748 40.426 85.5596 43.6357C85.2402 44.6313 85.0702 45.6688 85.0553 46.7143C85.1057 48.8776 86.5126 50.3173 88.6634 50.5594C90.3854 50.7561 92.0268 50.5291 93.3859 49.3214C93.9733 48.797 94.465 48.7692 94.9592 49.4273C95.127 49.6143 95.3091 49.788 95.5038 49.9467C97.12 51.4999 97.1477 51.5503 95.3172 52.8614C91.6713 55.4811 84.0341 55.4357 81.3338 50.867C80.6809 49.7569 80.2855 48.5144 80.1765 47.2312C79.763 41.0236 84.5107 36.0338 90.741 35.9506C93.0858 35.9204 95.345 36.1599 97.2965 37.6576C97.7907 38.0308 98.3429 38.3434 98.9833 38.7544Z" fill="#1F51FF"/>
<path d="M156.856 36.4292C158.314 36.4292 159.721 36.3813 161.117 36.4721C161.37 36.4872 161.68 37.0293 161.829 37.3823C162.648 39.3464 163.425 41.3257 164.35 43.6327C165.512 42.2359 166.488 41.0761 167.449 39.9011C168.245 38.9279 169.009 37.9294 169.821 36.9688C170.023 36.7292 170.343 36.4494 170.618 36.4368C171.985 36.3838 173.354 36.4116 175 36.4116C173.53 38.2875 172.227 39.9566 170.913 41.6106C169.599 43.2646 168.248 44.9564 166.879 46.5903C165.661 48.03 165.598 49.8378 165.25 51.5347C164.708 54.1796 164.773 54.1947 162.156 54.1947C161.818 54.1947 161.481 54.172 161.148 54.1947C160.18 54.2703 159.985 53.7585 160.139 52.934C160.391 51.7036 160.767 50.4782 160.85 49.2352C160.949 48.1762 160.832 47.1081 160.505 46.0961C159.378 43.0276 158.087 40.0196 156.866 36.9864C156.843 36.8016 156.839 36.6147 156.856 36.4292Z" fill="#1F51FF"/>
<path d="M132.172 40.0829C130.642 40.0829 129.308 40.045 127.977 40.0955C127.026 40.1308 126.671 39.8257 126.903 38.8348C127.604 35.8672 127.155 36.3966 129.928 36.3664C133.874 36.3185 137.82 36.3512 141.766 36.3664C143.397 36.3664 143.387 36.4244 143.173 37.9901C142.848 40.3451 142.886 40.0476 140.674 40.0854C140.422 40.0854 140.17 40.0854 139.918 40.0854C136.517 40.161 137.291 39.6013 136.57 42.8589C135.813 46.293 135.155 49.7472 134.499 53.1965C134.361 53.9276 134.01 54.205 133.317 54.1899C132.392 54.1747 131.469 54.1571 130.543 54.1899C129.757 54.2151 129.487 53.9075 129.651 53.1233C130.454 49.3161 131.243 45.5055 132.016 41.6915C132.099 41.2578 132.102 40.7964 132.172 40.0829Z" fill="#1F51FF"/>
<path d="M141.743 54.1343C142.469 50.4607 143.148 46.9737 143.843 43.4917C144.254 41.4393 144.645 39.3793 145.144 37.3471C145.227 37.1235 145.362 36.9227 145.537 36.761C145.712 36.5993 145.923 36.4814 146.153 36.4167C147.144 36.2831 148.17 36.3638 149.179 36.3714C149.852 36.3714 150.132 36.5806 149.96 37.3799C149.204 40.9098 148.498 44.4397 147.794 47.9696C147.651 48.7033 147.585 49.4497 147.459 50.3624C148.183 50.4153 148.788 50.491 149.393 50.496C151.198 50.5145 153.004 50.5145 154.809 50.496C155.696 50.496 155.966 50.7734 155.754 51.7239C155.089 54.6991 155.543 54.1646 152.777 54.1999C149.587 54.2428 146.398 54.1999 143.208 54.1999C142.777 54.1974 142.366 54.1621 141.743 54.1343Z" fill="#1F51FF"/>
<path d="M125.614 36.3613C125.11 39.0037 124.668 41.4166 124.197 43.8245C123.594 46.9082 122.936 49.9792 122.376 53.0704C122.225 53.915 121.872 54.2378 121.068 54.2075C120.228 54.157 119.386 54.157 118.546 54.2075C117.341 54.3058 117.341 53.5822 117.508 52.7703C117.873 50.9676 118.302 49.1774 118.667 47.3721C119.293 44.2944 119.902 41.2124 120.495 38.1263C120.836 36.3613 120.823 36.3613 122.669 36.3613H125.614Z" fill="#1F51FF"/>
<path d="M76.1148 4.93259C76.0518 4.03247 75.8854 3.11973 75.9812 2.23726C76.0216 1.87166 76.5687 1.41026 76.9898 1.26402C78.0739 0.883292 79.2388 0.721921 80.323 0.338674C81.5489 -0.0921215 82.8817 -0.112471 84.1202 0.280688C84.9068 0.50761 85.3808 0.963971 84.7908 1.73299C84.0016 2.83434 83.1174 3.86448 82.1485 4.81157C81.092 5.78986 79.849 6.57652 78.7194 7.40857L76.0821 4.88721L76.1148 4.93259ZM81.7703 3.73243C82.1787 3.10461 82.6351 2.70371 82.567 2.43645C82.4737 2.07589 81.9795 1.81872 81.6568 1.51615C81.4047 1.8288 80.9559 2.13389 80.9433 2.45662C80.9306 2.77936 81.3492 3.11974 81.7703 3.73243Z" fill="#1F51FF"/>
<path d="M76.0748 4.89462C75.9841 5.49218 75.8958 6.08975 75.8227 6.61672L73.8535 6.23095L74.6654 4.62988L76.1177 4.92993L76.0748 4.89462Z" fill="#1F51FF"/>
</svg>
