<svg width="23" height="23" viewBox="0 0 23 23" fill="none" xmlns="http://www.w3.org/2000/svg">
<g clip-path="url(#clip0_708_27139)">
<path d="M11.5 23.0001C17.8513 23.0001 23.0001 17.8513 23.0001 11.5C23.0001 5.14874 17.8513 0 11.5 0C5.14874 0 0 5.14874 0 11.5C0 17.8513 5.14874 23.0001 11.5 23.0001Z" fill="#F7931A"/>
<path d="M16.6675 10.077C16.8932 8.57047 15.7454 7.76043 14.1771 7.21993L14.686 5.17867L13.4439 4.86961L12.948 6.85696C12.6217 6.77502 12.2868 6.69883 11.9525 6.62265L12.4521 4.62236L11.2101 4.31258L10.7012 6.35312C10.4309 6.2913 10.165 6.23093 9.90769 6.16624L9.90912 6.15977L8.19562 5.73211L7.86499 7.05893C7.86499 7.05893 8.78715 7.27024 8.76775 7.28318C9.27087 7.40896 9.36144 7.74174 9.34634 8.00625L8.76703 10.3314C8.80153 10.34 8.84609 10.353 8.8964 10.3724L8.76487 10.34L7.95268 13.5974C7.89087 13.7498 7.7349 13.9791 7.38271 13.8921C7.39565 13.9101 6.47996 13.6671 6.47996 13.6671L5.86327 15.0888L7.48046 15.492C7.7809 15.5675 8.07559 15.6466 8.36524 15.7206L7.85134 17.7849L9.09262 18.0939L9.6015 16.0527C9.94075 16.144 10.2699 16.2288 10.5919 16.3093L10.0845 18.3419L11.3265 18.651L11.8404 16.591C13.9593 16.9921 15.552 16.8304 16.2226 14.9142C16.7631 13.3717 16.196 12.4812 15.0813 11.9012C15.8935 11.7143 16.5044 11.1803 16.6675 10.077ZM13.8285 14.0574C13.4454 15.6006 10.8471 14.7661 10.0047 14.557L10.6875 11.8221C11.5299 12.0327 14.2303 12.4489 13.8285 14.0574ZM14.213 10.0547C13.863 11.4584 11.701 10.7447 11.0002 10.57L11.6183 8.09034C12.3191 8.265 14.5781 8.59059 14.213 10.0547Z" fill="white"/>
</g>
<defs>
<clipPath id="clip0_708_27139">
<rect width="22.4945" height="22.4945" fill="white" transform="scale(1.02248)"/>
</clipPath>
</defs>
</svg>
