<svg width="31" height="22" viewBox="0 0 31 22" fill="none" xmlns="http://www.w3.org/2000/svg">
<path d="M15.5097 2.19926H29.6196C29.7693 2.20637 29.9193 2.19961 30.0678 2.17906C30.3281 2.12325 30.5596 1.97581 30.7196 1.7638C30.8796 1.55179 30.9574 1.28943 30.9388 1.02489C30.9202 0.760341 30.8064 0.511352 30.6183 0.323619C30.4301 0.135887 30.1803 0.0220079 29.9147 0.00288215C29.8114 -0.00354539 29.7072 0.00288215 29.603 0.00288215H1.34356C1.19398 -0.00391097 1.0441 0.00130901 0.895361 0.0184917C0.632923 0.069102 0.397754 0.212583 0.233311 0.422422C0.0688675 0.63226 -0.0137357 0.894271 0.000766805 1.16004C0.0152712 1.4258 0.125903 1.67736 0.312216 1.86822C0.498526 2.05908 0.747927 2.17635 1.01433 2.19835C1.12868 2.20661 1.24488 2.19835 1.36016 2.19835L15.5097 2.19926Z" fill="#1F51FF"/>
<path d="M17.7241 12.0986C21.7364 12.0986 25.7492 12.0986 29.7627 12.0986C30.6222 12.0986 31.1792 11.386 30.9072 10.6377C30.7467 10.1969 30.4175 9.95818 29.9527 9.90309C29.8489 9.89711 29.7448 9.89711 29.641 9.90309C21.6731 9.90309 13.7048 9.90309 5.73628 9.90309C5.58677 9.89671 5.43699 9.90471 5.28901 9.92696C5.03136 9.98532 4.80318 10.1335 4.64574 10.3448C4.48829 10.5561 4.41197 10.8165 4.43058 11.079C4.44918 11.3414 4.56148 11.5885 4.74717 11.7757C4.93286 11.9629 5.17969 12.0777 5.44302 12.0995C5.55737 12.1068 5.67357 12.0995 5.78885 12.0995L17.7241 12.0986Z" fill="#1F51FF"/>
<path d="M22.6819 21.9986C25.0575 21.9986 27.4322 21.9986 29.8078 21.9986C30.6378 21.9986 31.1782 21.264 30.9053 20.5295C30.7476 20.1034 30.4266 19.8693 29.9784 19.8077C29.8865 19.7992 29.794 19.797 29.7018 19.8013H15.6574C15.5191 19.7955 15.3807 19.8042 15.2442 19.827C14.982 19.8819 14.7489 20.0301 14.5885 20.2437C14.428 20.4574 14.3513 20.7219 14.3725 20.9878C14.3938 21.2538 14.5116 21.5029 14.7039 21.6886C14.8963 21.8743 15.15 21.9838 15.4176 21.9968C15.5209 22.0041 15.6251 21.9968 15.7284 21.9968L22.6819 21.9986Z" fill="#1F51FF"/>
</svg>
