<svg width="19" height="19" viewBox="0 0 19 19" fill="none" xmlns="http://www.w3.org/2000/svg">
<path d="M18.9999 2.83117C18.0816 3.61213 17.7051 3.95047 17.3082 4.26336C16.713 4.73652 16.1406 5.48186 15.4894 5.56581C14.9348 5.63704 14.2785 4.94511 13.6731 4.58134C10.7909 2.84135 6.37985 4.51774 5.45643 7.75606C5.13418 8.76055 4.96272 9.8073 4.94766 10.8621C4.99854 13.0447 6.41801 14.4973 8.58791 14.7415C10.3254 14.9399 11.9814 14.7109 13.3525 13.4924C13.9452 12.9633 14.4413 12.9353 14.9399 13.5993C15.1092 13.788 15.2929 13.9632 15.4894 14.1233C17.12 15.6903 17.148 15.7412 15.3011 17.064C11.6227 19.7071 3.9174 19.6613 1.19294 15.0518C0.5343 13.9318 0.135297 12.6783 0.025312 11.3836C-0.391879 5.12064 4.39819 0.0863614 10.684 0.00241434C13.0498 -0.0281118 15.3291 0.213559 17.298 1.72461C17.7966 2.10109 18.3537 2.41653 18.9999 2.83117Z" fill="#1F51FF"/>
</svg>
