<svg width="41" height="41" viewBox="0 0 41 41" fill="none" xmlns="http://www.w3.org/2000/svg">
<path d="M20.5 10.75H11.725C10.4321 10.75 9.19209 10.2364 8.27785 9.32215C7.36361 8.40791 6.85 7.16793 6.85 5.875C6.85 4.58207 7.36361 3.34209 8.27785 2.42785C9.19209 1.51361 10.4321 1 11.725 1C18.55 1 20.5 10.75 20.5 10.75ZM20.5 10.75H29.275C30.5679 10.75 31.8079 10.2364 32.7221 9.32215C33.6364 8.40791 34.15 7.16793 34.15 5.875C34.15 4.58207 33.6364 3.34209 32.7221 2.42785C31.8079 1.51361 30.5679 1 29.275 1C22.45 1 20.5 10.75 20.5 10.75ZM20.5 10.75L20.5 40M1 24.4H40M1 16.99L1 33.76C1 35.9442 1 37.0363 1.42507 37.8706C1.79898 38.6044 2.3956 39.201 3.12944 39.5749C3.96369 40 5.05579 40 7.24 40L33.76 40C35.9442 40 37.0363 40 37.8706 39.5749C38.6044 39.201 39.201 38.6044 39.5749 37.8706C40 37.0363 40 35.9442 40 33.76V16.99C40 14.8058 40 13.7137 39.5749 12.8794C39.201 12.1456 38.6044 11.549 37.8706 11.1751C37.0363 10.75 35.9442 10.75 33.76 10.75L7.24 10.75C5.0558 10.75 3.96369 10.75 3.12944 11.1751C2.39561 11.549 1.79898 12.1456 1.42508 12.8794C1 13.7137 1 14.8058 1 16.99Z" stroke="#143C7C" stroke-width="2" stroke-linecap="round" stroke-linejoin="round"/>
</svg>
