<svg width="39" height="39" viewBox="0 0 39 39" fill="none" xmlns="http://www.w3.org/2000/svg">
<g clip-path="url(#clip0_624_13872)">
<path d="M27.625 13V8.125C27.625 7.69402 27.4538 7.2807 27.149 6.97595C26.8443 6.67121 26.431 6.5 26 6.5H9.75C8.88805 6.5 8.0614 6.84241 7.4519 7.4519C6.84241 8.0614 6.5 8.88805 6.5 9.75M6.5 9.75C6.5 10.612 6.84241 11.4386 7.4519 12.0481C8.0614 12.6576 8.88805 13 9.75 13H29.25C29.681 13 30.0943 13.1712 30.399 13.476C30.7038 13.7807 30.875 14.194 30.875 14.625V19.5M6.5 9.75V29.25C6.5 30.112 6.84241 30.9386 7.4519 31.5481C8.0614 32.1576 8.88805 32.5 9.75 32.5H29.25C29.681 32.5 30.0943 32.3288 30.399 32.024C30.7038 31.7193 30.875 31.306 30.875 30.875V26" stroke="#627EEB" stroke-linecap="round" stroke-linejoin="round"/>
<path d="M32.5 19.5V26H26C25.138 26 24.3114 25.6576 23.7019 25.0481C23.0924 24.4386 22.75 23.612 22.75 22.75C22.75 21.888 23.0924 21.0614 23.7019 20.4519C24.3114 19.8424 25.138 19.5 26 19.5H32.5Z" stroke="#627EEB" stroke-linecap="round" stroke-linejoin="round"/>
</g>
<defs>
<clipPath id="clip0_624_13872">
<rect width="39" height="39" fill="white"/>
</clipPath>
</defs>
</svg>
