<svg width="44" height="44" viewBox="0 0 44 44" fill="none" xmlns="http://www.w3.org/2000/svg">
<path d="M29 43V30.4C29 29.0932 29 28.4398 28.7457 27.9407C28.522 27.5016 28.165 27.1447 27.726 26.921C27.2269 26.6667 26.5735 26.6667 25.2667 26.6667H18.7333C17.4265 26.6667 16.7731 26.6667 16.274 26.921C15.835 27.1447 15.478 27.5016 15.2543 27.9407C15 28.4398 15 29.0932 15 30.4V43M1 10.3333C1 14.1993 4.13401 17.3333 8 17.3333C11.866 17.3333 15 14.1993 15 10.3333C15 14.1993 18.134 17.3333 22 17.3333C25.866 17.3333 29 14.1993 29 10.3333C29 14.1993 32.134 17.3333 36 17.3333C39.866 17.3333 43 14.1993 43 10.3333M8.46667 43H35.5333C38.1469 43 39.4537 43 40.452 42.4914C41.33 42.044 42.044 41.33 42.4914 40.452C43 39.4537 43 38.1469 43 35.5333V8.46667C43 5.85309 43 4.5463 42.4914 3.54804C42.044 2.66995 41.33 1.95605 40.452 1.50864C39.4537 1 38.1469 1 35.5333 1H8.46667C5.85309 1 4.5463 1 3.54804 1.50864C2.66995 1.95605 1.95605 2.66995 1.50864 3.54804C1 4.5463 1 5.85309 1 8.46667V35.5333C1 38.1469 1 39.4537 1.50864 40.452C1.95605 41.33 2.66995 42.044 3.54804 42.4914C4.5463 43 5.85309 43 8.46667 43Z" stroke="#143C7C" stroke-width="2" stroke-linecap="round" stroke-linejoin="round"/>
</svg>
