<svg width="67" height="68" viewBox="0 0 67 68" fill="none" xmlns="http://www.w3.org/2000/svg">
<path d="M66.0017 41.7066C64.3975 48.1494 60.9232 53.9708 56.0183 58.4346C51.1133 62.8984 44.9979 65.8043 38.4453 66.7847C31.8927 67.7651 25.1972 66.7761 19.2054 63.9427C13.2136 61.1093 8.19462 56.5587 4.78299 50.8664C1.37136 45.1741 -0.279651 38.5956 0.0387096 31.9629C0.35707 25.3301 2.63051 18.9409 6.57156 13.6032C10.5126 8.26539 15.9443 4.21876 22.1798 1.97494C28.4153 -0.268885 35.1746 -0.609125 41.603 0.997233C45.8728 2.06296 49.8913 3.96159 53.4287 6.58463C56.966 9.20768 59.953 12.5037 62.2189 16.2843C64.4848 20.065 65.9851 24.2561 66.6342 28.6182C67.2833 32.9803 67.0684 37.4278 66.0017 41.7066Z" fill="#F7931A"/>
<path d="M48.2723 28.8009C48.9366 24.3314 45.5421 21.9233 40.9008 20.327L42.4115 14.2703L38.7713 13.3582L37.3061 19.2507L34.3211 18.5848L35.7954 12.6558L32.1551 11.7437L30.6535 17.8004C29.8527 17.6179 29.07 17.4355 28.3056 17.244L23.2365 15.9761L22.2628 19.9074C22.2628 19.9074 24.9929 20.5368 24.9292 20.5733C25.4385 20.6329 25.9038 20.8914 26.2241 21.2927C26.5444 21.6941 26.6939 22.2058 26.6401 22.7169L24.9201 29.6401L22.5176 39.2998C22.4697 39.4723 22.3876 39.6334 22.2762 39.7734C22.1648 39.9134 22.0264 40.0295 21.8693 40.1146C21.7121 40.1998 21.5394 40.2523 21.3615 40.269C21.1836 40.2857 21.0042 40.2663 20.834 40.212C20.834 40.2667 18.1584 39.5461 18.1584 39.5461L16.3383 43.7694L21.1252 44.9643C22.0352 45.1832 22.8816 45.4204 23.7371 45.6393L22.2173 51.7598L25.8575 52.672L27.3682 46.6153C28.3693 46.8889 29.343 47.1352 30.2895 47.3724L28.7879 53.4017L32.4281 54.3138L33.957 48.2024C40.2182 49.3882 44.9415 48.9139 46.9163 43.2312C48.518 38.6704 46.8435 36.0161 43.54 34.2921C45.9425 33.7357 47.7535 32.1485 48.2359 28.883L48.2723 28.8009ZM39.8724 40.6042C38.7348 45.1649 31.0539 42.7113 28.5604 42.0819L30.5716 33.9728C33.0652 34.5931 41.0555 35.7971 39.8724 40.6042ZM41.01 28.7462C39.9725 32.9147 33.5748 30.7985 31.4999 30.2786L33.32 22.9175C35.404 23.4192 42.093 24.3861 41.01 28.728V28.7462Z" fill="white"/>
</svg>
