<svg width="19" height="18" viewBox="0 0 19 18" fill="none" xmlns="http://www.w3.org/2000/svg">
<path d="M0.0108168 0.025182C1.48472 0.025182 2.9076 -0.0232568 4.3203 0.0685431C4.5753 0.0838431 4.88895 0.632089 5.0394 0.989089C5.86815 2.97554 6.65355 4.97728 7.5894 7.31053C8.76495 5.89783 9.75179 4.72483 10.7233 3.53653C11.5291 2.55224 12.3018 1.54243 13.1229 0.570885C13.3269 0.328635 13.6507 0.0455894 13.9287 0.0328394C15.3108 -0.0207105 16.6954 0.00734567 18.3606 0.00734567C16.8739 1.90454 15.5556 3.59264 14.2271 5.26544C12.8985 6.93824 11.5317 8.64929 10.1471 10.3017C8.91541 11.7577 8.85165 13.5861 8.49975 15.3022C7.9515 17.9772 8.0178 17.9925 5.3709 17.9925C5.0292 17.9925 4.6875 17.9695 4.3509 17.9925C3.3717 18.069 3.17535 17.5513 3.3309 16.7175C3.5859 15.4731 3.96585 14.2338 4.05 12.9766C4.15035 11.9056 4.03148 10.8254 3.70066 9.80188C2.56081 6.69853 1.25521 3.65638 0.0210112 0.588737C-0.00303687 0.401829 -0.00645182 0.212838 0.0108168 0.025182Z" fill="#1F51FF"/>
</svg>
