<svg width="67" height="68" viewBox="0 0 67 68" fill="none" xmlns="http://www.w3.org/2000/svg">
<path d="M33.4996 0C40.1252 0 46.602 1.96923 52.111 5.65868C57.62 9.34813 61.9137 14.5921 64.4492 20.7274C66.9847 26.8627 67.6482 33.6139 66.3556 40.1271C65.063 46.6403 61.8724 52.6231 57.1874 57.3189C52.5024 62.0147 46.5334 65.2126 40.0351 66.5081C33.5368 67.8037 26.8011 67.1387 20.6799 64.5974C14.5586 62.0561 9.32669 57.7525 5.64571 52.2308C1.96472 46.7092 0 40.2175 0 33.5766C0.00241181 24.6723 3.53261 16.1334 9.81448 9.83704C16.0964 3.54072 24.6157 0.00241736 33.4996 0Z" fill="#53AE94"/>
<path d="M37.63 29.109V24.1117H49.0301V16.4973H18.0325V24.1117H29.4325V29.0999C20.1706 29.5285 13.2013 31.3614 13.2013 33.5683C13.2013 35.7751 20.1706 37.608 29.4325 38.0366V54.0407H37.6755V38.0366C46.9193 37.608 53.8703 35.7751 53.8703 33.5683C53.8703 31.3614 46.9193 29.5376 37.6755 29.109M37.6755 36.687C37.439 36.687 36.2471 36.7782 33.5813 36.7782C31.4614 36.7782 29.942 36.7144 29.4325 36.687C21.2441 36.3222 15.1392 34.8632 15.1392 33.1853C15.1392 31.5073 21.2532 30.0483 29.4325 29.6835V35.2644C29.9693 35.2644 31.5069 35.3921 33.6177 35.3921C36.1561 35.3921 37.439 35.2827 37.6755 35.2644V29.6835C45.8639 30.0483 51.9324 31.5073 51.9324 33.1853C51.9324 34.8632 45.8366 36.3131 37.6755 36.6779" fill="white"/>
</svg>
