<svg width="53" height="36" viewBox="0 0 53 36" fill="none" xmlns="http://www.w3.org/2000/svg">
<g clip-path="url(#clip0_665_13221)">
<g filter="url(#filter0_d_665_13221)">
<path d="M23.7184 17.0878L23.7034 17.088C22.0921 17.088 20.4803 17.0892 18.8682 17.0905C15.6429 17.0929 12.4166 17.0953 9.19145 17.088C5.7978 17.0807 2.91024 15.126 1.97317 12.01C1.67709 11.0286 1.60977 9.96358 1.60971 8.9871C1.58937 4.67497 4.84995 1.53798 9.22332 1.53798H30.1783H30.1786L51.501 1.52838C51.5084 1.52838 51.5158 1.52854 51.5232 1.52886C51.7048 1.53685 51.8868 1.53192 52.0677 1.51413C52.1864 1.49586 52.2935 1.43834 52.3717 1.35319C52.4514 1.26636 52.4963 1.15632 52.5006 1.04264C52.5008 1.03637 52.5012 1.03009 52.5016 1.02383C52.5099 0.914701 52.4774 0.805256 52.4084 0.715951C52.34 0.627508 52.2399 0.56442 52.1253 0.540719C51.9049 0.502216 51.6809 0.487046 51.4572 0.495488C51.4509 0.495725 51.4446 0.495844 51.4384 0.495844H51.3632H51.2879H51.2127H51.1375H51.0623H50.9871H50.9119H50.8367H50.7615H50.6863H50.6111H50.5359H50.4607H50.3855H50.3103H50.2351H50.1599H50.0847H50.0095H49.9343H49.8591H49.7839H49.7087H49.6335H49.5583H49.483H49.4078H49.3326H49.2574H49.1822H49.107H49.0318H48.9566H48.8814H48.8062H48.731H48.6558H48.5806H48.5054H48.4302H48.355H48.2798H48.2046H48.1294H48.0542H47.979H47.9038H47.8286H47.7533H47.6781H47.6029H47.5277H47.4525H47.3773H47.3021H47.2269H47.1517H47.0765H47.0013H46.9261H46.8509H46.7757H46.7005H46.6253H46.5501H46.4749H46.3997H46.3245H46.2493H46.1741H46.0989H46.0237H45.9484H45.8732H45.798H45.7228H45.6476H45.5724H45.4972H45.422H45.3468H45.2716H45.1964H45.1212H45.046H44.9708H44.8956H44.8204H44.7452H44.67H44.5948H44.5196H44.4444H44.3692H44.294H44.2188H44.1435H44.0683H43.9931H43.9179H43.8427H43.7675H43.6923H43.6171H43.5419H43.4667H43.3915H43.3163H43.2411H43.1659H43.0907H43.0155H42.9403H42.8651H42.7899H42.7147H42.6395H42.5643H42.4891H42.4138H42.3386H42.2634H42.1882H42.113H42.0378H41.9626H41.8874H41.8122H41.737H41.6618H41.5866H41.5114H41.4362H41.361H41.2858H41.2106H41.1354H41.0602H40.985H40.9098H40.8346H40.7594H40.6842H40.6089H40.5337H40.4585H40.3833H40.3081H40.2329H40.1577H40.0825H40.0073H39.9321H39.8569H39.7817H39.7065H39.6313H39.5561H39.4809H39.4057H39.3305H39.2553H39.1801H39.1049H39.0297H38.9545H38.8792H38.804H38.7288H38.6536H38.5784H38.5032H38.428H38.3528H38.2776H38.2024H38.1272H38.052H37.9768H37.9016H37.8264H37.7512H37.676H37.6008H37.5256H37.4504H37.3752H37.3H37.2248H37.1496H37.0743H36.9991H36.9239H36.8487H36.7735H36.6983H36.6231H36.5479H36.4727H36.3975H36.3223H36.2471H36.1719H36.0967H36.0215H35.9463H35.8711H35.7959H35.7207H35.6455H35.5703H35.4951H35.4199H35.3447H35.2694H35.1942H35.119H35.0438H34.9686H34.8934H34.8182H34.743H34.6678H34.5926H34.5174H34.4422H34.367H34.2918H34.2166H34.1414H34.0662H33.991H33.9158H33.8406H33.7654H33.6902H33.615H33.5397H33.4645H33.3893H33.3141H33.2389H33.1637H33.0885H33.0133H32.9381H32.8629H32.7877H32.7125H32.6373H32.5621H32.4869H32.4117H32.3365H32.2613H32.1861H32.1109H32.0357H31.9605H31.8853H31.8101H31.7348H31.6596H31.5844H31.5092H31.434H31.3588H31.2836H31.2084H31.1332H31.058H30.9828H30.9076H30.8324H30.7572H30.682H30.6068H30.5316H30.4564H30.3812H30.306H30.2308H30.1556H30.0804H30.0052H29.9299H29.8547H29.7795H29.7043H29.6291H29.5539H29.4787H29.4035H29.3283H29.2531H29.1779H29.1027H29.0275H28.9523H28.8771H28.8019H28.7267H28.6515H28.5763H28.5011H28.4259H28.3507H28.2755H28.2003H28.125H28.0498H27.9746H27.8994H27.8242H27.749H27.6738H27.5986H27.5234H27.4482H27.373H27.2978H27.2226H27.1474H27.0722H26.997H26.9218H26.8466H26.7714H26.6962H26.621H26.5458H26.4706H26.3953H26.3201H26.2449H26.1697H26.0945H26.0193H25.9441H25.8689H25.7937H25.7185H25.6433H25.5681H25.4929H25.4177H25.3425H25.2673H25.1921H25.1169H25.0417H24.9665H24.8913H24.8161H24.7409H24.6657H24.5904H24.5152H24.44H24.3648H24.2896H24.2144H24.1392H24.064H23.9888H23.9136H23.8384H23.7632H23.688H23.6128H23.5376H23.4624H23.3872H23.312H23.2368H23.1616H23.0864H23.0112H22.936H22.8608H22.7855H22.7103H22.6351H22.5599H22.4847H22.4095H22.3343H22.2591H22.1839H22.1087H22.0335H21.9583H21.8831H21.8079H21.7327H21.6575H21.5823H21.5071H21.4319H21.3567H21.2815H21.2063H21.1311H21.0559H20.9806H20.9054H20.8302H20.755H20.6798H20.6046H20.5294H20.4542H20.379H20.3038H20.2286H20.1534H20.0782H20.003H19.9278H19.8526H19.7774H19.7022H19.627H19.5518H19.4766H19.4014H19.3262H19.2509H19.1757H19.1005H19.0253H18.9501H18.8749H18.7997H18.7245H18.6493H18.5741H18.4989H18.4237H18.3485H18.2733H18.1981H18.1229H18.0477H17.9725H17.8973H17.8221H17.7469H17.6717H17.5965H17.5213H17.446H17.3708H17.2956H17.2204H17.1452H17.07H16.9948H16.9196H16.8444H16.7692H16.694H16.6188H16.5436H16.4684H16.3932H16.318H16.2428H16.1676H16.0924H16.0172H15.942H15.8668H15.7916H15.7164H15.6411H15.5659H15.4907H15.4155H15.3403H15.2651H15.1899H15.1147H15.0395H14.9643H14.8891H14.8139H14.7387H14.6635H14.5883H14.5131H14.4379H14.3627H14.2875H14.2123H14.1371H14.0619H13.9867H13.9114H13.8362H13.761H13.6858H13.6106H13.5354H13.4602H13.385H13.3098H13.2346H13.1594H13.0842H13.009H12.9338C12.5059 0.495844 12.0794 0.494773 11.6538 0.493703C10.8056 0.491572 9.96048 0.489448 9.11266 0.495829L23.7184 17.0878ZM23.7184 17.0878C23.8888 17.0827 24.0594 17.0866 24.2294 17.0994C24.352 17.1156 24.4632 17.174 24.5436 17.2619C24.6255 17.3514 24.6701 17.4656 24.6713 17.5827C24.6726 17.6998 24.6304 17.8148 24.5505 17.9059C24.4722 17.9953 24.3625 18.0559 24.2403 18.0746C24.0913 18.0887 23.9416 18.0936 23.792 18.0892L23.7774 18.089M23.7184 17.0878L23.7774 18.089M23.7774 18.089H23.749H23.7205H23.6921H23.6636H23.6352H23.6067H23.5783H23.5499H23.5214H23.493H23.4645H23.4361H23.4076H23.3792H23.3507H23.3223H23.2938H23.2654H23.2369H23.2085H23.18H23.1516H23.1231H23.0947H23.0662H23.0378H23.0093H22.9809H22.9525H22.924H22.8956H22.8671H22.8387H22.8102H22.7818H22.7533H22.7249H22.6964H22.668H22.6395H22.6111H22.5826H22.5542H22.5257H22.4973H22.4688H22.4404H22.412H22.3835H22.3551H22.3266H22.2982H22.2697H22.2413H22.2128H22.1844H22.1559H22.1275H22.099H22.0706H22.0421H22.0137H21.9852H21.9568H21.9283H21.8999H21.8715H21.843H21.8146H21.7861H21.7577H21.7292H21.7008H21.6723H21.6439H21.6154H21.587H21.5585H21.5301H21.5016H21.4732H21.4447H21.4163H21.3879H21.3594H21.331H21.3025H21.2741H21.2456H21.2172H21.1887H21.1603H21.1318H21.1034H21.0749H21.0465H21.018H20.9896H20.9612H20.9327H20.9043H20.8758H20.8474H20.8189H20.7905H20.762H20.7336H20.7051H20.6767H20.6482H20.6198H20.5913H20.5629H20.5345H20.506H20.4776H20.4491H20.4207H20.3922H20.3638H20.3353H20.3069H20.2784H20.25H20.2215H20.1931H20.1646H20.1362H20.1078H20.0793H20.0509H20.0224H19.994H19.9655H19.9371H19.9086H19.8802H19.8517H19.8233H19.7948H19.7664H19.738H19.7095H19.6811H19.6526H19.6242H19.5957H19.5673H19.5388H19.5104H19.4819H19.4535H19.425H19.3966H19.3681H19.3397H19.3113H19.2828H19.2544H19.2259H19.1975H19.169H19.1406H19.1121H19.0837H19.0552H19.0268H18.9984H18.9699H18.9415H18.913H18.8846H18.8561H18.8277H18.7992H18.7708H18.7423H18.7139H18.6854H18.657H18.6286H18.6001H18.5717H18.5432H18.5148H18.4863H18.4579H18.4294H18.401H18.3725H18.3441H18.3156H18.2872H18.2588H18.2303H18.2019H18.1734H18.145H18.1165H18.0881H18.0596H18.0312H18.0027H17.9743H17.9459H17.9174H17.889H17.8605H17.8321H17.8036H17.7752H17.7467H17.7183H17.6898H17.6614H17.633H17.6045H17.5761H17.5476H17.5192H17.4907H17.4623H17.4338H17.4054H17.3769H17.3485H17.3201H17.2916H17.2632H17.2347H17.2063H17.1778H17.1494H17.1209H17.0925H17.064H17.0356H17.0072H16.9787H16.9503H16.9218H16.8934H16.8649H16.8365H16.808H16.7796H16.7511H16.7227H16.6943H16.6658H16.6374H16.6089H16.5805H16.552H16.5236H16.4951H16.4667H16.4382H16.4098H16.3814H16.3529H16.3245H16.296H16.2676H16.2391H16.2107H16.1822H16.1538H16.1254H16.0969H16.0685H16.04H16.0116H15.9831H15.9547H15.9262H15.8978H15.8693H15.8409H15.8125H15.784H15.7556H15.7271H15.6987H15.6702H15.6418H15.6133H15.5849H15.5565H15.528H15.4996H15.4711H15.4427H15.4142H15.3858H15.3573H15.3289H15.3005H15.272H15.2436H15.2151H15.1867H15.1582H15.1298H15.1013H15.0729H15.0445H15.016H14.9876H14.9591H14.9307H14.9022H14.8738H14.8453H14.8169H14.7885H14.76H14.7316H14.7031H14.6747H14.6462H14.6178H14.5893H14.5609H14.5325H14.504H14.4756H14.4471H14.4187H14.3902H14.3618H14.3333H14.3049H14.2765H14.248H14.2196H14.1911H14.1627H14.1342H14.1058H14.0773H14.0489H14.0205H13.992H13.9636H13.9351H13.9067H13.8782H13.8498H13.8213H13.7929H13.7645H13.736H13.7076H13.6791H13.6507H13.6222H13.5938H13.5654H13.5369H13.5085H13.48H13.4516H13.4231H13.3947H13.3662H13.3378H13.3094H13.2809H13.2525H13.224H13.1956H13.1671H13.1387H13.1102H13.0818H13.0534H13.0249H12.9965H12.968H12.9396H12.9111H12.8827H12.8543H12.8258H12.7974H12.7689H12.7405H12.712H12.6836H12.6551H12.6267H12.5983H12.5698H12.5414H12.5129H12.4845H12.456H12.4276H12.3992H12.3707H12.3423H12.3138H12.2854H12.2569H12.2285H12.2001H12.1716H12.1432H12.1147H12.0863H12.0578H12.0294H12.0009H11.9725H11.9441H11.9156H11.8872H11.8587H11.8303H11.8018H11.7734H11.745H11.7165H11.6881H11.6596H11.6312H11.6027H11.5743H11.5459H11.5174H11.489H11.4605H11.4321H11.4036H11.3752H11.3468H11.3183H11.2899H11.2614H11.233H11.2045H11.1761H11.1476H11.1192H11.0908H11.0623H11.0339H11.0054H10.977H10.9485H10.9201H10.8917H10.8632H10.8348H10.8063H10.7779H10.7494H10.721H10.6926H10.6641H10.6357H10.6072H10.5788H10.5503H10.5219H10.4935H10.465H10.4366H10.4081H10.3797H10.3512H10.3228H10.2944H10.2659H10.2375H10.209H10.1806H10.1521H10.1237H10.0953H10.0668H10.0384H10.0099H9.98149H9.95305H9.9246H9.89616H9.86772H9.83928H9.81083H9.78239H9.75395H9.72551H9.69706H9.66862H9.64018H9.61174H9.58329H9.55485H9.52641H9.49797H9.46952H9.44108H9.41264H9.3842H9.35575H9.32731H9.29887H9.27043H9.24198H9.21354C4.71806 18.089 1.24972 15.2262 0.636324 10.9191L0.636305 10.919M23.7774 18.089L0.636305 10.919M0.636305 10.919C0.150409 7.51384 0.920865 4.52539 3.7403 2.309L3.74048 2.30886M0.636305 10.919L3.74048 2.30886M3.74048 2.30886C5.29855 1.08286 7.10066 0.51154 9.11253 0.49583L3.74048 2.30886Z" stroke="#1F51FF" stroke-linecap="round" stroke-linejoin="round" shape-rendering="crispEdges"/>
</g>
<g filter="url(#filter1_d_665_13221)">
<mask id="path-2-inside-1_665_13221" fill="white">
<path d="M46.3037 25.98C46.0383 26.0045 45.8936 26.3055 46.0165 26.5421L48.219 30.7815C48.8365 31.9701 49.454 33.1587 50.0714 34.3474C50.4193 35.0249 50.2768 35.6132 49.7096 35.8903C49.1424 36.1673 48.592 35.9287 48.2358 35.2429C46.8844 32.6563 45.5339 30.0688 44.1844 27.4804C44.1456 27.4062 44.1037 27.3336 44.0589 27.2629C43.9125 27.0316 43.6387 27.1128 43.4566 27.3172C42.4074 28.4143 41.3373 29.4992 40.2867 30.5977C39.9291 30.9735 39.5379 31.2382 38.9987 31.0599C38.4594 30.8816 38.3169 30.4469 38.2834 29.9243C38.0208 25.8264 37.7498 21.7288 37.4703 17.6318C37.3837 16.3343 37.2915 15.0369 37.2021 13.7395C37.1937 13.6202 37.184 13.5009 37.177 13.3802C37.1518 12.9056 37.3446 12.5395 37.7819 12.3337C38.2192 12.128 38.5991 12.2364 38.9428 12.5367L43.0067 16.0902L51.4824 23.5154C51.5341 23.5607 51.5844 23.6087 51.6375 23.6526C52.0203 23.9666 52.2033 24.352 52.0426 24.8348C51.882 25.3175 51.4838 25.5027 50.9963 25.5466C49.4316 25.6892 47.8674 25.8337 46.3037 25.98ZM39.6052 15.7774C39.5791 15.7545 39.5428 15.7471 39.5099 15.7579C39.4672 15.7719 39.4394 15.813 39.4424 15.8577C39.6644 19.1966 39.8875 22.5369 40.1149 25.95C40.1527 26.5167 40.1716 26.8001 40.2962 26.9311C40.4042 27.0446 40.5602 27.1011 40.7159 27.0831C40.8955 27.0623 41.0914 26.8569 41.4831 26.4462C42.0664 25.8345 42.6323 25.2478 43.2177 24.6812C43.5251 24.4183 43.895 24.2357 44.2934 24.1504C44.7446 24.0366 45.228 24.0544 45.6904 24.0133C46.0638 23.9758 46.4371 23.9376 46.8176 23.8982C47.3938 23.8386 47.6819 23.8087 47.8084 23.6789C47.9182 23.5662 47.9685 23.4084 47.9442 23.2529C47.9163 23.0739 47.6985 22.8827 47.263 22.5004L39.6052 15.7774Z"/>
</mask>
<path d="M48.219 30.7815L49.1064 30.3205L49.1064 30.3205L48.219 30.7815ZM50.0714 34.3474L50.961 33.8906L50.9588 33.8864L50.0714 34.3474ZM48.2358 35.2429L49.1232 34.7819L49.1221 34.7799L48.2358 35.2429ZM44.1844 27.4804L45.0711 27.0181L45.0704 27.0167L44.1844 27.4804ZM42.71 26.6518C42.3426 27.0641 42.3789 27.6962 42.7912 28.0637C43.2035 28.4311 43.8356 28.3948 44.2031 27.9825L42.71 26.6518ZM40.2867 30.5977L39.564 29.9066L39.5624 29.9083L40.2867 30.5977ZM38.2834 29.9243L37.2855 29.9883L37.2855 29.9884L38.2834 29.9243ZM37.4703 17.6318L36.4726 17.6984L36.4727 17.6998L37.4703 17.6318ZM37.2021 13.7395L38.1998 13.6707L38.1997 13.6694L37.2021 13.7395ZM37.177 13.3802L36.1784 13.4331L36.1786 13.4379L37.177 13.3802ZM38.9428 12.5367L39.6011 11.7839L39.6009 11.7837L38.9428 12.5367ZM43.0067 16.0902L43.6657 15.338L43.665 15.3374L43.0067 16.0902ZM51.4824 23.5154L50.8235 24.2676L50.8237 24.2678L51.4824 23.5154ZM51.6375 23.6526L51.0003 24.4233L51.0032 24.4256L51.6375 23.6526ZM50.9963 25.5466L50.9066 24.5506L50.9055 24.5507L50.9963 25.5466ZM43.2177 24.6812L42.5677 23.9212C42.5521 23.9346 42.5369 23.9484 42.5222 23.9626L43.2177 24.6812ZM44.2934 24.1504L44.5028 25.1282C44.5145 25.1257 44.5263 25.123 44.538 25.12L44.2934 24.1504ZM45.6904 24.0133L45.779 25.0094L45.7901 25.0083L45.6904 24.0133ZM40.2962 26.9311L41.0207 26.2417L40.2962 26.9311ZM41.4831 26.4462L40.7594 25.7561L41.4831 26.4462ZM40.7159 27.0831L40.8307 28.0765L40.7159 27.0831ZM39.4424 15.8577L40.4402 15.7914L39.4424 15.8577ZM46.0165 26.5421L45.1291 27.0031L46.0165 26.5421ZM39.5099 15.7579L39.1988 14.8075L39.5099 15.7579ZM39.6052 15.7774L38.9454 16.5289L39.6052 15.7774ZM47.8084 23.6789L48.5247 24.3767L47.8084 23.6789ZM47.263 22.5004L47.9228 21.7489L47.263 22.5004ZM47.9442 23.2529L48.9323 23.0986L47.9442 23.2529ZM44.0589 27.2629L43.2141 27.7979L44.0589 27.2629ZM43.4566 27.3172L44.1793 28.0083C44.1874 27.9998 44.1953 27.9912 44.2031 27.9825L43.4566 27.3172ZM45.1291 27.0031L47.3316 31.2425L49.1064 30.3205L46.9039 26.081L45.1291 27.0031ZM47.3316 31.2425C47.6403 31.8368 47.9491 32.4311 48.2578 33.0254C48.5666 33.6197 48.8753 34.2141 49.184 34.8084L50.9588 33.8864C50.6501 33.2921 50.3414 32.6977 50.0326 32.1034C49.7239 31.5091 49.4151 30.9148 49.1064 30.3205L47.3316 31.2425ZM49.1818 34.8041C49.2816 34.9983 49.2536 35.0682 49.2605 35.0387C49.2644 35.0224 49.2742 35.0017 49.2877 34.9856C49.3 34.9709 49.3011 34.9769 49.2707 34.9917L50.1485 36.7888C50.6704 36.5339 51.0672 36.0891 51.2068 35.4993C51.3398 34.937 51.2092 34.3739 50.961 33.8906L49.1818 34.8041ZM49.2707 34.9917C49.2379 35.0077 49.2313 35.004 49.2473 35.0034C49.2653 35.0026 49.2838 35.0068 49.2945 35.0116C49.3118 35.0191 49.2313 34.9901 49.1232 34.7819L47.3484 35.7039C47.5965 36.1815 47.9693 36.6147 48.4926 36.8438C49.0435 37.0848 49.6308 37.0417 50.1485 36.7888L49.2707 34.9917ZM49.1221 34.7799C47.7708 32.1935 46.4205 29.6062 45.0711 27.0181L43.2977 27.9427C44.6473 30.5314 45.9979 33.1191 47.3494 35.706L49.1221 34.7799ZM45.0704 27.0167C45.0188 26.9181 44.9632 26.8217 44.9037 26.7278L43.2141 27.7979C43.2442 27.8455 43.2723 27.8942 43.2984 27.944L45.0704 27.0167ZM42.7338 26.626C42.2124 27.1714 41.6853 27.7141 41.1548 28.2602C40.6253 28.8054 40.0924 29.354 39.564 29.9066L41.0095 31.2889C41.5316 30.7429 42.0591 30.1998 42.5895 29.6537C43.1191 29.1084 43.6516 28.5601 44.1793 28.0083L42.7338 26.626ZM39.5624 29.9083C39.4937 29.9804 39.4385 30.0312 39.393 30.0669C39.348 30.1023 39.3221 30.1152 39.3136 30.1189C39.308 30.1213 39.3155 30.1176 39.3297 30.1169C39.3439 30.1162 39.3407 30.1198 39.3126 30.1105L38.6848 32.0094C39.1912 32.1768 39.6768 32.141 40.1081 31.9543C40.5017 31.7839 40.7996 31.5094 41.0111 31.2871L39.5624 29.9083ZM39.3126 30.1105C39.2823 30.1005 39.2846 30.0962 39.3004 30.1093C39.317 30.1229 39.3267 30.1375 39.329 30.1418C39.3295 30.1428 39.3199 30.1253 39.3088 30.0763C39.2975 30.0265 39.2876 29.957 39.2814 29.8603L37.2855 29.9884C37.3057 30.3036 37.363 30.7148 37.5738 31.1006C37.8062 31.5261 38.1819 31.8431 38.6848 32.0094L39.3126 30.1105ZM39.2814 29.8604C39.0186 25.761 38.7475 21.6622 38.468 17.5637L36.4727 17.6998C36.752 21.7955 37.0229 25.8917 37.2855 29.9883L39.2814 29.8604ZM38.4681 17.5651C38.3814 16.2665 38.289 14.9651 38.1998 13.6707L36.2045 13.8082C36.2941 15.1087 36.386 16.4022 36.4726 17.6984L38.4681 17.5651ZM38.1997 13.6694C38.1901 13.5339 38.1819 13.4357 38.1753 13.3224L36.1786 13.4379C36.1861 13.566 36.1973 13.7065 36.2046 13.8096L38.1997 13.6694ZM38.1756 13.3272C38.1732 13.2824 38.1769 13.2567 38.179 13.2462C38.181 13.2366 38.1817 13.2391 38.1768 13.2479C38.1746 13.2518 38.172 13.2555 38.1694 13.2587C38.1668 13.2619 38.1652 13.2634 38.1653 13.2633C38.1655 13.2631 38.1682 13.2607 38.1747 13.2565C38.1812 13.2522 38.1918 13.246 38.2076 13.2386L37.3562 11.4289C36.9754 11.608 36.6499 11.8843 36.4353 12.2644C36.2235 12.6394 36.1579 13.0471 36.1784 13.4331L38.1756 13.3272ZM38.2076 13.2386C38.2352 13.2256 38.2437 13.226 38.2355 13.2271C38.2262 13.2284 38.2125 13.2283 38.1994 13.2256C38.1742 13.2205 38.202 13.2173 38.2847 13.2897L39.6009 11.7837C39.34 11.5557 39.0059 11.3482 38.5955 11.2652C38.1703 11.1793 37.748 11.2445 37.3562 11.4289L38.2076 13.2386ZM38.2846 13.2895L42.3485 16.843L43.665 15.3374L39.6011 11.7839L38.2846 13.2895ZM42.3478 16.8424L50.8235 24.2676L52.1414 22.7632L43.6657 15.338L42.3478 16.8424ZM50.8237 24.2678C50.8245 24.2685 50.9403 24.3737 51.0003 24.4233L52.2747 22.8818C52.2285 22.8437 52.2437 22.8528 52.1412 22.7631L50.8237 24.2678ZM51.0032 24.4256C51.1055 24.5096 51.1142 24.5492 51.1076 24.5317C51.1037 24.5213 51.101 24.5074 51.1009 24.4956C51.1009 24.4848 51.1031 24.4911 51.0938 24.519L52.9915 25.1505C53.1378 24.7108 53.1408 24.2574 52.9801 23.8291C52.8265 23.4197 52.5523 23.1096 52.2718 22.8795L51.0032 24.4256ZM51.0938 24.519C51.0873 24.5387 51.0848 24.5369 51.0937 24.5256C51.1027 24.5141 51.1121 24.5072 51.1145 24.5057C51.1152 24.5053 51.1023 24.5134 51.0673 24.5234C51.0317 24.5337 50.9794 24.544 50.9066 24.5506L51.0859 26.5425C51.4202 26.5125 51.8104 26.4278 52.1695 26.2048C52.5511 25.9679 52.8383 25.6108 52.9915 25.1505L51.0938 24.519ZM50.9055 24.5507C49.34 24.6934 47.7751 24.8379 46.2105 24.9843L46.3968 26.9756C47.9598 26.8294 49.5232 26.685 51.087 26.5424L50.9055 24.5507ZM38.4446 15.9241C38.6666 19.263 38.8897 22.6036 39.1171 26.0165L41.1127 25.8835C40.8853 22.4702 40.6622 19.1301 40.4402 15.7914L38.4446 15.9241ZM42.2068 27.1363C42.7888 26.526 43.3431 25.9515 43.9131 25.3997L42.5222 23.9626C41.9215 24.5441 41.3439 25.1431 40.7594 25.7561L42.2068 27.1363ZM43.8677 25.4411C44.0477 25.2871 44.2659 25.1789 44.5028 25.1282L44.084 23.1726C43.5242 23.2924 43.0025 23.5494 42.5677 23.9212L43.8677 25.4411ZM44.538 25.12C44.6744 25.0856 44.8361 25.0662 45.051 25.0526C45.2249 25.0415 45.5401 25.0306 45.779 25.0093L45.6018 23.0172C45.3783 23.0371 45.2206 23.0378 44.9244 23.0566C44.6692 23.0728 44.3636 23.1014 44.0488 23.1808L44.538 25.12ZM45.7901 25.0083C46.1649 24.9707 46.5395 24.9323 46.9206 24.8929L46.7147 22.9035C46.3348 22.9428 45.9626 22.981 45.5907 23.0182L45.7901 25.0083ZM47.9228 21.7489L40.2649 15.0259L38.9454 16.5289L46.6033 23.2519L47.9228 21.7489ZM39.1171 26.0165C39.1347 26.2798 39.1515 26.5467 39.1853 26.7603C39.2153 26.9497 39.2859 27.3199 39.5718 27.6204L41.0207 26.2417C41.1075 26.333 41.1454 26.4197 41.1587 26.4557C41.1704 26.4875 41.1679 26.4932 41.1607 26.4476C41.1539 26.4044 41.1465 26.34 41.1382 26.2409C41.13 26.1426 41.1223 26.0277 41.1127 25.8835L39.1171 26.0165ZM40.7594 25.7561C40.6597 25.8605 40.5803 25.9438 40.5111 26.014C40.4413 26.0848 40.3945 26.1294 40.3616 26.1582C40.3269 26.1885 40.3287 26.1825 40.3581 26.1656C40.3914 26.1465 40.4759 26.1042 40.601 26.0897L40.8307 28.0765C41.2426 28.0289 41.5339 27.7899 41.6783 27.6636C41.841 27.5213 42.0248 27.3272 42.2068 27.1363L40.7594 25.7561ZM39.5718 27.6204C39.8963 27.9614 40.3631 28.1306 40.8307 28.0765L40.601 26.0897C40.7574 26.0716 40.9122 26.1277 41.0207 26.2417L39.5718 27.6204ZM39.1988 14.8075C38.7218 14.9636 38.4113 15.4233 38.4446 15.9241L40.4402 15.7914C40.4676 16.2027 40.2126 16.5801 39.8209 16.7083L39.1988 14.8075ZM46.9039 26.081C47 26.266 46.9883 26.4701 46.9088 26.629C46.8263 26.7939 46.6459 26.9526 46.3959 26.9757L46.2115 24.9842C45.1549 25.0821 44.7187 26.2131 45.1291 27.0031L46.9039 26.081ZM39.8209 16.7083C39.5179 16.8075 39.185 16.7393 38.9454 16.5289L40.2649 15.0259C39.9732 14.7698 39.5678 14.6868 39.1988 14.8075L39.8209 16.7083ZM46.9206 24.8929C47.1889 24.8651 47.4585 24.8382 47.6728 24.7964C47.8601 24.76 48.2328 24.6764 48.5247 24.3767L47.0921 22.9812C47.182 22.8889 47.2688 22.8478 47.303 22.8339C47.3334 22.8215 47.3378 22.8241 47.2905 22.8333C47.2458 22.842 47.1796 22.852 47.0785 22.8642C46.9783 22.8762 46.8612 22.8883 46.7147 22.9035L46.9206 24.8929ZM46.6033 23.2519C46.714 23.3491 46.8025 23.4268 46.8773 23.4947C46.9527 23.5631 47.0009 23.6096 47.0324 23.6426C47.0657 23.6776 47.0605 23.6772 47.043 23.6495C47.0232 23.6183 46.9761 23.5345 46.9562 23.4072L48.9323 23.0986C48.8677 22.6852 48.6121 22.4012 48.4805 22.2631C48.3299 22.105 48.1256 21.9269 47.9228 21.7489L46.6033 23.2519ZM48.5247 24.3767C48.8541 24.0385 49.0051 23.565 48.9323 23.0986L46.9562 23.4072C46.9319 23.2517 46.9823 23.0939 47.0921 22.9812L48.5247 24.3767ZM44.9037 26.7278C44.6092 26.2628 44.105 26.0632 43.6183 26.1384C43.2138 26.201 42.9047 26.4334 42.71 26.6518L44.2031 27.9825C44.1906 27.9966 44.1094 28.0862 43.9239 28.1149C43.8188 28.1312 43.675 28.1263 43.5242 28.0596C43.3705 27.9917 43.27 27.8863 43.2141 27.7979L44.9037 26.7278Z" fill="#1F51FF" mask="url(#path-2-inside-1_665_13221)"/>
</g>
<g filter="url(#filter2_d_665_13221)">
<path d="M16.0493 8.69627L16.0494 8.69627L16.0475 8.69261C15.753 8.09822 14.9244 8.10608 14.6147 8.66219C14.578 8.72813 14.5417 8.79368 14.5054 8.86025C13.7239 10.2923 12.9434 11.7247 12.1637 13.1577L12.1636 13.1579C12.073 13.3247 11.9863 13.4241 11.9056 13.4805C11.835 13.5299 11.7454 13.5636 11.6022 13.5557C11.4498 13.5473 11.3579 13.5035 11.2902 13.4481C11.2152 13.3866 11.1387 13.2843 11.0652 13.1152L11.0651 13.115C10.6497 12.1596 10.2334 11.2064 9.81737 10.2537C9.28039 9.02418 8.74378 7.79547 8.20984 6.56388L8.20984 6.56388C8.10186 6.31483 8.10736 6.13851 8.14388 6.03013C8.17767 5.92988 8.25717 5.82839 8.43216 5.75494C8.60488 5.68245 8.73329 5.69602 8.83295 5.74428C8.94202 5.79708 9.07798 5.92237 9.1898 6.17923L9.1898 6.17923L9.19053 6.18089C9.65873 7.24577 10.1228 8.31308 10.5997 9.40985C10.7381 9.72831 10.8777 10.0493 11.0187 10.3733C11.2544 10.9149 12.0868 11.0742 12.4277 10.4544L12.4278 10.4543C13.1976 9.05383 13.9649 7.65568 14.7309 6.2505L14.7312 6.25001C14.8653 6.00344 14.9576 5.846 15.0673 5.74063C15.1505 5.66065 15.2452 5.60866 15.4239 5.61402C15.5958 5.61918 15.6841 5.67569 15.763 5.76375C15.8682 5.88126 15.9486 6.04608 16.0724 6.30345L16.0726 6.30377C16.734 7.67568 17.3992 9.05033 18.0681 10.4277C18.3661 11.0422 19.2218 11.0327 19.533 10.4545C19.6493 10.2382 19.7645 10.0241 19.8788 9.81157C20.224 9.16961 20.5616 8.54198 20.9008 7.91421C21.0603 7.61964 21.219 7.32448 21.3774 7.03005L21.3779 7.02905C21.5365 6.73408 21.6947 6.43983 21.8536 6.14637C21.8591 6.13632 21.8642 6.12608 21.8689 6.11567C21.9101 6.02528 21.9783 5.94738 22.0664 5.89292C22.1545 5.83841 22.258 5.81026 22.3638 5.81295L22.3637 5.81311H22.3765C22.5084 5.81311 22.5944 5.84669 22.6594 5.89231C22.7295 5.94158 22.8027 6.02492 22.8712 6.16143L22.872 6.16308C23.9891 8.36828 25.0973 10.5753 26.1967 12.7842L26.1969 12.7844C26.2924 12.9761 26.2938 13.1319 26.2606 13.2404C26.228 13.3467 26.1502 13.4486 26.0054 13.5194L26.0054 13.5194L26.0018 13.5212C25.8391 13.6025 25.711 13.5986 25.6106 13.5593C25.503 13.5172 25.3671 13.4101 25.2498 13.1803L25.2494 13.1795C24.7712 12.2468 24.2997 11.3122 23.8278 10.3768C23.574 9.8737 23.32 9.37038 23.0649 8.86709C22.7608 8.25789 21.9206 8.29458 21.6209 8.85371C21.4569 9.15984 21.2948 9.46348 21.134 9.76491C20.5263 10.9035 19.9356 12.0104 19.3181 13.1C19.1851 13.3085 18.9842 13.4697 18.7454 13.5564C18.6553 13.5858 18.594 13.574 18.5275 13.5326C18.4414 13.4789 18.3275 13.3583 18.2161 13.1329C17.4901 11.6554 16.7679 10.1765 16.0493 8.69627Z" stroke="#1F51FF" stroke-linecap="round" stroke-linejoin="round" shape-rendering="crispEdges"/>
</g>
<g filter="url(#filter3_d_665_13221)">
<path d="M39.7482 8.84475L39.7482 8.82784C39.7714 7.48317 39.7714 6.13896 39.7482 4.79522L39.7482 8.84475ZM39.7482 8.84475C39.7492 8.90887 39.7369 8.97275 39.7118 9.03257C39.6867 9.09241 39.6491 9.14724 39.6008 9.19341C39.5526 9.23961 39.4946 9.27613 39.4304 9.30025C39.3661 9.32437 39.2972 9.33544 39.228 9.33258L39.228 9.33253M39.7482 8.84475L39.228 9.33253M39.228 9.33253L39.2208 9.33234M39.228 9.33253L39.2208 9.33234M39.2208 9.33234C38.9471 9.32495 38.723 9.12891 38.7139 8.7731C38.7021 8.2962 38.7043 7.81946 38.7066 7.33329C38.7075 7.13575 38.7084 6.93665 38.7084 6.73535C38.7084 6.51898 38.7073 6.30545 38.7062 6.09345M39.2208 9.33234L38.7062 6.09345M38.7062 6.09345C38.7041 5.67522 38.7019 5.2629 38.7084 4.84632M38.7062 6.09345L38.7084 4.84632M38.7084 4.84632C38.7117 4.63139 38.7771 4.49818 38.8486 4.4209M38.7084 4.84632L38.8486 4.4209M38.8486 4.4209C38.9186 4.34527 39.0289 4.28566 39.198 4.27792L38.8486 4.4209ZM39.198 4.27792C39.3815 4.26954 39.5125 4.32565 39.5951 4.40128C39.6756 4.475 39.7447 4.59863 39.7482 4.7951L39.198 4.27792Z" stroke="#1F51FF" stroke-linecap="round" stroke-linejoin="round" shape-rendering="crispEdges"/>
</g>
<g filter="url(#filter4_d_665_13221)">
<path d="M34.6319 10.7993L34.6318 10.7994C34.6762 10.8417 34.7434 10.8864 34.8717 10.9534C34.9706 11.0051 35.0266 11.0342 35.0683 11.0531C35.0717 11.0546 35.0747 11.056 35.0775 11.0572C35.0799 11.0556 35.0827 11.0538 35.0857 11.0518C35.1237 11.0265 35.174 10.989 35.263 10.9222C35.4134 10.8093 35.4968 10.7295 35.5446 10.6547C35.6 10.5678 35.6062 10.4967 35.5903 10.4262C35.5716 10.3432 35.5136 10.2324 35.3922 10.1123L34.6319 10.7993ZM34.6319 10.7993L34.6277 10.7955M34.6319 10.7993L34.6277 10.7955M34.6277 10.7955C33.6835 9.91493 32.758 9.02 31.8354 8.1102L31.8346 8.1094M34.6277 10.7955L31.8346 8.1094M31.8346 8.1094C31.6591 7.9371 31.6016 7.78041 31.5953 7.66685M31.8346 8.1094L31.5953 7.66685M31.5953 7.66685C31.5894 7.55861 31.6262 7.43434 31.7509 7.30578M31.5953 7.66685L31.7509 7.30578M31.7509 7.30578C31.8702 7.18286 31.9999 7.1373 32.1233 7.14027M31.7509 7.30578L32.1233 7.14027M32.1233 7.14027C32.2507 7.14334 32.4145 7.20012 32.583 7.36125M32.1233 7.14027L32.583 7.36125M32.583 7.36125C33.4876 8.22839 34.3786 9.10962 35.2721 9.99347C35.3121 10.033 35.3521 10.0726 35.3921 10.1121L32.583 7.36125Z" stroke="#1F51FF" stroke-linecap="round" stroke-linejoin="round" shape-rendering="crispEdges"/>
</g>
<g filter="url(#filter5_d_665_13221)">
<path d="M46.5166 7.21238L46.5166 7.2124L46.5213 7.21429C46.6245 7.25583 46.6817 7.3033 46.7205 7.35342C46.7618 7.4068 46.8045 7.4922 46.8342 7.64027L46.8428 7.68409C46.8444 7.69254 46.8455 7.69828 46.8461 7.70227C46.8455 7.70382 46.8448 7.70558 46.844 7.70757C46.8351 7.72905 46.8221 7.75805 46.7981 7.81114C46.7431 7.93282 46.701 8.0032 46.6626 8.04211L47.0182 8.39352L46.6629 8.04179C45.708 9.00657 44.7377 9.95907 43.7522 10.8993C43.6079 11.0365 43.4696 11.08 43.3579 11.0798C43.2445 11.0797 43.1146 11.0345 42.9891 10.9158C42.8732 10.8062 42.8303 10.688 42.8311 10.5812C42.8319 10.4734 42.878 10.3285 43.0315 10.1745C43.9797 9.22588 44.9423 8.29045 45.9079 7.35208C46.0216 7.24199 46.1206 7.19143 46.2031 7.17242C46.2814 7.15442 46.3809 7.15611 46.5166 7.21238Z" stroke="#1F51FF" stroke-linecap="round" stroke-linejoin="round" shape-rendering="crispEdges"/>
</g>
<g filter="url(#filter6_d_665_13221)">
<path d="M31.2443 15.1116H31.2443C31.0196 15.1116 30.7969 15.1125 30.5755 15.1134C30.1362 15.1153 29.7014 15.1171 29.2639 15.1116C29.03 15.1087 28.8811 15.039 28.7963 14.9626C28.7156 14.8901 28.6581 14.7817 28.6554 14.6198C28.6526 14.4555 28.7077 14.3406 28.7859 14.2646C28.8657 14.187 29.0062 14.1152 29.2314 14.1119L29.232 14.1119C30.5698 14.091 31.9071 14.091 33.2439 14.1119L33.2455 14.1119C33.6622 14.1171 33.8384 14.3574 33.8359 14.6165C33.8344 14.7642 33.7802 14.8719 33.6938 14.9498C33.6039 15.031 33.4509 15.1036 33.2228 15.1143H31.297C31.2797 15.1125 31.2621 15.1116 31.2443 15.1116Z" stroke="#1F51FF" stroke-linecap="round" stroke-linejoin="round" shape-rendering="crispEdges"/>
</g>
<g filter="url(#filter7_d_665_13221)">
<path d="M45.1998 14.1201L45.2007 14.1201C46.5377 14.1037 47.8757 14.1037 49.2146 14.1201L49.2146 14.1201H49.2208C49.4447 14.1201 49.581 14.1898 49.6576 14.2642C49.7333 14.3376 49.7902 14.4532 49.7881 14.625C49.7861 14.7968 49.7288 14.9019 49.6549 14.9691C49.5759 15.041 49.4298 15.1121 49.1827 15.1171C48.7384 15.1261 48.3121 15.1231 47.878 15.1201C47.6573 15.1186 47.4345 15.117 47.2063 15.117C46.9782 15.117 46.7537 15.1184 46.5312 15.1198C46.0933 15.1225 45.663 15.1252 45.2276 15.1171C44.997 15.1128 44.8441 15.0411 44.7544 14.9601C44.6681 14.8821 44.6126 14.7718 44.6104 14.6221C44.6067 14.3689 44.7867 14.1244 45.1998 14.1201Z" stroke="#1F51FF" stroke-linecap="round" stroke-linejoin="round" shape-rendering="crispEdges"/>
</g>
<g filter="url(#filter8_d_665_13221)">
<path d="M31.5841 21.5606C31.5866 21.4538 31.6352 21.3102 31.7883 21.1574C32.4585 20.4944 33.1372 19.8427 33.8184 19.1887C34.0709 18.9463 34.3238 18.7035 34.5766 18.4597C34.771 18.2732 34.9441 18.2773 35.0728 18.356L35.0748 18.3572C35.1481 18.4015 35.2265 18.478 35.3363 18.6146C35.4086 18.7047 35.4496 18.756 35.4773 18.7948C35.4796 18.7981 35.4817 18.8011 35.4835 18.8037C35.4824 18.8063 35.4812 18.8091 35.4798 18.8122C35.461 18.8543 35.4321 18.9106 35.3802 19.011C35.3293 19.1094 35.2958 19.1561 35.2685 19.184L35.6255 19.534L35.269 19.1835C34.3743 20.0937 33.4662 20.9861 32.5446 21.8608L32.5446 21.8608L32.5428 21.8625C32.3795 22.0191 32.2289 22.069 32.1146 22.0712C32.0024 22.0735 31.874 22.0312 31.7453 21.9061C31.621 21.7853 31.5817 21.6643 31.5841 21.5606Z" stroke="#1F51FF" stroke-linecap="round" stroke-linejoin="round" shape-rendering="crispEdges"/>
</g>
</g>
<defs>
<filter id="filter0_d_665_13221" x="-8.99902" y="-9.00842" width="71.002" height="36.5991" filterUnits="userSpaceOnUse" color-interpolation-filters="sRGB">
<feFlood flood-opacity="0" result="BackgroundImageFix"/>
<feColorMatrix in="SourceAlpha" type="matrix" values="0 0 0 0 0 0 0 0 0 0 0 0 0 0 0 0 0 0 127 0" result="hardAlpha"/>
<feOffset/>
<feGaussianBlur stdDeviation="4.5"/>
<feComposite in2="hardAlpha" operator="out"/>
<feColorMatrix type="matrix" values="0 0 0 0 0.121569 0 0 0 0 0.317647 0 0 0 0 1 0 0 0 0.6 0"/>
<feBlend mode="normal" in2="BackgroundImageFix" result="effect1_dropShadow_665_13221"/>
<feBlend mode="normal" in="SourceGraphic" in2="effect1_dropShadow_665_13221" result="shape"/>
</filter>
<filter id="filter1_d_665_13221" x="28.1748" y="3.22791" width="32.9258" height="41.7754" filterUnits="userSpaceOnUse" color-interpolation-filters="sRGB">
<feFlood flood-opacity="0" result="BackgroundImageFix"/>
<feColorMatrix in="SourceAlpha" type="matrix" values="0 0 0 0 0 0 0 0 0 0 0 0 0 0 0 0 0 0 127 0" result="hardAlpha"/>
<feOffset/>
<feGaussianBlur stdDeviation="4.5"/>
<feComposite in2="hardAlpha" operator="out"/>
<feColorMatrix type="matrix" values="0 0 0 0 0.121569 0 0 0 0 0.317647 0 0 0 0 1 0 0 0 0.6 0"/>
<feBlend mode="normal" in2="BackgroundImageFix" result="effect1_dropShadow_665_13221"/>
<feBlend mode="normal" in="SourceGraphic" in2="effect1_dropShadow_665_13221" result="shape"/>
</filter>
<filter id="filter2_d_665_13221" x="-1.37988" y="-3.88635" width="37.1602" height="26.9728" filterUnits="userSpaceOnUse" color-interpolation-filters="sRGB">
<feFlood flood-opacity="0" result="BackgroundImageFix"/>
<feColorMatrix in="SourceAlpha" type="matrix" values="0 0 0 0 0 0 0 0 0 0 0 0 0 0 0 0 0 0 127 0" result="hardAlpha"/>
<feOffset/>
<feGaussianBlur stdDeviation="4.5"/>
<feComposite in2="hardAlpha" operator="out"/>
<feColorMatrix type="matrix" values="0 0 0 0 0.121569 0 0 0 0 0.317647 0 0 0 0 1 0 0 0 0.6 0"/>
<feBlend mode="normal" in2="BackgroundImageFix" result="effect1_dropShadow_665_13221"/>
<feBlend mode="normal" in="SourceGraphic" in2="effect1_dropShadow_665_13221" result="shape"/>
</filter>
<filter id="filter3_d_665_13221" x="29.2041" y="-5.2229" width="20.0615" height="24.0559" filterUnits="userSpaceOnUse" color-interpolation-filters="sRGB">
<feFlood flood-opacity="0" result="BackgroundImageFix"/>
<feColorMatrix in="SourceAlpha" type="matrix" values="0 0 0 0 0 0 0 0 0 0 0 0 0 0 0 0 0 0 127 0" result="hardAlpha"/>
<feOffset/>
<feGaussianBlur stdDeviation="4.5"/>
<feComposite in2="hardAlpha" operator="out"/>
<feColorMatrix type="matrix" values="0 0 0 0 0.121569 0 0 0 0 0.317647 0 0 0 0 1 0 0 0 0.6 0"/>
<feBlend mode="normal" in2="BackgroundImageFix" result="effect1_dropShadow_665_13221"/>
<feBlend mode="normal" in="SourceGraphic" in2="effect1_dropShadow_665_13221" result="shape"/>
</filter>
<filter id="filter4_d_665_13221" x="22.0947" y="-2.35986" width="23.0029" height="22.9216" filterUnits="userSpaceOnUse" color-interpolation-filters="sRGB">
<feFlood flood-opacity="0" result="BackgroundImageFix"/>
<feColorMatrix in="SourceAlpha" type="matrix" values="0 0 0 0 0 0 0 0 0 0 0 0 0 0 0 0 0 0 127 0" result="hardAlpha"/>
<feOffset/>
<feGaussianBlur stdDeviation="4.5"/>
<feComposite in2="hardAlpha" operator="out"/>
<feColorMatrix type="matrix" values="0 0 0 0 0.121569 0 0 0 0 0.317647 0 0 0 0 1 0 0 0 0.6 0"/>
<feBlend mode="normal" in2="BackgroundImageFix" result="effect1_dropShadow_665_13221"/>
<feBlend mode="normal" in="SourceGraphic" in2="effect1_dropShadow_665_13221" result="shape"/>
</filter>
<filter id="filter5_d_665_13221" x="33.3311" y="-2.33777" width="23.0156" height="22.9176" filterUnits="userSpaceOnUse" color-interpolation-filters="sRGB">
<feFlood flood-opacity="0" result="BackgroundImageFix"/>
<feColorMatrix in="SourceAlpha" type="matrix" values="0 0 0 0 0 0 0 0 0 0 0 0 0 0 0 0 0 0 127 0" result="hardAlpha"/>
<feOffset/>
<feGaussianBlur stdDeviation="4.5"/>
<feComposite in2="hardAlpha" operator="out"/>
<feColorMatrix type="matrix" values="0 0 0 0 0.121569 0 0 0 0 0.317647 0 0 0 0 1 0 0 0 0.6 0"/>
<feBlend mode="normal" in2="BackgroundImageFix" result="effect1_dropShadow_665_13221"/>
<feBlend mode="normal" in="SourceGraphic" in2="effect1_dropShadow_665_13221" result="shape"/>
</filter>
<filter id="filter6_d_665_13221" x="19.1553" y="4.59619" width="24.1807" height="20.019" filterUnits="userSpaceOnUse" color-interpolation-filters="sRGB">
<feFlood flood-opacity="0" result="BackgroundImageFix"/>
<feColorMatrix in="SourceAlpha" type="matrix" values="0 0 0 0 0 0 0 0 0 0 0 0 0 0 0 0 0 0 127 0" result="hardAlpha"/>
<feOffset/>
<feGaussianBlur stdDeviation="4.5"/>
<feComposite in2="hardAlpha" operator="out"/>
<feColorMatrix type="matrix" values="0 0 0 0 0.121569 0 0 0 0 0.317647 0 0 0 0 1 0 0 0 0.6 0"/>
<feBlend mode="normal" in2="BackgroundImageFix" result="effect1_dropShadow_665_13221"/>
<feBlend mode="normal" in="SourceGraphic" in2="effect1_dropShadow_665_13221" result="shape"/>
</filter>
<filter id="filter7_d_665_13221" x="35.1104" y="4.60779" width="24.1777" height="20.0153" filterUnits="userSpaceOnUse" color-interpolation-filters="sRGB">
<feFlood flood-opacity="0" result="BackgroundImageFix"/>
<feColorMatrix in="SourceAlpha" type="matrix" values="0 0 0 0 0 0 0 0 0 0 0 0 0 0 0 0 0 0 127 0" result="hardAlpha"/>
<feOffset/>
<feGaussianBlur stdDeviation="4.5"/>
<feComposite in2="hardAlpha" operator="out"/>
<feColorMatrix type="matrix" values="0 0 0 0 0.121569 0 0 0 0 0.317647 0 0 0 0 1 0 0 0 0.6 0"/>
<feBlend mode="normal" in2="BackgroundImageFix" result="effect1_dropShadow_665_13221"/>
<feBlend mode="normal" in="SourceGraphic" in2="effect1_dropShadow_665_13221" result="shape"/>
</filter>
<filter id="filter8_d_665_13221" x="22.084" y="8.8042" width="22.9043" height="22.7671" filterUnits="userSpaceOnUse" color-interpolation-filters="sRGB">
<feFlood flood-opacity="0" result="BackgroundImageFix"/>
<feColorMatrix in="SourceAlpha" type="matrix" values="0 0 0 0 0 0 0 0 0 0 0 0 0 0 0 0 0 0 127 0" result="hardAlpha"/>
<feOffset/>
<feGaussianBlur stdDeviation="4.5"/>
<feComposite in2="hardAlpha" operator="out"/>
<feColorMatrix type="matrix" values="0 0 0 0 0.121569 0 0 0 0 0.317647 0 0 0 0 1 0 0 0 0.6 0"/>
<feBlend mode="normal" in2="BackgroundImageFix" result="effect1_dropShadow_665_13221"/>
<feBlend mode="normal" in="SourceGraphic" in2="effect1_dropShadow_665_13221" result="shape"/>
</filter>
<clipPath id="clip0_665_13221">
<rect width="53" height="36" fill="white"/>
</clipPath>
</defs>
</svg>
