<svg width="27" height="27" viewBox="0 0 27 27" fill="none" xmlns="http://www.w3.org/2000/svg">
<path d="M6.45067 15.9082L13.4033 22.4395C13.6428 22.6644 13.7625 22.7769 13.9037 22.8046C13.9673 22.8171 14.0327 22.8171 14.0963 22.8046C14.2375 22.7769 14.3572 22.6644 14.5967 22.4395L21.5493 15.9082C23.5055 14.0706 23.743 11.0466 22.0978 8.92607L21.7885 8.52734C19.8203 5.99058 15.8696 6.41601 14.4867 9.31365C14.2913 9.72296 13.7087 9.72296 13.5133 9.31365C12.1304 6.41601 8.17972 5.99058 6.21154 8.52735L5.90219 8.92607C4.25695 11.0466 4.4945 14.0706 6.45067 15.9082Z" stroke="white" stroke-width="1.5"/>
</svg>
