<svg width="42" height="42" viewBox="0 0 42 42" fill="none" xmlns="http://www.w3.org/2000/svg">
<path d="M6.125 16.415C6.125 14.6508 6.125 13.7688 6.46833 13.0949C6.77033 12.5022 7.25222 12.0203 7.84493 11.7183C8.51875 11.375 9.40083 11.375 11.165 11.375H30.835C32.5992 11.375 33.4812 11.375 34.1551 11.7183C34.7478 12.0203 35.2297 12.5022 35.5317 13.0949C35.875 13.7688 35.875 14.6508 35.875 16.415V27.335C35.875 29.0992 35.875 29.9812 35.5317 30.6551C35.2297 31.2478 34.7478 31.7297 34.1551 32.0317C33.4812 32.375 32.5992 32.375 30.835 32.375H11.165C9.40083 32.375 8.51875 32.375 7.84493 32.0317C7.25222 31.7297 6.77033 31.2478 6.46833 30.6551C6.125 29.9812 6.125 29.0992 6.125 27.335V16.415Z" stroke="#143C7C" stroke-width="2" stroke-linecap="round" stroke-linejoin="round"/>
<path d="M6.125 18.375L35.875 18.375" stroke="#143C7C" stroke-width="2" stroke-linecap="round" stroke-linejoin="round"/>
<circle cx="11.375" cy="27.125" r="0.875" stroke="#143C7C" stroke-width="2" stroke-linecap="round" stroke-linejoin="round"/>
</svg>
