<svg width="93" height="108" viewBox="0 0 93 108" fill="none" xmlns="http://www.w3.org/2000/svg">
<path d="M73.3047 66.0473C77.5826 64.6066 81.3332 61.9219 84.0764 58.337L85.4371 56.5229C93.034 46.715 92.0135 33.8457 83.5662 28.5732L82.0922 27.6095L92.9206 13.4929L83.8497 7.82361L73.248 21.6567L68.996 18.8787L79.4843 5.15906L70.9235 0L60.662 13.4362L47.0556 4.64882L39.2319 14.8536L47.6792 20.5228L15.7041 62.1922L9.07095 56.5229L0 65.7072L12.0757 76.6489L2.09763 89.6883L9.24103 96.6048L19.4459 83.282L23.2443 86.7402L12.6993 100.687L20.3529 108L30.8412 94.3371L34.8665 97.9654C43.4272 105.732 57.5439 103.124 66.3881 91.8426L67.9755 89.8017C70.6708 86.5411 72.5583 82.6903 73.4844 78.5626C74.4104 74.4348 74.3489 70.1467 73.3047 66.0473ZM60.2085 49.0394L50.9674 42.2929L61.5124 28.5166L70.9802 34.9796C71.7692 35.5547 72.415 36.304 72.8673 37.1692C73.3196 38.0345 73.5663 38.9924 73.5881 39.9685C73.6605 42.249 72.9167 44.4805 71.4905 46.2615C70.3675 48.1279 68.5669 49.4884 66.4646 50.0589C64.3623 50.6293 62.1209 50.3656 60.2085 49.3229V49.0394ZM41.7264 54.3119L52.3848 62.8725C53.4294 63.7314 54.2673 64.8143 54.8365 66.0411C55.4057 67.2678 55.6916 68.6069 55.673 69.9591C55.7492 73.0817 54.7258 76.1317 52.7816 78.5764C52.0388 79.795 51.0552 80.8491 49.8909 81.6743C48.7266 82.4995 47.4061 83.0784 46.0103 83.3756C44.6145 83.6728 43.1728 83.682 41.7733 83.4027C40.3738 83.1234 39.046 82.5615 37.8713 81.7513L27.6664 73.0205L41.7264 54.3119Z" fill="#8CBFFF"/>
</svg>
