<svg width="27" height="27" viewBox="0 0 27 27" fill="none" xmlns="http://www.w3.org/2000/svg">
<path d="M14 8.72C14 8.47161 14 8.34742 14.0567 8.24546C14.1028 8.1624 14.1921 8.08326 14.2801 8.04738C14.3881 8.00333 14.4981 8.0166 14.7183 8.04315C15.52 8.13981 16.2964 8.39764 17 8.80385C17.9121 9.33046 18.6695 10.0879 19.1962 11C19.7228 11.9121 20 12.9468 20 14C20 15.0532 19.7228 16.0879 19.1962 17C18.6695 17.9121 17.9121 18.6695 17 19.1962C16.0879 19.7228 15.0532 20 14 20C12.9468 20 11.9121 19.7228 11 19.1962C10.2964 18.7899 9.68491 18.2464 9.20036 17.6005C9.0673 17.4231 9.00077 17.3344 8.98491 17.2189C8.97199 17.1247 8.9959 17.0078 9.04475 16.9263C9.10472 16.8263 9.21227 16.7642 9.42739 16.64L13.64 14.2078C13.7711 14.1321 13.8367 14.0943 13.8844 14.0413C13.9266 13.9944 13.9585 13.9392 13.978 13.8793C14 13.8115 14 13.7357 14 13.5843V8.72Z" fill="white"/>
<circle cx="14" cy="14" r="8.75" stroke="white" stroke-width="1.5"/>
</svg>
