<svg width="61" height="22" viewBox="0 0 61 22" fill="none" xmlns="http://www.w3.org/2000/svg">
<path d="M60.9433 3.38898C54.3888 5.73048 47.8326 8.07367 41.2747 10.4186C32.5516 13.5272 23.8413 16.6461 15.1054 19.7113C12.7119 20.5542 10.3006 21.4994 7.81524 21.9132C2.52007 22.8251 -1.52603 16.3574 0.55832 11.9869C2.25186 8.43639 4.9467 6.27285 8.64285 5.14127C13.067 3.78746 17.4171 2.18077 21.877 0.972564C29.0956 -0.986626 35.9617 -0.0287436 42.2096 4.23703C44.4473 5.76964 46.7257 6.3597 49.418 5.67768C53.0759 4.75301 56.7822 4.02502 60.4707 3.22039C60.6354 3.20254 60.8016 3.20254 60.9663 3.22039L60.9433 3.38898Z" fill="#1F51FF"/>
</svg>
