<svg width="43" height="43" viewBox="0 0 43 43" fill="none" xmlns="http://www.w3.org/2000/svg">
<path d="M21.4993 1.7915C32.3835 1.7915 41.2077 10.6157 41.2077 21.4998C41.2077 32.3839 32.3831 41.2082 21.4993 41.2082C10.6156 41.2082 1.79102 32.3864 1.79102 21.4998C1.79102 10.6133 10.6141 1.7915 21.4993 1.7915Z" fill="#53AE94"/>
<path d="M23.9324 18.8741V15.9422H30.6368V11.4751H12.3806V15.9422H19.0858V18.8716C13.6364 19.1219 9.53906 20.2011 9.53906 21.494C9.53906 22.7869 13.6384 23.8662 19.0858 24.118V33.509H23.934V24.1172C29.3735 23.8662 33.4627 22.7877 33.4627 21.496C33.4627 20.2044 29.3735 19.1259 23.934 18.8748L23.9324 18.8741ZM23.934 23.3218V23.3194C23.7972 23.3281 23.0945 23.3702 21.5296 23.3702C20.2785 23.3702 19.3983 23.3348 19.0881 23.3186V23.3226C14.2738 23.1094 10.6802 22.271 10.6802 21.2678C10.6802 20.2647 14.2742 19.4274 19.0881 19.2138V22.4873C19.4034 22.509 20.3054 22.5622 21.5501 22.5622C23.0452 22.5622 23.7969 22.4999 23.9348 22.4873V19.2138C28.7397 19.4279 32.325 20.267 32.325 21.2666C32.325 22.2662 28.7373 23.1054 23.934 23.3194" fill="white"/>
</svg>
