<svg width="21" height="28" viewBox="0 0 21 28" fill="none" xmlns="http://www.w3.org/2000/svg">
<path d="M10.0239 25.1772C10.0239 25.1771 10.0255 25.1751 10.0287 25.1717C10.0255 25.1756 10.0239 25.1774 10.0239 25.1772ZM11.3878 25.5454C11.3878 25.5455 11.3872 25.5433 11.3864 25.5382C11.3875 25.5428 11.3879 25.5453 11.3878 25.5454ZM10.6858 2.82277C10.6858 2.82288 10.6841 2.82484 10.681 2.82829C10.6842 2.82437 10.6858 2.82265 10.6858 2.82277ZM9.32187 2.45458C9.32192 2.45447 9.32244 2.45676 9.32324 2.46176C9.32221 2.45718 9.32181 2.45468 9.32187 2.45458ZM1.24418 16.9895L1.24418 16.9895C1.62474 17.6515 2.28753 17.8527 2.81623 17.9312C3.3192 18.0058 3.96979 18.0058 4.68914 18.0057L4.76258 18.0057H9.34191V24.7855C9.34191 24.8032 9.3419 24.8208 9.3419 24.8385C9.34181 25.169 9.34172 25.5049 9.37253 25.7616C9.38857 25.8952 9.42228 26.1037 9.52248 26.3102C9.63785 26.548 9.87195 26.8363 10.2781 26.946C10.6842 27.0556 11.0316 26.9243 11.251 26.7768C11.4415 26.6488 11.5755 26.4856 11.6566 26.3782C11.8124 26.1719 11.9814 25.8816 12.1476 25.5959C12.1565 25.5807 12.1654 25.5654 12.1743 25.5501L18.5731 14.5624L18.61 14.4989C18.9721 13.8773 19.2996 13.3151 19.4882 12.8429C19.6864 12.3466 19.8461 11.6725 19.4655 11.0105C19.0849 10.3485 18.4221 10.1473 17.8934 10.0688C17.3905 9.99415 16.7399 9.99423 16.0206 9.99432C15.9961 9.99432 15.9717 9.99432 15.9471 9.99432H11.3678V3.21447C11.3678 3.19684 11.3678 3.17919 11.3678 3.16151C11.3679 2.831 11.368 2.49514 11.3371 2.23845C11.3211 2.10483 11.2874 1.89634 11.1872 1.68979C11.0718 1.45197 10.8377 1.16366 10.4316 1.05402C10.0255 0.944384 9.67809 1.07572 9.45871 1.22318C9.26818 1.35123 9.13413 1.51444 9.05303 1.62183C8.89722 1.82815 8.72828 2.11843 8.56203 2.40409C8.55314 2.41936 8.54426 2.43462 8.53539 2.44985L2.13661 13.4376C2.12425 13.4589 2.11193 13.48 2.09964 13.5011C1.73757 14.1227 1.4101 14.6849 1.22151 15.1571C1.02327 15.6534 0.863621 16.3275 1.24418 16.9895Z" stroke="#1F51FF" stroke-width="2"/>
</svg>
