<svg width="150" height="17" viewBox="0 0 150 17" fill="none" xmlns="http://www.w3.org/2000/svg">
<path d="M16.9446 4.99542C16.9048 4.09262 16.7588 3.47195 16.5496 2.93413C16.3339 2.36325 16.002 1.85215 15.5671 1.42726C15.1422 0.995764 14.6277 0.660472 14.0635 0.448094C13.5226 0.238957 12.9051 0.0929639 12.0023 0.0531593C11.0928 0.00998356 10.804 0 8.49719 0C6.19033 0 5.90159 0.00998356 4.99542 0.0497882C4.09262 0.0895928 3.47195 0.235716 2.93426 0.444723C2.36325 0.660472 1.85215 0.992393 1.42726 1.42726C0.995764 1.85215 0.660601 2.36662 0.448094 2.93089C0.238957 3.47195 0.0929639 4.08924 0.0531593 4.99204C0.00998356 5.90159 0 6.19033 0 8.49718C0 10.804 0.00998356 11.0928 0.0497882 11.999C0.0895928 12.9018 0.235716 13.5224 0.444852 14.0602C0.660601 14.6311 0.995764 15.1422 1.42726 15.5671C1.85215 15.9986 2.36663 16.3339 2.93089 16.5463C3.47195 16.7554 4.08924 16.9014 4.99217 16.9412C5.89822 16.9811 6.18709 16.991 8.49394 16.991C10.8008 16.991 11.0895 16.9811 11.9957 16.9412C12.8985 16.9014 13.5192 16.7554 14.0569 16.5463C15.1988 16.1048 16.1016 15.202 16.543 14.0602C16.752 13.5192 16.8982 12.9018 16.938 11.999C16.9778 11.0928 16.9878 10.804 16.9878 8.49718C16.9878 6.19033 16.9844 5.90159 16.9446 4.99542ZM15.4145 11.9326C15.3779 12.7624 15.2386 13.2105 15.1224 13.5092C14.8369 14.2494 14.2494 14.8369 13.5092 15.1224C13.2105 15.2386 12.7591 15.3779 11.9326 15.4144C11.0364 15.4543 10.7676 15.4642 8.50056 15.4642C6.23351 15.4642 5.96136 15.4543 5.06841 15.4144C4.23861 15.3779 3.79052 15.2386 3.49179 15.1224C3.12343 14.9862 2.78814 14.7705 2.51599 14.4884C2.23386 14.2128 2.01811 13.8809 1.88197 13.5126C1.7658 13.2138 1.62641 12.7624 1.58998 11.9359C1.55005 11.0398 1.54019 10.7708 1.54019 8.5038C1.54019 6.23675 1.55005 5.9646 1.58998 5.07178C1.62641 4.24198 1.7658 3.79389 1.88197 3.49516C2.01811 3.12667 2.23386 2.79151 2.51936 2.51923C2.79475 2.2371 3.12667 2.02135 3.49516 1.88534C3.79389 1.76917 4.24535 1.62979 5.07178 1.59322C5.96797 1.55342 6.23688 1.54343 8.5038 1.54343C10.7742 1.54343 11.043 1.55342 11.9359 1.59322C12.7657 1.62979 13.2138 1.76917 13.5126 1.88534C13.8809 2.02135 14.2162 2.2371 14.4884 2.51923C14.7705 2.79475 14.9862 3.12667 15.1224 3.49516C15.2386 3.79389 15.3779 4.24522 15.4145 5.07178C15.4543 5.96797 15.4643 6.23675 15.4643 8.5038C15.4643 10.7708 15.4543 11.0364 15.4145 11.9326Z" fill="#1F51FF"/>
<path d="M8.49624 4.13343C6.08657 4.13343 4.13147 6.08839 4.13147 8.49819C4.13147 10.908 6.08657 12.863 8.49624 12.863C10.906 12.863 12.861 10.908 12.861 8.49819C12.861 6.08839 10.906 4.13343 8.49624 4.13343ZM8.49624 11.3295C6.93297 11.3295 5.66492 10.0616 5.66492 8.49819C5.66492 6.93479 6.93297 5.66688 8.49624 5.66688C10.0596 5.66688 11.3276 6.93479 11.3276 8.49819C11.3276 10.0616 10.0596 11.3295 8.49624 11.3295Z" fill="#1F51FF"/>
<path d="M14.0532 3.96164C14.0532 4.52435 13.5969 4.98062 13.0341 4.98062C12.4714 4.98062 12.0151 4.52435 12.0151 3.96164C12.0151 3.3988 12.4714 2.94267 13.0341 2.94267C13.5969 2.94267 14.0532 3.3988 14.0532 3.96164Z" fill="#1F51FF"/>
<path fill-rule="evenodd" clip-rule="evenodd" d="M48.7753 8.09371V15.8599C48.7753 15.9535 48.8756 16.0471 48.9759 16.0471H52.085C52.1853 16.0471 52.2856 15.9535 52.2856 15.8599V7.95335H54.5422C54.6425 7.95335 54.7428 7.85978 54.7428 7.76622L54.9434 5.38021C54.9434 5.23986 54.8431 5.14629 54.7428 5.14629H52.2856V3.50883C52.2856 3.13456 52.6366 2.80707 53.0378 2.80707H54.7428C54.8431 2.80707 54.9434 2.7135 54.9434 2.61993V0.187138C55.0437 0.0935689 54.9434 0 54.793 0H51.8844C50.1794 0 48.7753 1.30996 48.7753 2.90063V5.19307H47.2208C47.1205 5.19307 47.0202 5.28664 47.0202 5.38021V7.76622C47.0202 7.85978 47.1205 7.95335 47.2208 7.95335H48.7753V8.09371Z" fill="#1F51FF"/>
<path d="M103.253 2.74773C102.686 3.00459 102.119 3.1587 101.501 3.26144C101.758 3.21007 102.171 2.69636 102.377 2.49087C102.634 2.18264 102.841 1.82304 102.944 1.46344C102.944 1.41207 102.995 1.41207 102.944 1.3607C102.892 1.3607 102.892 1.3607 102.841 1.3607C102.171 1.7203 101.501 1.97715 100.779 2.13127C100.727 2.13127 100.676 2.13127 100.624 2.0799C100.573 2.02853 100.521 1.92578 100.418 1.87441C100.109 1.61755 99.7998 1.41207 99.439 1.25795C98.9752 1.05247 98.4083 1.00109 97.8929 1.00109C97.3775 1.05247 96.8622 1.15521 96.4499 1.41207C95.986 1.66893 95.5737 1.97715 95.2645 2.38813C94.9553 2.7991 94.6976 3.26144 94.543 3.77516C94.4399 4.28888 94.4399 4.75122 94.4914 5.26494C94.4914 5.36768 94.4914 5.36768 94.4399 5.36768C91.6053 4.95671 89.2346 3.92927 87.3277 1.77167C87.2246 1.66893 87.2246 1.66893 87.1215 1.77167C86.3485 3.05596 86.7608 5.05945 87.7915 6.03551C87.9461 6.18962 88.0492 6.29237 88.2038 6.39511C88.1523 6.39511 87.4308 6.34374 86.8123 6.03551C86.7092 5.98414 86.7092 6.03551 86.6577 6.08688C86.6577 6.241 86.6577 6.34374 86.6577 6.49785C86.8123 7.78214 87.6885 8.91232 88.9254 9.37466C89.08 9.42603 89.2346 9.47741 89.3892 9.52878C89.1315 9.58015 88.8223 9.63152 88.0492 9.58015C87.9461 9.58015 87.8946 9.63152 87.9461 9.68289C88.5131 11.2754 89.8015 11.7891 90.7807 12.046C90.8838 12.046 91.0384 12.046 91.1415 12.0974C90.8323 12.5597 89.75 12.9193 89.2346 13.1248C88.3069 13.433 87.2762 13.5871 86.2969 13.4844C86.1423 13.4844 86.0908 13.4844 86.0393 13.4844C85.9877 13.5358 86.0393 13.5358 86.0908 13.5871C86.2969 13.7412 86.5031 13.844 86.7092 13.9467C87.3277 14.255 87.9977 14.5632 88.6677 14.7173C92.1722 15.6934 96.1406 14.9742 98.769 12.3542C100.831 10.2993 101.552 7.47391 101.552 4.64848C101.552 4.54573 101.707 4.49436 101.758 4.44299C102.274 4.03202 102.737 3.56967 103.15 3.00459C103.253 2.90184 103.253 2.7991 103.253 2.74773C103.304 2.69636 103.304 2.69636 103.253 2.74773Z" fill="#1F51FF"/>
<path d="M149.939 5.54502C149.939 3.02744 147.925 1.00109 145.424 1.00109H133.833C131.332 1.00109 129.319 3.02744 129.319 5.54502V11.01C129.319 13.5276 131.332 15.5539 133.833 15.5539H145.485C147.986 15.5539 150 13.5276 150 11.01V5.54502H149.939ZM142.618 8.55383L137.982 11.1328C137.799 11.2556 137.616 11.0714 137.616 10.8872V5.54502C137.616 5.2994 137.799 5.17659 137.982 5.2994L142.679 8.00119C142.862 8.124 142.801 8.43102 142.618 8.55383Z" fill="#1F51FF"/>
</svg>
