<svg width="29" height="33" viewBox="0 0 29 33" fill="none" xmlns="http://www.w3.org/2000/svg">
<path d="M15.273 0.85115L27.5077 4.11373C27.9454 4.23046 28.25 4.62691 28.25 5.07996V19.4339C28.25 21.44 27.2474 23.3134 25.5782 24.4262L15.0547 31.4419C14.7188 31.6658 14.2812 31.6658 13.9453 31.4419L3.4218 24.4262C1.75261 23.3134 0.75 21.44 0.75 19.4339V5.07996C0.75 4.62691 1.05458 4.23046 1.49234 4.11373L13.727 0.85115C14.2335 0.716089 14.7665 0.716089 15.273 0.85115Z" stroke="#1F51FF" stroke-width="1.5" stroke-linecap="round"/>
<path d="M9.91667 13.312L13.4066 16.8019C13.5042 16.8995 13.6625 16.8995 13.7601 16.8019L20 10.562" stroke="#1F51FF" stroke-width="1.5" stroke-linecap="round"/>
</svg>
