<svg width="191" height="174" viewBox="0 0 191 174" fill="none" xmlns="http://www.w3.org/2000/svg">
<g style="mix-blend-mode:lighten">
<mask id="mask0_672_17184" style="mask-type:luminance" maskUnits="userSpaceOnUse" x="2" y="19" width="133" height="152">
<path d="M2.92734 97.7895L60.4865 19.634L134.523 92.3158L76.9078 170.471L2.92734 97.7895ZM134.298 92.1465L60.4865 19.8597L3.09662 97.7895L76.9078 170.246L134.298 92.3722" fill="white"/>
</mask>
<g mask="url(#mask0_672_17184)">
<path d="M134.298 92.1465L60.4865 19.8597L3.09662 97.7895L76.9078 170.246L134.298 92.3722M2.92734 97.7895L60.4865 19.634L134.523 92.3158L76.9078 170.471L2.92734 97.7895Z" stroke="#089CFF" stroke-width="0.01" stroke-miterlimit="10"/>
</g>
<path d="M134.298 92.1465L60.4865 19.8597L3.09662 97.7895L76.9078 170.246L134.298 92.3722M2.92734 97.7895L60.4865 19.634L134.523 92.3158L76.9078 170.471L2.92734 97.7895Z" stroke="#089CFF" stroke-width="0.03" stroke-miterlimit="10"/>
<mask id="mask1_672_17184" style="mask-type:luminance" maskUnits="userSpaceOnUse" x="56" y="3" width="133" height="152">
<path d="M56.3659 81.3684L113.981 3.26932L188.3 75.8947L130.403 154.05L56.3659 81.3684ZM187.793 75.7254L113.981 3.26932L56.5916 81.3684L130.403 153.825L187.793 75.8947" fill="white"/>
</mask>
<g mask="url(#mask1_672_17184)">
<path d="M113.981 3.26932L56.3659 81.3684L130.403 154.05L188.3 75.8947L113.981 3.26932ZM113.981 3.26932L187.793 75.7254M113.981 3.26932L56.5916 81.3684L130.403 153.825L187.793 75.8947" stroke="#089CFF" stroke-width="0.01" stroke-miterlimit="10"/>
</g>
<path d="M113.981 3.26932L56.3659 81.3684L130.403 154.05L188.3 75.8947L113.981 3.26932ZM113.981 3.26932L187.793 75.7254M113.981 3.26932L56.5916 81.3684L130.403 153.825L187.793 75.8947" stroke="#089CFF" stroke-width="0.03" stroke-miterlimit="10"/>
<mask id="mask2_672_17184" style="mask-type:luminance" maskUnits="userSpaceOnUse" x="2" y="3" width="112" height="95">
<path d="M56.4235 81.3684L2.92734 97.7896L60.4865 19.634L113.983 3.21289L56.4235 81.3684Z" fill="white"/>
</mask>
<g mask="url(#mask2_672_17184)">
<path d="M56.4235 81.3684L2.92734 97.7896L60.4865 19.634L113.983 3.21289L56.4235 81.3684Z" stroke="#089CFF" stroke-width="0.01" stroke-miterlimit="10"/>
</g>
<path d="M56.4235 81.3684L2.92734 97.7896L60.4865 19.634L113.983 3.21289L56.4235 81.3684Z" stroke="#089CFF" stroke-width="0.03" stroke-miterlimit="10"/>
<mask id="mask3_672_17184" style="mask-type:luminance" maskUnits="userSpaceOnUse" x="60" y="3" width="129" height="90">
<path d="M113.981 3.21289L188.018 75.8947L134.522 92.3159L60.4853 19.634L113.981 3.21289Z" fill="white"/>
</mask>
<g mask="url(#mask3_672_17184)">
<path d="M113.981 3.21289L188.018 75.8947L134.522 92.3159L60.4853 19.634L113.981 3.21289Z" stroke="#089CFF" stroke-width="0.01" stroke-miterlimit="10"/>
</g>
<path d="M113.981 3.21289L188.018 75.8947L134.522 92.3159L60.4853 19.634L113.981 3.21289Z" stroke="#089CFF" stroke-width="0.03" stroke-miterlimit="10"/>
<mask id="mask4_672_17184" style="mask-type:luminance" maskUnits="userSpaceOnUse" x="76" y="75" width="113" height="96">
<path d="M188.02 75.8946L130.404 154.05L76.9081 170.471L134.524 92.3157L188.02 75.8946Z" fill="white"/>
</mask>
<g mask="url(#mask4_672_17184)">
<path d="M188.02 75.8946L130.404 154.05L76.9081 170.471L134.524 92.3157L188.02 75.8946Z" stroke="#089CFF" stroke-width="0.01" stroke-miterlimit="10"/>
</g>
<path d="M188.02 75.8946L130.404 154.05L76.9081 170.471L134.524 92.3157L188.02 75.8946Z" stroke="#089CFF" stroke-width="0.03" stroke-miterlimit="10"/>
<mask id="mask5_672_17184" style="mask-type:luminance" maskUnits="userSpaceOnUse" x="2" y="81" width="129" height="90">
<path d="M130.404 154.05L76.9078 170.471L2.92734 97.7896L56.4235 81.3685L130.404 154.05Z" fill="white"/>
</mask>
<g mask="url(#mask5_672_17184)">
<path d="M130.404 154.05L76.9078 170.471L2.92734 97.7896L56.4235 81.3685L130.404 154.05Z" stroke="#089CFF" stroke-width="0.01" stroke-miterlimit="10"/>
</g>
<path d="M130.404 154.05L76.9078 170.471L2.92734 97.7896L56.4235 81.3685L130.404 154.05Z" stroke="#089CFF" stroke-width="0.03" stroke-miterlimit="10"/>
<mask id="mask6_672_17184" style="mask-type:luminance" maskUnits="userSpaceOnUse" x="60" y="3" width="128" height="90">
<path d="M187.793 75.8947L134.296 92.3159L60.4853 19.8597L113.981 3.4386L187.793 75.8947Z" fill="white"/>
</mask>
<g mask="url(#mask6_672_17184)">
<path d="M187.793 75.8947L134.296 92.3159L60.4853 19.8597L113.981 3.4386L187.793 75.8947Z" stroke="#089CFF" stroke-width="0.01" stroke-miterlimit="10"/>
</g>
<path d="M187.793 75.8947L134.296 92.3159L60.4853 19.8597L113.981 3.4386L187.793 75.8947Z" stroke="#089CFF" stroke-width="0.03" stroke-miterlimit="10"/>
<mask id="mask7_672_17184" style="mask-type:luminance" maskUnits="userSpaceOnUse" x="3" y="3" width="111" height="95">
<path d="M113.983 3.4386L56.5935 81.3684L3.09735 97.7896L60.4872 19.8597L113.983 3.4386Z" fill="white"/>
</mask>
<g mask="url(#mask7_672_17184)">
<path d="M113.983 3.4386L56.5935 81.3684L3.09735 97.7896L60.4872 19.8597L113.983 3.4386Z" stroke="#089CFF" stroke-width="0.01" stroke-miterlimit="10"/>
</g>
<path d="M113.983 3.4386L56.5935 81.3684L3.09735 97.7896L60.4872 19.8597L113.983 3.4386Z" stroke="#089CFF" stroke-width="0.03" stroke-miterlimit="10"/>
<mask id="mask8_672_17184" style="mask-type:luminance" maskUnits="userSpaceOnUse" x="3" y="81" width="128" height="90">
<path d="M56.5935 81.3685L130.405 153.825L76.9085 170.246L3.09735 97.7896L56.5935 81.3685Z" fill="white"/>
</mask>
<g mask="url(#mask8_672_17184)">
<path d="M56.5935 81.3685L130.405 153.825L76.9085 170.246L3.09735 97.7896L56.5935 81.3685Z" stroke="#089CFF" stroke-width="0.01" stroke-miterlimit="10"/>
</g>
<path d="M56.5935 81.3685L130.405 153.825L76.9085 170.246L3.09735 97.7896L56.5935 81.3685Z" stroke="#089CFF" stroke-width="0.03" stroke-miterlimit="10"/>
<mask id="mask9_672_17184" style="mask-type:luminance" maskUnits="userSpaceOnUse" x="76" y="75" width="112" height="96">
<path d="M130.404 153.824L76.9081 170.246L134.298 92.3157L187.794 75.8946L130.404 153.824Z" fill="white"/>
</mask>
<g mask="url(#mask9_672_17184)">
<path d="M130.404 153.824L76.9081 170.246L134.298 92.3157L187.794 75.8946L130.404 153.824Z" stroke="#089CFF" stroke-width="0.01" stroke-miterlimit="10"/>
</g>
<path d="M130.404 153.824L76.9081 170.246L134.298 92.3157L187.794 75.8946L130.404 153.824Z" stroke="#089CFF" stroke-width="0.03" stroke-miterlimit="10"/>
<path style="mix-blend-mode:screen" d="M5.9746 96.2659C6.17121 96.6401 6.29214 97.0493 6.33048 97.4703C6.36882 97.8912 6.32379 98.3156 6.19801 98.7191C6.07222 99.1227 5.86814 99.4975 5.59741 99.8221C5.32669 100.147 4.99463 100.415 4.62024 100.611C3.87139 101.012 2.99414 101.101 2.18003 100.858C1.36593 100.615 0.681116 100.059 0.275107 99.3131C-0.0524128 98.5729 -0.0888509 97.7365 0.173071 96.9707C0.434993 96.2048 0.976005 95.5659 1.68819 95.1813C2.40038 94.7967 3.2314 94.6948 4.01543 94.8958C4.79946 95.0969 5.47889 95.5861 5.91816 96.2659H5.9746Z" fill="url(#paint0_radial_672_17184)"/>
<path style="mix-blend-mode:screen" d="M59.2451 79.8448C59.4417 80.219 59.5626 80.6283 59.6009 81.0492C59.6393 81.4702 59.5943 81.8945 59.4685 82.2981C59.3427 82.7016 59.1387 83.0764 58.8679 83.401C58.5972 83.7256 58.2651 83.9937 57.8908 84.1899C57.1419 84.5913 56.2647 84.6801 55.4505 84.437C54.6364 84.1938 53.9516 83.6384 53.5456 82.892C53.2181 82.1519 53.1817 81.3154 53.4436 80.5496C53.7055 79.7838 54.2465 79.1448 54.9587 78.7602C55.6709 78.3757 56.5019 78.2737 57.2859 78.4747C58.07 78.6758 58.7494 79.165 59.1887 79.8448H59.2451Z" fill="url(#paint1_radial_672_17184)"/>
<path style="mix-blend-mode:screen" d="M63.4219 18.3361C63.8233 19.085 63.9121 19.9622 63.6689 20.7763C63.4257 21.5904 62.8703 22.2752 62.1239 22.6812C61.5644 22.9856 60.927 23.117 60.2927 23.0588C59.6583 23.0005 59.0556 22.7552 58.5608 22.3539C58.0661 21.9527 57.7016 21.4136 57.5136 20.8049C57.3256 20.1963 57.3226 19.5455 57.5049 18.9352C57.6872 18.3248 58.0467 17.7823 58.5377 17.3765C59.0287 16.9706 59.6291 16.7197 60.2629 16.6556C60.8967 16.5914 61.5352 16.7169 62.0976 17.0161C62.66 17.3153 63.1209 17.7747 63.4219 18.3361Z" fill="url(#paint2_radial_672_17184)"/>
<path style="mix-blend-mode:screen" d="M116.805 1.91494C117.045 2.28758 117.207 2.70602 117.278 3.14392C117.349 3.58182 117.329 4.02974 117.219 4.4595C117.109 4.88927 116.911 5.29159 116.638 5.64117C116.364 5.99075 116.022 6.28003 115.631 6.49084C115.241 6.70164 114.811 6.82941 114.369 6.8661C113.927 6.9028 113.482 6.84763 113.062 6.70405C112.642 6.56048 112.257 6.33162 111.93 6.03185C111.603 5.73208 111.341 5.36788 111.162 4.96216C110.921 4.58952 110.76 4.17111 110.688 3.7332C110.617 3.2953 110.637 2.84738 110.748 2.41762C110.858 1.98786 111.056 1.58554 111.329 1.23595C111.602 0.886371 111.945 0.597095 112.335 0.386289C112.725 0.175482 113.155 0.047713 113.597 0.0110198C114.039 -0.0256734 114.484 0.0294991 114.904 0.17307C115.324 0.316641 115.709 0.545504 116.037 0.845273C116.364 1.14504 116.625 1.50922 116.805 1.91494Z" fill="url(#paint3_radial_672_17184)"/>
<path style="mix-blend-mode:screen" d="M190.615 74.371C191.019 75.1283 191.109 76.014 190.867 76.8373C190.624 77.6606 190.067 78.3556 189.317 78.7725C188.943 78.9691 188.534 79.0901 188.113 79.1284C187.692 79.1667 187.267 79.1217 186.864 78.9959C186.46 78.8702 186.085 78.6661 185.761 78.3954C185.436 78.1246 185.168 77.7926 184.972 77.4182C184.571 76.6694 184.482 75.7921 184.725 74.978C184.968 74.1639 185.523 73.4791 186.27 73.0731C187.019 72.6717 187.896 72.5829 188.71 72.826C189.524 73.0692 190.209 73.6246 190.615 74.371Z" fill="url(#paint4_radial_672_17184)"/>
<path style="mix-blend-mode:screen" d="M137.119 90.8486C137.521 91.5974 137.609 92.4747 137.366 93.2888C137.123 94.1029 136.568 94.7877 135.821 95.1937C135.262 95.4981 134.624 95.6295 133.99 95.5712C133.356 95.5129 132.753 95.2676 132.258 94.8664C131.763 94.4651 131.399 93.926 131.211 93.3173C131.023 92.7087 131.02 92.0579 131.202 91.4476C131.385 90.8372 131.744 90.2947 132.235 89.8889C132.726 89.4831 133.327 89.2322 133.96 89.168C134.594 89.1039 135.233 89.2293 135.795 89.5285C136.357 89.8277 136.818 90.2871 137.119 90.8486Z" fill="url(#paint5_radial_672_17184)"/>
<path style="mix-blend-mode:screen" d="M133.226 152.527C133.466 152.899 133.627 153.318 133.699 153.756C133.77 154.193 133.75 154.641 133.64 155.071C133.529 155.501 133.332 155.903 133.058 156.253C132.785 156.602 132.443 156.892 132.052 157.102C131.662 157.313 131.232 157.441 130.79 157.478C130.348 157.514 129.903 157.459 129.483 157.316C129.063 157.172 128.678 156.943 128.351 156.643C128.024 156.344 127.762 155.979 127.582 155.574C127.342 155.201 127.181 154.783 127.109 154.345C127.038 153.907 127.058 153.459 127.168 153.029C127.279 152.599 127.476 152.197 127.75 151.848C128.023 151.498 128.365 151.209 128.756 150.998C129.146 150.787 129.576 150.659 130.018 150.623C130.46 150.586 130.905 150.641 131.325 150.785C131.745 150.928 132.13 151.157 132.457 151.457C132.785 151.757 133.046 152.121 133.226 152.527Z" fill="url(#paint6_radial_672_17184)"/>
<path style="mix-blend-mode:screen" d="M79.7865 168.948C80.1714 169.715 80.2455 170.6 79.9931 171.42C79.7408 172.241 79.1816 172.932 78.4322 173.349C77.8693 173.638 77.2337 173.755 76.6049 173.685C75.9761 173.614 75.3819 173.36 74.8969 172.954C74.4119 172.547 74.0576 172.007 73.8782 171.4C73.6988 170.793 73.7024 170.147 73.8885 169.542C74.0746 168.937 74.4349 168.401 74.9244 168C75.4138 167.599 76.0107 167.351 76.6403 167.288C77.2699 167.224 77.9041 167.348 78.4638 167.643C79.0234 167.939 79.4835 168.392 79.7865 168.948Z" fill="url(#paint7_radial_672_17184)"/>
</g>
<defs>
<radialGradient id="paint0_radial_672_17184" cx="0" cy="0" r="1" gradientUnits="userSpaceOnUse" gradientTransform="translate(3.13362 97.7533) rotate(-28.2097) scale(3.21654 3.21651)">
<stop offset="0.33" stop-color="white"/>
<stop offset="0.43" stop-color="#2DBEFF"/>
<stop offset="1"/>
</radialGradient>
<radialGradient id="paint1_radial_672_17184" cx="0" cy="0" r="1" gradientUnits="userSpaceOnUse" gradientTransform="translate(56.3881 81.3537) rotate(-28.2099) scale(3.21652 3.21652)">
<stop offset="0.33" stop-color="white"/>
<stop offset="0.43" stop-color="#2DBEFF"/>
<stop offset="1"/>
</radialGradient>
<radialGradient id="paint2_radial_672_17184" cx="0" cy="0" r="1" gradientUnits="userSpaceOnUse" gradientTransform="translate(60.5799 19.8082) rotate(-28.2097) scale(3.21654 3.21652)">
<stop offset="0.33" stop-color="white"/>
<stop offset="0.43" stop-color="#2DBEFF"/>
<stop offset="1"/>
</radialGradient>
<radialGradient id="paint3_radial_672_17184" cx="0" cy="0" r="1" gradientUnits="userSpaceOnUse" gradientTransform="translate(113.987 3.45468) rotate(-28.2098) scale(3.21653 3.21651)">
<stop offset="0.33" stop-color="white"/>
<stop offset="0.43" stop-color="#2DBEFF"/>
<stop offset="1"/>
</radialGradient>
<radialGradient id="paint4_radial_672_17184" cx="0" cy="0" r="1" gradientUnits="userSpaceOnUse" gradientTransform="translate(187.742 75.8899) rotate(-28.2097) scale(3.21654 3.21652)">
<stop offset="0.33" stop-color="white"/>
<stop offset="0.43" stop-color="#2DBEFF"/>
<stop offset="1"/>
</radialGradient>
<radialGradient id="paint5_radial_672_17184" cx="0" cy="0" r="1" gradientUnits="userSpaceOnUse" gradientTransform="translate(134.262 92.3465) rotate(-28.2099) scale(3.21654 3.21653)">
<stop offset="0.33" stop-color="white"/>
<stop offset="0.43" stop-color="#2DBEFF"/>
<stop offset="1"/>
</radialGradient>
<radialGradient id="paint6_radial_672_17184" cx="0" cy="0" r="1" gradientUnits="userSpaceOnUse" gradientTransform="translate(130.404 154.034) rotate(-28.2098) scale(3.21653 3.21652)">
<stop offset="0.33" stop-color="white"/>
<stop offset="0.43" stop-color="#2DBEFF"/>
<stop offset="1"/>
</radialGradient>
<radialGradient id="paint7_radial_672_17184" cx="0" cy="0" r="1" gradientUnits="userSpaceOnUse" gradientTransform="translate(76.9245 170.491) rotate(-28.2098) scale(3.21653 3.21652)">
<stop offset="0.33" stop-color="white"/>
<stop offset="0.43" stop-color="#2DBEFF"/>
<stop offset="1"/>
</radialGradient>
</defs>
</svg>
