<svg width="130" height="148" viewBox="0 0 130 148" fill="none" xmlns="http://www.w3.org/2000/svg">
<mask id="mask0_672_17266" style="mask-type:luminance" maskUnits="userSpaceOnUse" x="0" y="0" width="130" height="148">
<path d="M0.0195844 85.5312L46.5069 0.022522L129.98 62.2312L83.4932 147.514L0.0195844 85.5312ZM129.698 62.0616L46.5069 0.248735L0.245805 85.4747L83.4366 147.287L129.698 62.0616Z" fill="white"/>
</mask>
<g mask="url(#mask0_672_17266)">
<path d="M0.0195844 85.5312L46.5069 0.022522L129.98 62.2312L83.4931 147.514L0.0195844 85.5312ZM129.698 62.0616L46.5069 0.248735L0.245805 85.4747L83.4366 147.287L129.698 62.0616Z" stroke="#089CFF" stroke-width="0.01" stroke-miterlimit="10"/>
</g>
<path d="M0.0195844 85.5312L46.5069 0.022522L129.98 62.2312L83.4931 147.514L0.0195844 85.5312ZM129.698 62.0616L46.5069 0.248735L0.245805 85.4747L83.4366 147.287L129.698 62.0616Z" stroke="#089CFF" stroke-width="0.03" stroke-miterlimit="10"/>
</svg>
