<svg width="45" height="34" viewBox="0 0 45 34" fill="none" xmlns="http://www.w3.org/2000/svg">
<g clip-path="url(#clip0_708_29197)">
<path d="M16.35 25.75L22.5 19.5625M22.5 19.5625L28.65 25.75M22.5 19.5625V34M43 11.3125H2M9.175 29.875H8.56C6.26378 29.875 5.11568 29.875 4.23864 29.4254C3.46717 29.0299 2.83995 28.3989 2.44687 27.6227C2 26.7403 2 25.5852 2 23.275V7.6C2 5.28978 2 4.13468 2.44687 3.25229C2.83995 2.47612 3.46718 1.84508 4.23864 1.4496C5.11568 1 6.26379 1 8.56 1H36.44C38.7362 1 39.8843 1 40.7614 1.4496C41.5328 1.84508 42.16 2.47612 42.5531 3.25229C43 4.13468 43 5.28979 43 7.6V23.275C43 25.5852 43 26.7403 42.5531 27.6227C42.16 28.3989 41.5328 29.0299 40.7614 29.4254C39.8843 29.875 38.7362 29.875 36.44 29.875H35.825" stroke="#143C7C" stroke-width="2" stroke-linecap="round" stroke-linejoin="round"/>
</g>
<defs>
<clipPath id="clip0_708_29197">
<rect width="45" height="34" fill="white"/>
</clipPath>
</defs>
</svg>
