<svg width="49" height="34" viewBox="0 0 49 34" fill="none" xmlns="http://www.w3.org/2000/svg">
<path d="M10.4 12.4286V21.5714M38.6 12.4286V21.5714M1 8.31429L1 25.6857C1 28.246 1 29.5261 1.51227 30.504C1.96287 31.3641 2.68188 32.0635 3.56624 32.5017C4.57163 33 5.88775 33 8.52 33L40.48 33C43.1122 33 44.4284 33 45.4338 32.5017C46.3181 32.0635 47.0371 31.3641 47.4877 30.504C48 29.5261 48 28.246 48 25.6857V8.31429C48 5.75405 48 4.47393 47.4877 3.49605C47.0371 2.63588 46.3181 1.93654 45.4338 1.49826C44.4284 1 43.1122 1 40.48 1L8.52 1C5.88775 1 4.57163 1 3.56625 1.49826C2.68188 1.93653 1.96287 2.63587 1.51227 3.49604C1 4.47393 1 5.75405 1 8.31429ZM30.375 17C30.375 20.1559 27.7447 22.7143 24.5 22.7143C21.2553 22.7143 18.625 20.1559 18.625 17C18.625 13.8441 21.2553 11.2857 24.5 11.2857C27.7447 11.2857 30.375 13.8441 30.375 17Z" stroke="#143C7C" stroke-width="2" stroke-linecap="round" stroke-linejoin="round"/>
</svg>
