<svg width="717" height="196" viewBox="0 0 717 196" fill="none" xmlns="http://www.w3.org/2000/svg">
<g clip-path="url(#clip0_624_15829)">
<path style="mix-blend-mode:multiply" opacity="0.5" d="M154.176 104.271C182.904 104.271 206.192 80.9292 206.192 52.1355C206.192 23.3419 182.904 0 154.176 0C125.448 0 102.16 23.3419 102.16 52.1355C102.16 80.9292 125.448 104.271 154.176 104.271Z" fill="url(#paint0_radial_624_15829)"/>
<path d="M174.256 44.8469C178.435 26.8051 167.23 8.78376 149.23 4.59524C131.229 0.406715 113.249 11.6371 109.07 29.679C104.892 47.7208 116.096 65.7421 134.097 69.9307C152.097 74.1192 170.077 62.8888 174.256 44.8469Z" fill="#627EEA"/>
<path d="M142.707 12.124V30.7139L158.392 37.7819L142.707 12.124Z" fill="white" fill-opacity="0.6"/>
<path d="M142.708 12.124L127.032 37.7819L142.708 30.7595V12.124Z" fill="white"/>
<path d="M142.707 49.7856V62.4187L158.401 40.6592L142.707 49.7856Z" fill="white" fill-opacity="0.6"/>
<path d="M142.708 62.4194V49.7772L127.032 40.6689L142.708 62.4194Z" fill="white"/>
<path d="M142.707 46.8891L158.392 37.7809L142.707 30.7129V46.8891Z" fill="white" fill-opacity="0.2"/>
<path d="M127.032 37.7809L142.708 46.8891V30.7129L127.032 37.7809Z" fill="white" fill-opacity="0.6"/>
<path style="mix-blend-mode:multiply" opacity="0.5" d="M52.0159 104.271C80.7435 104.271 104.032 80.9292 104.032 52.1355C104.032 23.3419 80.7435 0 52.0159 0C23.2883 0 0 23.3419 0 52.1355C0 80.9292 23.2883 104.271 52.0159 104.271Z" fill="url(#paint1_radial_624_15829)"/>
<path d="M72.2356 45.386C70.6337 51.8195 67.1645 57.6323 62.2667 62.0897C57.3689 66.547 51.2624 69.4486 44.7194 70.4276C38.1763 71.4066 31.4906 70.419 25.5075 67.5897C19.5245 64.7604 14.5128 60.2165 11.1061 54.5325C7.69944 48.8485 6.05083 42.2796 6.36873 35.6565C6.68663 29.0335 8.95675 22.6536 12.8921 17.3236C16.8274 11.9936 22.2511 7.95284 28.4775 5.71229C34.704 3.47174 41.4534 3.132 47.8725 4.73601C52.136 5.80018 56.1486 7.69605 59.6809 10.3153C63.2131 12.9345 66.1957 16.2257 68.4583 20.0008C70.7209 23.776 72.219 27.961 72.8672 32.3167C73.5153 36.6724 73.3007 41.1135 72.2356 45.386Z" fill="#F7931A"/>
<path d="M54.533 32.4992C55.1963 28.0362 51.8068 25.6316 47.1722 24.0376L48.6807 17.9898L45.0458 17.079L43.5827 22.9629L40.6021 22.298L42.0742 16.3776L38.4393 15.4668L36.9399 21.5147C36.1402 21.3325 35.3587 21.1503 34.5954 20.9591L29.5337 19.693L28.5614 23.6187C28.5614 23.6187 31.2876 24.2471 31.224 24.2836C31.7325 24.3431 32.1971 24.6012 32.517 25.0019C32.8368 25.4027 32.9861 25.9136 32.9324 26.424L31.2149 33.3371L28.8158 42.9828C28.768 43.155 28.6861 43.3159 28.5748 43.4557C28.4636 43.5955 28.3254 43.7114 28.1684 43.7964C28.0115 43.8814 27.839 43.9339 27.6614 43.9506C27.4838 43.9673 27.3046 43.9479 27.1347 43.8936C27.1347 43.9482 24.463 43.2287 24.463 43.2287L22.6455 47.4458L27.4254 48.639C28.3342 48.8576 29.1793 49.0944 30.0335 49.313L28.5159 55.4246L32.1509 56.3354L33.6594 50.2876C34.659 50.5608 35.6313 50.8067 36.5764 51.0435L35.077 57.0641L38.7119 57.9749L40.2386 51.8724C46.4907 53.0565 51.207 52.5828 53.179 46.9084C54.7783 42.3543 53.1063 39.7038 49.8076 37.9823C52.2066 37.4267 54.015 35.8419 54.4966 32.5812L54.533 32.4992ZM46.1454 44.2852C45.0094 48.8394 37.3397 46.3892 34.8498 45.7608L36.8581 37.6636C39.348 38.2829 47.3267 39.4852 46.1454 44.2852ZM47.2813 32.4445C46.2453 36.607 39.8569 34.4939 37.785 33.9747L39.6025 26.6244C41.6835 27.1253 48.3627 28.0908 47.2813 32.4263V32.4445Z" fill="white"/>
<path style="mix-blend-mode:multiply" opacity="0.5" d="M562.815 195.992C591.542 195.992 614.831 172.65 614.831 143.856C614.831 115.063 591.542 91.7207 562.815 91.7207C534.087 91.7207 510.799 115.063 510.799 143.856C510.799 172.65 534.087 195.992 562.815 195.992Z" fill="url(#paint2_radial_624_15829)"/>
<path d="M572.883 151.606C585.95 138.51 585.95 117.276 572.883 104.179C559.816 91.0819 538.631 91.0819 525.564 104.179C512.497 117.276 512.497 138.51 525.564 151.606C538.631 164.703 559.816 164.703 572.883 151.606Z" fill="#172852"/>
<path d="M542.714 109.345C546.682 107.925 551.002 107.833 555.027 109.081C557.62 109.915 560.014 111.277 562.057 113.081C564.101 114.885 565.751 117.092 566.904 119.565C567.619 120.945 568.06 122.452 568.204 124.001C565.245 122.387 562.115 121.113 558.871 120.202C553.737 118.381 548.366 117.06 543.504 114.51C542.378 113.827 540.933 113.134 540.624 111.723C540.506 110.502 541.787 109.819 542.714 109.345Z" fill="#FFD83D"/>
<path d="M530.882 121.222C531.995 118.098 533.899 115.317 536.408 113.152C537.01 118.499 539.329 123.504 543.014 127.416C545.243 129.754 547.923 131.614 550.891 132.882C553.859 134.15 557.053 134.801 560.28 134.793C562.832 134.736 565.369 134.403 567.85 133.801C565.387 142.709 555.645 148.62 546.622 147.199C543.751 146.79 541.006 145.748 538.585 144.147C536.165 142.546 534.129 140.426 532.625 137.941C531.121 135.456 530.186 132.667 529.888 129.776C529.59 126.885 529.936 123.963 530.901 121.222H530.882Z" fill="#FFD83D"/>
<path d="M558.871 120.201C562.115 121.112 565.245 122.386 568.204 124L568.404 124.1C568.753 126.141 568.79 128.223 568.513 130.275C567.097 129.54 565.783 128.621 564.605 127.543C562.206 125.548 559.762 123.262 558.871 120.165" fill="#FF6F03"/>
<path style="mix-blend-mode:multiply" opacity="0.5" d="M562.815 104.271C591.542 104.271 614.831 80.9292 614.831 52.1355C614.831 23.3419 591.542 0 562.815 0C534.087 0 510.799 23.3419 510.799 52.1355C510.799 80.9292 534.087 104.271 562.815 104.271Z" fill="url(#paint3_radial_624_15829)"/>
<path d="M582.239 42.5677C585.165 24.2797 572.745 7.07695 554.499 4.1444C536.253 1.21185 519.09 13.66 516.164 31.948C513.238 50.2361 525.658 67.4388 543.904 70.3714C562.15 73.3039 579.313 60.8558 582.239 42.5677Z" fill="#23292F"/>
<path d="M565.787 17.834H572.557L558.472 31.8151C556.008 34.2481 552.688 35.612 549.23 35.612C545.771 35.612 542.452 34.2481 539.988 31.8151L525.894 17.834H532.645L543.35 28.4542C544.908 29.9955 547.009 30.8597 549.198 30.8597C551.387 30.8597 553.488 29.9955 555.046 28.4542L565.787 17.834Z" fill="white"/>
<path d="M532.582 56.7076H525.803L539.979 42.6445C542.443 40.2115 545.762 38.8477 549.221 38.8477C552.679 38.8477 555.999 40.2115 558.463 42.6445L572.63 56.7076H565.86L555.073 45.9781C553.515 44.4368 551.414 43.5726 549.225 43.5726C547.036 43.5726 544.936 44.4368 543.378 45.9781L532.582 56.7076Z" fill="white"/>
<path style="mix-blend-mode:multiply" opacity="0.5" d="M154.176 195.992C182.904 195.992 206.192 172.65 206.192 143.856C206.192 115.063 182.904 91.7207 154.176 91.7207C125.448 91.7207 102.16 115.063 102.16 143.856C102.16 172.65 125.448 195.992 154.176 195.992Z" fill="url(#paint4_radial_624_15829)"/>
<path d="M141.68 161.434C160.16 161.434 175.14 146.42 175.14 127.898C175.14 109.376 160.16 94.3613 141.68 94.3613C123.201 94.3613 108.221 109.376 108.221 127.898C108.221 146.42 123.201 161.434 141.68 161.434Z" fill="#3CC8C8"/>
<path d="M141.035 103.898C141.303 103.784 141.599 103.753 141.885 103.809C142.171 103.865 142.434 104.005 142.64 104.212C142.846 104.418 142.985 104.681 143.041 104.968C143.097 105.254 143.066 105.551 142.953 105.82C142.859 106.041 142.713 106.236 142.527 106.387C142.341 106.539 142.12 106.642 141.885 106.688C141.65 106.734 141.407 106.721 141.178 106.651C140.949 106.581 140.74 106.455 140.571 106.286C140.401 106.116 140.276 105.907 140.206 105.677C140.136 105.447 140.123 105.204 140.169 104.968C140.215 104.732 140.318 104.511 140.469 104.325C140.62 104.138 140.814 103.992 141.035 103.898ZM128.813 105.182C128.99 105.127 129.178 105.116 129.36 105.15C129.543 105.184 129.714 105.262 129.86 105.377C130.006 105.492 130.121 105.641 130.197 105.811C130.273 105.98 130.306 106.166 130.294 106.352C130.282 106.537 130.226 106.717 130.129 106.876C130.033 107.035 129.899 107.168 129.74 107.263C129.581 107.359 129.401 107.414 129.215 107.424C129.03 107.435 128.845 107.4 128.676 107.323C128.473 107.22 128.304 107.059 128.191 106.861C128.077 106.663 128.025 106.435 128.039 106.207C128.054 105.979 128.135 105.761 128.272 105.578C128.41 105.396 128.598 105.258 128.813 105.182ZM153.839 107.341C153.601 107.293 153.384 107.169 153.221 106.987C153.058 106.806 152.958 106.577 152.934 106.335C152.911 106.092 152.966 105.848 153.091 105.639C153.216 105.43 153.405 105.267 153.63 105.173C154.439 104.782 155.175 105.519 155.293 106.284C155.269 106.45 155.212 106.61 155.125 106.753C155.038 106.897 154.924 107.022 154.789 107.12C154.653 107.218 154.499 107.289 154.336 107.327C154.173 107.365 154.004 107.369 153.839 107.341ZM131.593 110.401C131.874 110.242 132.193 110.163 132.515 110.172C132.837 110.181 133.151 110.277 133.422 110.452C133.694 110.626 133.912 110.871 134.055 111.161C134.198 111.451 134.259 111.774 134.232 112.096C134.205 112.418 134.091 112.726 133.902 112.988C133.713 113.25 133.456 113.455 133.16 113.582C132.863 113.708 132.537 113.751 132.218 113.706C131.899 113.661 131.598 113.529 131.348 113.325C131.134 113.137 130.966 112.901 130.859 112.637C130.753 112.372 130.709 112.086 130.733 111.801C130.757 111.517 130.848 111.242 130.997 110.998C131.146 110.755 131.351 110.551 131.593 110.401ZM149.205 111.176C149.355 110.885 149.58 110.64 149.857 110.467C150.133 110.293 150.452 110.198 150.778 110.191C151.104 110.183 151.427 110.264 151.711 110.424C151.995 110.585 152.232 110.819 152.394 111.103C152.509 111.347 152.569 111.614 152.572 111.884C152.574 112.154 152.518 112.422 152.407 112.668C152.297 112.915 152.135 113.134 151.932 113.312C151.729 113.49 151.49 113.622 151.231 113.699C150.904 113.766 150.565 113.741 150.251 113.628C149.937 113.515 149.66 113.317 149.45 113.056C149.241 112.796 149.107 112.482 149.064 112.151C149.021 111.819 149.069 111.481 149.205 111.176ZM139.563 113.617C139.594 113.071 139.828 112.556 140.218 112.174C140.608 111.791 141.126 111.569 141.671 111.549C142.046 111.583 142.407 111.708 142.724 111.913C143.04 112.117 143.303 112.396 143.489 112.724C143.617 112.974 143.693 113.248 143.713 113.528C143.733 113.809 143.697 114.09 143.606 114.356C143.515 114.622 143.372 114.867 143.185 115.077C142.998 115.286 142.77 115.455 142.516 115.575C142.022 115.768 141.482 115.812 140.963 115.702C140.55 115.532 140.198 115.243 139.95 114.872C139.703 114.5 139.571 114.063 139.572 113.617M121.397 115.283C121.63 115.165 121.889 115.112 122.149 115.129C122.409 115.146 122.659 115.233 122.874 115.38C123.089 115.527 123.261 115.73 123.371 115.966C123.482 116.202 123.527 116.464 123.502 116.724C123.477 116.983 123.382 117.232 123.229 117.442C123.075 117.653 122.868 117.819 122.629 117.922C122.39 118.025 122.128 118.062 121.869 118.029C121.611 117.996 121.367 117.894 121.161 117.733C120.974 117.579 120.828 117.38 120.735 117.156C120.642 116.931 120.606 116.687 120.63 116.445C120.653 116.204 120.735 115.971 120.869 115.768C121.003 115.566 121.184 115.399 121.397 115.283ZM160.419 115.283C160.631 115.14 160.877 115.056 161.132 115.039C161.387 115.021 161.642 115.072 161.871 115.185C162.101 115.298 162.296 115.469 162.438 115.682C162.581 115.895 162.664 116.142 162.681 116.398C162.698 116.653 162.647 116.909 162.533 117.139C162.42 117.368 162.248 117.564 162.035 117.706C161.822 117.848 161.576 117.931 161.321 117.947C161.066 117.963 160.811 117.911 160.582 117.797C160.354 117.684 160.16 117.512 160.019 117.3C159.879 117.088 159.796 116.842 159.779 116.587C159.763 116.333 159.813 116.079 159.925 115.85C160.037 115.621 160.207 115.426 160.419 115.283ZM144.679 117.342C145.337 117.118 146.045 117.094 146.716 117.273C147.387 117.451 147.99 117.824 148.451 118.345C148.911 118.865 149.208 119.51 149.304 120.199C149.4 120.888 149.291 121.591 148.991 122.218C148.69 122.845 148.212 123.369 147.615 123.725C147.019 124.081 146.331 124.253 145.638 124.218C144.945 124.184 144.277 123.945 143.718 123.532C143.16 123.119 142.735 122.55 142.498 121.896C142.338 121.454 142.267 120.984 142.29 120.514C142.314 120.044 142.43 119.583 142.633 119.159C142.836 118.735 143.122 118.356 143.473 118.044C143.825 117.732 144.235 117.493 144.679 117.342ZM136.019 117.515C136.646 117.215 137.347 117.108 138.034 117.207C138.722 117.305 139.365 117.605 139.883 118.068C140.401 118.531 140.772 119.138 140.947 119.811C141.123 120.485 141.096 121.195 140.871 121.853C140.645 122.511 140.23 123.088 139.679 123.511C139.128 123.934 138.464 124.185 137.771 124.231C137.078 124.278 136.387 124.118 135.784 123.772C135.182 123.426 134.694 122.91 134.383 122.288C133.969 121.437 133.909 120.457 134.216 119.562C134.522 118.667 135.171 117.931 136.019 117.515ZM127.35 120.521C127.441 120.018 127.703 119.563 128.09 119.231C128.477 118.9 128.967 118.712 129.476 118.699C130.003 118.758 130.494 118.994 130.869 119.37C131.244 119.746 131.48 120.238 131.539 120.767C131.524 121.317 131.304 121.842 130.922 122.238C130.541 122.634 130.025 122.873 129.476 122.907C129.171 122.919 128.866 122.862 128.585 122.742C128.303 122.622 128.052 122.441 127.849 122.212C127.646 121.983 127.495 121.712 127.409 121.418C127.323 121.124 127.303 120.814 127.35 120.511M152.958 118.927C153.282 118.764 153.643 118.689 154.004 118.709C154.366 118.729 154.717 118.843 155.021 119.04C155.325 119.237 155.573 119.511 155.739 119.834C155.905 120.156 155.985 120.517 155.969 120.88C155.954 121.243 155.844 121.595 155.651 121.903C155.458 122.21 155.188 122.462 154.869 122.632C154.549 122.803 154.19 122.887 153.828 122.876C153.465 122.865 153.112 122.76 152.803 122.57C152.492 122.372 152.238 122.095 152.067 121.768C151.896 121.44 151.814 121.073 151.83 120.704C151.846 120.334 151.958 119.975 152.156 119.663C152.354 119.352 152.631 119.097 152.958 118.927ZM132.502 124.501C133.26 124.303 134.063 124.362 134.784 124.668C135.506 124.974 136.106 125.511 136.492 126.195C136.849 126.838 136.997 127.577 136.916 128.309C136.834 129.041 136.526 129.728 136.035 130.276C135.545 130.824 134.895 131.205 134.178 131.365C133.461 131.525 132.712 131.457 132.036 131.169C131.36 130.882 130.79 130.39 130.406 129.763C130.022 129.135 129.843 128.403 129.894 127.668C129.946 126.934 130.225 126.234 130.692 125.666C131.16 125.098 131.792 124.691 132.502 124.501ZM148.923 124.501C149.661 124.285 150.449 124.314 151.169 124.583C151.89 124.853 152.504 125.347 152.921 125.995C153.316 126.62 153.505 127.353 153.462 128.092C153.418 128.83 153.145 129.537 152.68 130.111C152.215 130.685 151.581 131.099 150.869 131.294C150.157 131.488 149.402 131.454 148.71 131.196C148.019 130.937 147.426 130.468 147.014 129.854C146.603 129.239 146.394 128.511 146.418 127.772C146.441 127.032 146.696 126.319 147.145 125.732C147.595 125.145 148.216 124.715 148.923 124.501ZM122.752 126.259C123.046 126.162 123.36 126.145 123.662 126.209C123.965 126.273 124.246 126.415 124.476 126.622C124.707 126.829 124.879 127.093 124.975 127.388C125.071 127.683 125.089 127.997 125.025 128.301C124.962 128.604 124.819 128.886 124.613 129.117C124.407 129.348 124.143 129.52 123.85 129.617C123.556 129.714 123.241 129.731 122.939 129.668C122.636 129.604 122.355 129.462 122.124 129.255C121.908 129.041 121.749 128.776 121.662 128.485C121.574 128.193 121.561 127.884 121.623 127.586C121.686 127.288 121.822 127.01 122.019 126.778C122.216 126.546 122.468 126.368 122.752 126.259ZM158.192 128.144C158.165 127.616 158.346 127.098 158.696 126.703C159.046 126.308 159.538 126.066 160.064 126.031C160.518 126.077 160.941 126.288 161.252 126.623C161.563 126.958 161.741 127.395 161.754 127.853C161.753 128.154 161.675 128.451 161.527 128.713C161.379 128.976 161.166 129.196 160.909 129.353C160.653 129.51 160.36 129.599 160.059 129.61C159.759 129.622 159.46 129.556 159.192 129.419C158.716 129.117 158.362 128.656 158.192 128.117M116.263 126.869C116.46 126.785 116.676 126.757 116.888 126.79C117.1 126.822 117.298 126.914 117.46 127.054C117.622 127.193 117.742 127.376 117.806 127.581C117.87 127.786 117.876 128.004 117.822 128.212C117.769 128.42 117.658 128.608 117.503 128.756C117.348 128.904 117.154 129.005 116.945 129.048C116.735 129.091 116.517 129.075 116.317 129C116.116 128.926 115.94 128.797 115.809 128.627C115.705 128.487 115.634 128.326 115.601 128.155C115.567 127.984 115.573 127.808 115.616 127.639C115.66 127.47 115.741 127.314 115.853 127.18C115.964 127.047 116.105 126.941 116.263 126.869ZM165.935 126.869C166.075 126.779 166.234 126.722 166.4 126.701C166.565 126.68 166.733 126.695 166.892 126.747C167.051 126.798 167.196 126.884 167.318 126.998C167.44 127.112 167.535 127.251 167.598 127.406C167.673 127.583 167.702 127.776 167.681 127.967C167.66 128.158 167.591 128.341 167.48 128.497C167.368 128.654 167.219 128.779 167.045 128.86C166.872 128.942 166.68 128.978 166.489 128.964C165.371 129.064 165.008 127.361 165.935 126.869ZM136.728 131.633C137.442 131.466 138.191 131.527 138.869 131.807C139.548 132.087 140.122 132.572 140.513 133.194C140.903 133.817 141.09 134.546 141.047 135.28C141.005 136.014 140.735 136.716 140.275 137.289C139.815 137.862 139.188 138.277 138.482 138.477C137.776 138.676 137.025 138.649 136.335 138.4C135.644 138.152 135.049 137.693 134.63 137.089C134.212 136.485 133.992 135.765 134.002 135.03C134.018 134.241 134.294 133.48 134.787 132.866C135.28 132.251 135.963 131.818 136.728 131.633ZM144.906 131.633C145.653 131.447 146.439 131.511 147.146 131.815C147.853 132.118 148.441 132.645 148.821 133.316C149.201 133.986 149.353 134.762 149.252 135.526C149.151 136.29 148.803 137 148.263 137.548C147.722 138.096 147.017 138.452 146.255 138.561C145.494 138.67 144.718 138.527 144.046 138.153C143.373 137.779 142.841 137.195 142.531 136.489C142.22 135.784 142.148 134.997 142.326 134.247C142.477 133.601 142.805 133.01 143.274 132.541C143.743 132.073 144.334 131.745 144.979 131.596M129.167 132.953C129.524 132.905 129.888 132.949 130.222 133.084C130.557 133.218 130.851 133.437 131.076 133.72C131.3 134.002 131.448 134.338 131.504 134.695C131.56 135.052 131.523 135.417 131.396 135.755C131.269 136.093 131.056 136.392 130.779 136.623C130.502 136.854 130.17 137.009 129.815 137.073C129.461 137.137 129.095 137.107 128.756 136.987C128.416 136.867 128.113 136.66 127.877 136.387C127.637 136.101 127.477 135.756 127.415 135.388C127.352 135.02 127.388 134.641 127.519 134.292C127.651 133.942 127.872 133.634 128.162 133.399C128.452 133.163 128.799 133.01 129.167 132.953ZM153.24 133.017C153.57 132.898 153.925 132.864 154.271 132.92C154.618 132.975 154.945 133.118 155.221 133.335C155.498 133.552 155.715 133.836 155.851 134.16C155.988 134.484 156.041 134.838 156.004 135.188C155.967 135.538 155.842 135.873 155.641 136.161C155.44 136.449 155.169 136.682 154.853 136.836C154.538 136.991 154.188 137.062 153.838 137.044C153.487 137.026 153.147 136.919 152.849 136.733C152.522 136.525 152.259 136.229 152.09 135.88C151.922 135.53 151.854 135.14 151.895 134.754C151.935 134.367 152.083 134 152.32 133.693C152.558 133.387 152.876 133.152 153.24 133.017ZM159.964 139.785C159.86 139.552 159.82 139.296 159.846 139.043C159.872 138.79 159.965 138.548 160.114 138.342C160.264 138.136 160.464 137.973 160.696 137.87C160.929 137.767 161.184 137.726 161.436 137.753C161.681 137.788 161.915 137.872 162.126 138C162.337 138.129 162.52 138.299 162.663 138.5C162.727 139.065 162.845 139.739 162.381 140.167C162.219 140.349 162.014 140.488 161.785 140.57C161.555 140.653 161.309 140.676 161.068 140.638C160.828 140.6 160.601 140.502 160.408 140.352C160.215 140.203 160.062 140.008 159.964 139.785ZM121.397 138.018C121.635 137.884 121.906 137.818 122.179 137.83C122.452 137.841 122.716 137.928 122.942 138.081C123.168 138.234 123.348 138.447 123.46 138.697C123.572 138.946 123.613 139.222 123.578 139.493C123.537 139.733 123.438 139.959 123.289 140.152C123.14 140.345 122.947 140.498 122.725 140.598C122.504 140.699 122.262 140.744 122.019 140.729C121.777 140.714 121.541 140.64 121.334 140.513C121.127 140.375 120.958 140.186 120.844 139.965C120.729 139.744 120.672 139.497 120.679 139.248C120.685 138.999 120.754 138.755 120.88 138.54C121.006 138.325 121.184 138.145 121.397 138.018ZM140.826 140.149C141.157 140.024 141.514 139.986 141.864 140.038C142.214 140.091 142.545 140.232 142.824 140.449C143.104 140.665 143.324 140.95 143.463 141.276C143.602 141.602 143.655 141.959 143.618 142.311C143.58 142.664 143.454 143.001 143.25 143.29C143.046 143.58 142.771 143.812 142.452 143.965C142.133 144.118 141.78 144.187 141.427 144.164C141.074 144.142 140.733 144.03 140.435 143.838C140.121 143.623 139.871 143.328 139.712 142.982C139.552 142.637 139.489 142.255 139.529 141.876C139.569 141.497 139.711 141.137 139.939 140.833C140.168 140.528 140.474 140.292 140.826 140.149ZM131.83 142.253C132.1 142.133 132.396 142.084 132.69 142.109C132.984 142.135 133.268 142.234 133.513 142.399C133.759 142.563 133.959 142.787 134.095 143.05C134.231 143.313 134.299 143.605 134.292 143.901C134.292 144.147 134.239 144.39 134.138 144.614C134.037 144.837 133.889 145.037 133.706 145.2C133.522 145.362 133.306 145.484 133.072 145.557C132.838 145.63 132.591 145.652 132.348 145.623C131.948 145.604 131.567 145.447 131.269 145.178C130.971 144.91 130.776 144.547 130.715 144.15C130.654 143.753 130.731 143.348 130.935 143.002C131.138 142.656 131.454 142.392 131.83 142.253ZM150.05 142.253C150.329 142.098 150.645 142.021 150.964 142.03C151.282 142.04 151.593 142.136 151.862 142.308C152.131 142.48 152.349 142.721 152.493 143.007C152.636 143.292 152.7 143.612 152.678 143.931C152.655 144.25 152.547 144.557 152.365 144.819C152.183 145.082 151.933 145.291 151.643 145.423C151.352 145.555 151.031 145.606 150.714 145.571C150.397 145.536 150.095 145.415 149.841 145.222C149.615 145.038 149.438 144.801 149.322 144.534C149.207 144.266 149.157 143.974 149.178 143.683C149.198 143.392 149.288 143.11 149.44 142.861C149.592 142.613 149.801 142.404 150.05 142.253ZM153.221 150.104C153.128 149.928 153.077 149.732 153.074 149.533C153.072 149.333 153.117 149.136 153.206 148.958C153.295 148.779 153.425 148.625 153.586 148.507C153.747 148.39 153.933 148.313 154.13 148.282C154.784 148.41 155.484 148.911 155.339 149.667C155.3 149.896 155.194 150.109 155.035 150.278C154.875 150.447 154.668 150.563 154.441 150.613C154.214 150.663 153.978 150.644 153.762 150.558C153.546 150.472 153.361 150.324 153.23 150.131M128.077 149.467C128.277 148.865 128.758 148.264 129.467 148.428C129.697 148.467 129.91 148.574 130.078 148.735C130.245 148.897 130.361 149.106 130.408 149.335C130.455 149.564 130.432 149.801 130.342 150.016C130.252 150.232 130.099 150.415 129.903 150.541C129.716 150.641 129.507 150.691 129.295 150.687C129.083 150.682 128.876 150.623 128.694 150.515C128.511 150.407 128.359 150.254 128.253 150.071C128.146 149.887 128.089 149.679 128.086 149.467M140.217 150.159C140.279 149.948 140.387 149.755 140.534 149.593C140.681 149.43 140.863 149.304 141.066 149.222C141.269 149.141 141.488 149.106 141.706 149.122C141.924 149.137 142.136 149.202 142.326 149.312C142.825 149.521 142.971 150.086 143.107 150.569C143.034 150.815 142.971 151.06 142.916 151.316C142.779 151.52 142.597 151.69 142.384 151.815C142.172 151.94 141.935 152.015 141.69 152.035C141.456 152.05 141.222 152.008 141.007 151.912C140.793 151.816 140.606 151.67 140.461 151.485C140.316 151.3 140.218 151.083 140.176 150.852C140.133 150.621 140.148 150.383 140.217 150.159Z" fill="white"/>
<path style="mix-blend-mode:multiply" opacity="0.5" d="M256.335 104.271C285.063 104.271 308.351 80.9292 308.351 52.1355C308.351 23.3419 285.063 0 256.335 0C227.608 0 204.319 23.3419 204.319 52.1355C204.319 80.9292 227.608 104.271 256.335 104.271Z" fill="url(#paint5_radial_624_15829)"/>
<path d="M243.559 70.8074C262.038 70.8074 277.019 55.7926 277.019 37.2709C277.019 18.7492 262.038 3.73438 243.559 3.73438C225.08 3.73438 210.1 18.7492 210.1 37.2709C210.1 55.7926 225.08 70.8074 243.559 70.8074Z" fill="url(#paint6_linear_624_15829)"/>
<path d="M227.711 46.9806C227.998 46.6947 228.387 46.5343 228.792 46.5343H266.259C266.412 46.532 266.561 46.5757 266.689 46.6596C266.817 46.7435 266.916 46.8638 266.975 47.005C267.033 47.1462 267.049 47.3017 267.018 47.4516C266.988 47.6015 266.913 47.7388 266.804 47.8458L259.407 55.2599C259.118 55.5506 258.726 55.7144 258.317 55.7154H220.85C220.697 55.715 220.548 55.6694 220.421 55.5843C220.295 55.4992 220.196 55.3784 220.138 55.2372C220.079 55.0959 220.064 54.9406 220.094 54.7906C220.123 54.6407 220.197 54.5029 220.304 54.3947L227.711 46.9806Z" fill="white"/>
<path d="M227.711 19.2823C228 18.9989 228.387 18.8389 228.792 18.836H266.259C266.412 18.8338 266.561 18.8775 266.689 18.9614C266.817 19.0453 266.916 19.1656 266.975 19.3068C267.033 19.4479 267.049 19.6035 267.018 19.7534C266.988 19.9033 266.913 20.0406 266.804 20.1476L259.407 27.5617C259.118 27.8523 258.726 28.0161 258.317 28.0171H220.85C220.697 28.0167 220.548 27.9711 220.421 27.886C220.295 27.8009 220.196 27.6802 220.138 27.5389C220.079 27.3977 220.064 27.2423 220.094 27.0924C220.123 26.9425 220.197 26.8047 220.304 26.6964L227.711 19.2823Z" fill="white"/>
<path d="M259.407 33.0453C259.118 32.7546 258.726 32.5908 258.317 32.5898H220.85C220.697 32.5902 220.548 32.6358 220.421 32.7209C220.295 32.806 220.196 32.9268 220.138 33.068C220.079 33.2093 220.064 33.3646 220.094 33.5146C220.123 33.6645 220.197 33.8023 220.304 33.9105L227.711 41.3246C227.998 41.6105 228.387 41.7709 228.792 41.7709H266.259C266.412 41.7732 266.561 41.7295 266.689 41.6456C266.817 41.5617 266.916 41.4414 266.975 41.3002C267.033 41.159 267.049 41.0034 267.018 40.8536C266.988 40.7037 266.913 40.5664 266.804 40.4594L259.407 33.0453Z" fill="white"/>
<path style="mix-blend-mode:multiply" opacity="0.5" d="M52.0159 195.992C80.7435 195.992 104.032 172.65 104.032 143.856C104.032 115.063 80.7435 91.7207 52.0159 91.7207C23.2883 91.7207 0 115.063 0 143.856C0 172.65 23.2883 195.992 52.0159 195.992Z" fill="url(#paint7_radial_624_15829)"/>
<path d="M39.7838 94.3613C46.4015 94.3613 52.8705 96.3282 58.3729 100.013C63.8753 103.698 68.1639 108.936 70.6964 115.064C73.2289 121.192 73.8915 127.935 72.6005 134.44C71.3094 140.946 68.1227 146.922 63.4433 151.612C58.7639 156.302 52.802 159.496 46.3114 160.79C39.8209 162.084 33.0933 161.42 26.9794 158.882C20.8654 156.343 15.6398 152.045 11.9632 146.53C8.28659 141.015 6.32422 134.531 6.32422 127.898C6.32303 123.493 7.18767 119.132 8.86875 115.063C10.5498 110.993 13.0144 107.296 16.1216 104.181C19.2289 101.067 22.9179 98.5966 26.978 96.9117C31.038 95.2268 35.3895 94.3601 39.7838 94.3613Z" fill="#F0B90B"/>
<path d="M31.1334 124.291L36.195 119.227L37.2673 118.161L39.8027 115.62L48.4175 124.291L53.4428 119.227L39.8027 105.537L26.1172 119.227L31.1334 124.291Z" fill="white"/>
<path d="M39.8083 122.836L34.7705 127.886L39.8083 132.935L44.846 127.886L39.8083 122.836Z" fill="white"/>
<path d="M48.4175 131.505L39.7936 140.149L36.7675 137.116L36.2132 136.56L31.1334 131.505L26.1172 136.542L39.8027 150.231L53.4428 136.542L48.4175 131.505Z" fill="white"/>
<path d="M22.5221 122.842L17.4844 127.892L22.5221 132.941L27.5599 127.892L22.5221 122.842Z" fill="white"/>
<path d="M57.0544 122.851L52.0166 127.9L57.0544 132.95L62.0921 127.9L57.0544 122.851Z" fill="white"/>
<path style="mix-blend-mode:multiply" opacity="0.5" d="M358.495 104.271C387.223 104.271 410.511 80.9292 410.511 52.1355C410.511 23.3419 387.223 0 358.495 0C329.768 0 306.479 23.3419 306.479 52.1355C306.479 80.9292 329.768 104.271 358.495 104.271Z" fill="url(#paint8_radial_624_15829)"/>
<path d="M345.446 3.73438C352.064 3.73438 358.533 5.70126 364.035 9.38629C369.537 13.0713 373.826 18.309 376.359 24.437C378.891 30.565 379.554 37.3081 378.263 43.8135C376.972 50.319 373.785 56.2946 369.105 60.9848C364.426 65.6749 358.464 68.869 351.974 70.163C345.483 71.457 338.755 70.7929 332.641 68.2546C326.528 65.7163 321.302 61.4178 317.625 55.9028C313.949 50.3877 311.986 43.9038 311.986 37.2709C311.989 28.3772 315.515 19.8484 321.789 13.5597C328.063 7.27087 336.573 3.73679 345.446 3.73438Z" fill="#53AE94"/>
<path d="M349.571 32.8086V27.8173H360.958V20.2119H329.997V27.8173H341.384V32.7995C332.133 33.2276 325.172 35.0583 325.172 37.2625C325.172 39.4667 332.133 41.2975 341.384 41.7256V57.7105H349.617V41.7256C358.85 41.2975 365.792 39.4667 365.792 37.2625C365.792 35.0583 358.85 33.2367 349.617 32.8086M349.617 40.3775C349.381 40.3775 348.19 40.4686 345.528 40.4686C343.41 40.4686 341.893 40.4049 341.384 40.3775C333.205 40.0132 327.107 38.5559 327.107 36.88C327.107 35.2041 333.214 33.7467 341.384 33.3824V38.9567C341.92 38.9567 343.456 39.0842 345.564 39.0842C348.099 39.0842 349.381 38.9749 349.617 38.9567V33.3824C357.795 33.7467 363.857 35.2041 363.857 36.88C363.857 38.5559 357.768 40.0041 349.617 40.3684" fill="white"/>
<path style="mix-blend-mode:multiply" opacity="0.5" d="M460.656 104.271C489.383 104.271 512.671 80.9292 512.671 52.1355C512.671 23.3419 489.383 0 460.656 0C431.928 0 408.64 23.3419 408.64 52.1355C408.64 80.9292 431.928 104.271 460.656 104.271Z" fill="url(#paint9_radial_624_15829)"/>
<path d="M447.333 70.8074C453.95 70.8074 460.419 68.8405 465.922 65.1555C471.424 61.4704 475.713 56.2327 478.245 50.1048C480.778 43.9768 481.44 37.2337 480.149 30.7282C478.858 24.2228 475.672 18.2472 470.992 13.557C466.313 8.86684 460.351 5.6728 453.86 4.37878C447.37 3.08477 440.642 3.74891 434.528 6.28721C428.414 8.8255 423.189 13.124 419.512 18.639C415.836 24.1541 413.873 30.638 413.873 37.2709C413.862 41.678 414.72 46.0438 416.398 50.1175C418.076 54.1912 420.54 57.8926 423.649 61.0089C426.758 64.1252 430.451 66.5951 434.516 68.2766C438.58 69.9581 442.936 70.8182 447.333 70.8074Z" fill="#2775CA"/>
<path d="M456.529 42.5812C456.529 37.69 453.603 36.0141 447.751 35.2946C443.571 34.739 442.735 33.6187 442.735 31.6513C442.735 29.6839 444.125 28.4452 446.915 28.4452C449.423 28.4452 450.813 29.2831 451.513 31.378C451.587 31.5798 451.721 31.7541 451.896 31.8778C452.071 32.0015 452.28 32.0686 452.495 32.0703H454.721C454.852 32.0811 454.983 32.0635 455.107 32.0185C455.23 31.9735 455.342 31.9022 455.436 31.8096C455.529 31.717 455.601 31.6052 455.647 31.4819C455.693 31.3587 455.712 31.2269 455.702 31.0957V30.9499C455.429 29.4364 454.665 28.0553 453.53 27.0199C452.396 25.9844 450.952 25.3522 449.423 25.2209V21.8964C449.423 21.3408 449.005 20.9218 448.314 20.7852H446.224C445.661 20.7852 445.243 21.2041 445.107 21.8964V25.1116C440.926 25.6763 438.273 28.4634 438.273 31.961C438.273 36.5697 441.063 38.3914 446.915 39.0836C450.822 39.7849 452.077 40.6229 452.077 42.8635C452.077 45.1041 450.123 46.6343 447.478 46.6343C443.843 46.6343 442.598 45.095 442.18 42.991C442.135 42.7607 442.014 42.5525 441.836 42.4004C441.657 42.2482 441.433 42.161 441.199 42.1531H438.836C438.706 42.1493 438.577 42.1722 438.456 42.2203C438.336 42.2684 438.226 42.3407 438.134 42.4328C438.042 42.5249 437.97 42.6348 437.922 42.7559C437.874 42.8769 437.851 43.0065 437.855 43.1368V43.2461C438.418 46.7436 440.645 49.2575 445.243 49.9497V53.3106C445.243 53.8663 445.661 54.2852 446.361 54.4218H448.451C449.005 54.4218 449.423 54.0029 449.559 53.3106V49.9861C453.74 49.2848 456.529 46.3428 456.529 42.5812Z" fill="white"/>
<path d="M440.218 57.2543C436.222 55.7636 432.777 53.0839 430.345 49.5747C427.912 46.0655 426.609 41.8946 426.609 37.6215C426.609 33.3484 427.912 29.1775 430.345 25.6683C432.777 22.1591 436.222 19.4794 440.218 17.9887C440.486 17.8717 440.711 17.6735 440.861 17.422C441.011 17.1704 441.078 16.8781 441.054 16.586V14.6369C441.075 14.3801 441.001 14.1245 440.847 13.9182C440.693 13.7118 440.47 13.569 440.218 13.5166C440.021 13.4948 439.824 13.5467 439.664 13.6623C434.59 15.2806 430.161 18.4748 427.018 22.7828C423.876 27.0908 422.182 32.2893 422.182 37.626C422.182 42.9628 423.876 48.1613 427.018 52.4693C430.161 56.7773 434.59 59.9715 439.664 61.5898C439.779 61.6576 439.909 61.697 440.043 61.7046C440.176 61.7123 440.31 61.6879 440.432 61.6337C440.555 61.5794 440.663 61.4968 440.747 61.3925C440.831 61.2883 440.89 61.1655 440.918 61.0342C441.054 60.8885 441.054 60.7518 441.054 60.4695V58.5112C441.012 58.254 440.916 58.0086 440.772 57.7918C440.628 57.575 440.439 57.3917 440.218 57.2543ZM454.994 13.6532C454.877 13.5874 454.747 13.5499 454.613 13.5439C454.48 13.5378 454.347 13.5632 454.225 13.6182C454.103 13.6731 453.995 13.756 453.911 13.8602C453.827 13.9643 453.768 14.0869 453.74 14.2179C453.604 14.3545 453.604 14.4911 453.604 14.7735V16.7318C453.626 17.0131 453.713 17.2854 453.858 17.5272C454.003 17.7691 454.202 17.9738 454.44 18.1253C458.435 19.616 461.88 22.2957 464.313 25.8049C466.745 29.3142 468.049 33.485 468.049 37.7581C468.049 42.0312 466.745 46.2021 464.313 49.7113C461.88 53.2205 458.435 55.9002 454.44 57.3909C454.172 57.5079 453.947 57.7061 453.797 57.9576C453.647 58.2092 453.579 58.5015 453.604 58.7936V60.7518C453.583 61.0075 453.657 61.2619 453.811 61.4667C453.965 61.6716 454.189 61.8126 454.44 61.863C454.635 61.8833 454.831 61.835 454.994 61.7264C460.067 60.0857 464.49 56.8751 467.627 52.5561C470.764 48.2371 472.454 43.0323 472.454 37.6898C472.454 32.3473 470.764 27.1425 467.627 22.8235C464.49 18.5045 460.067 15.2939 454.994 13.6532Z" fill="white"/>
<path style="mix-blend-mode:multiply" opacity="0.5" d="M256.335 195.992C285.063 195.992 308.351 172.65 308.351 143.856C308.351 115.063 285.063 91.7207 256.335 91.7207C227.608 91.7207 204.319 115.063 204.319 143.856C204.319 172.65 227.608 195.992 256.335 195.992Z" fill="url(#paint10_radial_624_15829)"/>
<path d="M243.568 161.434C262.047 161.434 277.028 146.42 277.028 127.898C277.028 109.376 262.047 94.3613 243.568 94.3613C225.089 94.3613 210.108 109.376 210.108 127.898C210.108 146.42 225.089 161.434 243.568 161.434Z" fill="#F30504"/>
<path d="M256.662 130.485C256.466 130.792 256.21 131.056 255.908 131.259C254.388 132.225 252.687 132.869 250.91 133.154C250.061 133.362 249.178 133.383 248.32 133.218C248.102 133.108 248.075 133.026 248.147 132.744C248.456 131.991 248.994 131.353 249.683 130.922C250.11 130.622 251.828 129.574 252.627 129.101C253.589 128.517 254.639 128.093 255.735 127.844C255.93 127.806 256.131 127.806 256.326 127.844C256.471 127.898 256.626 128.317 256.69 128.818C256.722 129.374 256.713 129.931 256.662 130.485Z" fill="black"/>
<path d="M238.161 133.09C238.009 133.23 237.813 133.313 237.607 133.327C237.092 133.355 236.575 133.34 236.062 133.281C234.428 133.07 232.835 132.613 231.337 131.924C230.74 131.648 230.191 131.279 229.71 130.831L229.492 130.594V130.303C229.435 129.761 229.435 129.215 229.492 128.673C229.531 128.429 229.614 128.194 229.737 127.98C229.801 127.898 229.801 127.898 230.083 127.898C230.461 127.905 230.835 127.972 231.191 128.099C232.646 128.644 234.038 129.344 235.344 130.185C236.269 130.63 237.09 131.266 237.752 132.052C238.007 132.338 238.152 132.706 238.161 133.09Z" fill="black"/>
<path d="M249.284 144.047C249.284 144.047 249.184 144.448 249.066 144.894C248.948 145.341 248.857 145.705 248.857 145.723C248.775 145.732 248.693 145.732 248.611 145.723H248.357L248.012 146.543L247.621 147.454L247.575 147.563L247.412 147.299L247.248 147.026V144.849H247.185C247.048 144.849 246.103 145.004 245.685 145.04C243.967 145.213 242.233 145.177 240.524 144.931C240.251 144.931 240.015 144.858 240.006 144.867C239.997 144.876 240.006 145.377 240.006 146.006V147.117L239.869 147.326C239.806 147.436 239.733 147.527 239.733 147.536C239.733 147.545 239.633 147.436 239.451 147.071C239.256 146.693 239.107 146.292 239.006 145.878L238.952 145.65H238.715H238.47L238.406 145.359C238.406 145.204 238.334 144.958 238.315 144.822V144.576L238.106 144.393L237.852 144.175C237.833 144.158 237.818 144.137 237.809 144.113C237.799 144.089 237.795 144.064 237.797 144.038V143.938H239.76V144.038V144.148H240.097H241.414H242.396L242.65 143.756L242.905 143.364H243.241V141.725L242.805 141.534C242.262 141.364 241.759 141.085 241.328 140.714C240.897 140.343 240.546 139.887 240.296 139.375C240.211 139.039 240.183 138.691 240.215 138.346C240.174 138.005 240.189 137.661 240.26 137.326C240.314 137.133 240.416 136.958 240.558 136.817C240.7 136.676 240.876 136.575 241.069 136.524C241.849 136.468 242.633 136.468 243.413 136.524H245.594L245.84 136.642C246.075 136.741 246.279 136.901 246.43 137.107C246.624 137.369 246.711 137.694 246.676 138.018C246.693 138.525 246.653 139.032 246.558 139.53C246.452 139.854 246.299 140.161 246.103 140.441C245.631 140.995 245.024 141.419 244.34 141.67L244.15 141.743V143.401H244.322H244.495L244.731 143.756L244.958 144.111H246.012C246.594 144.111 247.103 144.111 247.148 144.111C247.194 144.111 247.248 144.111 247.321 143.984L247.421 143.838H248.33C248.657 143.852 248.98 143.923 249.284 144.047Z" fill="black"/>
<path d="M245.13 146.307C244.985 146.398 244.885 146.434 244.858 146.416L244.603 146.234L244.394 146.052L244.176 146.288C243.695 146.808 243.676 146.835 243.54 146.844C243.404 146.853 243.267 146.844 243.004 146.425L242.749 146.052H242.531H242.313L242.213 146.27L242.113 146.48L241.932 146.425C241.789 146.38 241.649 146.325 241.514 146.261L241.277 146.143V145.696H245.485V145.915C245.485 146.115 245.485 146.115 245.13 146.307Z" fill="black"/>
<path d="M264.778 136.698C264.774 136.64 264.774 136.582 264.778 136.525C262.583 136.318 260.37 136.549 258.265 137.202C256.16 137.855 254.204 138.919 252.51 140.332C252.51 140.332 250.901 132.927 243.359 132.927C235.816 132.927 233.027 140.332 233.027 140.332C228.792 135.778 223.14 136.106 221.095 136.406C221.095 136.452 221.095 136.506 221.095 136.552C221.006 137.357 221.061 138.171 221.258 138.956C221.849 141.197 223.657 143.674 226.502 146.097C231.164 150.068 237.479 152.928 242.259 153.265C247.248 153.602 254.609 150.679 259.525 146.407C260.293 145.73 261.016 145.003 261.688 144.23C262.118 143.747 262.507 143.229 262.851 142.682C262.851 142.682 262.851 142.682 262.851 142.627C262.872 142.56 262.906 142.498 262.951 142.445C263.069 142.272 263.542 141.425 263.596 141.279C264.028 140.385 264.334 139.434 264.505 138.455C264.646 137.878 264.737 137.29 264.778 136.698ZM245.131 146.307C244.985 146.398 244.885 146.434 244.858 146.416L244.604 146.234L244.395 146.052L244.177 146.289C243.695 146.808 243.677 146.835 243.541 146.844C243.404 146.853 243.268 146.844 243.004 146.425L242.75 146.052H242.532H242.314L242.214 146.27L242.114 146.48L241.932 146.425C241.789 146.38 241.65 146.325 241.514 146.261L241.278 146.143V145.696H245.485V145.915C245.485 146.115 245.485 146.115 245.131 146.307ZM249.066 144.895L248.848 145.715C248.766 145.724 248.684 145.724 248.602 145.715H248.348L248.012 146.544L247.621 147.454L247.575 147.564L247.412 147.3L247.248 147.026V144.849H247.185C247.048 144.849 246.103 145.004 245.685 145.041C243.967 145.214 242.233 145.177 240.524 144.931C240.251 144.931 240.015 144.859 240.006 144.868C239.997 144.877 240.006 145.378 240.006 146.006V147.117L239.869 147.327C239.806 147.436 239.733 147.527 239.733 147.536C239.733 147.545 239.633 147.436 239.451 147.072C239.256 146.693 239.107 146.293 239.006 145.879L238.951 145.651H238.715H238.47L238.406 145.359C238.406 145.205 238.334 144.959 238.315 144.822V144.576L238.106 144.394L237.852 144.175C237.833 144.158 237.818 144.137 237.808 144.114C237.799 144.09 237.795 144.064 237.797 144.039V143.939H239.76V144.039V144.148H240.096H241.414H242.396L242.65 143.756L242.904 143.365H243.241V141.725L242.804 141.534C242.262 141.365 241.759 141.086 241.328 140.714C240.897 140.343 240.546 139.888 240.296 139.375C240.211 139.04 240.183 138.691 240.215 138.346C240.174 138.006 240.189 137.661 240.26 137.326C240.314 137.133 240.416 136.958 240.558 136.817C240.7 136.677 240.876 136.576 241.069 136.525C241.849 136.468 242.633 136.468 243.413 136.525H245.594L245.84 136.643C246.075 136.741 246.279 136.902 246.43 137.107C246.624 137.369 246.711 137.695 246.676 138.018C246.693 138.525 246.653 139.032 246.558 139.53C246.452 139.855 246.299 140.162 246.103 140.441C245.631 140.996 245.024 141.419 244.34 141.671L244.149 141.744V143.401H244.322H244.495L244.731 143.756L244.958 144.112H246.012C246.594 144.112 247.103 144.112 247.148 144.112C247.194 144.112 247.248 144.112 247.321 143.984L247.421 143.838H248.33C248.631 143.796 248.937 143.796 249.238 143.838C249.153 144.185 249.095 144.539 249.066 144.895Z" fill="white"/>
<path d="M264.714 135.895C264.714 135.54 264.668 135.048 264.641 134.802C264.359 131.428 263.341 128.157 261.66 125.221L261.488 124.893V124.829C261.733 124.1 262.724 121.031 263.523 117.542C264.596 112.779 265.277 107.223 263.187 105.556C263.187 105.556 259.552 105.283 254.736 110.046C253.424 111.36 252.226 112.783 251.155 114.3L250.819 114.191C248.873 113.554 246.855 113.163 244.812 113.025C244.204 112.979 241.914 112.979 241.177 113.025C239.151 113.132 237.15 113.528 235.234 114.2L235.016 114.282C233.906 112.764 232.666 111.347 231.309 110.046C226.274 105.274 222.53 105.547 222.53 105.547C220.313 107.268 221.067 113.079 222.212 117.998C222.966 121.249 223.893 124.109 224.239 125.139C224.215 125.198 224.188 125.256 224.157 125.312C222.389 128.766 221.35 132.549 221.104 136.424C223.148 136.123 228.8 135.786 233.035 140.349C233.035 140.349 235.825 132.944 243.367 132.944C250.91 132.944 252.528 140.349 252.528 140.349C254.221 138.939 256.175 137.876 258.279 137.223C260.382 136.57 262.594 136.338 264.786 136.542C264.741 136.369 264.723 136.15 264.714 135.895ZM225.693 122.151C225.693 122.151 222.748 114.792 223.503 110.584C223.594 109.925 223.847 109.299 224.239 108.762C224.239 108.762 227.565 109.09 232.944 115.074C232.101 115.518 231.301 116.039 230.554 116.632C228.604 118.124 226.96 119.98 225.711 122.096L225.693 122.151ZM238.16 133.081C238.008 133.221 237.812 133.304 237.606 133.318C237.091 133.346 236.574 133.33 236.061 133.272C234.427 133.061 232.834 132.604 231.336 131.915C230.739 131.639 230.191 131.27 229.709 130.822L229.491 130.585V130.294C229.434 129.752 229.434 129.205 229.491 128.664C229.53 128.42 229.613 128.185 229.736 127.971C229.8 127.889 229.8 127.889 230.082 127.889C230.46 127.896 230.834 127.963 231.19 128.09C232.645 128.635 234.037 129.335 235.343 130.175C236.269 130.621 237.089 131.257 237.751 132.043C238.008 132.332 238.153 132.703 238.16 133.09V133.081ZM256.662 130.476C256.466 130.783 256.21 131.047 255.908 131.25C254.388 132.216 252.687 132.86 250.91 133.145C250.061 133.353 249.178 133.374 248.32 133.209C248.102 133.099 248.075 133.017 248.147 132.735C248.456 131.981 248.994 131.344 249.683 130.913C250.11 130.613 251.828 129.565 252.627 129.092C253.589 128.508 254.639 128.084 255.735 127.835C255.93 127.797 256.131 127.797 256.326 127.835C256.471 127.889 256.626 128.308 256.69 128.809C256.722 129.368 256.713 129.928 256.662 130.485V130.476ZM255.363 116.641C254.644 116.05 253.871 115.529 253.055 115.083C258.253 109.099 261.46 108.771 261.46 108.771C261.833 109.316 262.076 109.939 262.169 110.593C262.896 114.801 260.061 122.169 260.061 122.169C258.87 120.06 257.28 118.204 255.381 116.704L255.363 116.641Z" fill="#FFA409"/>
<path d="M262.16 110.575C261.542 110.493 258.643 110.484 255.363 116.65C254.644 116.059 253.871 115.538 253.055 115.092C258.253 109.108 261.46 108.78 261.46 108.78C261.83 109.316 262.07 109.93 262.16 110.575Z" fill="#FF9300"/>
<path d="M260.025 122.151C258.833 120.04 257.24 118.183 255.336 116.686C258.616 110.52 261.506 110.529 262.133 110.611C262.888 114.792 260.025 122.151 260.025 122.151Z" fill="#FF8300"/>
<path d="M232.944 115.084C232.101 115.527 231.301 116.049 230.554 116.641C227.155 110.466 224.193 110.484 223.521 110.566C223.605 109.907 223.856 109.28 224.248 108.744C224.248 108.744 227.564 109.1 232.944 115.084Z" fill="#FF9300"/>
<path d="M230.545 116.65C228.588 118.137 226.94 119.994 225.693 122.115C225.693 122.115 222.748 114.755 223.503 110.538C224.139 110.493 227.147 110.484 230.545 116.65Z" fill="#FF8300"/>
<path d="M252.101 126.241C252.101 126.241 249.592 126.396 249.901 124.42C250.019 123.774 250.375 123.196 250.899 122.801C251.423 122.406 252.075 122.223 252.728 122.288C253.282 122.37 255.454 123.199 255.09 124.811C254.727 126.424 254.182 126.15 253.827 126.232C253.252 126.272 252.676 126.275 252.101 126.241Z" fill="white"/>
<path d="M233.563 126.241C233.563 126.241 231.046 126.396 231.364 124.42C231.481 123.774 231.838 123.196 232.361 122.801C232.885 122.406 233.538 122.223 234.19 122.288C234.744 122.37 236.916 123.199 236.544 124.811C236.171 126.424 235.635 126.15 235.289 126.232C234.715 126.272 234.138 126.275 233.563 126.241Z" fill="white"/>
<path style="mix-blend-mode:multiply" opacity="0.5" d="M664.975 104.271C693.702 104.271 716.991 80.9292 716.991 52.1355C716.991 23.3419 693.702 0 664.975 0C636.247 0 612.959 23.3419 612.959 52.1355C612.959 80.9292 636.247 104.271 664.975 104.271Z" fill="url(#paint11_radial_624_15829)"/>
<path d="M684.119 42.5716C687.045 24.2836 674.625 7.08085 656.379 4.1483C638.133 1.21576 620.97 13.6639 618.044 31.9519C615.118 50.24 627.537 67.4427 645.784 70.3753C664.03 73.3078 681.193 60.8597 684.119 42.5716Z" fill="#E84142"/>
<path fill-rule="evenodd" clip-rule="evenodd" d="M641.621 50.6147H635.132C634.306 50.7186 633.466 50.6314 632.679 50.3596C632.462 50.2156 632.282 50.0228 632.153 49.7967C632.023 49.5706 631.948 49.3174 631.934 49.0572C631.934 48.5744 632.243 47.9824 632.924 46.7983L648.963 18.4717C649.645 17.2694 649.99 16.6501 650.426 16.4406C650.659 16.3236 650.916 16.2627 651.176 16.2627C651.436 16.2627 651.693 16.3236 651.926 16.4406C652.362 16.6683 652.707 17.2694 653.389 18.4717L656.678 24.2372C657.218 25.0536 657.646 25.9389 657.951 26.8695C658.132 27.6238 658.132 28.4105 657.951 29.1648C657.648 30.1062 657.216 31.0011 656.669 31.8244L648.245 46.7437C647.813 47.6334 647.263 48.4606 646.61 49.2029C646.043 49.7429 645.359 50.1422 644.61 50.3688C643.628 50.5736 642.624 50.6561 641.621 50.6147Z" fill="white"/>
<path fill-rule="evenodd" clip-rule="evenodd" d="M658.05 50.6147H667.356C668.728 50.6147 669.419 50.6147 669.828 50.3506C670.047 50.2086 670.23 50.0166 670.361 49.7902C670.492 49.5638 670.568 49.3095 670.582 49.0481C670.582 48.5745 670.273 48.0007 669.673 46.8895L669.6 46.7711L664.866 38.7832V38.6921C664.212 37.5809 663.875 37.0162 663.448 36.8067C663.22 36.6855 662.966 36.6221 662.708 36.6221C662.449 36.6221 662.195 36.6855 661.967 36.8067C661.54 37.0253 661.195 37.6082 660.513 38.7923L655.869 46.7802C655.188 47.9551 654.852 48.5472 654.87 49.0299C654.888 49.2904 654.965 49.5434 655.096 49.7692C655.226 49.9951 655.407 50.1878 655.624 50.3324C655.96 50.6147 656.651 50.6147 658.05 50.6147Z" fill="white"/>
<path style="mix-blend-mode:multiply" opacity="0.5" d="M664.975 195.992C693.702 195.992 716.991 172.65 716.991 143.856C716.991 115.063 693.702 91.7207 664.975 91.7207C636.247 91.7207 612.959 115.063 612.959 143.856C612.959 172.65 636.247 195.992 664.975 195.992Z" fill="url(#paint12_radial_624_15829)"/>
<path fill-rule="evenodd" clip-rule="evenodd" d="M651.108 94.3613C657.726 94.3613 664.195 96.3282 669.697 100.013C675.2 103.698 679.488 108.936 682.021 115.064C684.553 121.192 685.216 127.935 683.925 134.44C682.634 140.946 679.447 146.922 674.768 151.612C670.088 156.302 664.126 159.496 657.636 160.79C651.145 162.084 644.418 161.42 638.304 158.882C632.19 156.343 626.964 152.045 623.287 146.53C619.611 141.015 617.648 134.531 617.648 127.898C617.656 119.006 621.183 110.48 627.457 104.192C633.73 97.9042 642.236 94.3686 651.108 94.3613Z" fill="#B8B9BB"/>
<path fill-rule="evenodd" clip-rule="evenodd" d="M645.319 109.317L640.075 128.991L635.913 130.631L634.414 136.232L638.64 134.793L635.85 146.406L666.102 146.47L667.946 139.028H649.545L651.925 130.084L656.905 127.962L658.332 122.497L653.497 124.136L657.314 109.518L645.319 109.317Z" fill="white"/>
<path style="mix-blend-mode:multiply" opacity="0.5" d="M460.656 195.992C489.383 195.992 512.671 172.65 512.671 143.856C512.671 115.063 489.383 91.7207 460.656 91.7207C431.928 91.7207 408.64 115.063 408.64 143.856C408.64 172.65 431.928 195.992 460.656 195.992Z" fill="url(#paint13_radial_624_15829)"/>
<path d="M470.995 151.607C484.062 138.511 484.062 117.276 470.995 104.18C457.928 91.0828 436.743 91.0828 423.676 104.18C410.609 117.276 410.609 138.511 423.676 151.607C436.743 164.704 457.928 164.704 470.995 151.607Z" fill="#C2A633"/>
<path d="M446.934 109.737H436.529V125.885H432.258V129.838H436.529V145.987H448.651C448.651 145.987 465.69 147.417 465.69 128.162C465.69 109.245 449.387 109.737 446.934 109.737ZM448.37 139.284H443.353V129.866H450.86V125.913H443.335V116.458H448.133C449.951 116.458 458.92 117.187 458.938 128.299C458.956 139.411 449.66 139.311 448.37 139.311V139.284Z" fill="white"/>
<path style="mix-blend-mode:multiply" opacity="0.5" d="M358.495 195.992C387.223 195.992 410.511 172.65 410.511 143.856C410.511 115.063 387.223 91.7207 358.495 91.7207C329.768 91.7207 306.479 115.063 306.479 143.856C306.479 172.65 329.768 195.992 358.495 195.992Z" fill="url(#paint14_radial_624_15829)"/>
<path d="M378.453 133.622C381.599 115.371 369.387 98.0194 351.177 94.8669C332.967 91.7143 315.656 103.954 312.511 122.206C309.365 140.457 321.577 157.809 339.787 160.961C357.996 164.114 375.308 151.874 378.453 133.622Z" fill="#E6007A"/>
<path d="M345.455 112.36C350.775 112.36 355.087 109.844 355.087 106.74C355.087 103.636 350.775 101.12 345.455 101.12C340.135 101.12 335.822 103.636 335.822 106.74C335.822 109.844 340.135 112.36 345.455 112.36Z" fill="white"/>
<path d="M345.455 154.667C350.775 154.667 355.087 152.151 355.087 149.048C355.087 145.944 350.775 143.428 345.455 143.428C340.135 143.428 335.822 145.944 335.822 149.048C335.822 152.151 340.135 154.667 345.455 154.667Z" fill="white"/>
<path d="M322.31 114.51C324.973 109.892 329.298 107.405 331.988 108.963C334.678 110.52 334.714 115.511 331.988 120.129C329.262 124.747 325 127.234 322.319 125.685C319.639 124.137 319.657 119.127 322.31 114.51Z" fill="white"/>
<path d="M358.877 135.667C361.531 131.05 365.866 128.563 368.537 130.111C371.209 131.66 371.264 136.669 368.537 141.287C365.811 145.905 361.549 148.392 358.868 146.834C356.188 145.277 356.215 140.285 358.877 135.667Z" fill="white"/>
<path d="M331.988 146.836C334.67 145.285 334.688 140.283 332.028 135.665C329.368 131.048 325.037 128.562 322.356 130.114C319.674 131.666 319.656 136.667 322.316 141.285C324.976 145.903 329.307 148.388 331.988 146.836Z" fill="white"/>
<path d="M358.914 108.962C361.595 107.413 365.92 109.873 368.583 114.518C371.245 119.163 371.227 124.136 368.583 125.684C365.938 127.233 361.577 124.774 358.914 120.128C356.251 115.483 356.233 110.51 358.914 108.962Z" fill="white"/>
</g>
<defs>
<radialGradient id="paint0_radial_624_15829" cx="0" cy="0" r="1" gradientUnits="userSpaceOnUse" gradientTransform="translate(154.176 52.1355) scale(52.0159 52.1355)">
<stop offset="0.11" stop-color="#1B1464"/>
<stop offset="0.24" stop-color="#534E8A"/>
<stop offset="0.39" stop-color="#8783AD"/>
<stop offset="0.53" stop-color="#B2B0CB"/>
<stop offset="0.66" stop-color="#D4D2E1"/>
<stop offset="0.79" stop-color="#ECEBF2"/>
<stop offset="0.9" stop-color="#FAFAFC"/>
<stop offset="1" stop-color="white"/>
</radialGradient>
<radialGradient id="paint1_radial_624_15829" cx="0" cy="0" r="1" gradientUnits="userSpaceOnUse" gradientTransform="translate(52.0159 52.1355) scale(52.0159 52.1355)">
<stop offset="0.11" stop-color="#1B1464"/>
<stop offset="0.24" stop-color="#534E8A"/>
<stop offset="0.39" stop-color="#8783AD"/>
<stop offset="0.53" stop-color="#B2B0CB"/>
<stop offset="0.66" stop-color="#D4D2E1"/>
<stop offset="0.79" stop-color="#ECEBF2"/>
<stop offset="0.9" stop-color="#FAFAFC"/>
<stop offset="1" stop-color="white"/>
</radialGradient>
<radialGradient id="paint2_radial_624_15829" cx="0" cy="0" r="1" gradientUnits="userSpaceOnUse" gradientTransform="translate(562.815 143.856) scale(52.0159 52.1355)">
<stop offset="0.11" stop-color="#1B1464"/>
<stop offset="0.24" stop-color="#534E8A"/>
<stop offset="0.39" stop-color="#8783AD"/>
<stop offset="0.53" stop-color="#B2B0CB"/>
<stop offset="0.66" stop-color="#D4D2E1"/>
<stop offset="0.79" stop-color="#ECEBF2"/>
<stop offset="0.9" stop-color="#FAFAFC"/>
<stop offset="1" stop-color="white"/>
</radialGradient>
<radialGradient id="paint3_radial_624_15829" cx="0" cy="0" r="1" gradientUnits="userSpaceOnUse" gradientTransform="translate(562.815 52.1355) scale(52.0159 52.1355)">
<stop offset="0.11" stop-color="#1B1464"/>
<stop offset="0.24" stop-color="#534E8A"/>
<stop offset="0.39" stop-color="#8783AD"/>
<stop offset="0.53" stop-color="#B2B0CB"/>
<stop offset="0.66" stop-color="#D4D2E1"/>
<stop offset="0.79" stop-color="#ECEBF2"/>
<stop offset="0.9" stop-color="#FAFAFC"/>
<stop offset="1" stop-color="white"/>
</radialGradient>
<radialGradient id="paint4_radial_624_15829" cx="0" cy="0" r="1" gradientUnits="userSpaceOnUse" gradientTransform="translate(154.176 143.856) scale(52.0159 52.1355)">
<stop offset="0.11" stop-color="#1B1464"/>
<stop offset="0.24" stop-color="#534E8A"/>
<stop offset="0.39" stop-color="#8783AD"/>
<stop offset="0.53" stop-color="#B2B0CB"/>
<stop offset="0.66" stop-color="#D4D2E1"/>
<stop offset="0.79" stop-color="#ECEBF2"/>
<stop offset="0.9" stop-color="#FAFAFC"/>
<stop offset="1" stop-color="white"/>
</radialGradient>
<radialGradient id="paint5_radial_624_15829" cx="0" cy="0" r="1" gradientUnits="userSpaceOnUse" gradientTransform="translate(256.335 52.1355) scale(52.0159 52.1355)">
<stop offset="0.11" stop-color="#1B1464"/>
<stop offset="0.24" stop-color="#534E8A"/>
<stop offset="0.39" stop-color="#8783AD"/>
<stop offset="0.53" stop-color="#B2B0CB"/>
<stop offset="0.66" stop-color="#D4D2E1"/>
<stop offset="0.79" stop-color="#ECEBF2"/>
<stop offset="0.9" stop-color="#FAFAFC"/>
<stop offset="1" stop-color="white"/>
</radialGradient>
<linearGradient id="paint6_linear_624_15829" x1="272.893" y1="7.29569" x2="218.369" y2="62.7671" gradientUnits="userSpaceOnUse">
<stop stop-color="#00FFA3"/>
<stop offset="1" stop-color="#DC1FFF"/>
</linearGradient>
<radialGradient id="paint7_radial_624_15829" cx="0" cy="0" r="1" gradientUnits="userSpaceOnUse" gradientTransform="translate(52.0159 143.856) scale(52.0159 52.1355)">
<stop offset="0.11" stop-color="#1B1464"/>
<stop offset="0.24" stop-color="#534E8A"/>
<stop offset="0.39" stop-color="#8783AD"/>
<stop offset="0.53" stop-color="#B2B0CB"/>
<stop offset="0.66" stop-color="#D4D2E1"/>
<stop offset="0.79" stop-color="#ECEBF2"/>
<stop offset="0.9" stop-color="#FAFAFC"/>
<stop offset="1" stop-color="white"/>
</radialGradient>
<radialGradient id="paint8_radial_624_15829" cx="0" cy="0" r="1" gradientUnits="userSpaceOnUse" gradientTransform="translate(358.495 52.1355) scale(52.0159 52.1355)">
<stop offset="0.11" stop-color="#1B1464"/>
<stop offset="0.24" stop-color="#534E8A"/>
<stop offset="0.39" stop-color="#8783AD"/>
<stop offset="0.53" stop-color="#B2B0CB"/>
<stop offset="0.66" stop-color="#D4D2E1"/>
<stop offset="0.79" stop-color="#ECEBF2"/>
<stop offset="0.9" stop-color="#FAFAFC"/>
<stop offset="1" stop-color="white"/>
</radialGradient>
<radialGradient id="paint9_radial_624_15829" cx="0" cy="0" r="1" gradientUnits="userSpaceOnUse" gradientTransform="translate(460.656 52.1355) scale(52.0159 52.1355)">
<stop offset="0.11" stop-color="#1B1464"/>
<stop offset="0.24" stop-color="#534E8A"/>
<stop offset="0.39" stop-color="#8783AD"/>
<stop offset="0.53" stop-color="#B2B0CB"/>
<stop offset="0.66" stop-color="#D4D2E1"/>
<stop offset="0.79" stop-color="#ECEBF2"/>
<stop offset="0.9" stop-color="#FAFAFC"/>
<stop offset="1" stop-color="white"/>
</radialGradient>
<radialGradient id="paint10_radial_624_15829" cx="0" cy="0" r="1" gradientUnits="userSpaceOnUse" gradientTransform="translate(256.335 143.856) scale(52.0159 52.1355)">
<stop offset="0.11" stop-color="#1B1464"/>
<stop offset="0.24" stop-color="#534E8A"/>
<stop offset="0.39" stop-color="#8783AD"/>
<stop offset="0.53" stop-color="#B2B0CB"/>
<stop offset="0.66" stop-color="#D4D2E1"/>
<stop offset="0.79" stop-color="#ECEBF2"/>
<stop offset="0.9" stop-color="#FAFAFC"/>
<stop offset="1" stop-color="white"/>
</radialGradient>
<radialGradient id="paint11_radial_624_15829" cx="0" cy="0" r="1" gradientUnits="userSpaceOnUse" gradientTransform="translate(664.975 52.1355) scale(52.0159 52.1355)">
<stop offset="0.11" stop-color="#1B1464"/>
<stop offset="0.24" stop-color="#534E8A"/>
<stop offset="0.39" stop-color="#8783AD"/>
<stop offset="0.53" stop-color="#B2B0CB"/>
<stop offset="0.66" stop-color="#D4D2E1"/>
<stop offset="0.79" stop-color="#ECEBF2"/>
<stop offset="0.9" stop-color="#FAFAFC"/>
<stop offset="1" stop-color="white"/>
</radialGradient>
<radialGradient id="paint12_radial_624_15829" cx="0" cy="0" r="1" gradientUnits="userSpaceOnUse" gradientTransform="translate(664.975 143.856) scale(52.0159 52.1355)">
<stop offset="0.11" stop-color="#1B1464"/>
<stop offset="0.24" stop-color="#534E8A"/>
<stop offset="0.39" stop-color="#8783AD"/>
<stop offset="0.53" stop-color="#B2B0CB"/>
<stop offset="0.66" stop-color="#D4D2E1"/>
<stop offset="0.79" stop-color="#ECEBF2"/>
<stop offset="0.9" stop-color="#FAFAFC"/>
<stop offset="1" stop-color="white"/>
</radialGradient>
<radialGradient id="paint13_radial_624_15829" cx="0" cy="0" r="1" gradientUnits="userSpaceOnUse" gradientTransform="translate(460.656 143.856) scale(52.0159 52.1355)">
<stop offset="0.11" stop-color="#1B1464"/>
<stop offset="0.24" stop-color="#534E8A"/>
<stop offset="0.39" stop-color="#8783AD"/>
<stop offset="0.53" stop-color="#B2B0CB"/>
<stop offset="0.66" stop-color="#D4D2E1"/>
<stop offset="0.79" stop-color="#ECEBF2"/>
<stop offset="0.9" stop-color="#FAFAFC"/>
<stop offset="1" stop-color="white"/>
</radialGradient>
<radialGradient id="paint14_radial_624_15829" cx="0" cy="0" r="1" gradientUnits="userSpaceOnUse" gradientTransform="translate(358.495 143.856) scale(52.0159 52.1355)">
<stop offset="0.11" stop-color="#1B1464"/>
<stop offset="0.24" stop-color="#534E8A"/>
<stop offset="0.39" stop-color="#8783AD"/>
<stop offset="0.53" stop-color="#B2B0CB"/>
<stop offset="0.66" stop-color="#D4D2E1"/>
<stop offset="0.79" stop-color="#ECEBF2"/>
<stop offset="0.9" stop-color="#FAFAFC"/>
<stop offset="1" stop-color="white"/>
</radialGradient>
<clipPath id="clip0_624_15829">
<rect width="717" height="196" fill="white"/>
</clipPath>
</defs>
</svg>
