<svg width="193" height="203" viewBox="0 0 193 203" fill="none" xmlns="http://www.w3.org/2000/svg">
<path d="M134.413 26.9686C142.729 31.5875 149.785 38.1765 154.962 46.1575C160.138 54.1386 163.277 63.268 164.103 72.7448C166.362 96.4023 159.317 120.009 144.46 138.559C130.412 157.731 109.427 170.654 85.9835 174.57C76.603 176.207 66.9643 175.519 57.9112 172.567C48.8581 169.615 40.6668 164.489 34.0544 157.637C28.0963 151.019 23.5714 143.24 20.7642 134.789C17.9569 126.338 16.9279 117.398 17.7419 108.53C19.3237 89.6695 26.294 71.661 37.8226 56.65C49.3511 41.639 64.9518 30.2585 82.7661 23.8642C91.1192 20.7809 100.02 19.4599 108.908 19.9845C117.797 20.509 126.481 22.8678 134.413 26.9122M149.314 7.49541C109.408 -11.6956 56.7452 7.49542 25.9828 47.6272C-4.77949 87.759 -9.69017 143.582 19.153 177.11C53.8665 217.524 122.729 210.976 165.909 154.984C209.089 98.9913 197.292 30.8068 149.314 7.49541Z" fill="#095A94"/>
</svg>
