<svg width="187" height="197" viewBox="0 0 187 197" fill="none" xmlns="http://www.w3.org/2000/svg">
<path d="M141.702 11.8116C151.894 17.0479 160.628 24.7301 167.122 34.1704C173.616 43.6107 177.667 54.5142 178.913 65.9044C180.589 80.1725 179.405 94.6316 175.43 108.437C171.455 122.242 164.769 135.117 155.762 146.31C147.286 157.925 136.577 167.733 124.264 175.159C111.951 182.586 98.2802 187.482 84.0518 189.561C72.6894 191.338 61.0634 190.261 50.2209 186.427C39.3784 182.592 29.6598 176.121 21.9405 167.597C15.1142 159.526 9.98973 150.159 6.87499 140.058C3.76025 129.957 2.71951 119.331 3.81529 108.817C5.88812 86.7748 14.1345 65.7636 27.6078 48.1955C41.0812 30.6275 59.2353 17.2146 79.9863 9.49655C89.8652 5.73001 100.402 3.99375 110.967 4.39151C121.532 4.78928 131.909 7.3129 141.477 11.8116M144.864 7.46383C106.468 -11.3952 55.1983 6.8992 25.2154 46.4242C-4.76741 85.9492 -9.39751 139.816 18.8349 172.227C52.7138 211.018 119.06 204.637 160.675 150.375C202.289 96.1128 191.335 30.219 145.09 7.68969L144.864 7.46383Z" fill="#053151"/>
</svg>
