<svg width="37" height="35" viewBox="0 0 37 35" fill="none" xmlns="http://www.w3.org/2000/svg">
<path d="M27.9923 29.7814C25.0879 31.8733 21.59 33 17.9999 33C14.4099 33 10.912 31.8733 8.00753 29.7814M25.4523 1.00016C28.679 2.5603 31.3247 5.09305 33.0101 8.23541C34.6955 11.3778 35.3342 14.9684 34.8345 18.4927M1.16546 18.4926C0.665822 14.9683 1.30449 11.3776 2.98992 8.23525C4.67535 5.09289 7.32102 2.56014 10.5477 1M17.0382 6.98899L8.76155 15.194C8.42493 15.5276 8.25662 15.6945 8.19356 15.8869C8.13809 16.0561 8.13809 16.2384 8.19356 16.4077C8.25662 16.6001 8.42493 16.7669 8.76155 17.1006L17.0382 25.3056C17.3749 25.6393 17.5432 25.8061 17.7373 25.8686C17.908 25.9236 18.0919 25.9236 18.2626 25.8686C18.4567 25.8061 18.625 25.6393 18.9616 25.3056L27.2383 17.1006C27.5749 16.7669 27.7432 16.6001 27.8063 16.4077C27.8617 16.2384 27.8617 16.0561 27.8063 15.8869C27.7432 15.6945 27.5749 15.5277 27.2383 15.194L18.9616 6.98899C18.625 6.65529 18.4567 6.48844 18.2626 6.42593C18.0919 6.37094 17.908 6.37094 17.7373 6.42593C17.5432 6.48844 17.3749 6.65529 17.0382 6.98899Z" stroke="#143C7C" stroke-width="2" stroke-linecap="round" stroke-linejoin="round"/>
</svg>
