<svg width="17" height="18" viewBox="0 0 17 18" fill="none" xmlns="http://www.w3.org/2000/svg">
<path d="M11.9989 1.8H14.9304C15.4984 1.8 15.9589 2.26051 15.9589 2.82857V9C15.9589 9.56806 15.4984 10.0286 14.9304 10.0286H11.9989C11.9137 10.0286 11.8446 9.9595 11.8446 9.87429V1.95429C11.8446 1.86908 11.9137 1.8 11.9989 1.8Z" stroke="#970900" stroke-width="1.5" stroke-linecap="round"/>
<path d="M11.8446 10.0286L9.96025 12.8552C9.84761 13.0241 9.7875 13.2226 9.7875 13.4257V16.2C9.7875 16.7681 9.32699 17.2286 8.75893 17.2286H7.73036C6.59423 17.2286 5.67321 16.3076 5.67321 15.1714V10.0286" stroke="#970900" stroke-width="1.5" stroke-linecap="round"/>
<path d="M7.73036 10.0286H2.82873C1.60265 10.0286 0.648772 8.96284 0.78417 7.74426L1.3556 2.6014C1.47135 1.55959 2.35194 0.771429 3.40016 0.771429H7.30431C7.5771 0.771429 7.83872 0.879796 8.03162 1.07269L8.45767 1.49874C8.65056 1.69163 8.91218 1.8 9.18498 1.8H11.8446" stroke="#970900" stroke-width="1.5" stroke-linecap="round"/>
</svg>
