<svg width="58" height="58" viewBox="0 0 58 58" fill="none" xmlns="http://www.w3.org/2000/svg">
<g filter="url(#filter0_d_676_37706)">
<path d="M15.644 35.6183L15.6644 35.6219C16.79 35.8281 17.95 35.7354 19.0286 35.3532C20.2125 34.9337 21.5892 34.518 22.9904 34.3882C24.4021 34.2575 25.9332 34.4083 27.3401 35.2212C29.331 36.3714 31.3073 37.5103 33.2827 38.6386C33.6623 38.8313 33.9787 39.1304 34.1925 39.5007C34.4136 39.8838 34.5141 40.3244 34.4813 40.7649C34.4082 42.2223 34.838 43.6609 35.6993 44.84C36.5629 46.0222 37.8076 46.8714 39.2242 47.2446C39.4291 47.2958 39.5812 47.3373 39.7007 47.3699C39.9432 47.436 40.051 47.4654 40.1909 47.4654L41.1055 47.4654C41.3816 47.4654 41.6734 47.4235 41.9644 47.3425C42.2042 47.2757 42.4567 47.2246 42.642 47.1871C42.6813 47.1792 42.7175 47.1719 42.75 47.1651C42.9676 47.1199 43.0996 47.0862 43.2048 47.0467C44.2191 46.6653 45.1257 46.0367 45.8399 45.2144L46.9761 46.2013L45.8399 45.2144C46.6603 44.2699 47.1916 43.1106 47.3718 41.8746L47.3718 41.7637L47.3718 41.0591C47.3718 40.6931 47.3711 40.5734 47.3638 40.4581C47.3568 40.346 47.345 40.2343 47.3286 40.1233C47.3117 40.0089 47.2874 39.8917 47.2112 39.5338L47.1459 39.2273C46.8246 38.0757 46.1931 37.0339 45.3197 36.2158C44.4365 35.3886 43.3407 34.8226 42.1544 34.581C40.968 34.3394 39.7379 34.4317 38.601 34.8476C37.4677 35.2622 36.4716 35.982 35.7227 36.9272C35.2549 37.5325 34.1794 38.0682 33.1639 37.3827L24.226 32.2522C23.845 32.0402 23.5416 31.7116 23.3607 31.3139C23.1719 30.8988 23.1674 30.5124 23.1729 30.313C23.1754 30.2249 23.1818 30.1367 23.1854 30.0881C23.1858 30.0818 23.1862 30.0762 23.1866 30.0714C23.1906 30.016 23.1908 30.0032 23.1908 30.0032L23.1908 29.9992L23.1908 29.995L23.1908 29.9908L23.1908 29.9866L23.1908 29.9824L23.1908 29.9782L23.1908 29.974L23.1908 29.9699L23.1908 29.9657L23.1908 29.9615L23.1908 29.9573L23.1908 29.9531L23.1908 29.9489L23.1908 29.9447L23.1908 29.9406L23.1908 29.9364L23.1908 29.9322L23.1908 29.928L23.1908 29.9238L23.1908 29.9196L23.1908 29.9154L23.1908 29.9112L23.1908 29.9071L23.1908 29.9029L23.1908 29.8987L23.1908 29.8945L23.1908 29.8903L23.1908 29.8861L23.1908 29.8819L23.1908 29.8777L23.1908 29.8736L23.1908 29.8694L23.1908 29.8652L23.1908 29.861L23.1908 29.8568L23.1908 29.8526L23.1908 29.8484L23.1908 29.8442L23.1908 29.8401L23.1908 29.8359L23.1908 29.8317L23.1908 29.8275L23.1908 29.8233L23.1908 29.8191L23.1908 29.8149L23.1908 29.8107L23.1908 29.8066L23.1908 29.8024L23.1908 29.7982L23.1908 29.794L23.1908 29.7898L23.1908 29.7856L23.1908 29.7814L23.1908 29.7773L23.1908 29.7731L23.1908 29.7689L23.1908 29.7647L23.1908 29.7605L23.1908 29.7563L23.1908 29.7521L23.1908 29.7479L23.1908 29.7438L23.1908 29.7396L23.1908 29.7354L23.1908 29.7312L23.1908 29.727L23.1908 29.7228L23.1908 29.7186L23.1908 29.7144L23.1908 29.7103L23.1908 29.7061L23.1908 29.7019L23.1908 29.6977L23.1908 29.6935L23.1908 29.6893L23.1908 29.6851L23.1908 29.6809L23.1908 29.6768L23.1908 29.6726L23.1908 29.6684L23.1908 29.6642L23.1908 29.66L23.1908 29.6558L23.1908 29.6516L23.1908 29.6474L23.1908 29.6433L23.1908 29.6391L23.1908 29.6349L23.1908 29.6307L23.1908 29.6265L23.1908 29.6223L23.1908 29.6181L23.1908 29.614L23.1908 29.6098L23.1908 29.6056L23.1908 29.6014L23.1908 29.5972L23.1908 29.593L23.1908 29.5888L23.1908 29.5846L23.1908 29.5805L23.1908 29.5763L23.1908 29.5721L23.1908 29.5679L23.1908 29.5637L23.1908 29.5595L23.1908 29.5553L23.1908 29.5511L23.1908 29.547L23.1908 29.5428L23.1908 29.5386L23.1908 29.5344L23.1908 29.5302L23.1908 29.526L23.1908 29.5218L23.1908 29.5176L23.1908 29.5135L23.1908 29.5093L23.1908 29.5051L23.1908 29.5009L23.1908 29.4967L23.1908 29.4925L23.1908 29.4883L23.1908 29.4841L23.1908 29.48L23.1908 29.4758L23.1908 29.4716L23.1908 29.4674L23.1908 29.4632L23.1908 29.459L23.1908 29.4548L23.1908 29.4507L23.1908 29.4465L23.1908 29.4423L23.1908 29.4381L23.1908 29.4339L23.1908 29.4297L23.1908 29.4255L23.1908 29.4213L23.1908 29.4172L23.1908 29.413L23.1908 29.4088L23.1908 29.4046L23.1908 29.4004L23.1908 29.3962L23.1908 29.392L23.1908 29.3878L23.1908 29.3837L23.1908 29.3795L23.1908 29.3753L23.1908 29.3711L23.1908 29.3669L23.1908 29.3627L23.1908 29.3585L23.1908 29.3543L23.1908 29.3502L23.1908 29.346L23.1908 29.3418L23.1908 29.3376L23.1908 29.3334L23.1908 29.3292L23.1908 29.325L23.1908 29.3208L23.1908 29.3167L23.1908 29.3125L23.1908 29.3083L23.1908 29.3041L23.1908 29.2999L23.1908 29.2957L23.1908 29.2915L23.1908 29.2873L23.1908 29.2832L23.1908 29.279L23.1908 29.2748L23.1908 29.2706L23.1908 29.2664L23.1908 29.2622L23.1908 29.258L23.1908 29.2539L23.1908 29.2497L23.1908 29.2455L23.1908 29.2413L23.1908 29.2371L23.1908 29.2329L23.1908 29.2287L23.1908 29.2245L23.1908 29.2204L23.1908 29.2162L23.1908 29.212L23.1908 29.2078L23.1908 29.2036L23.1908 29.1994L23.1908 29.1952L23.1908 29.191L23.1908 29.1869L23.1908 29.1827L23.1908 29.1785L23.1908 29.1743L23.1908 29.1701L23.1908 29.1659L23.1908 29.1617L23.1908 29.1575L23.1908 29.1534L23.1908 29.1492L23.1908 29.145L23.1908 29.1408L23.1908 29.1366L23.1908 29.1324L23.1908 29.1282L23.1908 29.124L23.1908 29.1199L23.1908 29.1157L23.1908 29.1115L23.1908 29.1073L23.1908 29.1031L23.1908 29.0989L23.1908 29.0947L23.1908 29.0906L23.1908 29.0864L23.1908 29.0822L23.1908 29.078L23.1908 29.0738L23.1908 29.0696L23.1908 29.0654L23.1908 29.0612L23.1908 29.0571L23.1908 29.0529L23.1908 29.0487L23.1908 29.0445L23.1908 29.0403L23.1908 29.0361L23.1908 29.0319L23.1908 29.0277L23.1908 29.0236L23.1908 29.0194L23.1908 29.0152L23.1908 29.011L23.1908 29.0068L23.1908 29.0026L23.1908 28.9984L23.1908 28.9942L23.1908 28.9901L23.1908 28.9859L23.1908 28.9817L23.1908 28.9775L23.1908 28.9733L23.1908 28.9691L23.1908 28.9649L23.1908 28.9607L23.1908 28.9566L23.1908 28.9524L23.1908 28.9482L23.1908 28.944L23.1908 28.9398L23.1908 28.9356L23.1908 28.9314L23.1908 28.9273L23.1908 28.9231L23.1908 28.9189L23.1908 28.9147L23.1908 28.9105L23.1908 28.9063L23.1908 28.9021L23.1908 28.8979L23.1908 28.8938L23.1908 28.8896L23.1908 28.8854L23.1908 28.8812L23.1908 28.877L23.1908 28.8728L23.1908 28.8686L23.1908 28.8644L23.1908 28.8603L23.1908 28.8561L23.1908 28.8519L23.1908 28.8477L23.1908 28.8435L23.1908 28.8393L23.1908 28.8351L23.1908 28.8309L23.1908 28.8268L23.1908 28.8226L23.1908 28.8184L23.1908 28.8142L23.1908 28.81L23.1908 28.8058L23.1908 28.8016L23.1908 28.7974L23.1908 28.7933L23.1908 28.7891L23.1908 28.7849L23.1908 28.7807L23.1908 28.7765L23.1908 28.7723L23.1908 28.7681L23.1908 28.764L23.1908 28.7598L23.1908 28.7556L23.1908 28.7514L23.1908 28.7472L23.1908 28.743L23.1908 28.7388L23.1908 28.7346L23.1908 28.7305L23.1908 28.7263L23.1908 28.7221L23.1908 28.7179L23.1908 28.7137L23.1908 28.7095L23.1908 28.7053L23.1908 28.7011L23.1908 28.697L23.1908 28.6928L23.1908 28.6886L23.1908 28.6844L23.1908 28.6802L23.1908 28.676L23.1908 28.6718L23.1908 28.6676L23.1908 28.6635L23.1908 28.6593L23.1908 28.6551L23.1908 28.6509L23.1908 28.6467L23.1908 28.6425L23.1908 28.6383L23.1908 28.6341L23.1908 28.63L23.1908 28.6258L23.1908 28.6216L23.1908 28.6174L23.1908 28.6132L23.1908 28.609L23.1908 28.6048L23.1908 28.6006L23.1908 28.5965L23.1908 28.5923L23.1908 28.5881L23.1908 28.5839L23.1908 28.5797L23.1908 28.5755L23.1908 28.5713L23.1908 28.5672L23.1908 28.563L23.1908 28.5588L23.1908 28.5546L23.1908 28.5504L23.1908 28.5462L23.1908 28.542L23.1908 28.5378L23.1908 28.5337L23.1908 28.5295L23.1908 28.5253L23.1908 28.5211L23.1908 28.5169L23.1908 28.5127L23.1908 28.5085L23.1908 28.5043L23.1908 28.5002L23.1908 28.496L23.1908 28.4918L23.1908 28.4876L23.1908 28.4834L23.1908 28.4792L23.1908 28.475L23.1908 28.4708L23.1908 28.4667L23.1908 28.4625L23.1908 28.4583L23.1908 28.4541L23.1908 28.4499L23.1908 28.4457L23.1908 28.4415L23.1908 28.4373L23.1908 28.4332L23.1908 28.429L23.1908 28.4248L23.1908 28.4206L23.1908 28.4164L23.1908 28.4122L23.1908 28.408L23.1908 28.4039L23.1908 28.3997L23.1908 28.3955L23.1908 28.3913L23.1908 28.3871L23.1908 28.3829L23.1908 28.3787L23.1908 28.3745L23.1908 28.3704L23.1908 28.3662L23.1908 28.362L23.1908 28.3578L23.1908 28.3536L23.1908 28.3494L23.1908 28.3452L23.1908 28.341L23.1908 28.3369L23.1908 28.3327L23.1908 28.3285L23.1908 28.3243L23.1908 28.3201L23.1908 28.3159L23.1908 28.3117L23.1908 28.3075L23.1908 28.3034L23.1908 28.2992L23.1908 28.295L23.1908 28.2908L23.1908 28.2866L23.1908 28.2824L23.1908 28.2782L23.1908 28.274L23.1908 28.2699L23.1908 28.2657L23.1908 28.2615L23.1908 28.2573L23.1908 28.2531L23.1908 28.2489L23.1908 28.2447L23.1908 28.2405L23.1908 28.2364L23.1908 28.2322L23.1908 28.228L23.1908 28.2238L23.1908 28.2196L23.1908 28.2154L23.1908 28.2112L23.1908 28.2071L23.1908 28.2029L23.1908 28.1987L23.1908 28.1945L23.1908 28.1903L23.1908 28.1861L23.1908 28.1819L23.1908 28.1777L23.1908 28.1736L23.1908 28.1694L23.1908 28.1652L23.1908 28.161L23.1908 28.1568L23.1908 28.1526L23.1908 28.1484L23.1908 28.1442L23.1908 28.1401L23.1908 28.1359L23.1908 28.1317L23.1908 28.1275L23.1908 28.1233L23.1908 28.1191L23.1908 28.1149L23.1908 28.1107L23.1908 28.1066L23.1908 28.1024L23.1908 28.0982L23.1908 28.094L23.1908 28.0898L23.1908 28.0856L23.1908 28.0814L23.1908 28.0772L23.1908 28.0731L23.1908 28.0689L23.1908 28.0647L23.1908 28.0605L23.1908 28.0563L23.1908 28.0521L23.1908 28.0479L23.1908 28.0437L23.1908 28.0396L23.1908 28.0354L23.1908 28.0312L23.1908 28.027L23.1908 28.0228L23.1908 28.0186L23.1908 28.0144L23.1908 28.0103L23.1908 28.0061L23.1908 28.0019L23.1908 27.9977L23.1908 27.9935L23.1908 27.9893L23.1908 27.9851L23.1908 27.9809L23.1908 27.9768L23.1908 27.9726L23.1908 27.9684L23.1908 27.9642L23.1908 27.96L23.1908 27.9558L23.1908 27.9516L23.1908 27.9474L23.1908 27.9433L23.1908 27.9391L23.1908 27.9349L23.1908 27.9307L23.1908 27.9265L23.1908 27.9223L23.1908 27.9181L23.1908 27.9139L23.1908 27.9098L23.1908 27.9056L23.1908 27.9014L23.1908 27.8972L23.1908 27.893L23.1908 27.8888L23.1908 27.8846L23.1908 27.8804L23.1908 27.8763L23.1908 27.8721L23.1908 27.8679L23.1908 27.8637L23.1908 27.8603C23.1908 27.8601 23.1907 27.8594 23.1907 27.858C23.1906 27.855 23.1905 27.8489 23.19 27.838C23.19 27.8362 23.1899 27.8338 23.1898 27.8309C23.189 27.8123 23.1875 27.7723 23.1868 27.7352C23.1853 27.6502 23.1838 27.4534 23.239 27.2236C23.3008 26.9664 23.4241 26.7013 23.632 26.4642C23.8128 26.258 24.0162 26.1201 24.1947 26.0262L33.5359 20.7522C33.5363 20.752 33.5367 20.7517 33.5371 20.7515C33.542 20.7486 33.5636 20.7354 33.5844 20.7232C33.623 20.7006 33.7172 20.6458 33.837 20.5961C33.9454 20.5511 34.181 20.4639 34.4877 20.4655C34.8453 20.4674 35.2634 20.5932 35.5985 20.9283C35.609 20.9388 35.6193 20.9494 35.6295 20.9603C36.0356 21.3912 36.4669 21.7978 36.921 22.1779L36.922 22.1787C37.8049 22.9189 38.8793 23.3945 40.0213 23.5505C41.1633 23.7064 42.3262 23.5364 43.3755 23.06C43.401 23.0484 43.4269 23.0375 43.453 23.0274C44.5131 22.6159 45.4398 21.9217 46.1323 21.0206C46.809 20.14 47.2367 19.0949 47.3718 17.9941L47.3718 17.8668L47.3718 16.2325L47.3718 16.0497C47.2418 15.2256 46.9549 14.4337 46.5264 13.7169C46.0805 12.9712 45.4904 12.3217 44.7903 11.8067C44.0903 11.2917 43.2944 10.9213 42.4492 10.7173C41.6061 10.5138 40.731 10.4799 39.8747 10.6177C38.2435 10.8975 36.7793 11.785 35.7775 13.1011C34.7876 14.4014 34.3219 16.0244 34.4704 17.6497C34.5422 18.071 34.4781 18.5052 34.2862 18.8889C34.0854 19.2902 33.757 19.6118 33.3543 19.8045C30.6801 21.2324 28.0061 22.7755 25.3067 24.3333C24.8621 24.5899 24.4168 24.8468 23.9707 25.1038L23.9707 25.1038C23.8878 25.1515 23.807 25.1897 23.7312 25.2203M15.644 35.6183L23.7312 25.2203M15.644 35.6183C14.072 35.3526 12.6627 34.4937 11.707 33.2197M15.644 35.6183L11.707 33.2197M23.7312 25.2203C23.0612 25.491 22.2277 25.388 21.6409 24.815C20.522 23.7227 19.0456 23.0653 17.4788 22.9678C15.832 22.8652 14.2073 23.3887 12.9308 24.4329C11.6543 25.4772 10.8202 26.9649 10.5956 28.5976C10.3719 30.2233 10.7688 31.8734 11.707 33.2197M23.7312 25.2203L11.707 33.2197M35.7655 38.7025L37.1391 39.3174L35.7655 38.7025C35.3198 39.6981 35.1789 40.8035 35.3608 41.8792C35.5427 42.9548 36.0391 43.9524 36.7874 44.7462L37.8825 43.714L36.7874 44.7462C37.5356 45.54 38.5022 46.0947 39.5652 46.3403C40.6282 46.5858 41.7401 46.5114 42.7608 46.1264C43.7816 45.7414 44.6656 45.0629 45.3014 44.1764C45.9361 43.2911 46.2949 42.2381 46.3326 41.1497C46.3614 40.4203 46.2447 39.6925 45.989 39.0086L44.5794 39.5356L45.989 39.0086C45.7328 38.3231 45.3422 37.6957 44.8403 37.1632L43.7451 38.1955L44.8403 37.1632C44.3384 36.6307 43.7352 36.2037 43.066 35.9073C42.3984 35.6115 41.6787 35.4517 40.9488 35.4369C39.86 35.4095 38.7872 35.7043 37.8653 36.2845C36.942 36.8655 36.2113 37.7068 35.7655 38.7025ZM40.7573 22.3981C41.4827 22.4223 42.2059 22.3035 42.8855 22.0483C43.565 21.7932 44.1877 21.4068 44.7179 20.9111C45.2482 20.4154 45.6755 19.8202 45.9756 19.1594C46.2756 18.4986 46.4427 17.7851 46.4668 17.0596C46.491 16.3342 46.372 15.6111 46.1166 14.9318C45.8612 14.2524 45.4744 13.6301 44.9784 13.1002C44.4823 12.5702 43.8867 12.1433 43.2257 11.8435C42.5648 11.5438 41.8512 11.377 41.1256 11.3528C39.6605 11.304 38.2358 11.8388 37.165 12.8398C36.0941 13.841 35.465 15.2264 35.4162 16.6914C35.3673 18.1563 35.9027 19.5806 36.9045 20.6508C37.9063 21.721 39.2923 22.3493 40.7573 22.3981ZM16.7873 34.669C18.2525 34.669 19.6581 34.0873 20.6945 33.0516C21.731 32.0158 22.3134 30.6107 22.3134 29.1455C22.3134 27.6803 21.731 26.2752 20.6945 25.2394C19.6581 24.2036 18.2525 23.622 16.7873 23.622C15.322 23.622 13.9164 24.2036 12.88 25.2394C11.8435 26.2752 11.2611 27.6803 11.2611 29.1455C11.2611 30.6107 11.8435 32.0158 12.88 33.0516C13.9164 34.0873 15.322 34.669 16.7873 34.669Z" stroke="#1F51FF" stroke-width="3" stroke-linecap="round" stroke-linejoin="round" shape-rendering="crispEdges"/>
</g>
<defs>
<filter id="filter0_d_676_37706" x="0" y="0" width="57.9062" height="58" filterUnits="userSpaceOnUse" color-interpolation-filters="sRGB">
<feFlood flood-opacity="0" result="BackgroundImageFix"/>
<feColorMatrix in="SourceAlpha" type="matrix" values="0 0 0 0 0 0 0 0 0 0 0 0 0 0 0 0 0 0 127 0" result="hardAlpha"/>
<feOffset/>
<feGaussianBlur stdDeviation="4.5"/>
<feComposite in2="hardAlpha" operator="out"/>
<feColorMatrix type="matrix" values="0 0 0 0 0.121569 0 0 0 0 0.317647 0 0 0 0 1 0 0 0 0.6 0"/>
<feBlend mode="normal" in2="BackgroundImageFix" result="effect1_dropShadow_676_37706"/>
<feBlend mode="normal" in="SourceGraphic" in2="effect1_dropShadow_676_37706" result="shape"/>
</filter>
</defs>
</svg>
