<svg width="29" height="29" viewBox="0 0 29 29" fill="none" xmlns="http://www.w3.org/2000/svg">
<path d="M9.1875 5.9375H21.8125C22.3648 5.9375 22.8125 6.38522 22.8125 6.9375V24.0625C22.8125 24.6148 22.3648 25.0625 21.8125 25.0625H9.1875C8.63522 25.0625 8.1875 24.6148 8.1875 24.0625V6.9375C8.1875 6.38522 8.63522 5.9375 9.1875 5.9375Z" stroke="white" stroke-width="1.5" stroke-linecap="round" stroke-linejoin="round"/>
<path d="M22.25 6.5L19.7233 11.0481C19.5469 11.3656 19.2123 11.5625 18.8491 11.5625H12.1509C11.7877 11.5625 11.4531 11.3656 11.2767 11.0481L8.75 6.5" stroke="white" stroke-width="1.5" stroke-linejoin="round"/>
<path d="M22.25 24.5L19.7233 19.9519C19.5469 19.6344 19.2123 19.4375 18.8491 19.4375H12.1509C11.7877 19.4375 11.4531 19.6344 11.2767 19.9519L8.75 24.5" stroke="white" stroke-width="1.5" stroke-linejoin="round"/>
<path d="M15.5 16.0625V19.4375" stroke="white" stroke-width="1.5" stroke-linecap="round" stroke-linejoin="round"/>
</svg>
