<svg width="611" height="97" viewBox="0 0 611 97" fill="none" xmlns="http://www.w3.org/2000/svg">
<g opacity="0.06" clip-path="url(#clip0_624_15563)">
<path d="M232.457 6.32982C236.831 6.33036 241.07 7.85022 244.45 10.6304C247.831 13.4107 250.145 17.2793 250.998 21.5771C251.851 25.8749 251.19 30.336 249.128 34.2004C247.066 38.0648 243.73 41.0933 239.689 42.77C235.648 44.4467 231.151 44.6678 226.966 43.3957C222.78 42.1235 219.164 39.4368 216.734 35.7934C214.304 32.1499 213.21 27.775 213.639 23.4142C214.068 19.0534 215.993 14.9763 219.085 11.8778C220.837 10.1127 222.921 8.71348 225.216 7.76113C227.511 6.80879 229.973 6.32229 232.457 6.32982ZM232.457 4.94507C228.442 4.94507 224.517 6.13784 221.179 8.37256C217.84 10.6073 215.238 13.7836 213.702 17.4998C212.165 21.2159 211.763 25.3051 212.546 29.2502C213.33 33.1953 215.263 36.8191 218.102 39.6634C220.941 42.5076 224.559 44.4446 228.497 45.2293C232.435 46.014 236.516 45.6113 240.226 44.072C243.935 42.5327 247.106 39.926 249.336 36.5815C251.567 33.237 252.758 29.305 252.758 25.2826C252.758 19.8887 250.619 14.7158 246.812 10.9018C243.005 7.08776 237.841 4.94507 232.457 4.94507Z" fill="#1F51FF"/>
<path d="M232.457 7.72681C228.993 7.72681 225.606 8.75592 222.726 10.684C219.845 12.6121 217.6 15.3526 216.275 18.5589C214.949 21.7652 214.602 25.2934 215.278 28.6972C215.954 32.101 217.622 35.2276 220.072 37.6816C222.521 40.1356 225.642 41.8068 229.04 42.4838C232.437 43.1609 235.959 42.8134 239.16 41.4853C242.36 40.1572 245.096 37.9081 247.02 35.0225C248.945 32.1369 249.972 28.7444 249.972 25.2739C249.972 22.9696 249.519 20.6878 248.639 18.5589C247.759 16.43 246.468 14.4956 244.842 12.8662C243.216 11.2368 241.285 9.94432 239.16 9.0625C237.035 8.18068 234.757 7.72681 232.457 7.72681ZM238.568 24.1912V26.4941H233.851V27.8699H238.568V30.1609H233.851V34.0489H231.084V30.1609H226.325V27.8699H231.084V26.4941H226.325V24.1912H229.734L225.34 16.5018H228.576L232.457 23.5871L236.338 16.5018H239.58L235.185 24.1912H238.568Z" fill="#1F51FF"/>
<path d="M166.778 6.32982C171.152 6.33036 175.391 7.85022 178.772 10.6304C182.153 13.4107 184.467 17.2793 185.32 21.5771C186.173 25.8749 185.512 30.336 183.449 34.2004C181.387 38.0648 178.051 41.0933 174.01 42.77C169.969 44.4467 165.473 44.6678 161.287 43.3957C157.101 42.1235 153.486 39.4368 151.056 35.7934C148.626 32.1499 147.532 27.775 147.96 23.4142C148.389 19.0534 150.314 14.9763 153.407 11.8778C155.158 10.1127 157.242 8.71348 159.537 7.76113C161.833 6.80879 164.294 6.32229 166.778 6.32982ZM166.778 4.94507C162.763 4.94507 158.838 6.13784 155.5 8.37256C152.161 10.6073 149.559 13.7836 148.023 17.4998C146.486 21.2159 146.084 25.3051 146.868 29.2502C147.651 33.1953 149.584 36.8191 152.424 39.6634C155.263 42.5076 158.88 44.4446 162.818 45.2293C166.756 46.014 170.838 45.6113 174.547 44.072C178.257 42.5327 181.427 39.926 183.658 36.5815C185.888 33.237 187.079 29.305 187.079 25.2826C187.079 19.8887 184.94 14.7158 181.133 10.9018C177.326 7.08776 172.162 4.94507 166.778 4.94507Z" fill="#1F51FF"/>
<path d="M166.733 19.0471H164.828V24.1315H166.733C167.852 24.1315 168.688 23.9102 169.22 23.4735C169.751 23.0369 169.99 22.4237 169.99 21.5594C169.99 20.4887 169.65 19.0471 166.733 19.0471Z" fill="#1F51FF"/>
<path d="M166.778 7.72681C163.314 7.72681 159.927 8.75592 157.047 10.684C154.167 12.6121 151.922 15.3526 150.596 18.5589C149.27 21.7652 148.923 25.2934 149.599 28.6972C150.275 32.101 151.943 35.2276 154.393 37.6816C156.842 40.1356 159.963 41.8068 163.361 42.4838C166.759 43.1609 170.28 42.8134 173.481 41.4853C176.681 40.1572 179.417 37.9081 181.342 35.0225C183.266 32.1369 184.293 28.7444 184.293 25.2739C184.293 20.6201 182.448 16.1569 179.163 12.8662C175.879 9.57551 171.423 7.72681 166.778 7.72681ZM172.45 23.9968C172.112 24.6498 171.626 25.215 171.032 25.6477C170.422 26.0825 169.734 26.3953 169.005 26.5689C168.232 26.7581 167.439 26.8525 166.644 26.8501H164.832V28.2139H170.683V30.5048H164.832V34.0459H161.912V30.5048H160.58V28.2139H161.912V26.8501H160.58V24.1583H161.912V16.5018H166.641C167.432 16.5 168.22 16.5843 168.993 16.7531C169.715 16.9063 170.402 17.1923 171.02 17.5965C171.618 17.9977 172.108 18.5413 172.444 19.1786C172.817 19.9198 172.999 20.7419 172.976 21.5713C172.999 22.4105 172.819 23.2429 172.45 23.9968Z" fill="#1F51FF"/>
<path d="M101.1 6.32982C105.474 6.33036 109.712 7.85022 113.093 10.6304C116.474 13.4107 118.788 17.2793 119.641 21.5771C120.494 25.8749 119.833 30.336 117.771 34.2004C115.709 38.0648 112.373 41.0933 108.332 42.77C104.29 44.4467 99.794 44.6678 95.6084 43.3957C91.4228 42.1235 87.8069 39.4368 85.3769 35.7934C82.9468 32.1499 81.853 27.775 82.2817 23.4142C82.7104 19.0534 84.6352 14.9763 87.728 11.8778C89.4796 10.1127 91.5634 8.71348 93.8587 7.76113C96.154 6.80879 98.6152 6.32229 101.1 6.32982ZM101.1 4.94507C97.0845 4.94507 93.1595 6.13784 89.8211 8.37256C86.4827 10.6073 83.8807 13.7836 82.3441 17.4998C80.8076 21.2159 80.4056 25.3051 81.1889 29.2502C81.9722 33.1953 83.9057 36.8191 86.7448 39.6634C89.5839 42.5076 93.2012 44.4446 97.1391 45.2293C101.077 46.014 105.159 45.6113 108.868 44.072C112.578 42.5327 115.748 39.926 117.979 36.5815C120.21 33.237 121.4 29.305 121.4 25.2826C121.4 19.8887 119.262 14.7158 115.454 10.9018C111.647 7.08776 106.484 4.94507 101.1 4.94507Z" fill="#1F51FF"/>
<path d="M101.099 7.72681C97.6351 7.72681 94.2487 8.75592 91.3684 10.684C88.488 12.6121 86.243 15.3526 84.9173 18.5589C83.5916 21.7652 83.2447 25.2934 83.9205 28.6972C84.5964 32.101 86.2646 35.2276 88.7141 37.6816C91.1637 40.1356 94.2846 41.8068 97.6823 42.4838C101.08 43.1609 104.602 42.8134 107.802 41.4853C111.003 40.1572 113.738 37.9081 115.663 35.0225C117.587 32.1369 118.615 28.7444 118.615 25.2739C118.615 20.6201 116.769 16.1569 113.485 12.8662C110.2 9.57551 105.745 7.72681 101.099 7.72681ZM107.228 33.5913L107.025 33.6841C106.212 34.0513 105.329 34.238 104.437 34.2314C103.538 34.1765 102.65 33.9953 101.801 33.693C100.777 33.2852 99.6731 33.1187 98.5746 33.2064C97.4762 33.294 96.4126 33.6335 95.4659 34.1985L94.9703 34.4318V31.5965L95.1554 31.4978C95.8366 31.1599 96.4134 30.643 96.8243 30.0024C97.2004 29.4042 97.3915 28.5309 97.3915 27.4213C97.3919 27.0546 97.3549 26.6888 97.281 26.3296H94.9703V23.937H96.6213C96.3497 23.0637 96.1912 22.159 96.1496 21.2453C96.1496 19.6452 96.678 18.3711 97.7199 17.4559C98.7618 16.5407 100.087 16.0951 101.705 16.0951C103.225 16.0951 104.494 16.4989 105.473 17.2914C106.452 18.084 107.025 19.2683 107.13 20.7638L107.157 21.1346H104.234L104.204 20.8176C104.067 19.2235 103.258 18.4788 101.658 18.4788C101.309 18.4627 100.962 18.5217 100.639 18.6517C100.315 18.7818 100.023 18.9798 99.7828 19.2325C99.3164 19.7121 99.0587 20.3574 99.0663 21.0269C99.1045 22.0091 99.2856 22.9803 99.6037 23.9101H103.3V26.3027H100.204C100.254 26.5246 100.28 26.7512 100.281 26.9787C100.311 27.8733 100.137 28.763 99.7738 29.5807C99.5708 29.9903 99.3094 30.3681 98.9976 30.7022C99.1738 30.7022 99.3529 30.6783 99.535 30.6783C100.429 30.7077 101.317 30.8361 102.183 31.0611C102.893 31.2541 103.62 31.3763 104.353 31.426C105.186 31.4217 106.005 31.2165 106.742 30.8278L107.246 30.5676L107.228 33.5913Z" fill="#1F51FF"/>
<path d="M35.4199 6.32982C39.7939 6.33036 44.0324 7.85022 47.4133 10.6304C50.7942 13.4107 53.1082 17.2793 53.9612 21.5771C54.8141 25.8749 54.1532 30.336 52.091 34.2004C50.0289 38.0648 46.6931 41.0933 42.6519 42.77C38.6108 44.4467 34.1143 44.6678 29.9287 43.3957C25.7431 42.1235 22.1272 39.4368 19.6972 35.7934C17.2672 32.1499 16.1733 27.775 16.602 23.4142C17.0307 19.0534 18.9554 14.9763 22.0483 11.8778C23.7999 10.1127 25.8837 8.71348 28.179 7.76113C30.4744 6.80879 32.9355 6.32229 35.4199 6.32982ZM35.4199 4.94507C31.4048 4.94507 27.4798 6.13784 24.1414 8.37256C20.803 10.6073 18.201 13.7836 16.6644 17.4998C15.1279 21.2159 14.7259 25.3051 15.5092 29.2502C16.2925 33.1953 18.226 36.8191 21.0651 39.6634C23.9042 42.5076 27.5215 44.4446 31.4594 45.2293C35.3974 46.014 39.4792 45.6113 43.1887 44.072C46.8981 42.5327 50.0687 39.926 52.2994 36.5815C54.53 33.237 55.7206 29.305 55.7206 25.2826C55.7206 19.8887 53.5818 14.7158 49.7747 10.9018C45.9676 7.08776 40.804 4.94507 35.4199 4.94507Z" fill="#1F51FF"/>
<path d="M35.4206 7.72681C31.9564 7.72681 28.57 8.75592 25.6896 10.684C22.8092 12.6121 20.5643 15.3526 19.2386 18.5589C17.9129 21.7652 17.566 25.2934 18.2418 28.6972C18.9177 32.101 20.5858 35.2276 23.0354 37.6816C25.485 40.1356 28.6059 41.8068 32.0036 42.4838C35.4012 43.1609 38.923 42.8134 42.1235 41.4853C45.324 40.1572 48.0595 37.9081 49.9841 35.0225C51.9088 32.1369 52.936 28.7444 52.936 25.2739C52.936 20.6201 51.0906 16.1569 47.8059 12.8662C44.5211 9.57551 40.066 7.72681 35.4206 7.72681ZM36.8387 22.6181L36.3013 24.5411H33.1368C33.1368 24.7385 33.1368 24.9898 33.1368 25.2978C33.1368 25.6059 33.1368 25.896 33.1368 26.0994H35.8087L35.2684 28.0224H33.2861C33.6294 30.6574 34.525 31.9374 36.0177 31.9374C37.6119 31.9374 38.5016 30.7411 38.7374 28.2976L38.7673 27.9836H41.69L41.6572 28.3634C41.2929 32.3232 39.4002 34.345 36.0237 34.345C32.8054 34.345 30.9007 32.2215 30.3514 28.0344H29.1513V26.1113H30.2171C30.2171 25.899 30.2171 25.6328 30.2171 25.3098C30.2171 24.9868 30.2171 24.7535 30.2171 24.5531H29.1513V22.63H30.3455C30.8649 18.3801 32.7696 16.2267 36.0177 16.2267C37.606 16.2267 38.9016 16.7321 39.8719 17.7221C40.8421 18.7121 41.4273 20.0968 41.6482 21.8763L41.6989 22.2651H38.7643L38.7374 21.9511C38.6359 20.8864 38.3374 20.0489 37.8418 19.4628C37.6228 19.1907 37.3438 18.9733 37.0268 18.8275C36.7098 18.6817 36.3634 18.6114 36.0147 18.6223C34.522 18.6223 33.6264 19.9323 33.2831 22.63L36.8387 22.6181Z" fill="#1F51FF"/>
</g>
<g opacity="0.06">
<path d="M553.342 6.32982C557.716 6.33036 561.954 7.85022 565.335 10.6304C568.716 13.4107 571.03 17.2793 571.883 21.5771C572.736 25.8749 572.075 30.336 570.013 34.2004C567.951 38.0648 564.615 41.0933 560.574 42.77C556.533 44.4467 552.036 44.6678 547.851 43.3957C543.665 42.1235 540.049 39.4368 537.619 35.7934C535.189 32.1499 534.095 27.775 534.524 23.4142C534.953 19.0534 536.877 14.9763 539.97 11.8778C541.722 10.1127 543.806 8.71348 546.101 7.76114C548.396 6.8088 550.857 6.32229 553.342 6.32982ZM553.342 4.94507C549.327 4.94507 545.402 6.13784 542.063 8.37255C538.725 10.6073 536.123 13.7836 534.586 17.4998C533.05 21.216 532.648 25.3051 533.431 29.2502C534.214 33.1953 536.148 36.8191 538.987 39.6634C541.826 42.5076 545.443 44.4446 549.381 45.2293C553.319 46.014 557.401 45.6113 561.111 44.072C564.82 42.5327 567.991 39.926 570.221 36.5815C572.452 33.237 573.643 29.305 573.643 25.2826C573.643 19.8887 571.504 14.7158 567.697 10.9018C563.889 7.08777 558.726 4.94507 553.342 4.94507Z" fill="#1F51FF"/>
<path d="M551.748 19.6211H549.903V23.6527H551.748V19.6211Z" fill="#1F51FF"/>
<path d="M556.071 21.5947C556.071 20.859 555.844 19.881 553.963 19.6716V23.6016C555.844 23.3952 556.071 22.3693 556.071 21.5947Z" fill="#1F51FF"/>
<path d="M551.748 26.2068H549.903V30.9293H551.748V26.2068Z" fill="#1F51FF"/>
<path d="M556.05 26.835C555.623 26.5 554.921 26.2966 553.96 26.2368V30.9234C556.426 30.7679 556.721 29.5267 556.721 28.5846C556.724 27.7591 556.504 27.1879 556.05 26.835Z" fill="#1F51FF"/>
<path d="M553.343 7.72681C549.878 7.72681 546.492 8.75593 543.612 10.684C540.731 12.6121 538.486 15.3526 537.16 18.5589C535.835 21.7652 535.488 25.2934 536.164 28.6972C536.84 32.101 538.508 35.2276 540.957 37.6816C543.407 40.1356 546.528 41.8068 549.925 42.4838C553.323 43.1609 556.845 42.8134 560.045 41.4853C563.246 40.1572 565.981 37.9081 567.906 35.0225C569.831 32.1369 570.858 28.7444 570.858 25.2739C570.858 22.9696 570.405 20.6878 569.525 18.5589C568.644 16.43 567.354 14.4956 565.728 12.8662C564.101 11.2368 562.17 9.94433 560.045 9.0625C557.92 8.18068 555.643 7.72681 553.343 7.72681ZM553.963 33.4926V35.3888H551.745V33.5046H547.124V17.0551H551.745V15.1709H553.963V17.1C555.423 17.2196 556.585 17.6384 557.421 18.3502C557.869 18.7241 558.226 19.1951 558.466 19.7277C558.706 20.2604 558.822 20.8406 558.806 21.4247C558.822 22.0844 558.665 22.7368 558.351 23.3168C558.036 23.8967 557.576 24.3839 557.015 24.7296C557.694 24.9963 558.287 25.4454 558.728 26.0276C559.273 26.7674 559.563 27.6652 559.552 28.5847C559.561 31.6563 557.677 33.3102 553.963 33.4926Z" fill="#1F51FF"/>
<path d="M487.663 6.32982C492.037 6.33036 496.276 7.85022 499.656 10.6304C503.037 13.4107 505.351 17.2793 506.204 21.5771C507.057 25.8749 506.396 30.336 504.334 34.2004C502.272 38.0648 498.936 41.0933 494.895 42.77C490.854 44.4467 486.357 44.6678 482.172 43.3957C477.986 42.1235 474.37 39.4368 471.94 35.7934C469.51 32.1499 468.416 27.775 468.845 23.4142C469.274 19.0534 471.199 14.9763 474.291 11.8778C476.043 10.1127 478.127 8.71348 480.422 7.76114C482.718 6.8088 485.179 6.32229 487.663 6.32982ZM487.663 4.94507C483.648 4.94507 479.723 6.13784 476.385 8.37255C473.046 10.6073 470.444 13.7836 468.908 17.4998C467.371 21.216 466.969 25.3051 467.752 29.2502C468.536 33.1953 470.469 36.8191 473.308 39.6634C476.147 42.5076 479.765 44.4446 483.703 45.2293C487.641 46.014 491.722 45.6113 495.432 44.072C499.141 42.5327 502.312 39.926 504.543 36.5815C506.773 33.237 507.964 29.305 507.964 25.2826C507.964 19.8887 505.825 14.7158 502.018 10.9018C498.211 7.08777 493.047 4.94507 487.663 4.94507Z" fill="#1F51FF"/>
<path d="M487.664 7.72681C484.2 7.72681 480.813 8.75593 477.933 10.684C475.052 12.6121 472.807 15.3526 471.482 18.5589C470.156 21.7652 469.809 25.2934 470.485 28.6972C471.161 32.101 472.829 35.2276 475.279 37.6816C477.728 40.1356 480.849 41.8068 484.247 42.4838C487.644 43.1609 491.166 42.8134 494.367 41.4853C497.567 40.1572 500.303 37.9081 502.227 35.0225C504.152 32.1369 505.179 28.7444 505.179 25.2739C505.179 20.6201 503.334 16.1569 500.049 12.8662C496.764 9.57551 492.309 7.72681 487.664 7.72681ZM483.392 32.8945H480.729V17.6414H486.305C487.885 17.6414 489.049 18.0062 489.772 18.73C490.494 19.4538 490.861 20.5903 490.861 22.1126V27.1372H488.195V22.3309C488.195 21.6849 488.049 21.2363 487.753 20.997C487.458 20.7578 486.906 20.6082 486.168 20.6082H483.392V32.8945ZM494.599 28.4352C494.599 29.9485 494.232 31.0821 493.506 31.8058C492.781 32.5296 491.616 32.8945 490.043 32.8945H484.455V23.3987H487.12V29.9396H489.906C490.64 29.9396 491.172 29.808 491.491 29.5508C491.811 29.2935 491.936 28.8629 491.936 28.2169V17.6533H494.599V28.4352Z" fill="#1F51FF"/>
<path d="M421.984 6.32982C426.358 6.33036 430.597 7.85022 433.978 10.6304C437.359 13.4107 439.673 17.2793 440.526 21.5771C441.379 25.8749 440.718 30.336 438.656 34.2004C436.593 38.0648 433.258 41.0933 429.216 42.77C425.175 44.4467 420.679 44.6678 416.493 43.3957C412.308 42.1235 408.692 39.4368 406.262 35.7934C403.832 32.1499 402.738 27.775 403.166 23.4142C403.595 19.0534 405.52 14.9763 408.613 11.8778C410.364 10.1127 412.448 8.71348 414.743 7.76114C417.039 6.8088 419.5 6.32229 421.984 6.32982ZM421.984 4.94507C417.969 4.94507 414.044 6.13784 410.706 8.37255C407.367 10.6073 404.765 13.7836 403.229 17.4998C401.692 21.216 401.29 25.3051 402.074 29.2502C402.857 33.1953 404.79 36.8191 407.63 39.6634C410.469 42.5076 414.086 44.4446 418.024 45.2293C421.962 46.014 426.044 45.6113 429.753 44.072C433.463 42.5327 436.633 39.926 438.864 36.5815C441.094 33.237 442.285 29.305 442.285 25.2826C442.285 19.8887 440.146 14.7158 436.339 10.9018C432.532 7.08777 427.368 4.94507 421.984 4.94507Z" fill="#1F51FF"/>
<path d="M421.984 7.72681C418.52 7.72681 415.134 8.75593 412.253 10.684C409.373 12.6121 407.128 15.3526 405.802 18.5589C404.476 21.7652 404.129 25.2934 404.805 28.6972C405.481 32.101 407.149 35.2276 409.599 37.6816C412.048 40.1356 415.169 41.8068 418.567 42.4838C421.965 43.1609 425.486 42.8134 428.687 41.4853C431.887 40.1572 434.623 37.9081 436.548 35.0225C438.472 32.1369 439.499 28.7444 439.499 25.2739C439.499 20.6201 437.654 16.1569 434.369 12.8662C431.085 9.57551 426.629 7.72681 421.984 7.72681ZM428.943 19.1966H419.823V23.7217H427.728V26.4134H419.823V28.5937H423.229V31.0551H419.823V34.0459H416.909V31.0551H415.028V28.5937H416.909V16.5019H428.946L428.943 19.1966Z" fill="#1F51FF"/>
<path d="M356.306 6.32982C360.68 6.33036 364.918 7.85022 368.299 10.6304C371.68 13.4107 373.994 17.2793 374.847 21.5771C375.7 25.8749 375.039 30.336 372.977 34.2004C370.915 38.0648 367.579 41.0933 363.538 42.77C359.497 44.4467 355 44.6678 350.814 43.3957C346.629 42.1235 343.013 39.4368 340.583 35.7934C338.153 32.1499 337.059 27.775 337.488 23.4142C337.916 19.0534 339.841 14.9763 342.934 11.8778C344.686 10.1127 346.769 8.71348 349.065 7.76114C351.36 6.8088 353.821 6.32229 356.306 6.32982ZM356.306 4.94507C352.291 4.94507 348.366 6.13784 345.027 8.37255C341.689 10.6073 339.087 13.7836 337.55 17.4998C336.014 21.216 335.612 25.3051 336.395 29.2502C337.178 33.1953 339.112 36.8191 341.951 39.6634C344.79 42.5076 348.407 44.4446 352.345 45.2293C356.283 46.014 360.365 45.6113 364.074 44.072C367.784 42.5327 370.954 39.926 373.185 36.5815C375.416 33.237 376.606 29.305 376.606 25.2826C376.606 19.8887 374.468 14.7158 370.66 10.9018C366.853 7.08777 361.69 4.94507 356.306 4.94507Z" fill="#1F51FF"/>
<path d="M356.305 7.72681C352.841 7.72681 349.455 8.75593 346.574 10.684C343.694 12.6121 341.449 15.3526 340.123 18.5589C338.798 21.7652 338.451 25.2934 339.127 28.6972C339.802 32.101 341.471 35.2276 343.92 37.6816C346.37 40.1356 349.491 41.8068 352.888 42.4838C356.286 43.1609 359.808 42.8134 363.008 41.4853C366.209 40.1572 368.944 37.9081 370.869 35.0225C372.794 32.1369 373.821 28.7444 373.821 25.2739C373.821 20.6201 371.975 16.1569 368.691 12.8662C365.406 9.57551 360.951 7.72681 356.305 7.72681ZM362.891 25.2739C362.902 26.4725 362.7 27.6635 362.294 28.7911C361.921 29.822 361.344 30.767 360.598 31.5696C359.85 32.3557 358.946 32.9762 357.944 33.391C356.856 33.8369 355.69 34.0596 354.514 34.0459H351.989V26.7843L349.717 28.0613V25.3696L351.989 24.0806V23.3448L349.717 24.6219V21.9302L351.989 20.6411V16.5019H354.905V18.9693L358.556 16.8996V19.6272L354.908 21.6849V22.4147L358.556 20.348V23.0727L354.908 25.1303V31.4439C355.58 31.4138 356.24 31.2576 356.855 30.9834C357.495 30.6877 358.061 30.2524 358.512 29.7093C358.976 29.1324 359.324 28.4713 359.539 27.7623C359.78 26.9552 359.897 26.1162 359.888 25.2739V24.927H362.873L362.891 25.2739Z" fill="#1F51FF"/>
<path d="M290.627 6.32982C295.001 6.33036 299.239 7.85022 302.62 10.6304C306.001 13.4107 308.315 17.2793 309.168 21.5771C310.021 25.8749 309.36 30.336 307.298 34.2004C305.236 38.0648 301.9 41.0933 297.859 42.77C293.818 44.4467 289.321 44.6678 285.136 43.3957C280.95 42.1235 277.334 39.4368 274.904 35.7934C272.474 32.1499 271.38 27.775 271.809 23.4142C272.238 19.0534 274.162 14.9763 277.255 11.8778C279.007 10.1127 281.091 8.71348 283.386 7.76114C285.681 6.8088 288.143 6.32229 290.627 6.32982ZM290.627 4.94507C286.612 4.94507 282.687 6.13784 279.348 8.37255C276.01 10.6073 273.408 13.7836 271.871 17.4998C270.335 21.216 269.933 25.3051 270.716 29.2502C271.5 33.1953 273.433 36.8191 276.272 39.6634C279.111 42.5076 282.728 44.4446 286.666 45.2293C290.604 46.014 294.686 45.6113 298.396 44.072C302.105 42.5327 305.276 39.926 307.506 36.5815C309.737 33.237 310.928 29.305 310.928 25.2826C310.928 19.8887 308.789 14.7158 304.982 10.9018C301.175 7.08777 296.011 4.94507 290.627 4.94507Z" fill="#1F51FF"/>
<path d="M290.627 7.72681C287.162 7.72681 283.776 8.75593 280.896 10.684C278.015 12.6121 275.77 15.3526 274.445 18.5589C273.119 21.7652 272.772 25.2934 273.448 28.6972C274.124 32.101 275.792 35.2276 278.241 37.6816C280.691 40.1356 283.812 41.8068 287.21 42.4838C290.607 43.1609 294.129 42.8134 297.33 41.4853C300.53 40.1572 303.266 37.9081 305.19 35.0225C307.115 32.1369 308.142 28.7444 308.142 25.2739C308.142 20.6201 306.297 16.1569 303.012 12.8662C299.727 9.57551 295.272 7.72681 290.627 7.72681ZM297.138 24.4753H294.296C293.604 24.8744 292.887 25.2271 292.149 25.5311H297.138V27.4542H288.02C287.982 27.4871 287.946 27.517 287.916 27.5469C287.468 27.9507 287.25 28.5369 287.25 29.3414C287.25 29.6505 287.321 29.9555 287.457 30.2325C287.594 30.5096 287.793 30.7512 288.038 30.9385C288.582 31.3961 289.364 31.6294 290.37 31.6294C291.603 31.6294 292.555 31.3871 293.197 30.9086C293.499 30.695 293.752 30.4184 293.937 30.0978C294.123 29.7772 294.237 29.4202 294.272 29.0513L294.305 28.7522H297.123L297.105 29.1141C297.039 30.4929 296.415 31.7221 295.251 32.7689C294.087 33.8157 292.421 34.342 290.277 34.342C288.486 34.342 287.059 33.8456 285.999 32.8706C285.279 32.1935 284.771 31.3215 284.536 30.3605C284.301 29.3995 284.35 28.3909 284.677 27.4572H284.127V25.5341H286.316C286.938 25.1274 287.593 24.7743 288.274 24.4783H284.116V22.5582H292.6C292.721 22.4828 292.837 22.401 292.949 22.313C293.177 22.1314 293.359 21.8987 293.48 21.6337C293.601 21.3688 293.659 21.079 293.648 20.7877C293.634 20.5415 293.567 20.3014 293.45 20.0844C293.334 19.8673 293.171 19.6785 292.973 19.5315C292.513 19.1248 291.779 18.9334 290.782 18.9334C288.862 18.9334 287.832 19.6452 287.635 21.1137L287.597 21.4128H284.76L284.781 21.0449C284.818 20.3951 284.985 19.7594 285.272 19.1756C285.559 18.5919 285.961 18.0721 286.453 17.6473C287.486 16.7112 288.973 16.2357 290.874 16.2357C292.528 16.2357 293.893 16.7082 294.929 17.6354C295.965 18.5625 296.508 19.6721 296.508 20.9043C296.517 21.4754 296.409 22.0423 296.191 22.5702H297.138V24.4753Z" fill="#1F51FF"/>
</g>
<g opacity="0.06" clip-path="url(#clip1_624_15563)">
<path d="M265.974 56.8803C270.348 56.8809 274.586 58.4007 277.967 61.181C281.348 63.9612 283.662 67.8298 284.515 72.1276C285.368 76.4254 284.707 80.8866 282.645 84.7509C280.583 88.6153 277.247 91.6438 273.206 93.3205C269.164 94.9972 264.668 95.2183 260.482 93.9462C256.297 92.6741 252.681 89.9874 250.251 86.3439C247.821 82.7004 246.727 78.3256 247.156 73.9647C247.584 69.6039 249.509 65.5269 252.602 62.4283C254.354 60.6633 256.437 59.264 258.733 58.3117C261.028 57.3593 263.489 56.8728 265.974 56.8803ZM265.974 55.4956C261.959 55.4956 258.034 56.6884 254.695 58.9231C251.357 61.1578 248.755 64.3341 247.218 68.0503C245.682 71.7665 245.28 75.8557 246.063 79.8008C246.846 83.7459 248.78 87.3697 251.619 90.2139C254.458 93.0582 258.075 94.9951 262.013 95.7798C265.951 96.5646 270.033 96.1618 273.742 94.6225C277.452 93.0832 280.622 90.4765 282.853 87.132C285.084 83.7875 286.274 79.8555 286.274 75.8331C286.274 70.4393 284.136 65.2663 280.328 61.4523C276.521 57.6383 271.358 55.4956 265.974 55.4956Z" fill="#1F51FF"/>
<path d="M265.973 58.2773C262.509 58.2773 259.123 59.3064 256.242 61.2345C253.362 63.1626 251.117 65.9031 249.791 69.1094C248.466 72.3158 248.119 75.8439 248.795 79.2477C249.47 82.6515 251.139 85.7781 253.588 88.2321C256.038 90.6861 259.159 92.3573 262.556 93.0343C265.954 93.7114 269.476 93.3639 272.676 92.0358C275.877 90.7077 278.612 88.4587 280.537 85.5731C282.461 82.6875 283.489 79.2949 283.489 75.8244C283.489 73.5201 283.036 71.2384 282.155 69.1094C281.275 66.9805 279.985 65.0462 278.359 63.4168C276.732 61.7874 274.801 60.4948 272.676 59.613C270.551 58.7312 268.274 58.2773 265.973 58.2773ZM274.055 74.673V76.9759H265.776L274.255 84.5965H270.213L262.489 77.4185V84.5965H259.573V76.9759H257.692V74.673H259.573V67.0524H262.489V74.2303L270.213 67.0524H274.255L265.776 74.673H274.055Z" fill="#1F51FF"/>
<path d="M200.295 56.8803C204.669 56.8809 208.907 58.4007 212.288 61.181C215.669 63.9612 217.983 67.8298 218.836 72.1276C219.689 76.4254 219.028 80.8866 216.966 84.7509C214.904 88.6153 211.568 91.6438 207.527 93.3205C203.486 94.9972 198.989 95.2183 194.804 93.9462C190.618 92.6741 187.002 89.9874 184.572 86.3439C182.142 82.7004 181.048 78.3256 181.477 73.9647C181.906 69.6039 183.83 65.5269 186.923 62.4283C188.675 60.6633 190.759 59.264 193.054 58.3117C195.349 57.3593 197.811 56.8728 200.295 56.8803ZM200.295 55.4956C196.28 55.4956 192.355 56.6884 189.016 58.9231C185.678 61.1578 183.076 64.3341 181.539 68.0503C180.003 71.7665 179.601 75.8557 180.384 79.8008C181.168 83.7459 183.101 87.3697 185.94 90.2139C188.779 93.0582 192.396 94.9951 196.334 95.7798C200.272 96.5646 204.354 96.1618 208.064 94.6225C211.773 93.0832 214.944 90.4765 217.174 87.132C219.405 83.7875 220.596 79.8555 220.596 75.8331C220.596 70.4393 218.457 65.2663 214.65 61.4523C210.843 57.6383 205.679 55.4956 200.295 55.4956Z" fill="#1F51FF"/>
<path d="M200.295 58.2773C196.83 58.2773 193.444 59.3064 190.564 61.2345C187.683 63.1626 185.438 65.9031 184.113 69.1094C182.787 72.3158 182.44 75.8439 183.116 79.2477C183.792 82.6515 185.46 85.7781 187.909 88.2321C190.359 90.6861 193.48 92.3573 196.878 93.0343C200.275 93.7114 203.797 93.3639 206.998 92.0358C210.198 90.7077 212.934 88.4587 214.858 85.5731C216.783 82.6875 217.81 79.2949 217.81 75.8244C217.81 71.1706 215.965 66.7075 212.68 63.4168C209.395 60.126 204.94 58.2773 200.295 58.2773ZM205.155 86.1188H194.688V83.9206H205.155V86.1188ZM206.761 69.0263H205.155V83.0831H202.307V82.138C201.456 82.9289 200.336 83.3652 199.175 83.3583C197.479 83.3583 196.145 82.7452 195.208 81.5309C194.27 80.3166 193.828 78.7315 193.828 76.7456C193.828 74.67 194.348 73.0011 195.372 71.7808C195.843 71.1896 196.443 70.7141 197.126 70.3907C197.809 70.0672 198.557 69.9044 199.312 69.9146C200.372 69.8961 201.413 70.1996 202.298 70.7849V69.0323H199.817V66.837H202.307V65.536H205.155V66.837H206.761V69.0263Z" fill="#1F51FF"/>
<path d="M197.515 73.3537C197.005 74.0924 196.745 75.2319 196.745 76.7393C196.745 78.1629 196.99 79.2486 197.474 79.9634C197.671 80.2839 197.95 80.5464 198.281 80.7245C198.612 80.9025 198.985 80.9897 199.36 80.9773C200.42 80.9773 201.411 80.3522 202.307 79.12V73.578C201.945 73.1791 201.505 72.8598 201.014 72.6405C200.522 72.4212 199.991 72.3066 199.453 72.3039C199.067 72.2962 198.686 72.3888 198.346 72.5728C198.006 72.7568 197.72 73.0259 197.515 73.3537Z" fill="#1F51FF"/>
<path d="M134.616 56.8803C138.99 56.8809 143.229 58.4007 146.61 61.181C149.99 63.9612 152.304 67.8298 153.157 72.1276C154.01 76.4254 153.349 80.8866 151.287 84.7509C149.225 88.6153 145.889 91.6438 141.848 93.3205C137.807 94.9972 133.311 95.2183 129.125 93.9462C124.939 92.6741 121.323 89.9874 118.893 86.3439C116.463 82.7004 115.37 78.3256 115.798 73.9647C116.227 69.6039 118.152 65.5269 121.245 62.4283C122.996 60.6633 125.08 59.264 127.375 58.3117C129.671 57.3593 132.132 56.8728 134.616 56.8803ZM134.616 55.4956C130.601 55.4956 126.676 56.6884 123.338 58.9231C119.999 61.1578 117.397 64.3341 115.861 68.0503C114.324 71.7665 113.922 75.8557 114.706 79.8008C115.489 83.7459 117.422 87.3697 120.261 90.2139C123.101 93.0582 126.718 94.9951 130.656 95.7798C134.594 96.5646 138.675 96.1618 142.385 94.6225C146.094 93.0832 149.265 90.4765 151.496 87.132C153.726 83.7875 154.917 79.8555 154.917 75.8331C154.917 70.4393 152.778 65.2663 148.971 61.4523C145.164 57.6383 140 55.4956 134.616 55.4956Z" fill="#1F51FF"/>
<path d="M133.407 75.3665L133.159 76.2846H136.13L135.876 75.3665H133.407Z" fill="#1F51FF"/>
<path d="M134.643 70.9075L134.046 73.0668H135.237L134.643 70.9075Z" fill="#1F51FF"/>
<path d="M128.687 76.2846H130.493L130.75 75.3665H128.466L128.687 76.2846Z" fill="#1F51FF"/>
<path d="M129.535 79.7541L129.857 78.5847H129.248L129.535 79.7541Z" fill="#1F51FF"/>
<path d="M138.787 76.2846H140.593L140.814 75.3665H138.53L138.787 76.2846Z" fill="#1F51FF"/>
<path d="M134.616 58.2773C131.152 58.2773 127.765 59.3064 124.885 61.2345C122.005 63.1626 119.76 65.9031 118.434 69.1094C117.108 72.3158 116.761 75.8439 117.437 79.2477C118.113 82.6515 119.781 85.7781 122.231 88.2321C124.68 90.6861 127.801 92.3573 131.199 93.0343C134.597 93.7114 138.118 93.3639 141.319 92.0358C144.519 90.7077 147.255 88.4587 149.179 85.5731C151.104 82.6875 152.131 79.2949 152.131 75.8244C152.131 71.1706 150.286 66.7075 147.001 63.4168C143.716 60.126 139.261 58.2773 134.616 58.2773ZM146.05 75.3668H143.629L143.378 76.282H146.05V78.5849H142.742L141.079 84.5965H138.419L136.756 78.5849H132.526L130.863 84.5965H128.197L126.555 78.5849H123.182V76.282H125.908L125.651 75.3668H123.182V73.0639H125.012L123.361 67.0524H126.427L127.896 73.0639H131.377L133.04 67.0524H136.237L137.903 73.0639H141.384L142.853 67.0524H145.928L144.265 73.0639H146.056L146.05 75.3668Z" fill="#1F51FF"/>
<path d="M139.745 79.7541L140.032 78.5847H139.426L139.745 79.7541Z" fill="#1F51FF"/>
<path d="M68.9375 56.8803C73.3115 56.8809 77.55 58.4007 80.9309 61.181C84.3117 63.9612 86.6258 67.8298 87.4787 72.1276C88.3317 76.4254 87.6708 80.8866 85.6086 84.7509C83.5465 88.6153 80.2106 91.6438 76.1695 93.3205C72.1283 94.9972 67.6319 95.2183 63.4463 93.9462C59.2606 92.6741 55.6448 89.9874 53.2148 86.3439C50.7847 82.7004 49.6909 78.3256 50.1196 73.9647C50.5483 69.6039 52.473 65.5269 55.5658 62.4283C57.3174 60.6633 59.4013 59.264 61.6966 58.3117C63.9919 57.3593 66.4531 56.8728 68.9375 56.8803ZM68.9375 55.4956C64.9224 55.4956 60.9974 56.6884 57.659 58.9231C54.3205 61.1578 51.7185 64.3341 50.182 68.0503C48.6455 71.7665 48.2435 75.8557 49.0268 79.8008C49.8101 83.7459 51.7436 87.3697 54.5827 90.2139C57.4218 93.0582 61.039 94.9951 64.977 95.7798C68.915 96.5646 72.9968 96.1618 76.7062 94.6225C80.4157 93.0832 83.5863 90.4765 85.8169 87.132C88.0476 83.7875 89.2382 79.8555 89.2382 75.8331C89.2382 70.4393 87.0994 65.2663 83.2923 61.4523C79.4851 57.6383 74.3216 55.4956 68.9375 55.4956Z" fill="#1F51FF"/>
<path d="M64.793 75.3665V76.2846H67.5664L66.9574 75.3665H64.793Z" fill="#1F51FF"/>
<path d="M64.793 72.1008V73.0669H65.4318L64.793 72.1008Z" fill="#1F51FF"/>
<path d="M73.0715 79.5507V78.5847H72.4326L73.0715 79.5507Z" fill="#1F51FF"/>
<path d="M70.9079 76.2846H73.0723V75.3665H70.2988L70.9079 76.2846Z" fill="#1F51FF"/>
<path d="M68.9372 58.2773C65.473 58.2773 62.0866 59.3064 59.2062 61.2345C56.3258 63.1626 54.0809 65.9031 52.7552 69.1094C51.4295 72.3158 51.0826 75.8439 51.7584 79.2477C52.4343 82.6515 54.1024 85.7781 56.552 88.2321C59.0016 90.6861 62.1225 92.3573 65.5202 93.0343C68.9178 93.7114 72.4396 93.3639 75.6401 92.0358C78.8406 90.7077 81.5761 88.4587 83.5007 85.5731C85.4254 82.6875 86.4526 79.2949 86.4526 75.8244C86.4526 71.1706 84.6073 66.7075 81.3225 63.4168C78.0377 60.126 73.5826 58.2773 68.9372 58.2773ZM77.7681 75.3668H75.8843V76.282H77.7681V78.5849H75.8843V84.5965H73.072L69.0895 78.5849H64.7905V84.5965H61.9902V78.5849H60.1094V76.282H61.9902V75.3668H60.1094V73.0639H61.9902V67.0524H64.7905L68.7731 73.0639H73.072V67.0524H75.8843V73.0639H77.7681V75.3668Z" fill="#1F51FF"/>
</g>
<g opacity="0.06" clip-path="url(#clip2_624_15563)">
<path d="M590.705 58.2776C587.241 58.2776 583.854 59.3067 580.974 61.2348C578.093 63.1629 575.848 65.9034 574.523 69.1097C573.197 72.316 572.85 75.8441 573.526 79.2479C574.202 82.6517 575.87 85.7783 578.32 88.2323C580.769 90.6863 583.89 92.3575 587.288 93.0346C590.685 93.7116 594.207 93.3642 597.408 92.0361C600.608 90.708 603.344 88.4589 605.268 85.5733C607.193 82.6877 608.22 79.2952 608.22 75.8247C608.22 73.5204 607.767 71.2386 606.887 69.1097C606.007 66.9808 604.717 65.0464 603.09 63.417C601.464 61.7876 599.533 60.4951 597.408 59.6133C595.283 58.7314 593.005 58.2776 590.705 58.2776ZM594.774 84.5967H580.784V82.0336L590.851 69.7473H581.749V67.0556H594.487V69.6187L584.435 81.902H594.789L594.774 84.5967ZM600.625 74.727L599.168 75.9802V84.5937H596.308V78.4117L594.852 79.6529V76.9283L596.308 75.6871V67.0526H599.168V73.2585L600.625 72.0174V74.727Z" fill="#1F51FF"/>
<path d="M590.705 56.8806C595.079 56.8811 599.318 58.401 602.698 61.1812C606.079 63.9614 608.393 67.83 609.246 72.1278C610.099 76.4256 609.438 80.8868 607.376 84.7512C605.314 88.6156 601.978 91.6441 597.937 93.3208C593.896 94.9975 589.399 95.2186 585.214 93.9464C581.028 92.6743 577.412 89.9876 574.982 86.3441C572.552 82.7007 571.458 78.3258 571.887 73.965C572.316 69.6041 574.241 65.5271 577.333 62.4285C579.085 60.6635 581.169 59.2643 583.464 58.3119C585.76 57.3596 588.221 56.8731 590.705 56.8806ZM590.705 55.4958C586.69 55.4958 582.765 56.6886 579.427 58.9233C576.088 61.158 573.486 64.3343 571.95 68.0505C570.413 71.7667 570.011 75.8559 570.794 79.801C571.578 83.7461 573.511 87.3699 576.35 90.2142C579.189 93.0584 582.807 94.9954 586.745 95.7801C590.683 96.5648 594.764 96.1621 598.474 94.6228C602.183 93.0835 605.354 90.4768 607.585 87.1323C609.815 83.7878 611.006 79.8557 611.006 75.8334C611.006 70.4395 608.867 65.2666 605.06 61.4526C601.253 57.6385 596.089 55.4958 590.705 55.4958Z" fill="#1F51FF"/>
<path d="M525.026 56.8806C529.4 56.8811 533.639 58.401 537.02 61.1812C540.401 63.9614 542.715 67.83 543.568 72.1278C544.421 76.4256 543.76 80.8868 541.697 84.7512C539.635 88.6156 536.3 91.6441 532.258 93.3208C528.217 94.9975 523.721 95.2186 519.535 93.9464C515.35 92.6743 511.734 89.9876 509.304 86.3441C506.874 82.7007 505.78 78.3258 506.208 73.965C506.637 69.6041 508.562 65.5271 511.655 62.4285C513.406 60.6635 515.49 59.2643 517.785 58.3119C520.081 57.3596 522.542 56.8731 525.026 56.8806ZM525.026 55.4958C521.011 55.4958 517.086 56.6886 513.748 58.9233C510.409 61.158 507.807 64.3343 506.271 68.0505C504.734 71.7667 504.332 75.8559 505.116 79.801C505.899 83.7461 507.832 87.3699 510.672 90.2142C513.511 93.0584 517.128 94.9954 521.066 95.7801C525.004 96.5648 529.086 96.1621 532.795 94.6228C536.505 93.0835 539.675 90.4768 541.906 87.1323C544.136 83.7878 545.327 79.8557 545.327 75.8334C545.327 70.4395 543.188 65.2666 539.381 61.4526C535.574 57.6385 530.41 55.4958 525.026 55.4958Z" fill="#1F51FF"/>
<path d="M525.026 58.2776C521.562 58.2776 518.175 59.3067 515.295 61.2348C512.415 63.1629 510.17 65.9034 508.844 69.1097C507.518 72.316 507.171 75.8441 507.847 79.2479C508.523 82.6517 510.191 85.7783 512.641 88.2323C515.09 90.6863 518.211 92.3575 521.609 93.0346C525.007 93.7116 528.528 93.3642 531.729 92.0361C534.929 90.708 537.665 88.4589 539.59 85.5733C541.514 82.6877 542.541 79.2952 542.541 75.8247C542.541 71.1709 540.696 66.7077 537.411 63.417C534.127 60.1263 529.671 58.2776 525.026 58.2776ZM523.593 70.6356C523.707 70.6356 523.793 70.6356 523.859 70.6356C524.261 70.6325 524.663 70.6807 525.053 70.7792C525.389 70.8619 525.71 70.9993 526.002 71.1859C526.267 71.3534 526.49 71.5796 526.653 71.8469C526.817 72.117 526.902 72.4279 526.898 72.7441V74.9274H529.722V77.2064H526.898V83.4871C526.902 83.6955 526.853 83.9014 526.755 84.0853C526.666 84.2458 526.55 84.3895 526.411 84.51C526.273 84.6273 526.116 84.7194 525.946 84.7822C525.781 84.8463 525.606 84.8797 525.429 84.8809H524.889C524.58 84.8761 524.273 84.8451 523.969 84.7881C523.613 84.7224 523.264 84.6223 522.927 84.489C522.568 84.3444 522.222 84.1672 521.894 83.9597C521.547 83.7402 521.235 83.4689 520.969 83.1551C520.691 82.8259 520.469 82.453 520.312 82.0515C520.138 81.5964 520.052 81.1123 520.058 80.6249C520.052 80.3296 520.104 80.036 520.211 79.7606C520.303 79.5209 520.448 79.3051 520.635 79.1295C520.814 78.9661 521.026 78.8418 521.256 78.7646C521.691 78.6003 522.172 78.6003 522.608 78.7646C522.816 78.8516 523.004 78.9809 523.16 79.1445C523.322 79.3185 523.449 79.5214 523.536 79.7426C523.632 79.9834 523.679 80.2404 523.677 80.4993C523.698 80.8675 523.613 81.2339 523.432 81.5551C523.308 81.7721 523.139 81.9598 522.936 82.1054C522.835 82.168 522.729 82.224 522.62 82.2729C522.768 82.3845 522.93 82.4779 523.101 82.551C523.317 82.6464 523.542 82.7225 523.772 82.7783C523.871 82.8035 523.97 82.8235 524.071 82.8381V77.2154H520.817V74.9274H524.053V73.9046C524.09 73.6152 524.012 73.3228 523.835 73.0911C523.643 72.9394 523.401 72.8658 523.157 72.8847C523.086 72.8847 522.99 72.8847 522.877 72.8847H522.533L522.196 72.9026H521.966C521.804 72.9058 521.644 72.8677 521.5 72.792C521.366 72.7147 521.246 72.6133 521.148 72.4929C521.035 72.3505 520.935 72.1984 520.85 72.0383L520.515 71.4401L520.396 71.2188L524.557 66.7535H525.238L528.367 68.3865L528.435 68.4105C528.503 68.4329 528.575 68.4397 528.646 68.4304C528.717 68.4211 528.785 68.3958 528.844 68.3566L529.119 68.1622L529.982 69.3286L527.785 71.0334H527.668C527.437 71.009 527.215 70.9245 527.026 70.7881C526.814 70.6625 526.561 70.525 526.271 70.3754C525.967 70.2203 525.654 70.0834 525.334 69.9657C525.031 69.8516 524.711 69.7928 524.387 69.7922C524.29 69.8031 524.198 69.8415 524.122 69.9029C523.962 70.0135 523.814 70.1398 523.68 70.2797C523.569 70.3934 523.465 70.51 523.36 70.6326L523.593 70.6356Z" fill="#1F51FF"/>
<path d="M393.669 56.8806C398.043 56.8811 402.281 58.401 405.662 61.1812C409.043 63.9614 411.357 67.83 412.21 72.1278C413.063 76.4256 412.402 80.8868 410.34 84.7512C408.278 88.6156 404.942 91.6441 400.901 93.3208C396.86 94.9975 392.363 95.2186 388.178 93.9464C383.992 92.6743 380.376 89.9876 377.946 86.3441C375.516 82.7007 374.422 78.3258 374.851 73.965C375.28 69.6041 377.204 65.5271 380.297 62.4285C382.049 60.6635 384.133 59.2643 386.428 58.3119C388.723 57.3596 391.185 56.8731 393.669 56.8806ZM393.669 55.4958C389.654 55.4958 385.729 56.6886 382.39 58.9233C379.052 61.158 376.45 64.3343 374.913 68.0505C373.377 71.7667 372.975 75.8559 373.758 79.801C374.542 83.7461 376.475 87.3699 379.314 90.2142C382.153 93.0584 385.77 94.9954 389.708 95.7801C393.646 96.5648 397.728 96.1621 401.438 94.6228C405.147 93.0835 408.318 90.4768 410.548 87.1323C412.779 83.7878 413.97 79.8557 413.97 75.8334C413.97 70.4395 411.831 65.2666 408.024 61.4526C404.217 57.6385 399.053 55.4958 393.669 55.4958Z" fill="#1F51FF"/>
<path d="M390.23 75.1697H394.141C395.305 75.1697 396.192 74.9693 396.786 74.5715H390.218L390.23 75.1697Z" fill="#1F51FF"/>
<path d="M394.093 69.7471H390.229V70.2256H396.741C396.153 69.9056 395.266 69.7471 394.093 69.7471Z" fill="#1F51FF"/>
<path d="M390.229 72.0442V72.756H397.747C397.747 72.6334 397.747 72.5108 397.747 72.3881C397.747 72.2655 397.747 72.1519 397.747 72.0442H390.229Z" fill="#1F51FF"/>
<path d="M393.669 58.2776C390.204 58.2776 386.818 59.3067 383.938 61.2348C381.057 63.1629 378.812 65.9034 377.487 69.1097C376.161 72.316 375.814 75.8441 376.49 79.2479C377.166 82.6517 378.834 85.7783 381.283 88.2323C383.733 90.6863 386.854 92.3575 390.252 93.0346C393.649 93.7116 397.171 93.3642 400.372 92.0361C403.572 90.708 406.308 88.4589 408.232 85.5733C410.157 82.6877 411.184 79.2952 411.184 75.8247C411.184 71.1709 409.339 66.7077 406.054 63.417C402.769 60.1263 398.314 58.2776 393.669 58.2776ZM401.529 72.0353H400.756C400.756 72.1221 400.756 72.2148 400.756 72.3105C400.756 72.451 400.756 72.6096 400.756 72.7471H401.538V74.5655H400.392C399.559 76.7458 397.454 77.8554 394.122 77.8554H390.241V84.5907H387.325V74.5745H385.832V72.7561H387.325V72.0443H385.832V70.2259H387.325V67.0526H393.943C397.49 67.0526 399.675 68.1203 400.446 70.2259H401.541L401.529 72.0353Z" fill="#1F51FF"/>
<path d="M327.989 56.8806C332.363 56.8811 336.602 58.401 339.983 61.1812C343.363 63.9614 345.678 67.83 346.53 72.1278C347.383 76.4256 346.723 80.8868 344.66 84.7512C342.598 88.6156 339.262 91.6441 335.221 93.3208C331.18 94.9975 326.684 95.2186 322.498 93.9464C318.312 92.6743 314.697 89.9876 312.267 86.3441C309.836 82.7007 308.743 78.3258 309.171 73.965C309.6 69.6041 311.525 65.5271 314.618 62.4285C316.369 60.6635 318.453 59.2643 320.748 58.3119C323.044 57.3596 325.505 56.8731 327.989 56.8806ZM327.989 55.4958C323.974 55.4958 320.049 56.6886 316.711 58.9233C313.372 61.158 310.77 64.3343 309.234 68.0505C307.697 71.7667 307.295 75.8559 308.079 79.801C308.862 83.7461 310.795 87.3699 313.634 90.2142C316.474 93.0584 320.091 94.9954 324.029 95.7801C327.967 96.5648 332.049 96.1621 335.758 94.6228C339.467 93.0835 342.638 90.4768 344.869 87.1323C347.099 83.7878 348.29 79.8557 348.29 75.8334C348.29 70.4395 346.151 65.2666 342.344 61.4526C338.537 57.6385 333.373 55.4958 327.989 55.4958Z" fill="#1F51FF"/>
<path d="M327.99 58.2776C324.526 58.2776 321.139 59.3067 318.259 61.2348C315.379 63.1629 313.134 65.9034 311.808 69.1097C310.482 72.316 310.135 75.8441 310.811 79.2479C311.487 82.6517 313.155 85.7783 315.605 88.2323C318.054 90.6863 321.175 92.3575 324.573 93.0346C327.971 93.7116 331.492 93.3642 334.693 92.0361C337.893 90.708 340.629 88.4589 342.553 85.5733C344.478 82.6877 345.505 79.2952 345.505 75.8247C345.505 71.1709 343.66 66.7077 340.375 63.417C337.09 60.1263 332.635 58.2776 327.99 58.2776ZM334.997 69.7473H329.432V72.2865L332.184 69.8939V72.7411L329.432 75.1338V76.1118L332.184 73.7191V76.5664L329.432 78.959V84.6177H326.497V81.4653L323.846 83.7503V80.93L326.497 78.633V77.6491L323.846 79.937V77.1137L326.497 74.8168V69.7324H320.983V67.0407H334.997V69.7473Z" fill="#1F51FF"/>
<path d="M459.348 56.8806C463.722 56.8811 467.96 58.401 471.341 61.1812C474.722 63.9614 477.036 67.83 477.889 72.1278C478.742 76.4256 478.081 80.8868 476.019 84.7512C473.957 88.6156 470.621 91.6441 466.58 93.3208C462.538 94.9975 458.042 95.2186 453.856 93.9464C449.671 92.6743 446.055 89.9876 443.625 86.3441C441.195 82.7007 440.101 78.3258 440.53 73.965C440.958 69.6041 442.883 65.5271 445.976 62.4285C447.728 60.6635 449.811 59.2643 452.107 58.3119C454.402 57.3596 456.863 56.8731 459.348 56.8806ZM459.348 55.4958C455.333 55.4958 451.408 56.6886 448.069 58.9233C444.731 61.158 442.129 64.3343 440.592 68.0505C439.056 71.7667 438.654 75.8559 439.437 79.801C440.22 83.7461 442.154 87.3699 444.993 90.2142C447.832 93.0584 451.449 94.9954 455.387 95.7801C459.325 96.5648 463.407 96.1621 467.116 94.6228C470.826 93.0835 473.996 90.4768 476.227 87.1323C478.458 83.7878 479.648 79.8557 479.648 75.8334C479.648 70.4395 477.51 65.2666 473.702 61.4526C469.895 57.6385 464.732 55.4958 459.348 55.4958Z" fill="#1F51FF"/>
<path d="M459.347 58.2776C455.883 58.2776 452.497 59.3067 449.616 61.2348C446.736 63.1629 444.491 65.9034 443.165 69.1097C441.84 72.316 441.493 75.8441 442.169 79.2479C442.844 82.6517 444.513 85.7783 446.962 88.2323C449.412 90.6863 452.533 92.3575 455.93 93.0346C459.328 93.7116 462.85 93.3642 466.05 92.0361C469.251 90.708 471.986 88.4589 473.911 85.5733C475.836 82.6877 476.863 79.2952 476.863 75.8247C476.863 71.1709 475.017 66.7077 471.733 63.417C468.448 60.1263 463.993 58.2776 459.347 58.2776ZM465.061 69.5978H462.282C462.506 70.0196 462.669 70.4706 462.769 70.9377H465.061V73.4829H462.73C462.563 74.1305 462.248 74.7305 461.81 75.2355C461.32 75.8046 460.717 76.2658 460.04 76.5903C460.968 77.1496 461.703 78.1366 462.228 79.5422L464.088 84.5967H460.948L459.365 80.0417C459.013 79.0368 458.526 78.3369 457.92 77.9481C457.282 77.5624 456.549 77.3634 455.804 77.3739H453.633V74.6822H456.32C457.625 74.6822 458.568 74.4818 459.126 74.084C459.353 73.9245 459.535 73.7106 459.658 73.4619H453.633V70.9168H459.679C459.279 70.0464 458.335 69.6068 456.816 69.5769H453.633V67.0317H465.061V69.5978Z" fill="#1F51FF"/>
</g>
<defs>
<clipPath id="clip0_624_15563">
<rect width="276.928" height="51.0998" fill="white"/>
</clipPath>
<clipPath id="clip1_624_15563">
<rect width="280.225" height="42.7358" fill="white" transform="translate(30.7695 53.4202)"/>
</clipPath>
<clipPath id="clip2_624_15563">
<rect width="307.148" height="42.8579" fill="white" transform="translate(303.852 53.2981)"/>
</clipPath>
</defs>
</svg>
