<svg width="24" height="24" viewBox="0 0 24 24" fill="none" xmlns="http://www.w3.org/2000/svg">
<path d="M23 6.59888V7.52392C23 7.58169 23 7.63886 23 7.69546C23.0002 9.94421 23.0004 11.2847 22.6388 12.5221C22.2939 13.7026 21.7107 14.7999 20.9252 15.7462C20.1019 16.7382 18.9908 17.488 17.1268 18.7459C17.0798 18.7776 17.0325 18.8096 16.9846 18.8419C16.9301 18.8787 16.8763 18.915 16.8232 18.9509C15.4121 19.904 14.4915 20.5257 13.4743 20.7836C12.5067 21.0289 11.4933 21.0289 10.5257 20.7836C9.50846 20.5257 8.58793 19.904 7.1768 18.9509C7.12371 18.915 7.06993 18.8787 7.01542 18.8419C6.96755 18.8096 6.92016 18.7776 6.87324 18.7459C5.00925 17.488 3.89814 16.7382 3.07476 15.7462C2.28928 14.7999 1.70609 13.7026 1.36118 12.5221C0.99963 11.2847 0.999764 9.94421 0.999989 7.69546C0.999994 7.63886 1 7.58169 1 7.52392V6.59888C1 6.58152 0.999999 6.56422 0.999998 6.54697C0.999967 5.84192 0.999939 5.234 1.05349 4.73938C1.11038 4.21397 1.23714 3.69927 1.57217 3.23771C1.75762 2.98223 1.98223 2.75762 2.23771 2.57217C2.69927 2.23714 3.21397 2.11038 3.73938 2.05349C4.234 1.99994 4.84192 1.99997 5.54697 2C5.56422 2 5.58152 2 5.59888 2H18.4011L18.453 2C19.1581 1.99997 19.766 1.99994 20.2606 2.05349C20.786 2.11038 21.3007 2.23714 21.7623 2.57217C22.0178 2.75762 22.2424 2.98223 22.4278 3.23771M23 6.59888L22.4278 3.23771M23 6.59888V6.54695C23 5.84191 23.0001 5.23399 22.9465 4.73938C22.8896 4.21397 22.7629 3.69927 22.4278 3.23771M23 6.59888L21.6185 3.82514L22.4278 3.23771" stroke="#191C2E" stroke-width="2"/>
</svg>
