<svg width="31" height="31" viewBox="0 0 31 31" fill="none" xmlns="http://www.w3.org/2000/svg">
<path fill-rule="evenodd" clip-rule="evenodd" d="M19.3011 3.80544C18.161 3.20983 16.8668 2.875 15.5015 2.875C11.3152 2.875 7.79833 6.02272 7.33603 10.1834L7.01079 13.1106C6.94927 13.6643 6.92299 13.8961 6.88263 14.1205C6.76049 14.7995 6.53866 15.4567 6.22432 16.0708C6.12042 16.2737 6.00083 16.4741 5.71423 16.9517L4.83636 18.4148L4.79885 18.4773L4.79885 18.4774C4.42824 19.0949 4.09379 19.6521 3.89957 20.1205C3.69605 20.6112 3.5273 21.2815 3.90225 21.9437C4.27719 22.6059 4.93881 22.8061 5.46431 22.8841C5.96583 22.9585 6.61574 22.9584 7.33594 22.9583H7.33595L7.40884 22.9583H23.5941L23.667 22.9583H23.667C24.3872 22.9584 25.0371 22.9585 25.5386 22.8841C26.0641 22.8061 26.7257 22.6059 27.1007 21.9437C27.4756 21.2815 27.3069 20.6112 27.1033 20.1205C26.9091 19.6521 26.5747 19.0949 26.2041 18.4774L26.1666 18.4148L25.2887 16.9517C25.0021 16.4741 24.8825 16.2737 24.7786 16.0708C24.4643 15.4567 24.2424 14.7995 24.1203 14.1205C24.0844 13.9208 24.0596 13.7152 24.0112 13.2821C23.7632 13.3158 23.51 13.3332 23.2528 13.3332C22.818 13.3332 22.3948 13.2835 21.9886 13.1894L22.0044 13.3315L22.0085 13.3688L22.0085 13.369C22.0647 13.8744 22.0982 14.176 22.1519 14.4746C22.3089 15.3475 22.5941 16.1925 22.9983 16.9821C23.1365 17.2521 23.2927 17.5123 23.5544 17.9485L23.5737 17.9807L24.4516 19.4438C24.8719 20.1443 25.1256 20.5724 25.2559 20.8866L25.2627 20.9031L25.2451 20.9057C24.9086 20.9557 24.411 20.9583 23.5941 20.9583H7.40884C6.59194 20.9583 6.09429 20.9557 5.75781 20.9057L5.74025 20.9031L5.74699 20.8866C5.8773 20.5724 6.13105 20.1443 6.55134 19.4438L7.42921 17.9807L7.44856 17.9485C7.71026 17.5123 7.86642 17.2521 8.00463 16.9821C8.40879 16.1925 8.69401 15.3475 8.85104 14.4746C8.90474 14.176 8.93825 13.8744 8.99441 13.3688L8.99856 13.3315L9.3238 10.4043C9.67356 7.25645 12.3343 4.875 15.5015 4.875C16.4472 4.875 17.3477 5.08732 18.155 5.46897C18.4344 4.84549 18.8248 4.28259 19.3011 3.80544ZM21.6931 5.69024C21.0985 6.14121 20.7052 6.84377 20.6717 7.63939C21.0836 8.25551 21.389 8.95118 21.5604 9.70166C22.0137 10.0951 22.6054 10.3332 23.2528 10.3332C23.3982 10.3332 23.5408 10.3212 23.6796 10.2981L23.6669 10.1834C23.4756 8.46185 22.7614 6.91372 21.6931 5.69024ZM25.323 21.0959C25.3229 21.0958 25.3225 21.0933 25.3224 21.0886C25.3231 21.0937 25.3232 21.096 25.323 21.0959ZM25.4525 20.8588C25.4565 20.8565 25.4589 20.8555 25.4591 20.8556C25.4593 20.8557 25.4572 20.8568 25.4525 20.8588ZM5.55041 20.8588C5.54636 20.8565 5.54398 20.8556 5.54381 20.8556C5.54365 20.8557 5.5452 20.8566 5.54881 20.8581C5.5493 20.8584 5.54984 20.8586 5.55041 20.8588ZM5.68053 21.0886C5.6804 21.0933 5.68002 21.0958 5.67986 21.0959C5.67971 21.096 5.67978 21.0937 5.68053 21.0886Z" fill="#1F51FF"/>
<path d="M11.757 22.8169C11.9778 24.0528 12.4643 25.1449 13.141 25.9239C13.8178 26.7028 14.647 27.125 15.5 27.125C16.353 27.125 17.1822 26.7028 17.8589 25.9239C18.5357 25.1449 19.0222 24.0528 19.243 22.8169" stroke="#1F51FF" stroke-width="2" stroke-linecap="round"/>
<circle cx="23.2513" cy="7.74984" r="3.08333" fill="white" stroke="white"/>
</svg>
