<svg width="48" height="49" viewBox="0 0 48 49" fill="none" xmlns="http://www.w3.org/2000/svg">
<g clip-path="url(#clip0_708_29052)">
<g filter="url(#filter0_d_708_29052)">
<path d="M9.88889 19.635V35.2117M18.6389 19.635V35.2117M28.3611 19.635V35.2117M37.1111 19.635V35.2117M6 38.327L6 39.8847C6 40.9751 6 41.5204 6.21193 41.9369C6.39835 42.3032 6.69581 42.6011 7.06168 42.7878C7.47762 43 8.02212 43 9.11111 43H37.8889C38.9779 43 39.5224 43 39.9383 42.7878C40.3042 42.6011 40.6016 42.3032 40.7881 41.9369C41 41.5204 41 40.9751 41 39.8847V38.327C41 37.2365 41 36.6913 40.7881 36.2748C40.6016 35.9084 40.3042 35.6106 39.9383 35.4239C39.5224 35.2117 38.9779 35.2117 37.8889 35.2117H9.11111C8.02212 35.2117 7.47762 35.2117 7.06169 35.4239C6.69581 35.6106 6.39835 35.9084 6.21193 36.2748C6 36.6913 6 37.2365 6 38.327ZM22.8251 8.10268L8.43622 11.3046C7.56693 11.498 7.13229 11.5947 6.80785 11.8288C6.52168 12.0352 6.29697 12.3157 6.15779 12.6402C6 13.0082 6 13.454 6 14.3457L6 16.5197C6 17.6101 6 18.1554 6.21193 18.5719C6.39835 18.9382 6.69581 19.2361 7.06168 19.4228C7.47762 19.635 8.02212 19.635 9.11111 19.635H37.8889C38.9779 19.635 39.5224 19.635 39.9383 19.4228C40.3042 19.2361 40.6016 18.9382 40.7881 18.5719C41 18.1554 41 17.6101 41 16.5197V14.3457C41 13.454 41 13.0082 40.8422 12.6402C40.703 12.3157 40.4783 12.0352 40.1922 11.8288C39.8677 11.5947 39.4331 11.498 38.5638 11.3046L24.1749 8.10268C23.923 8.04664 23.7971 8.01862 23.6699 8.00744C23.5568 7.99752 23.4432 7.99752 23.3301 8.00744C23.2029 8.01862 23.077 8.04664 22.8251 8.10268Z" stroke="#1F51FF" stroke-width="2" stroke-linecap="round" stroke-linejoin="round" shape-rendering="crispEdges"/>
</g>
</g>
<defs>
<filter id="filter0_d_708_29052" x="-4" y="-2" width="55" height="55" filterUnits="userSpaceOnUse" color-interpolation-filters="sRGB">
<feFlood flood-opacity="0" result="BackgroundImageFix"/>
<feColorMatrix in="SourceAlpha" type="matrix" values="0 0 0 0 0 0 0 0 0 0 0 0 0 0 0 0 0 0 127 0" result="hardAlpha"/>
<feOffset/>
<feGaussianBlur stdDeviation="4.5"/>
<feComposite in2="hardAlpha" operator="out"/>
<feColorMatrix type="matrix" values="0 0 0 0 0.121569 0 0 0 0 0.317647 0 0 0 0 1 0 0 0 0.6 0"/>
<feBlend mode="normal" in2="BackgroundImageFix" result="effect1_dropShadow_708_29052"/>
<feBlend mode="normal" in="SourceGraphic" in2="effect1_dropShadow_708_29052" result="shape"/>
</filter>
<clipPath id="clip0_708_29052">
<rect width="48" height="49" fill="white"/>
</clipPath>
</defs>
</svg>
