<svg width="27" height="27" viewBox="0 0 27 27" fill="none" xmlns="http://www.w3.org/2000/svg">
<path d="M19.5 5.5H19.7C21.4913 5.5 22.387 5.5 22.9435 6.0565C23.5 6.61299 23.5 7.50866 23.5 9.3V9.5" stroke="white" stroke-width="1.5" stroke-linecap="round"/>
<path d="M19.5 22.5H19.7C21.4913 22.5 22.387 22.5 22.9435 21.9435C23.5 21.387 23.5 20.4913 23.5 18.7V18.5" stroke="white" stroke-width="1.5" stroke-linecap="round"/>
<path d="M8.5 5.5H8.3C6.50866 5.5 5.61299 5.5 5.0565 6.0565C4.5 6.61299 4.5 7.50866 4.5 9.3V9.5" stroke="white" stroke-width="1.5" stroke-linecap="round"/>
<path d="M8.5 22.5H8.3C6.50866 22.5 5.61299 22.5 5.0565 21.9435C4.5 21.387 4.5 20.4913 4.5 18.7V18.5" stroke="white" stroke-width="1.5" stroke-linecap="round"/>
<path d="M9.42034 17.9271C9.86614 17.2837 10.5187 16.7337 11.3252 16.3457C12.1317 15.9577 13.0547 15.75 14 15.75C14.9453 15.75 15.8683 15.9577 16.6748 16.3457C17.4813 16.7337 18.1339 17.2837 18.5797 17.9271" stroke="white" stroke-width="1.5" stroke-linecap="round"/>
<circle cx="14" cy="11" r="2.25" stroke="white" stroke-width="1.5" stroke-linecap="round"/>
</svg>
