<svg width="16" height="21" viewBox="0 0 16 21" fill="none" xmlns="http://www.w3.org/2000/svg">
<path d="M15.8239 8.44251C16.1545 6.23609 14.4733 5.04972 12.1764 4.2581L12.9217 1.26848L11.1026 0.815829L10.3763 3.7265C9.89837 3.60649 9.40782 3.4949 8.91832 3.38332L9.64994 0.453706L7.8309 0L7.0856 2.98856C6.68979 2.89803 6.3003 2.80961 5.92344 2.71487L5.92555 2.70539L3.41595 2.07905L2.93172 4.0223C2.93172 4.0223 4.28231 4.33179 4.25389 4.35074C4.99077 4.53496 5.1234 5.02235 5.1013 5.40973L4.25284 8.81516C4.30336 8.82779 4.36863 8.84674 4.44232 8.87516L4.24968 8.82779L3.06015 13.5985C2.96962 13.8217 2.74118 14.1575 2.22537 14.0301C2.24432 14.0565 0.903202 13.7007 0.903202 13.7007L0 15.7829L2.36853 16.3734C2.80856 16.484 3.24016 16.5997 3.66439 16.7082L2.91172 19.7315L4.7297 20.1841L5.475 17.1945C5.97187 17.3282 6.45399 17.4524 6.9256 17.5703L6.1824 20.5473L8.00144 21L8.7541 17.983C11.8574 18.5704 14.1902 18.3335 15.1723 15.5271C15.9639 13.268 15.1334 11.9637 13.5006 11.1142C14.6902 10.8405 15.585 10.0584 15.8239 8.44251ZM11.6658 14.2723C11.1047 16.5324 7.2993 15.3102 6.06555 15.0039L7.0656 10.9984C8.29935 11.3069 12.2543 11.9164 11.6658 14.2723ZM12.229 8.40988C11.7164 10.4658 8.54988 9.42045 7.52352 9.16465L8.42883 5.5329C9.45519 5.7887 12.7638 6.26556 12.229 8.40988Z" fill="white"/>
</svg>
