<svg width="158" height="166" viewBox="0 0 158 166" fill="none" xmlns="http://www.w3.org/2000/svg">
<path d="M18.0424 147.505L17.3637 146.77C15.8366 144.96 14.4226 143.094 13.1218 141.114L12.5562 140.322L14.0833 138.682L14.6489 139.417C15.9498 141.284 17.3637 143.094 18.8343 145.073L19.4564 145.809L18.0424 147.505ZM21.7754 151.069L23.0762 149.089L23.8115 149.655C25.6087 151.165 27.4976 152.563 29.4674 153.84L30.3158 154.349L29.1281 156.498L28.3362 155.989C26.3681 154.669 24.4795 153.233 22.6803 151.691L21.7754 151.069ZM9.84135 136.137L9.3323 135.345C8.20111 133.309 7.1265 131.216 6.16499 129.124L5.76907 128.275L7.46583 126.918L7.80521 127.766C8.76672 129.802 9.78478 131.839 10.9725 133.818L11.425 134.61L9.84135 136.137ZM33.5963 159.156L34.6143 156.838L35.5193 157.29C37.6595 158.363 39.8704 159.289 42.1367 160.061H43.0982L42.3064 162.493L41.3449 162.154C39.0039 161.363 36.7177 160.418 34.5012 159.326L33.5963 159.156ZM3.90261 123.524V122.619C3.16734 120.414 2.5452 118.151 1.97961 115.832V114.927L3.67636 113.909V114.871C4.18599 117.088 4.80897 119.278 5.54283 121.432V122.337L3.90261 123.524ZM47.623 164.247L48.2451 161.815H49.3197C51.803 162.338 54.3148 162.716 56.8421 162.946H57.9168L57.4643 165.491H56.3896C53.7835 165.266 51.1951 164.869 48.6411 164.303L47.623 164.247ZM0.622156 109.837V108.876C0.290998 106.495 0.102141 104.096 0.0565714 101.693V100.731L1.8099 100.109V101.071C1.86285 103.397 2.03277 105.718 2.31895 108.027V108.989L0.622156 109.837ZM63.403 166V163.398H64.5342C67.2391 163.329 69.9386 163.122 72.6222 162.776H73.7534V165.378H72.6222C69.8442 165.726 67.0503 165.933 64.2514 166H63.403ZM0 95.4712V94.4532C0 92.0211 0.452471 89.5891 0.791827 87.1571V86.1956H2.43205V87.2137C2.0927 89.5891 1.8099 91.9646 1.64023 94.3401V95.3016L0 95.4712ZM80.2011 163.964V161.419L81.3323 161.136C84.0849 160.42 86.8563 159.571 89.6466 158.591L90.7777 158.138L91.3433 160.684L90.2121 161.079C87.4147 162.101 84.5637 162.97 81.6717 163.681L80.2011 163.964ZM2.03614 80.8791V79.861C2.60173 77.4855 3.28045 75.0535 4.07228 72.678L4.35509 71.7166H5.93875L5.65593 72.678C4.92066 74.997 4.24196 77.3724 3.67636 79.6913V80.6528L2.03614 80.8791ZM97.2821 158.025L96.4337 155.593L97.6214 155.028C100.336 153.727 103.277 152.256 105.653 150.673L106.784 149.994L107.859 152.313L106.727 152.992C104.013 154.632 101.072 156.159 98.4132 157.516L97.2821 158.025ZM6.50433 66.5697L6.84372 65.6082C7.80522 63.3458 8.82327 61.0269 9.95445 58.7646L10.4069 57.8031L11.8209 58.3121L11.3684 59.217C10.2938 61.4228 9.27575 63.6852 8.3708 65.9476L7.97489 66.909L6.50433 66.5697ZM113.967 148.467L112.666 146.261L113.684 145.469C116.256 143.58 118.729 141.56 121.094 139.417L122.055 138.512L123.639 140.492L122.621 141.397C120.189 143.603 117.643 145.695 115.042 147.675L113.967 148.467ZM13.0087 52.939L13.5177 52.0906C14.762 49.8849 16.1194 47.7356 17.5334 45.6429L18.099 44.7946L19.3433 45.5298L18.7777 46.3782C17.4203 48.4143 16.0629 50.5635 14.8751 52.6562L14.3661 53.5612L13.0087 52.939ZM128.503 135.402L126.749 133.648L127.654 132.63C129.804 130.311 131.896 127.766 133.876 125.221L134.837 123.977L136.874 125.504L135.856 126.748C133.819 129.388 131.67 131.933 129.408 134.384L128.503 135.402ZM21.0401 40.2699L21.7188 39.3649C23.2648 37.4042 24.8484 35.5189 26.4698 33.709L27.1485 32.9172L28.1666 33.9353L27.4878 34.7271C25.9042 36.537 24.3205 38.46 22.85 40.383L22.2278 41.1748L21.0401 40.2699ZM138.853 118.434L139.588 117.303C141.285 114.588 142.869 111.647 144.339 108.932L144.905 107.744L147.224 108.706L146.658 109.894C145.131 112.835 143.491 115.55 141.738 118.547L141.002 119.735L138.853 118.434ZM32.1257 29.9196L31.1642 28.7884L31.8995 28.0532C33.7094 26.2433 35.5758 24.4899 37.5554 22.8497L38.2907 22.171L39.1391 23.4153L38.3473 24.094C36.5374 25.7342 34.7274 27.431 32.9741 29.1843L32.1257 29.9196ZM147.733 101.466L148.242 100.222C149.373 97.2811 150.448 94.5663 151.296 91.3424L151.636 90.0982L154.407 90.1547L154.068 91.399C153.192 94.5057 152.154 97.5641 150.957 100.562L150.504 101.806L147.733 101.466ZM43.1548 20.0784L42.4761 18.7209L43.2679 18.0988C45.304 16.5717 47.3402 15.1012 49.4329 13.7438L50.2812 13.2348L50.8469 14.7053L49.9419 15.2709C47.9623 16.5717 45.9262 17.9857 43.9466 19.4562L43.1548 20.0784ZM153.163 83.4808V82.2365C153.746 79.2457 154.162 76.2245 154.407 73.1871V71.9428H156.952V73.1871C156.669 76.1847 156.273 79.2954 155.708 82.293V83.5373L153.163 83.4808ZM55.3151 11.9905L54.9757 10.4068L55.8241 9.95434C58.0299 8.7666 60.2357 7.63544 62.4981 6.67394L63.403 6.27801V7.97479L62.4981 8.3707C60.2923 9.3322 58.143 10.3502 55.9937 11.538L55.3151 11.9905ZM154.859 65.891V64.7033C154.857 61.8693 154.706 59.0375 154.407 56.2194V55.0883L156.952 54.4096V55.5973C157.304 58.4506 157.512 61.3199 157.574 64.1942V65.382L154.859 65.891ZM68.4368 6.10834V4.29846H69.3983C71.6607 3.50664 74.0362 2.82793 76.3551 2.26234H77.3166V4.07222H76.4117C74.1493 4.63781 71.8304 5.31652 69.568 6.05179L68.4368 6.10834ZM153.276 49.4324V48.3012C152.649 45.751 151.875 43.2393 150.957 40.7789L150.618 39.8174L152.936 38.7428L153.332 39.7608C154.284 42.2726 155.078 44.8416 155.708 47.4528L155.991 48.5274L153.276 49.4324ZM82.3504 2.65825L82.6897 0.79182H83.6512C85.9702 0.509026 88.3457 0.282787 90.7212 0.169669H91.6827L91.1171 2.14922H90.2121C87.8932 2.14922 85.5743 2.43202 83.3119 2.77137L82.3504 2.65825ZM148.185 34.7836L147.676 33.8222C146.567 31.6341 145.32 29.5184 143.943 27.4876L143.378 26.6392L145.471 25.2252L146.036 26.017C147.457 28.1304 148.76 30.3207 149.939 32.5779L150.391 33.4828L148.185 34.7836ZM96.0943 1.97955L96.773 0H97.7345C100.053 0 102.372 0.395908 104.691 0.79182H105.596L104.748 2.71482H103.786C101.581 2.37547 99.2616 2.09267 97.0558 1.97955H96.0943ZM140.211 22.5104L139.532 21.7751C137.988 19.9867 136.326 18.3049 134.555 16.7414L133.876 16.1192L135.629 14.4225L136.365 15.0446C138.178 16.6598 139.896 18.3783 141.511 20.1915L142.134 20.9267L140.211 22.5104ZM109.16 3.9591L110.178 2.0361H111.082C113.345 2.65825 115.551 3.33697 117.757 4.12879L118.661 4.46813L117.474 6.39113L116.569 6.05179C114.42 5.25997 112.214 4.58126 110.064 4.01567L109.16 3.9591ZM129.521 13.0085L128.729 12.4429C126.918 11.1757 125.029 10.0234 123.073 8.99285L122.112 8.54037L123.469 6.61737L124.431 7.1264C126.488 8.17975 128.472 9.37017 130.369 10.6896L131.161 11.1986L129.521 13.0085Z" fill="#2EA8FF"/>
</svg>
