<svg width="64" height="62" viewBox="0 0 64 62" fill="none" xmlns="http://www.w3.org/2000/svg">
<g filter="url(#filter0_d_0_1836)">
<path d="M30.3257 11.9248C30.8636 10.8337 31.1326 10.2881 31.4977 10.1137C31.8155 9.96208 32.1846 9.96208 32.5023 10.1137C32.8674 10.2881 33.1364 10.8337 33.6743 11.9248L38.7781 22.2771C38.9369 22.5992 39.0163 22.7603 39.1324 22.8853C39.2351 22.9961 39.3584 23.0858 39.4952 23.1495C39.6498 23.2215 39.8274 23.2475 40.1824 23.2994L51.5987 24.9701C52.8009 25.1461 53.402 25.234 53.6802 25.528C53.9222 25.7838 54.036 26.1353 53.9899 26.4846C53.937 26.8861 53.5018 27.3105 52.6315 28.1592L44.3736 36.2121C44.1162 36.4632 43.9875 36.5887 43.9045 36.738C43.8309 36.8703 43.7838 37.0155 43.7656 37.1658C43.745 37.3355 43.7754 37.5128 43.8361 37.8674L45.7846 49.2418C45.9901 50.4415 46.0929 51.0413 45.8997 51.3973C45.7317 51.707 45.4331 51.9242 45.087 51.9885C44.6892 52.0623 44.1511 51.779 43.0751 51.2125L32.8691 45.8387C32.5511 45.6712 32.3921 45.5875 32.2246 45.5546C32.0763 45.5255 31.9237 45.5255 31.7754 45.5546C31.6079 45.5875 31.4489 45.6712 31.1309 45.8387L20.9249 51.2125C19.8489 51.779 19.3109 52.0623 18.913 51.9885C18.5669 51.9242 18.2683 51.707 18.1003 51.3973C17.9072 51.0413 18.0099 50.4415 18.2154 49.2418L20.1639 37.8674C20.2246 37.5128 20.255 37.3355 20.2344 37.1658C20.2163 37.0155 20.1691 36.8703 20.0955 36.738C20.0125 36.5887 19.8838 36.4632 19.6264 36.2121L11.3685 28.1592C10.4982 27.3105 10.063 26.8861 10.0101 26.4846C9.96398 26.1353 10.0778 25.7838 10.3198 25.528C10.598 25.234 11.1991 25.1461 12.4013 24.9701L23.8176 23.2994C24.1726 23.2475 24.3502 23.2215 24.5048 23.1495C24.6416 23.0858 24.7649 22.9961 24.8676 22.8853C24.9837 22.7603 25.0631 22.5992 25.2219 22.2771L30.3257 11.9248Z" stroke="#1F51FF" stroke-width="2" stroke-linecap="round" stroke-linejoin="round" shape-rendering="crispEdges"/>
</g>
<defs>
<filter id="filter0_d_0_1836" x="0" y="0" width="64" height="61.9999" filterUnits="userSpaceOnUse" color-interpolation-filters="sRGB">
<feFlood flood-opacity="0" result="BackgroundImageFix"/>
<feColorMatrix in="SourceAlpha" type="matrix" values="0 0 0 0 0 0 0 0 0 0 0 0 0 0 0 0 0 0 127 0" result="hardAlpha"/>
<feOffset/>
<feGaussianBlur stdDeviation="4.5"/>
<feComposite in2="hardAlpha" operator="out"/>
<feColorMatrix type="matrix" values="0 0 0 0 0.121569 0 0 0 0 0.317647 0 0 0 0 1 0 0 0 0.6 0"/>
<feBlend mode="normal" in2="BackgroundImageFix" result="effect1_dropShadow_0_1836"/>
<feBlend mode="normal" in="SourceGraphic" in2="effect1_dropShadow_0_1836" result="shape"/>
</filter>
</defs>
</svg>
