<svg width="17" height="18" viewBox="0 0 17 18" fill="none" xmlns="http://www.w3.org/2000/svg">
<path d="M5.38326 3.77309C3.83989 3.77309 2.49485 3.73495 1.15236 3.7858C0.193797 3.8214 -0.164705 3.51374 0.0692143 2.5145C0.776058 -0.478147 0.323475 0.0557895 3.12034 0.0252782C7.09951 -0.0230312 11.0787 0.0100226 15.0579 0.0252782C16.7029 0.0252782 16.6928 0.0837587 16.4766 1.66272C16.1486 4.03751 16.1868 3.73748 13.9569 3.77562C13.7027 3.77562 13.4484 3.77562 13.1941 3.77562C9.76416 3.8519 10.5447 3.28744 9.81756 6.57248C9.05478 10.0355 8.39115 13.5189 7.73007 16.9972C7.59023 17.7345 7.23682 18.0142 6.5376 17.9989C5.60446 17.9837 4.67387 17.9659 3.74073 17.9989C2.94744 18.0244 2.67538 17.7142 2.84065 16.9234C3.65089 13.0841 4.44588 9.24138 5.22562 5.39527C5.30952 4.95794 5.31206 4.49265 5.38326 3.77309Z" fill="#1F51FF"/>
</svg>
