<svg width="43" height="35" viewBox="0 0 43 35" fill="none" xmlns="http://www.w3.org/2000/svg">
<path d="M15.35 25.75L21.5 19.5625M21.5 19.5625L27.65 25.75M21.5 19.5625V34M42 11.3125H1M8.175 29.875H7.56C5.26378 29.875 4.11568 29.875 3.23864 29.4254C2.46717 29.0299 1.83995 28.3989 1.44687 27.6227C1 26.7403 1 25.5852 1 23.275V7.6C1 5.28978 1 4.13468 1.44687 3.25229C1.83995 2.47612 2.46718 1.84508 3.23864 1.4496C4.11568 1 5.26379 1 7.56 1H35.44C37.7362 1 38.8843 1 39.7614 1.4496C40.5328 1.84508 41.16 2.47612 41.5531 3.25229C42 4.13468 42 5.28979 42 7.6V23.275C42 25.5852 42 26.7403 41.5531 27.6227C41.16 28.3989 40.5328 29.0299 39.7614 29.4254C38.8843 29.875 37.7362 29.875 35.44 29.875H34.825" stroke="#143C7C" stroke-width="2" stroke-linecap="round" stroke-linejoin="round"/>
</svg>
