<svg width="30" height="38" viewBox="0 0 30 38" fill="none" xmlns="http://www.w3.org/2000/svg">
<path d="M6 10.8025C6 7.5434 6 5.91386 6.93726 4.90139C7.87452 3.88892 9.38301 3.88892 12.4 3.88892H15.6C18.617 3.88892 20.1255 3.88892 21.0627 4.90139C22 5.91386 22 7.5434 22 10.8025V28.0864C22 31.3455 22 32.9751 21.0627 33.9876C20.1255 35 18.617 35 15.6 35H12.4C9.38301 35 7.87452 35 6.93726 33.9876C6 32.9751 6 31.3455 6 28.0864V10.8025Z" stroke="#143C7C" stroke-width="2" stroke-linecap="round" stroke-linejoin="round"/>
<path d="M6 28L21 28" stroke="#143C7C" stroke-width="2" stroke-linecap="round" stroke-linejoin="round"/>
<path d="M13.254 22.4464C13.2484 22.3632 13.2484 22.2798 13.254 22.1966C13.3165 21.7184 13.1778 21.4605 12.7104 21.2441C11.6917 20.7739 11.1481 19.8548 11.0193 18.6766C10.9518 18.0635 11.218 17.6574 11.6805 17.6079C12.1429 17.5585 12.4391 17.8871 12.5091 18.519C12.6091 19.426 13.2865 20.0539 14.1027 19.9951C14.48 19.9661 14.8332 19.7858 15.0914 19.4903C15.3496 19.1947 15.4938 18.8058 15.495 18.4014C15.495 17.5291 14.8701 16.8545 14.0102 16.7984C12.4204 16.6995 11.3068 15.6816 11.0431 14.0853C10.8031 12.6319 11.5818 11.2452 12.9803 10.5893C13.0501 10.5438 13.1095 10.4823 13.1545 10.4093C13.1994 10.3364 13.2287 10.2537 13.2403 10.1672C13.2753 9.73839 13.2403 9.30291 13.2553 8.87009C13.2678 8.35178 13.5565 8.01514 13.9789 8.00044C14.4014 7.98575 14.7288 8.33708 14.7463 8.8741C14.7576 9.27485 14.7676 9.67561 14.7463 10.0764C14.7276 10.389 14.8251 10.5265 15.1075 10.6521C16.2449 11.1531 16.8823 12.0895 16.9748 13.3986C16.9783 13.5505 16.9534 13.7016 16.9017 13.8431C16.85 13.9846 16.7725 14.1137 16.6736 14.2229C16.2162 14.665 15.575 14.2776 15.5 13.5549C15.39 12.4796 14.5514 11.7983 13.6477 12.0494C13.2959 12.1422 12.9874 12.3679 12.7792 12.685C12.5711 13.002 12.4774 13.3888 12.5154 13.774C12.5954 14.5755 13.209 15.162 14.0152 15.2007C15.325 15.2635 16.2724 15.9234 16.7773 17.2138C16.9267 17.6002 17.0024 18.0145 16.9999 18.4324C16.9975 18.8504 16.9171 19.2637 16.7633 19.648C16.6095 20.0323 16.3855 20.38 16.1044 20.6706C15.8233 20.9612 15.4908 21.1889 15.1263 21.3403C14.8251 21.4739 14.7238 21.6208 14.7513 21.9521C14.7721 22.3526 14.7721 22.754 14.7513 23.1544C14.7351 23.6647 14.4289 24 14.0014 24C13.574 24 13.2765 23.662 13.2515 23.1531C13.2465 22.9139 13.254 22.6802 13.254 22.4464Z" fill="#143C7C"/>
</svg>
