<svg width="88" height="33" viewBox="0 0 88 33" fill="none" xmlns="http://www.w3.org/2000/svg">
<path d="M0.0127959 31.3335L0.745915 31.3256L1.47903 31.3169L2.21215 31.3074L2.94527 31.2968L3.67839 31.2851L4.41151 31.2722L5.14463 31.2579L5.87775 31.2422L6.61087 31.2249L7.34399 31.2057L8.07711 31.1845L8.81023 31.1612L9.54335 31.1354L10.2765 31.107L11.0096 31.0757L11.7427 31.0411L12.4758 31.003L13.2089 30.961L13.9421 30.9147L14.6752 30.8637L15.4083 30.8076L16.1414 30.7458L16.8745 30.6778L17.6077 30.603L18.3408 30.5208L19.0739 30.4305L19.807 30.3313L20.5401 30.2225L21.2733 30.1031L22.0064 29.9724L22.7395 29.8292L23.4726 29.6727L24.2057 29.5016L24.9388 29.315L25.672 29.1115L26.4051 28.89L27.1382 28.6493L27.8713 28.3881L28.6044 28.1051L29.3376 27.7991L30.0707 27.4689L30.8038 27.1134L31.5369 26.7314L32.27 26.3222L33.0032 25.8849L33.7363 25.4189L34.4694 24.9239L35.2025 24.3997L35.9356 23.8467L36.6688 23.2653L37.4019 22.6565L38.135 22.0214L38.8681 21.3617L39.6012 20.6795L40.3344 19.9772L41.0675 19.2574L41.8006 18.5233L42.5337 17.7782L43.2668 17.0257L43.9999 16.2694L44.7331 15.5131L45.4662 14.7605L46.1993 14.0154L46.9324 13.2813L47.6655 12.5616L48.3987 11.8592L49.1318 11.177L49.8649 10.5173L50.598 9.88226L51.3311 9.2734L52.0643 8.69202L52.7974 8.139L53.5305 7.61488L54.2636 7.11987L54.9967 6.65388L55.7299 6.21654L56.463 5.8073L57.1961 5.42537L57.9292 5.06982L58.6623 4.73963L59.3954 4.43364L60.1286 4.15065L60.8617 3.88942L61.5948 3.64871L62.3279 3.42724L63.061 3.22378L63.7942 3.03711L64.5273 2.86607L65.2604 2.70951L65.9935 2.56637L66.7266 2.43561L67.4598 2.31627L68.1929 2.20743L68.926 2.10825L69.6591 2.01792L70.3922 1.93571L71.1254 1.86093L71.8585 1.79293L72.5916 1.73113L73.3247 1.675L74.0578 1.62402L74.7909 1.57774L75.5241 1.53574L76.2572 1.49764L76.9903 1.46307L77.7234 1.43173L78.4565 1.40332L79.1897 1.37756L79.9228 1.35421L80.6559 1.33306L81.389 1.31389L82.1221 1.29653L82.8553 1.2808L83.5884 1.26655L84.3215 1.25365L85.0546 1.24196L85.7877 1.23138L86.5209 1.2218L87.254 1.21313L87.9871 1.20528" stroke="#1F51FF" stroke-width="2.3913"/>
</svg>
