<svg width="133" height="149" viewBox="0 0 133 149" fill="none" xmlns="http://www.w3.org/2000/svg">
<g style="mix-blend-mode:lighten">
<mask id="mask0_672_17105" style="mask-type:luminance" maskUnits="userSpaceOnUse" x="14" y="2" width="117" height="99">
<path d="M99.123 2.56632L130.496 78.5142L45.406 100.238L14.0335 24.2899L99.123 2.56632ZM45.5189 100.068L130.157 78.4013L99.0101 2.73558L14.3721 24.4027L45.5189 100.068Z" fill="white"/>
</mask>
<g mask="url(#mask0_672_17105)">
<path d="M99.123 2.56632L130.496 78.5142L45.406 100.238L14.0335 24.2899L99.123 2.56632ZM45.5189 100.068L130.157 78.4013L99.0101 2.73558L14.3721 24.4027L45.5189 100.068Z" stroke="#089CFF" stroke-width="0.01" stroke-miterlimit="10"/>
</g>
<path d="M99.123 2.56632L130.496 78.5142L45.406 100.238L14.0335 24.2899L99.123 2.56632ZM45.5189 100.068L130.157 78.4013L99.0101 2.73558L14.3721 24.4027L45.5189 100.068Z" stroke="#089CFF" stroke-width="0.03" stroke-miterlimit="10"/>
<mask id="mask1_672_17105" style="mask-type:luminance" maskUnits="userSpaceOnUse" x="2" y="48" width="117" height="99">
<path d="M87.5556 48.4962L118.928 124.726L33.8387 146.168L2.5226 70.2198L87.5556 48.4962ZM33.9515 145.998L118.59 124.331L87.4992 48.6655L2.86113 70.3326L34.1208 145.998" fill="white"/>
</mask>
<g mask="url(#mask1_672_17105)">
<path d="M33.9515 145.998L118.59 124.331L87.4992 48.6655L2.86113 70.3326L34.1208 145.998M87.5557 48.4962L118.928 124.726L33.8387 146.168L2.5226 70.2198L87.5557 48.4962Z" stroke="#089CFF" stroke-width="0.01" stroke-miterlimit="10"/>
</g>
<path d="M33.9515 145.998L118.59 124.331L87.4992 48.6655L2.86113 70.3326L34.1208 145.998M87.5557 48.4962L118.928 124.726L33.8387 146.168L2.5226 70.2198L87.5557 48.4962Z" stroke="#089CFF" stroke-width="0.03" stroke-miterlimit="10"/>
<mask id="mask2_672_17105" style="mask-type:luminance" maskUnits="userSpaceOnUse" x="87" y="2" width="44" height="123">
<path d="M87.5562 48.4962L99.1234 2.56632L130.496 78.5142L118.929 124.444L87.5562 48.4962Z" fill="white"/>
</mask>
<g mask="url(#mask2_672_17105)">
<path d="M87.5562 48.4962L99.1234 2.56632L130.496 78.5142L118.929 124.444L87.5562 48.4962Z" stroke="#089CFF" stroke-width="0.01" stroke-miterlimit="10"/>
</g>
<path d="M87.5562 48.4962L99.1234 2.56632L130.496 78.5142L118.929 124.444L87.5562 48.4962Z" stroke="#089CFF" stroke-width="0.03" stroke-miterlimit="10"/>
<mask id="mask3_672_17105" style="mask-type:luminance" maskUnits="userSpaceOnUse" x="33" y="78" width="98" height="69">
<path d="M118.929 124.444L33.8391 146.168L45.4063 100.238L130.496 78.5143L118.929 124.444Z" fill="white"/>
</mask>
<g mask="url(#mask3_672_17105)">
<path d="M118.929 124.444L33.8391 146.168L45.4063 100.238L130.496 78.5143L118.929 124.444Z" stroke="#089CFF" stroke-width="0.01" stroke-miterlimit="10"/>
</g>
<path d="M118.929 124.444L33.8391 146.168L45.4063 100.238L130.496 78.5143L118.929 124.444Z" stroke="#089CFF" stroke-width="0.03" stroke-miterlimit="10"/>
<mask id="mask4_672_17105" style="mask-type:luminance" maskUnits="userSpaceOnUse" x="2" y="24" width="44" height="123">
<path d="M33.8387 146.168L2.5226 70.2198L14.0334 24.29L45.4059 100.238L33.8387 146.168Z" fill="white"/>
</mask>
<g mask="url(#mask4_672_17105)">
<path d="M33.8387 146.168L2.5226 70.2198L14.0334 24.29L45.4059 100.238L33.8387 146.168Z" stroke="#089CFF" stroke-width="0.01" stroke-miterlimit="10"/>
</g>
<path d="M33.8387 146.168L2.5226 70.2198L14.0334 24.29L45.4059 100.238L33.8387 146.168Z" stroke="#089CFF" stroke-width="0.03" stroke-miterlimit="10"/>
<mask id="mask5_672_17105" style="mask-type:luminance" maskUnits="userSpaceOnUse" x="2" y="2" width="98" height="69">
<path d="M2.5226 70.2197L14.0334 24.2899L99.1229 2.56632L87.5556 48.4962L2.5226 70.2197Z" fill="white"/>
</mask>
<g mask="url(#mask5_672_17105)">
<path d="M2.5226 70.2197L14.0334 24.2899L99.1229 2.56632L87.5557 48.4962L2.5226 70.2197Z" stroke="#089CFF" stroke-width="0.01" stroke-miterlimit="10"/>
</g>
<path d="M2.5226 70.2197L14.0334 24.2899L99.1229 2.56632L87.5557 48.4962L2.5226 70.2197Z" stroke="#089CFF" stroke-width="0.03" stroke-miterlimit="10"/>
<mask id="mask6_672_17105" style="mask-type:luminance" maskUnits="userSpaceOnUse" x="33" y="78" width="98" height="68">
<path d="M33.9525 145.998L45.4632 100.069L130.271 78.4015L118.76 124.331L33.9525 145.998Z" fill="white"/>
</mask>
<g mask="url(#mask6_672_17105)">
<path d="M33.9525 145.998L45.4632 100.069L130.271 78.4015L118.76 124.331L33.9525 145.998Z" stroke="#089CFF" stroke-width="0.01" stroke-miterlimit="10"/>
</g>
<path d="M33.9525 145.998L45.4632 100.069L130.271 78.4015L118.76 124.331L33.9525 145.998Z" stroke="#089CFF" stroke-width="0.03" stroke-miterlimit="10"/>
<mask id="mask7_672_17105" style="mask-type:luminance" maskUnits="userSpaceOnUse" x="87" y="2" width="44" height="123">
<path d="M118.759 124.331L87.4995 48.6654L99.0103 2.73558L130.27 78.4013L118.759 124.331Z" fill="white"/>
</mask>
<g mask="url(#mask7_672_17105)">
<path d="M118.759 124.331L87.4995 48.6654L99.0103 2.73558L130.27 78.4013L118.759 124.331Z" stroke="#089CFF" stroke-width="0.01" stroke-miterlimit="10"/>
</g>
<path d="M118.759 124.331L87.4995 48.6654L99.0103 2.73558L130.27 78.4013L118.759 124.331Z" stroke="#089CFF" stroke-width="0.03" stroke-miterlimit="10"/>
<mask id="mask8_672_17105" style="mask-type:luminance" maskUnits="userSpaceOnUse" x="2" y="2" width="98" height="69">
<path d="M87.4999 48.6654L2.69259 70.3326L14.2598 24.4027L99.0107 2.73558L87.4999 48.6654Z" fill="white"/>
</mask>
<g mask="url(#mask8_672_17105)">
<path d="M87.4999 48.6654L2.69259 70.3326L14.2598 24.4027L99.0107 2.73558L87.4999 48.6654Z" stroke="#089CFF" stroke-width="0.01" stroke-miterlimit="10"/>
</g>
<path d="M87.4999 48.6654L2.69259 70.3326L14.2598 24.4027L99.0107 2.73558L87.4999 48.6654Z" stroke="#089CFF" stroke-width="0.03" stroke-miterlimit="10"/>
<mask id="mask9_672_17105" style="mask-type:luminance" maskUnits="userSpaceOnUse" x="2" y="24" width="44" height="122">
<path d="M2.69259 70.3327L14.2598 24.4028L45.463 100.069L33.9523 145.998L2.69259 70.3327Z" fill="white"/>
</mask>
<g mask="url(#mask9_672_17105)">
<path d="M2.69259 70.3327L14.2598 24.4028L45.463 100.069L33.9523 145.998L2.69259 70.3327Z" stroke="#089CFF" stroke-width="0.01" stroke-miterlimit="10"/>
</g>
<path d="M2.69259 70.3327L14.2598 24.4028L45.463 100.069L33.9523 145.998L2.69259 70.3327Z" stroke="#089CFF" stroke-width="0.03" stroke-miterlimit="10"/>
<path style="mix-blend-mode:screen" d="M89.1356 50.8661C88.9059 51.1402 88.6245 51.3665 88.3073 51.5318C87.9902 51.6972 87.6436 51.7985 87.2873 51.83C86.931 51.8614 86.572 51.8224 86.2308 51.7151C85.8896 51.6078 85.5729 51.4343 85.2987 51.2046C85.0245 50.9749 84.7983 50.6934 84.6329 50.3763C84.4675 50.0592 84.3662 49.7126 84.3348 49.3563C84.3034 49 84.3424 48.641 84.4497 48.2998C84.557 47.9586 84.7305 47.6419 84.9602 47.3677C85.4241 46.814 86.089 46.4673 86.8085 46.4038C87.5281 46.3403 88.2434 46.5653 88.7971 47.0292C89.3508 47.4931 89.6975 48.1579 89.761 48.8775C89.8245 49.5971 89.5996 50.3124 89.1356 50.8661Z" fill="url(#paint0_radial_672_17105)"/>
<path style="mix-blend-mode:screen" d="M16.2892 26.152C16.0688 26.4507 15.7893 26.701 15.4681 26.8871C15.1468 27.0733 14.7908 27.1914 14.422 27.2342C14.0532 27.277 13.6796 27.2435 13.3243 27.1358C12.969 27.0281 12.6396 26.8485 12.3566 26.6082C12.0737 26.3678 11.8431 26.0719 11.6793 25.7387C11.5155 25.4056 11.422 25.0423 11.4045 24.6714C11.387 24.3006 11.4459 23.9301 11.5777 23.583C11.7094 23.2359 11.911 22.9196 12.1701 22.6537C12.3906 22.3549 12.6701 22.1047 12.9913 21.9186C13.3125 21.7324 13.6686 21.6143 14.0374 21.5715C14.4061 21.5287 14.7798 21.5622 15.1351 21.6699C15.4904 21.7776 15.8198 21.9572 16.1027 22.1975C16.3857 22.4378 16.6162 22.7338 16.78 23.067C16.9438 23.4001 17.0374 23.7634 17.0548 24.1343C17.0723 24.5051 17.0134 24.8756 16.8817 25.2227C16.75 25.5698 16.5483 25.8861 16.2892 26.152Z" fill="url(#paint1_radial_672_17105)"/>
<path style="mix-blend-mode:screen" d="M101.097 4.48483C100.627 5.02916 99.9639 5.36897 99.2475 5.43218C98.5312 5.49539 97.8184 5.27701 97.2604 4.82337C96.726 4.34418 96.3988 3.6759 96.3482 2.95986C96.2975 2.24382 96.5274 1.53616 96.9891 0.986516C97.4508 0.436872 98.1082 0.088342 98.8222 0.0146256C99.5362 -0.0590909 100.251 0.147787 100.815 0.591511C101.368 1.07106 101.708 1.75011 101.761 2.47988C101.814 3.20964 101.575 3.93062 101.097 4.48483Z" fill="url(#paint2_radial_672_17105)"/>
<path style="mix-blend-mode:screen" d="M132.358 80.1505C132.013 80.5582 131.554 80.8545 131.041 81.0023C130.527 81.15 129.981 81.1425 129.472 80.9808C128.963 80.819 128.513 80.5102 128.179 80.0933C127.844 79.6763 127.641 79.1698 127.594 78.6375C127.547 78.1052 127.659 77.5709 127.915 77.1019C128.171 76.6328 128.56 76.25 129.033 76.0015C129.506 75.7531 130.042 75.6502 130.573 75.7057C131.105 75.7613 131.608 75.9728 132.02 76.3136C132.296 76.5421 132.523 76.8231 132.69 77.1403C132.856 77.4575 132.958 77.8045 132.99 78.1614C133.021 78.5183 132.982 78.8778 132.873 79.2193C132.765 79.5607 132.59 79.8772 132.358 80.1505Z" fill="url(#paint3_radial_672_17105)"/>
<path style="mix-blend-mode:screen" d="M47.4923 102.156C47.0224 102.701 46.3588 103.04 45.6425 103.104C44.9261 103.167 44.2134 102.948 43.6554 102.495C43.1017 102.031 42.755 101.366 42.6915 100.646C42.628 99.9269 42.8529 99.2116 43.3168 98.6579C43.7807 98.1042 44.4456 97.7575 45.1652 97.694C45.8847 97.6305 46.6001 97.8554 47.1538 98.3193C47.6981 98.7893 48.0379 99.4528 48.1011 100.169C48.1643 100.885 47.9459 101.598 47.4923 102.156Z" fill="url(#paint4_radial_672_17105)"/>
<path style="mix-blend-mode:screen" d="M36.038 147.747C35.5741 148.301 34.9092 148.648 34.1897 148.711C33.4701 148.775 32.7548 148.55 32.2011 148.086C31.6474 147.622 31.3007 146.957 31.2372 146.238C31.1737 145.518 31.3987 144.803 31.8626 144.249C32.0923 143.975 32.3737 143.749 32.6908 143.583C33.008 143.418 33.3546 143.317 33.7109 143.285C34.0672 143.254 34.4262 143.293 34.7674 143.4C35.1086 143.507 35.4253 143.681 35.6995 143.91C35.9737 144.14 36.1999 144.422 36.3653 144.739C36.5306 145.056 36.632 145.403 36.6634 145.759C36.6948 146.115 36.6558 146.474 36.5485 146.815C36.4412 147.156 36.2677 147.473 36.038 147.747Z" fill="url(#paint5_radial_672_17105)"/>
<path style="mix-blend-mode:screen" d="M4.55347 71.969C4.32495 72.2449 4.04398 72.4727 3.7268 72.6392C3.40962 72.8058 3.06254 72.9078 2.70568 72.9392C2.34882 72.9707 1.98927 72.9311 1.64783 72.8227C1.30639 72.7142 0.989847 72.5391 0.716546 72.3075C0.265392 71.8099 0.0108193 71.1652 0.000337044 70.4936C-0.0101452 69.822 0.224187 69.1695 0.659592 68.6581C1.095 68.1467 1.70167 67.8113 2.36632 67.7145C3.03097 67.6176 3.70813 67.7661 4.27133 68.1321C4.54317 68.3646 4.76628 68.6486 4.92774 68.9678C5.08921 69.287 5.18585 69.635 5.21208 69.9917C5.23831 70.3485 5.19361 70.7069 5.08057 71.0462C4.96753 71.3856 4.78838 71.6992 4.55347 71.969Z" fill="url(#paint6_radial_672_17105)"/>
</g>
<defs>
<radialGradient id="paint0_radial_672_17105" cx="0" cy="0" r="1" gradientUnits="userSpaceOnUse" gradientTransform="translate(71.4068 49.3499) rotate(40.539) scale(2.70854 2.70854)">
<stop offset="0.33" stop-color="white"/>
<stop offset="0.43" stop-color="#2DBEFF"/>
<stop offset="1"/>
</radialGradient>
<radialGradient id="paint1_radial_672_17105" cx="0" cy="0" r="1" gradientUnits="userSpaceOnUse" gradientTransform="translate(-1.3025 24.3656) rotate(40.5389) scale(2.70854 2.70854)">
<stop offset="0.33" stop-color="white"/>
<stop offset="0.43" stop-color="#2DBEFF"/>
<stop offset="1"/>
</radialGradient>
<radialGradient id="paint2_radial_672_17105" cx="0" cy="0" r="1" gradientUnits="userSpaceOnUse" gradientTransform="translate(83.5174 2.98054) rotate(40.5388) scale(2.70855 2.70854)">
<stop offset="0.33" stop-color="white"/>
<stop offset="0.43" stop-color="#2DBEFF"/>
<stop offset="1"/>
</radialGradient>
<radialGradient id="paint3_radial_672_17105" cx="0" cy="0" r="1" gradientUnits="userSpaceOnUse" gradientTransform="translate(114.528 78.8037) rotate(40.5389) scale(2.70854 2.70854)">
<stop offset="0.33" stop-color="white"/>
<stop offset="0.43" stop-color="#2DBEFF"/>
<stop offset="1"/>
</radialGradient>
<radialGradient id="paint4_radial_672_17105" cx="0" cy="0" r="1" gradientUnits="userSpaceOnUse" gradientTransform="translate(29.5965 100.317) rotate(40.539) scale(2.70854 2.70853)">
<stop offset="0.33" stop-color="white"/>
<stop offset="0.43" stop-color="#2DBEFF"/>
<stop offset="1"/>
</radialGradient>
<radialGradient id="paint5_radial_672_17105" cx="0" cy="0" r="1" gradientUnits="userSpaceOnUse" gradientTransform="translate(17.956 146.05) rotate(40.539) scale(2.70854 2.70854)">
<stop offset="0.33" stop-color="white"/>
<stop offset="0.43" stop-color="#2DBEFF"/>
<stop offset="1"/>
</radialGradient>
<radialGradient id="paint6_radial_672_17105" cx="0" cy="0" r="1" gradientUnits="userSpaceOnUse" gradientTransform="translate(-13.2177 70.1594) rotate(40.5389) scale(2.70854 2.70854)">
<stop offset="0.33" stop-color="white"/>
<stop offset="0.43" stop-color="#2DBEFF"/>
<stop offset="1"/>
</radialGradient>
</defs>
</svg>
