<svg width="21" height="19" viewBox="0 0 21 19" fill="none" xmlns="http://www.w3.org/2000/svg">
<path d="M20.5268 8.2021C20.7588 13.7902 16.3847 18.3524 10.7039 18.9143C7.67268 19.2159 4.91215 18.7674 2.53051 16.7569C0.682416 15.2104 -0.0831137 13.0608 0.00709996 10.7925C0.264853 4.31519 4.69305 0.180823 10.6703 0.00812861C12.4256 -0.043422 14.3356 0.14216 15.9388 0.796853C19.1865 2.1217 20.8026 4.72501 20.5268 8.2021ZM11.0802 3.94917C7.29121 3.94917 4.22652 7.80259 5.05391 11.5297C5.52302 13.6407 6.9587 14.8418 9.12641 14.9449C12.7659 15.115 14.882 13.2231 15.5058 9.23827C16.0084 6.03182 14.2686 3.95432 11.0802 3.94917Z" fill="#1F51FF"/>
</svg>
