<svg width="28" height="27" viewBox="0 0 28 27" fill="none" xmlns="http://www.w3.org/2000/svg">
<path fill-rule="evenodd" clip-rule="evenodd" d="M0 4.21875C0 1.8888 1.95875 0 4.375 0H23.625C26.0412 0 28 1.8888 28 4.21875V22.7812C28 25.1112 26.0412 27 23.625 27H4.375C1.95875 27 0 25.1112 0 22.7812V4.21875ZM19.3375 9.70312C19.95 9.61875 20.475 9.53438 21 9.28125C20.65 9.87187 20.125 10.3781 19.5125 10.7156C19.6875 14.6812 16.7125 18.9844 11.375 18.9844C9.8 18.9844 8.3125 18.4781 7 17.7188C8.4875 17.8875 10.0625 17.4656 11.1125 16.7062C9.8 16.7062 8.75 15.8625 8.4 14.7656C8.8375 14.85 9.275 14.7656 9.7125 14.6812C8.4 14.3438 7.4375 13.1625 7.4375 11.8969C7.875 12.0656 8.3125 12.2344 8.75 12.2344C7.525 11.3906 7.0875 9.7875 7.875 8.52188C9.3625 10.2094 11.4625 11.3062 13.825 11.3906C13.3875 9.70312 14.7875 8.01562 16.625 8.01562C17.4125 8.01562 18.2 8.35312 18.725 8.85938C19.425 8.69063 20.0375 8.52187 20.5625 8.18437C20.3875 8.85938 19.95 9.36563 19.3375 9.70312Z" fill="#1F51FF"/>
</svg>
