<svg width="18" height="20" viewBox="0 0 18 20" fill="none" xmlns="http://www.w3.org/2000/svg">
<path d="M8.99936 13.3032L8.57911 13.7129L8.99936 14.144L9.41961 13.7129L8.99936 13.3032ZM9.5863 3.9121C9.5863 3.58794 9.32352 3.32515 8.99936 3.32515C8.6752 3.32515 8.41242 3.58794 8.41242 3.9121L9.5863 3.9121ZM3.49227 8.49566L8.57911 13.7129L9.41961 12.8934L4.33278 7.67617L3.49227 8.49566ZM9.41961 13.7129L14.5064 8.49566L13.6659 7.67617L8.57911 12.8934L9.41961 13.7129ZM9.5863 13.3032L9.5863 3.9121L8.41242 3.9121L8.41242 13.3032L9.5863 13.3032Z" fill="white"/>
<path d="M1.56461 15.6511L1.56461 16.6945C1.56461 17.8471 2.51564 18.7815 3.68878 18.7815L14.3097 18.7815C15.4828 18.7815 16.4338 17.8471 16.4338 16.6945V15.6511" stroke="white" stroke-width="1.15179"/>
</svg>
