<svg width="93" height="105" viewBox="0 0 93 105" fill="none" xmlns="http://www.w3.org/2000/svg">
<path d="M73.0662 63.1354C77.3798 61.752 81.1496 59.0481 83.8428 55.4057L85.1969 53.6566C92.7574 43.8393 93.0959 29.4519 84.6327 23.979L83.1657 23.0199L92.701 10.6072V8.06824L73.0098 18.9011L68.7217 16.08L79.2162 2.42612V0L60.3149 10.6636L39.1567 9.64803V11.9613L47.5636 17.6034L15.6852 59.1859L0.338517 60.1451L0 62.5712L12.0743 73.8554L2.42614 84.2933L2.08762 86.8887L9.25317 93.8285L19.4091 80.5695L23.1894 84.0112L12.9206 94.9005L12.6385 97.6088L20.199 105L30.6935 91.2896L34.6994 94.957C43.2755 102.8 57.2681 100.261 66.1828 88.9763L67.7626 86.9451C70.4633 83.6768 72.3518 79.8155 73.2736 75.6771C74.1954 71.5388 74.1244 67.241 73.0662 63.1354ZM59.9763 46.209L50.7796 39.382L61.3305 25.7281L70.7529 32.2165C71.5511 32.7762 72.2035 33.5191 72.6551 34.3831C73.1067 35.247 73.3444 36.2067 73.3483 37.1816C73.4217 39.4421 72.7033 41.6573 71.3171 43.4444C70.17 45.3015 68.3497 46.6437 66.2364 47.1904C64.123 47.7371 61.8802 47.4462 59.9763 46.3783V46.209ZM41.5829 51.3998L52.4158 59.9194C53.4549 60.7904 54.2912 61.8779 54.8662 63.1059C55.4412 64.3338 55.741 65.6726 55.7447 67.0285C55.7667 70.1542 54.7329 73.1959 52.8108 75.6609C52.0614 76.8709 51.0738 77.9158 49.908 78.7321C48.7421 79.5484 47.4224 80.119 46.0291 80.4093C44.6358 80.6995 43.198 80.7034 41.8032 80.4206C40.4083 80.1377 39.0856 79.5741 37.9154 78.7641L27.7595 69.9624L41.5829 51.3998Z" fill="#053151"/>
</svg>
