<svg width="27" height="27" viewBox="0 0 27 27" fill="none" xmlns="http://www.w3.org/2000/svg">
<circle cx="10.5" cy="8.5" r="2.75" stroke="white" stroke-width="1.5" stroke-linecap="round"/>
<path d="M15.0184 9.67712C15.295 9.27786 15.7772 8.95332 16.387 8.81716C16.9963 8.68111 17.6425 8.75468 18.1748 9.01078C18.7064 9.26651 19.0497 9.66539 19.1838 10.0825C19.3151 10.4911 19.2525 10.9319 18.9816 11.3229C18.705 11.7221 18.2228 12.0467 17.613 12.1828C17.0037 12.3189 16.3575 12.2453 15.8252 11.9892C15.2936 11.7335 14.9503 11.3346 14.8162 10.9175C14.6849 10.5089 14.7475 10.0681 15.0184 9.67712L15.0184 9.67712Z" stroke="white" stroke-width="1.5"/>
<path d="M16.8166 19.5064L16.0745 19.6147L16.8166 19.5064ZM15.9039 19.7498H5.48455V21.2498H15.9039V19.7498ZM5.31401 19.6147C5.44311 18.7293 5.76985 17.4263 6.56936 16.3602C7.34087 15.3315 8.58423 14.4756 10.6942 14.4756V12.9756C8.09328 12.9756 6.41266 14.0691 5.36933 15.4603C4.35399 16.8141 3.97502 18.4016 3.8297 19.3982L5.31401 19.6147ZM10.6942 14.4756C12.8042 14.4756 14.0476 15.3315 14.8191 16.3602C15.6186 17.4263 15.9453 18.7293 16.0745 19.6147L17.5588 19.3982C17.4134 18.4016 17.0345 16.8141 16.0191 15.4603C14.9758 14.0691 13.2952 12.9756 10.6942 12.9756V14.4756ZM5.48455 19.7498C5.41166 19.7498 5.36263 19.7209 5.33787 19.6946C5.32576 19.6817 5.31948 19.6697 5.3163 19.6599C5.31344 19.6511 5.31071 19.6373 5.31401 19.6147L3.8297 19.3982C3.67513 20.4583 4.53895 21.2498 5.48455 21.2498V19.7498ZM15.9039 21.2498C16.8495 21.2498 17.7133 20.4583 17.5588 19.3982L16.0745 19.6147C16.0778 19.6373 16.075 19.6511 16.0722 19.6599C16.069 19.6697 16.0627 19.6817 16.0506 19.6946C16.0258 19.7209 15.9768 19.7498 15.9039 19.7498V21.2498Z" fill="white"/>
<path d="M20.5676 19.4134L19.8377 19.5862L20.5676 19.4134ZM14.3281 15.3982L13.9261 14.765L13.1538 15.2554L13.7861 15.9166L14.3281 15.3982ZM16.1594 19.5068L16.9015 19.3986L16.1594 19.5068ZM19.6589 19.7501H15.2467V21.2501H19.6589V19.7501ZM19.8377 19.5862C19.8441 19.613 19.8421 19.6306 19.8392 19.6423C19.8359 19.6553 19.8289 19.6704 19.8154 19.6861C19.7883 19.7179 19.736 19.7501 19.6589 19.7501V21.2501C20.6745 21.2501 21.5587 20.3442 21.2974 19.2406L19.8377 19.5862ZM16.2478 15.605C17.3642 15.605 18.1427 16.1611 18.7199 16.9588C19.3122 17.7774 19.6532 18.8068 19.8377 19.5862L21.2974 19.2406C21.0936 18.3799 20.6953 17.1301 19.9351 16.0795C19.1598 15.008 17.9726 14.105 16.2478 14.105V15.605ZM14.7301 16.0314C15.1414 15.7703 15.6357 15.605 16.2478 15.605V14.105C15.3443 14.105 14.5721 14.3549 13.9261 14.765L14.7301 16.0314ZM13.7861 15.9166C14.8594 17.0388 15.2682 18.5929 15.4172 19.615L16.9015 19.3986C16.7361 18.264 16.2641 16.3372 14.8701 14.8798L13.7861 15.9166ZM15.4172 19.615C15.4205 19.6377 15.4178 19.6515 15.415 19.6603C15.4118 19.67 15.4055 19.682 15.3934 19.6949C15.3686 19.7213 15.3196 19.7501 15.2467 19.7501V21.2501C16.1923 21.2501 17.0561 20.4587 16.9015 19.3986L15.4172 19.615Z" fill="white"/>
<rect x="20.25" y="5.25" width="4.5" height="0.5" rx="0.25" stroke="white" stroke-width="0.5" stroke-linecap="round"/>
<rect x="22.75" y="3.25" width="5.5" height="0.5" rx="0.25" transform="rotate(90 22.75 3.25)" stroke="white" stroke-width="0.5" stroke-linecap="round"/>
</svg>
