<svg width="37" height="37" viewBox="0 0 37 37" fill="none" xmlns="http://www.w3.org/2000/svg">
<path d="M27.75 4.62501V4.62501C30.3043 4.62501 32.375 6.69569 32.375 9.25001L32.375 12.5536C32.375 13.0687 32.375 13.3262 32.2568 13.5143C32.1952 13.6123 32.1123 13.6952 32.0143 13.7569C31.8262 13.875 31.5687 13.875 31.0536 13.875L23.125 13.875M27.75 4.62501V4.62501C25.1957 4.62501 23.125 6.6957 23.125 9.25001L23.125 13.875M27.75 4.62501L10.7917 4.62501C7.88467 4.62501 6.43117 4.62501 5.52809 5.5281C4.625 6.43119 4.625 7.88469 4.625 10.7917L4.625 32.375L9.25 30.8333L13.875 32.375L18.5 30.8333L23.125 32.375L23.125 13.875" stroke="#1F51FF" stroke-width="2"/>
<path d="M10.791 10.7917L16.9577 10.7917" stroke="#1F51FF" stroke-width="2" stroke-linecap="round"/>
<path d="M12.334 16.9583H10.7923" stroke="#1F51FF" stroke-width="2" stroke-linecap="round"/>
<path d="M10.791 23.125L15.416 23.125" stroke="#1F51FF" stroke-width="2" stroke-linecap="round"/>
</svg>
