<svg width="45" height="45" viewBox="0 0 45 45" fill="none" xmlns="http://www.w3.org/2000/svg">
<path d="M22.5 1.5C25.2578 1.5 27.9885 2.04318 30.5364 3.09853C33.0842 4.15388 35.3992 5.70073 37.3492 7.65076C39.2993 9.60079 40.8461 11.9158 41.9015 14.4637C42.9568 17.0115 43.5 19.7423 43.5 22.5M22.5 1.5V22.5M22.5 1.5C10.902 1.5 1.5 10.902 1.5 22.5C1.5 34.098 10.902 43.5 22.5 43.5C34.098 43.5 43.5 34.098 43.5 22.5M22.5 1.5C34.098 1.5 43.5 10.902 43.5 22.5M43.5 22.5L22.5 22.5M43.5 22.5C43.5 25.814 42.7157 29.081 41.2111 32.0338C39.7066 34.9866 37.5246 37.5414 34.8435 39.4894L22.5 22.5" stroke="white" stroke-width="3" stroke-linecap="round" stroke-linejoin="round"/>
</svg>
