<svg width="62" height="62" viewBox="0 0 62 62" fill="none" xmlns="http://www.w3.org/2000/svg">
<g filter="url(#filter0_d_0_1842)">
<path d="M14.6667 23.962V42.654M25.1667 23.962V42.654M36.8333 23.962V42.654M47.3333 23.962V42.654M10 46.3924L10 48.2616C10 49.5702 10 50.2244 10.2543 50.7242C10.478 51.1639 10.835 51.5213 11.274 51.7453C11.7731 52 12.4265 52 13.7333 52H48.2667C49.5735 52 50.2269 52 50.726 51.7453C51.165 51.5213 51.522 51.1639 51.7457 50.7242C52 50.2244 52 49.5702 52 48.2616V46.3924C52 45.0838 52 44.4296 51.7457 43.9298C51.522 43.4901 51.165 43.1327 50.726 42.9087C50.2269 42.654 49.5735 42.654 48.2667 42.654H13.7333C12.4265 42.654 11.7731 42.654 11.274 42.9087C10.835 43.1327 10.478 43.4901 10.2543 43.9298C10 44.4296 10 45.0838 10 46.3924ZM30.1901 10.1232L12.9235 13.9655C11.8803 14.1976 11.3587 14.3136 10.9694 14.5945C10.626 14.8423 10.3564 15.1789 10.1893 15.5683C10 16.0098 10 16.5448 10 17.6148L10 20.2236C10 21.5322 10 22.1864 10.2543 22.6863C10.478 23.1259 10.835 23.4833 11.274 23.7073C11.7731 23.962 12.4265 23.962 13.7333 23.962H48.2667C49.5735 23.962 50.2269 23.962 50.726 23.7073C51.165 23.4833 51.522 23.1259 51.7457 22.6863C52 22.1864 52 21.5322 52 20.2236V17.6148C52 16.5448 52 16.0098 51.8106 15.5683C51.6436 15.1789 51.374 14.8423 51.0306 14.5945C50.6413 14.3137 50.1197 14.1976 49.0765 13.9655L31.8099 10.1232C31.5076 10.056 31.3565 10.0223 31.2038 10.0089C31.0682 9.99702 30.9318 9.99702 30.7962 10.0089C30.6435 10.0223 30.4924 10.056 30.1901 10.1232Z" stroke="#1F51FF" stroke-width="2" stroke-linecap="round" stroke-linejoin="round" shape-rendering="crispEdges"/>
</g>
<defs>
<filter id="filter0_d_0_1842" x="0" y="0" width="62" height="62" filterUnits="userSpaceOnUse" color-interpolation-filters="sRGB">
<feFlood flood-opacity="0" result="BackgroundImageFix"/>
<feColorMatrix in="SourceAlpha" type="matrix" values="0 0 0 0 0 0 0 0 0 0 0 0 0 0 0 0 0 0 127 0" result="hardAlpha"/>
<feOffset/>
<feGaussianBlur stdDeviation="4.5"/>
<feComposite in2="hardAlpha" operator="out"/>
<feColorMatrix type="matrix" values="0 0 0 0 0.121569 0 0 0 0 0.317647 0 0 0 0 1 0 0 0 0.6 0"/>
<feBlend mode="normal" in2="BackgroundImageFix" result="effect1_dropShadow_0_1842"/>
<feBlend mode="normal" in="SourceGraphic" in2="effect1_dropShadow_0_1842" result="shape"/>
</filter>
</defs>
</svg>
