<svg width="20" height="20" viewBox="0 0 20 20" fill="none" xmlns="http://www.w3.org/2000/svg">
<g clip-path="url(#clip0_688_24315)">
<path d="M19.9895 10.1871C19.9895 9.36767 19.9214 8.76973 19.7742 8.14966H10.1992V11.848H15.8195C15.7062 12.7671 15.0943 14.1512 13.7346 15.0813L13.7155 15.2051L16.7429 17.4969L16.9527 17.5174C18.879 15.7789 19.9895 13.221 19.9895 10.1871Z" fill="#4285F4"/>
<path d="M10.1983 19.9313C12.9517 19.9313 15.2633 19.0454 16.9517 17.5174L13.7336 15.0813C12.8725 15.6682 11.7166 16.0779 10.1983 16.0779C7.50145 16.0779 5.21254 14.3395 4.39661 11.9366L4.27702 11.9466L1.12906 14.3273L1.08789 14.4391C2.76491 17.6945 6.20963 19.9313 10.1983 19.9313Z" fill="#34A853"/>
<path d="M4.39845 11.9367C4.18316 11.3166 4.05857 10.6522 4.05857 9.96571C4.05857 9.27915 4.18316 8.6148 4.38713 7.99472L4.38142 7.86266L1.19402 5.44373L1.08973 5.4922C0.398553 6.84312 0.00195312 8.36014 0.00195312 9.96571C0.00195312 11.5713 0.398553 13.0882 1.08973 14.4391L4.39845 11.9367Z" fill="#FBBC05"/>
<path d="M10.1983 3.85336C12.1132 3.85336 13.405 4.66168 14.1415 5.33717L17.0197 2.59107C15.2521 0.985496 12.9517 0 10.1983 0C6.20963 0 2.76491 2.23672 1.08789 5.49214L4.38529 7.99466C5.21254 5.59183 7.50145 3.85336 10.1983 3.85336Z" fill="#EB4335"/>
</g>
<defs>
<clipPath id="clip0_688_24315">
<rect width="20" height="20" fill="white"/>
</clipPath>
</defs>
</svg>
