<svg width="27" height="27" viewBox="0 0 27 27" fill="none" xmlns="http://www.w3.org/2000/svg">
<circle cx="10.5" cy="8.5" r="2.75" stroke="white" stroke-width="1.5" stroke-linecap="round"/>
<path d="M15.0184 9.67712C15.295 9.27786 15.7772 8.95332 16.387 8.81716C16.9963 8.68111 17.6425 8.75468 18.1748 9.01078C18.7064 9.26651 19.0497 9.66539 19.1838 10.0825C19.3151 10.4911 19.2525 10.9319 18.9816 11.3229C18.705 11.7221 18.2228 12.0467 17.613 12.1828C17.0037 12.3189 16.3575 12.2453 15.8252 11.9892C15.2936 11.7335 14.9503 11.3346 14.8162 10.9175C14.6849 10.5089 14.7475 10.0681 15.0184 9.67712L15.0184 9.67712Z" stroke="white" stroke-width="1.5"/>
<path d="M16.8166 19.5064L16.0745 19.6147L16.8166 19.5064ZM15.9039 19.7498H5.48455V21.2498H15.9039V19.7498ZM5.31401 19.6147C5.44311 18.7293 5.76985 17.4263 6.56936 16.3602C7.34087 15.3315 8.58423 14.4756 10.6942 14.4756V12.9756C8.09328 12.9756 6.41266 14.0691 5.36933 15.4603C4.35399 16.8141 3.97502 18.4016 3.8297 19.3982L5.31401 19.6147ZM10.6942 14.4756C12.8042 14.4756 14.0476 15.3315 14.8191 16.3602C15.6186 17.4263 15.9453 18.7293 16.0745 19.6147L17.5588 19.3982C17.4134 18.4016 17.0345 16.8141 16.0191 15.4603C14.9758 14.0691 13.2952 12.9756 10.6942 12.9756V14.4756ZM5.48455 19.7498C5.41166 19.7498 5.36263 19.7209 5.33787 19.6946C5.32576 19.6817 5.31948 19.6697 5.3163 19.6599C5.31344 19.6511 5.31071 19.6373 5.31401 19.6147L3.8297 19.3982C3.67513 20.4583 4.53895 21.2498 5.48455 21.2498V19.7498ZM15.9039 21.2498C16.8495 21.2498 17.7133 20.4583 17.5588 19.3982L16.0745 19.6147C16.0778 19.6373 16.075 19.6511 16.0722 19.6599C16.069 19.6697 16.0627 19.6817 16.0506 19.6946C16.0258 19.7209 15.9768 19.7498 15.9039 19.7498V21.2498Z" fill="white"/>
<path d="M15.2629 20.5006L15.2511 19.7507L15.2629 21.2506V20.5006ZM20.5676 19.4139L19.8378 19.5867L20.5676 19.4139ZM14.3281 15.3987L13.9261 14.7656L13.1537 15.256L13.7861 15.9171L14.3281 15.3987ZM16.1595 19.5074L15.4173 19.6156L16.1595 19.5074ZM19.659 19.7506H15.2629V21.2506H19.659V19.7506ZM19.8378 19.5867C19.8441 19.6135 19.8422 19.6311 19.8392 19.6428C19.8359 19.6558 19.8289 19.6709 19.8155 19.6866C19.7884 19.7184 19.7361 19.7506 19.659 19.7506V21.2506C20.6745 21.2506 21.5587 20.3447 21.2974 19.2411L19.8378 19.5867ZM16.2479 15.6055C17.3642 15.6055 18.1428 16.1616 18.7199 16.9593C19.3123 17.7779 19.6532 18.8073 19.8378 19.5867L21.2974 19.2411C21.0936 18.3804 20.6954 17.1306 19.9352 16.08C19.1599 15.0085 17.9727 14.1055 16.2479 14.1055V15.6055ZM14.7301 16.0319C15.1414 15.7708 15.6357 15.6055 16.2479 15.6055V14.1055C15.3443 14.1055 14.5721 14.3554 13.9261 14.7656L14.7301 16.0319ZM13.7861 15.9171C14.8595 17.0393 15.2683 18.5935 15.4173 19.6156L16.9016 19.3992C16.7362 18.2646 16.2641 16.3378 14.8701 14.8803L13.7861 15.9171ZM15.4173 19.6156C15.4206 19.6381 15.4179 19.6519 15.4151 19.6606C15.412 19.6703 15.4059 19.6821 15.3942 19.6948C15.3701 19.7208 15.3223 19.7496 15.2511 19.7507L15.2747 21.2505C16.209 21.2358 17.0546 20.4482 16.9016 19.3992L15.4173 19.6156Z" fill="white"/>
<rect x="20.25" y="5.25" width="4.5" height="0.5" rx="0.25" stroke="white" stroke-width="0.5" stroke-linecap="round"/>
<rect x="22.75" y="3.25" width="5.5" height="0.5" rx="0.25" transform="rotate(90 22.75 3.25)" stroke="white" stroke-width="0.5" stroke-linecap="round"/>
</svg>
